<?xml version="1.0" encoding="utf-8"?>
<svg version="1.1" id="Calque_1" xmlns="http://www.w3.org/2000/svg" xmlns:xlink="http://www.w3.org/1999/xlink" x="0px" y="0px"
	 width="260px" height="170px" viewBox="0 0 260 170" enable-background="new 0 0 260 170" xml:space="preserve">

<g fill="none" stroke="black" stroke-width="9.8079" stroke-linecap="round" stroke-linejoin="round" stroke-miterlimit="3">
	<polygon points="44.182,150.194 44.182,121.849 68.7,136.022"/>
	<polygon points="127.548,73.657 152.068,59.487 152.068,87.833"/>
	<polygon points="161.869,53.819 186.388,39.647 186.388,67.993"/>
	<line x1="78.505" y1="84.997" x2="78.505" y2="130.353"/>
	<line x1="93.22" y1="76.495" x2="93.22" y2="121.851"/>
	<polyline points="201.106,59.487 201.106,31.14 210.912,25.47 220.72,31.14 220.72,48.146"/>
	<polygon points="235.434,11.298 235.434,28.306 245.242,33.974 255.051,28.306 255.049,11.298 245.242,5.63"/>
	<polyline points="4.949,144.524 4.949,155.866 19.66,164.37 19.66,153.03 29.469,158.7 29.469,130.353"/>
	<line x1="107.933" y1="96.337" x2="122.646" y2="87.833"/>
</g>

</svg>
