<?xml version="1.0" encoding="utf-8"?>
<svg version="1.1" id="Calque_1" xmlns="http://www.w3.org/2000/svg" xmlns:xlink="http://www.w3.org/1999/xlink" x="0px" y="0px"
	 width="2000px" height="1000px" viewBox="0 0 2000 1000" enable-background="new 0 0 2000 1000" xml:space="preserve">
<g id="help">
	<rect x="3517.519" y="-56" fill="none" width="312.002" height="1118"/>
	<rect x="0" y="-56" fill="none" width="312.003" height="1118"/>
	<rect x="1758.76" y="-56" fill="none" width="312.002" height="1118"/>
</g>
<g id="light" fill="none" stroke="blue">
	<line x1="938.474" y1="997.7" x2="935.523" y2="997.7"/>
	<line x1="1356.621" y1="953.9" x2="1344.801" y2="953.9"/>
	<path d="M828.892,866.349h-41.366"/>
	<line x1="1206.156" y1="857.6" x2="1191.385" y2="857.6"/>
	<line x1="1140.406" y1="734.9" x2="1119.721" y2="734.9"/>
	<path d="M1515.949,691.165h-17.73"/>
	<line x1="1187.195" y1="682.4" x2="1175.375" y2="682.4"/>
	<line x1="588.552" y1="682.4" x2="576.728" y2="682.4"/>
	<line x1="1438.377" y1="664.9" x2="1429.514" y2="664.9"/>
	<line x1="1219.209" y1="621.1" x2="1210.344" y2="621.1"/>
	<path d="M1475.068,559.773h-32.504"/>
	<line x1="314.958" y1="533.5" x2="312.003" y2="533.5"/>
	<line x1="1273.141" y1="454.7" x2="1258.4" y2="454.7"/>
	<line x1="446.949" y1="402.1" x2="435.131" y2="402.1"/>
	<line x1="1017.766" y1="375.8" x2="985.262" y2="375.8"/>
	<path d="M875.679,358.313h-11.817"/>
	<path d="M512.701,358.313h-20.685"/>
	<line x1="1254.177" y1="340.8" x2="1248.264" y2="340.8"/>
	<line x1="931.334" y1="323.3" x2="916.558" y2="323.3"/>
	<line x1="1697.193" y1="314.5" x2="1676.508" y2="314.5"/>
	<line x1="1588.842" y1="296.9" x2="1571.109" y2="296.9"/>
	<path d="M1340.611,279.479h-32.506"/>
	<line x1="360.513" y1="218.2" x2="319.147" y2="218.2"/>
	<line x1="1171.184" y1="218.2" x2="1144.594" y2="218.2"/>
	<line x1="1244.08" y1="165.6" x2="1223.396" y2="165.6"/>
	<path d="M1030.822,130.569h-8.865"/>
	<line x1="1758.76" y1="104.3" x2="1726.254" y2="104.3"/>
	<line x1="1613.711" y1="78" x2="1593.029" y2="78"/>
	<line x1="724.726" y1="34.2" x2="707" y2="34.2"/>
	<line x1="535.849" y1="25.5" x2="524.033" y2="25.5"/>
	<line x1="385.385" y1="7.9" x2="364.707" y2="7.9"/>
	<path d="M430.943,866.35h-41.371"/>
	<line x1="1375.582" y1="857.6" x2="1360.805" y2="857.6"/>
	<line x1="1055.691" y1="734.9" x2="1035.01" y2="734.9"/>
	<path d="M981.078,708.683h-38.412"/>
	<path d="M1537.863,691.165h-17.73"/>
	<line x1="1553.873" y1="682.4" x2="1542.053" y2="682.4"/>
	<line x1="702.81" y1="682.4" x2="690.992" y2="682.4"/>
	<path d="M1650.404,577.294h-32.502"/>
	<path d="M783.336,559.773h-32.502"/>
	<line x1="519.844" y1="533.5" x2="516.886" y2="533.5"/>
	<line x1="634.105" y1="489.7" x2="592.7" y2="489.7"/>
	<line x1="1494.029" y1="454.7" x2="1479.256" y2="454.7"/>
	<line x1="462.959" y1="402.1" x2="451.136" y2="402.1"/>
	<line x1="572.541" y1="375.8" x2="540.041" y2="375.8"/>
	<path d="M1115.535,358.313h-11.816"/>
	<path d="M487.828,358.313h-20.687"/>
	<line x1="1074.656" y1="323.3" x2="1059.883" y2="323.3"/>
	<line x1="1425.326" y1="314.5" x2="1404.641" y2="314.5"/>
	<line x1="1303.92" y1="314.5" x2="1277.328" y2="314.5"/>
	<line x1="1672.318" y1="296.9" x2="1654.592" y2="296.9"/>
	<path d="M686.804,279.479h-32.503"/>
	<line x1="859.674" y1="218.2" x2="833.082" y2="218.2"/>
	<line x1="1099.527" y1="165.6" x2="1078.844" y2="165.6"/>
	<path d="M1566.924,130.569h-8.863"/>
	<line x1="912.371" y1="104.3" x2="879.869" y2="104.3"/>
	<line x1="1400.455" y1="78" x2="1379.768" y2="78"/>
	<line x1="1722.064" y1="51.7" x2="1701.381" y2="51.7"/>
	<line x1="746.644" y1="34.2" x2="728.916" y2="34.2"/>
	<line x1="650.115" y1="25.5" x2="638.291" y2="25.5"/>
	<path d="M637.494,988.98H610.9"/>
	<path d="M575.929,945.188h-38.416"/>
	<path d="M397.64,875.111h-38.414"/>
	<line x1="799.773" y1="656.1" x2="773.179" y2="656.1"/>
	<line x1="472.256" y1="323.3" x2="460.435" y2="323.3"/>
	<line x1="647.592" y1="296.9" x2="641.677" y2="296.9"/>
	<path d="M336.082,209.403h-14.776"/>
	<line x1="533.328" y1="200.7" x2="521.51" y2="200.7"/>
	<line x1="456.252" y1="174.4" x2="444.427" y2="174.4"/>
	<line x1="679.603" y1="113.1" x2="667.787" y2="113.1"/>
	<line x1="768.994" y1="60.5" x2="757.176" y2="60.5"/>
	<path d="M722.205,778.757h-38.414"/>
	<path d="M606.711,726.201h-26.594"/>
	<line x1="488.261" y1="612.3" x2="476.447" y2="612.3"/>
	<line x1="317.118" y1="480.9" x2="302.344" y2="480.9"/>
	<line x1="498.359" y1="402.1" x2="492.451" y2="402.1"/>
	<path d="M517.324,209.403h-14.773"/>
	<line x1="752.984" y1="104.3" x2="726.39" y2="104.3"/>
	<line x1="355.043" y1="95.5" x2="340.266" y2="95.5"/>
	<line x1="440.244" y1="86.8" x2="401.83" y2="86.8"/>
	<line x1="663.597" y1="78" x2="651.781" y2="78"/>
	<line x1="2073.717" y1="533.5" x2="2070.76" y2="533.5"/>
	<line x1="1861.197" y1="997.7" x2="1858.244" y2="997.7"/>
	<path d="M1808.502,901.387h-20.688"/>
	<line x1="1783.629" y1="296.9" x2="1762.945" y2="296.9"/>
	<line x1="1886.068" y1="148.1" x2="1865.385" y2="148.1"/>
	<line x1="1854.053" y1="113.1" x2="1812.685" y2="113.1"/>
	<path d="M1864.648,901.389h-32.506"/>
	<line x1="1791.262" y1="734.9" x2="1758.76" y2="734.9"/>
	<line x1="1980.139" y1="454.7" x2="1968.322" y2="454.7"/>
	<line x1="1827.957" y1="270.7" x2="1795.455" y2="270.7"/>
	<line x1="1964.135" y1="165.6" x2="1943.451" y2="165.6"/>
	<line x1="1939.262" y1="7.9" x2="1918.576" y2="7.9"/>
	<line x1="2041.705" y1="454.7" x2="2029.885" y2="454.7"/>
	<line x1="2025.697" y1="218.2" x2="1984.326" y2="218.2"/>
	<line x1="1914.389" y1="165.6" x2="1893.707" y2="165.6"/>
	<line x1="1889.519" y1="7.9" x2="1868.834" y2="7.9"/>
	<line x1="2066.574" y1="7.9" x2="2045.889" y2="7.9"/>
	<line x1="1847.844" y1="936.4" x2="1844.9" y2="936.4"/>
	<line x1="1925.414" y1="612.3" x2="1913.594" y2="612.3"/>
	<line x1="1866.805" y1="480.9" x2="1852.031" y2="480.9"/>
	<line x1="2056.914" y1="226.9" x2="2036.23" y2="226.9"/>
	<line x1="1985.256" y1="95.5" x2="1970.482" y2="95.5"/>
	<line x1="2001.26" y1="78" x2="1989.443" y2="78"/>
	<path d="M1840.703,988.98h-26.594"/>
	<line x1="2032.043" y1="656.1" x2="2005.449" y2="656.1"/>
	<path d="M1909.408,603.571h-38.414"/>
	<path d="M1793.914,586.055h-35.154"/>
	<line x1="2075.877" y1="480.9" x2="2061.103" y2="480.9"/>
	<line x1="1809.922" y1="428.4" x2="1798.1" y2="428.4"/>
	<line x1="1950.285" y1="226.9" x2="1929.6" y2="226.9"/>
	<line x1="1966.293" y1="226.9" x2="1954.473" y2="226.9"/>
	<line x1="102.438" y1="997.7" x2="99.485" y2="997.7"/>
	<path d="M49.743,901.387H29.055"/>
	<line x1="24.869" y1="296.9" x2="4.186" y2="296.9"/>
	<line x1="127.309" y1="148.1" x2="106.626" y2="148.1"/>
	<line x1="95.295" y1="113.1" x2="53.927" y2="113.1"/>
	<path d="M105.889,901.389H73.384"/>
	<line x1="32.505" y1="734.9" x2="0" y2="734.9"/>
	<line x1="221.382" y1="454.7" x2="209.562" y2="454.7"/>
	<line x1="69.197" y1="270.7" x2="36.695" y2="270.7"/>
	<line x1="205.375" y1="165.6" x2="184.691" y2="165.6"/>
	<line x1="180.504" y1="7.9" x2="159.816" y2="7.9"/>
	<line x1="282.945" y1="454.7" x2="271.128" y2="454.7"/>
	<line x1="266.938" y1="218.2" x2="225.567" y2="218.2"/>
	<line x1="155.631" y1="165.6" x2="134.947" y2="165.6"/>
	<line x1="130.76" y1="7.9" x2="110.074" y2="7.9"/>
	<line x1="307.814" y1="7.9" x2="287.131" y2="7.9"/>
	<line x1="89.085" y1="936.4" x2="86.13" y2="936.4"/>
	<line x1="166.654" y1="612.3" x2="154.837" y2="612.3"/>
	<line x1="108.048" y1="480.9" x2="93.272" y2="480.9"/>
	<line x1="298.154" y1="226.9" x2="277.472" y2="226.9"/>
	<line x1="226.497" y1="95.5" x2="211.723" y2="95.5"/>
	<line x1="242.503" y1="78" x2="230.685" y2="78"/>
	<path d="M81.944,988.98H55.349"/>
	<line x1="273.283" y1="656.1" x2="246.689" y2="656.1"/>
	<path d="M150.648,603.571h-38.413"/>
	<path d="M35.155,586.055H0"/>
	<line x1="317.118" y1="480.9" x2="302.344" y2="480.9"/>
	<line x1="51.162" y1="428.4" x2="39.343" y2="428.4"/>
	<line x1="191.525" y1="226.9" x2="170.842" y2="226.9"/>
	<line x1="207.533" y1="226.9" x2="195.716" y2="226.9"/>
	<line x1="2697.234" y1="997.7" x2="2694.283" y2="997.7"/>
	<line x1="3115.381" y1="953.9" x2="3103.56" y2="953.9"/>
	<path d="M2587.652,866.349h-41.366"/>
	<line x1="2964.916" y1="857.6" x2="2950.144" y2="857.6"/>
	<line x1="2899.166" y1="734.9" x2="2878.482" y2="734.9"/>
	<path d="M3274.709,691.165h-17.73"/>
	<line x1="2945.955" y1="682.4" x2="2934.135" y2="682.4"/>
	<line x1="2347.312" y1="682.4" x2="2335.488" y2="682.4"/>
	<line x1="3197.135" y1="664.9" x2="3188.275" y2="664.9"/>
	<line x1="2977.969" y1="621.1" x2="2969.105" y2="621.1"/>
	<path d="M3233.828,559.773h-32.504"/>
	<line x1="3031.902" y1="454.7" x2="3017.125" y2="454.7"/>
	<line x1="2205.709" y1="402.1" x2="2193.889" y2="402.1"/>
	<line x1="2776.527" y1="375.8" x2="2744.023" y2="375.8"/>
	<path d="M2634.439,358.313h-11.817"/>
	<path d="M2271.461,358.313h-20.685"/>
	<line x1="3012.937" y1="340.8" x2="3007.025" y2="340.8"/>
	<line x1="2690.094" y1="323.3" x2="2675.318" y2="323.3"/>
	<line x1="3455.953" y1="314.5" x2="3435.267" y2="314.5"/>
	<line x1="3347.601" y1="296.9" x2="3329.869" y2="296.9"/>
	<path d="M3099.371,279.479h-32.506"/>
	<line x1="2119.273" y1="218.2" x2="2077.907" y2="218.2"/>
	<line x1="2929.945" y1="218.2" x2="2903.353" y2="218.2"/>
	<line x1="3002.84" y1="165.6" x2="2982.156" y2="165.6"/>
	<path d="M2789.582,130.569h-8.865"/>
	<line x1="3517.519" y1="104.3" x2="3485.012" y2="104.3"/>
	<line x1="3372.469" y1="78" x2="3351.789" y2="78"/>
	<line x1="2483.486" y1="34.2" x2="2465.76" y2="34.2"/>
	<line x1="2294.609" y1="25.5" x2="2282.793" y2="25.5"/>
	<line x1="2144.146" y1="7.9" x2="2123.467" y2="7.9"/>
	<path d="M2189.703,866.35h-41.371"/>
	<line x1="3134.342" y1="857.6" x2="3119.566" y2="857.6"/>
	<line x1="2814.451" y1="734.9" x2="2793.769" y2="734.9"/>
	<path d="M2739.838,708.683h-38.412"/>
	<path d="M3296.623,691.165h-17.73"/>
	<line x1="3312.633" y1="682.4" x2="3300.814" y2="682.4"/>
	<line x1="2461.57" y1="682.4" x2="2449.752" y2="682.4"/>
	<path d="M3409.164,577.294h-32.502"/>
	<path d="M2542.094,559.773h-32.502"/>
	<line x1="2278.603" y1="533.5" x2="2275.7" y2="533.5"/>
	<line x1="2392.865" y1="489.7" x2="2351.498" y2="489.7"/>
	<line x1="3252.789" y1="454.7" x2="3238" y2="454.7"/>
	<line x1="2221.7" y1="402.1" x2="2209.896" y2="402.1"/>
	<line x1="2331.301" y1="375.8" x2="2298.801" y2="375.8"/>
	<path d="M2874.295,358.313h-11.816"/>
	<path d="M2246.588,358.313h-20.687"/>
	<line x1="2833.416" y1="323.3" x2="2818.642" y2="323.3"/>
	<line x1="3184.086" y1="314.5" x2="3163.402" y2="314.5"/>
	<line x1="3062.678" y1="314.5" x2="3036.088" y2="314.5"/>
	<line x1="3431.078" y1="296.9" x2="3413.351" y2="296.9"/>
	<path d="M2445.564,279.479h-32.502"/>
	<line x1="2618.432" y1="218.2" x2="2591.842" y2="218.2"/>
	<line x1="2858.287" y1="165.6" x2="2837.603" y2="165.6"/>
	<path d="M3325.683,130.569h-8.863"/>
	<line x1="2671.131" y1="104.3" x2="2638.629" y2="104.3"/>
	<line x1="3159.215" y1="78" x2="3138.529" y2="78"/>
	<line x1="3480.824" y1="51.7" x2="3460.139" y2="51.7"/>
	<line x1="2505.404" y1="34.2" x2="2487.676" y2="34.2"/>
	<line x1="2408.875" y1="25.5" x2="2397.051" y2="25.5"/>
	<path d="M2396.254,988.98h-26.594"/>
	<path d="M2334.689,945.188h-38.416"/>
	<path d="M2156.4,875.111h-38.414"/>
	<line x1="2558.533" y1="656.1" x2="2531.939" y2="656.1"/>
	<line x1="2231" y1="323.3" x2="2219.195" y2="323.3"/>
	<line x1="2406.35" y1="296.9" x2="2400.437" y2="296.9"/>
	<path d="M2094.842,209.403h-14.776"/>
	<line x1="2292.088" y1="200.7" x2="2280.269" y2="200.7"/>
	<line x1="2215.01" y1="174.4" x2="2203.187" y2="174.4"/>
	<line x1="2438.363" y1="113.1" x2="2426.547" y2="113.1"/>
	<line x1="2527.754" y1="60.5" x2="2515.935" y2="60.5"/>
	<path d="M2480.965,778.757h-38.414"/>
	<path d="M2365.469,726.201h-26.594"/>
	<line x1="2247.021" y1="612.3" x2="2235.207" y2="612.3"/>
	<line x1="2257.119" y1="402.1" x2="2251.211" y2="402.1"/>
	<path d="M2276.084,209.403h-14.773"/>
	<line x1="2511.744" y1="104.3" x2="2485.15" y2="104.3"/>
	<line x1="2113.802" y1="95.5" x2="2099.026" y2="95.5"/>
	<line x1="2199.004" y1="86.8" x2="2160.59" y2="86.8"/>
	<line x1="2422.357" y1="78" x2="2410.541" y2="78"/>
	<line x1="3832.476" y1="533.5" x2="3829.521" y2="533.5"/>
	<line x1="3619.957" y1="997.7" x2="3617.004" y2="997.7"/>
	<path d="M3567.26,901.387h-20.688"/>
	<line x1="3542.4" y1="296.9" x2="3521.705" y2="296.9"/>
	<line x1="3644.828" y1="148.1" x2="3624.144" y2="148.1"/>
	<line x1="3612.814" y1="113.1" x2="3571.445" y2="113.1"/>
	<path d="M3623.408,901.389h-32.505"/>
	<line x1="3550.023" y1="734.9" x2="3517.519" y2="734.9"/>
	<line x1="3738.9" y1="454.7" x2="3727.082" y2="454.7"/>
	<line x1="3586.717" y1="270.7" x2="3554.215" y2="270.7"/>
	<line x1="3722.894" y1="165.6" x2="3702.211" y2="165.6"/>
	<line x1="3698.023" y1="7.9" x2="3677.336" y2="7.9"/>
	<line x1="3800.465" y1="454.7" x2="3788.7" y2="454.7"/>
	<line x1="3784.5" y1="218.2" x2="3743.086" y2="218.2"/>
	<line x1="3673.15" y1="165.6" x2="3652.467" y2="165.6"/>
	<line x1="3648.279" y1="7.9" x2="3627.594" y2="7.9"/>
	<line x1="3825.334" y1="7.9" x2="3804.65" y2="7.9"/>
	<line x1="3606.603" y1="936.4" x2="3603.648" y2="936.4"/>
	<line x1="3684.174" y1="612.3" x2="3672.355" y2="612.3"/>
	<line x1="3625.566" y1="480.9" x2="3610.8" y2="480.9"/>
	<line x1="3815.674" y1="226.9" x2="3794.99" y2="226.9"/>
	<line x1="3744" y1="95.5" x2="3729.242" y2="95.5"/>
	<line x1="3760.021" y1="78" x2="3748.203" y2="78"/>
	<path d="M3599.463,988.98h-26.594"/>
	<line x1="3790.802" y1="656.1" x2="3764.209" y2="656.1"/>
	<path d="M3668.168,603.571h-38.414"/>
	<path d="M3552.674,586.055h-35.154"/>
	<line x1="3834.635" y1="480.9" x2="3819.863" y2="480.9"/>
	<line x1="3568.68" y1="428.4" x2="3556.861" y2="428.4"/>
	<line x1="3709.045" y1="226.9" x2="3688.361" y2="226.9"/>
	<line x1="3725.052" y1="226.9" x2="3713.234" y2="226.9"/>
</g>
<animateTransform
	type="translate"
	fill="remove"
	restart="always"
	begin="0s"
	to="-1758.76 0"
	dur="5s"
	from="0 0"
	calcMode="linear"
	additive="replace"
	accumulate="none"
	repeatCount="indefinite"
	attributeName="transform">
</animateTransform>
</svg>
