<?xml version="1.0" encoding="utf-8"?>
<svg version="1.1" id="lightnanosecond_ruler_len1" xmlns="http://www.w3.org/2000/svg" xmlns:xlink="http://www.w3.org/1999/xlink"
 x="0px" y="0px" width="1127px" height="114px" viewBox="0 0 1127 114" enable-background="new 0 0 1127 114" xml:space="preserve"
>
<g fill="none" stroke="black" stroke-width="3" stroke-linecap="round" stroke-linejoin="round" stroke-miterlimit="3" >

	<polygon id="contour" points="1.917,1.724 1106.66,1.724 1106.66,40.416 1125.084,29.361 1125.084,84.636 1106.66,73.581 1106.66,112.276 1.917,112.276"/>

	<polyline id="un1" points="49.823,90.667 55.853,90.667 52.835,90.667 52.835,78.601 49.823,81.62"/>

	<polyline id="slash" points="63.928,90.667 66.944,87.649 66.944,81.62 69.962,78.601"/>

	<polyline id="trois3" points="78.04,78.601 81.056,78.601 84.071,81.62 81.056,84.636 84.071,87.649 81.056,90.667 78.04,90.667"/>
	<polyline id="un1_2" points="89.363,90.667 95.396,90.667 92.378,90.667 92.378,78.601 89.363,81.62"/>
	<polyline id="cinq5_1" points="113.543,78.601 107.513,78.601 107.513,81.62 113.543,87.649 110.529,90.667 107.513,90.667"/>
	<polyline id="cinq5_2" points="124.866,78.601 118.834,78.601 118.834,81.62 124.866,87.649 121.853,90.667 118.834,90.667"/>
	<polyline id="sept7" points="130.16,78.601 136.19,78.601 136.19,81.62 133.176,84.636 133.176,90.667"/>
	<polyline id="six6" points="151.325,78.601 148.308,81.62 148.308,87.649 151.325,90.667 154.339,87.649 151.325,84.636 148.308,87.649"/>
	<polygon id="zero01" points="162.647,78.601 165.665,81.62 165.665,87.649 162.647,90.667 159.631,87.649 159.631,81.62"/>
	<polygon id="zero02" points="173.972,78.601 176.986,81.62 176.986,87.649 173.972,90.667 170.955,87.649 170.955,81.62"/>
	<polygon id="zero03" points="192.12,78.601 195.137,81.62 195.137,87.649 192.12,90.667 189.104,87.649 189.104,81.62"/>
	<polygon id="zero04" points="203.443,78.601 206.459,81.62 206.459,87.649 203.443,90.667 200.426,87.649 200.426,81.62"/>
	<polygon id="zero05" points="214.766,78.601 217.785,81.62 217.785,87.649 214.766,90.667 211.749,87.649 211.749,81.62"/>
	<polygon id="zero06" points="232.916,78.601 235.933,81.62 235.933,87.649 232.916,90.667 229.897,87.649 229.897,81.62"/>
	<polygon id="zero07" points="244.238,78.601 247.254,81.62 247.254,87.649 244.238,90.667 241.223,87.649 241.223,81.62"/>
	<polygon id="zero08" points="255.562,78.601 258.58,81.62 258.58,87.649 255.562,90.667 252.546,87.649 252.546,81.62"/>
	<polygon id="zero09" points="273.709,78.601 276.726,81.62 276.726,87.649 273.709,90.667 270.694,87.649 270.694,81.62"/>
	<polygon id="zero010" points="285.035,78.601 288.05,81.62 288.05,87.649 285.035,90.667 282.018,87.649 282.018,81.62"/>
	<polygon id="zero011" points="296.357,78.601 299.375,81.62 299.375,87.649 296.357,90.667 293.342,87.649 293.342,81.62"/>

	<polyline id="l" points="311.492,78.601 311.492,87.649 314.504,90.667"/>
	<polyline id="n" points="319.797,90.667 319.797,84.636 322.815,84.636 325.829,87.649 325.829,90.667"/>
	<polyline id="s" points="331.122,90.667 334.14,90.667 334.14,84.636 337.153,84.636"/>
</g>
</svg>
