<?xml version="1.0" encoding="utf-8"?>
<svg version="1.1" xmlns="http://www.w3.org/2000/svg" xmlns:xlink="http://www.w3.org/1999/xlink" x="0px" y="0px"
	 width="171.999px" height="44px" viewBox="0 0 171.999 44" enable-background="new 0 0 171.999 44" xml:space="preserve">
<g id="help" fill="#D0D0D0" width="12" height="20">
	<rect x="80" y="89.75"/>
	<rect x="96" y="65.75"/>
	<rect x="16" y="65.75"/>
	<rect x="0" y="65.75"/>
	<rect x="96" y="89.75"/>
	<rect x="0" y="89.75"/>
	<rect x="32" y="89.75"/>
	<rect x="128" y="65.75"/>
	<rect x="128" y="89.75"/>
	<rect x="16" y="89.75"/>
	<rect x="32" y="65.75"/>
	<rect x="48" y="65.75"/>
	<rect x="64" y="65.75"/>
	<rect x="112" y="65.75"/>
	<rect x="160" y="89.75"/>
	<rect x="48" y="89.75"/>
	<rect x="112" y="89.75"/>
	<rect x="144" y="89.75"/>
	<rect x="80" y="65.75"/>
	<rect x="64" y="89.75"/>
</g>
<g id="letters" fill="black">
	<polygon points="88,36 84,36 84,28 80,28 80,44 84,44 84,40 88,40 88,44 92,44 92,28 88,28"/>
	<rect x="8" width="4" height="16"/>
	<polygon points="40,16 36,16 36,0 32,0 32,20 44,20 44,0 40,0"/>
	<rect x="64" width="4" height="16"/>
	<rect x="72" width="4" height="16"/>
	<rect x="84" y="24" width="4" height="4"/>
	<rect x="68" y="16" width="4" height="4"/>
	<rect x="128" y="28" width="4" height="4"/>
	<rect x="132" y="32" width="4" height="4"/>
	<rect x="136" y="36" width="4" height="4"/>
	<polygon points="32,24 32,44 36,44 36,28 40,28 40,24"/>
	<polygon points="136,4 136,0 128,0 128,16 132,16 132,4"/>
	<rect x="104" y="4" width="4" height="12"/>
	<polygon points="100,4 104,4 104,0 96,0 96,20 104,20 104,16 100,16"/>
	<polygon points="8,28 4,28 4,24 0,24 0,44 4,44 4,36 8,36 8,44 12,44 12,24 8,24"/>
	<rect x="0" y="16" width="8" height="4"/>
	<rect x="132" y="24" width="8" height="4"/>
	<rect x="128" y="40" width="8" height="4"/>
	<rect x="96" y="24" width="4" height="16"/>
	<rect x="40" y="28" width="4" height="16"/>
	<polygon points="136,16 132,16 132,20 140,20 140,4 136,4"/>
	<rect x="100" y="40" width="8" height="4"/>
	<polygon points="20,12 24,12 24,8 20,8 20,4 16,4 16,16 20,16"/>
	<rect x="20" y="16" width="8" height="4"/>
	<rect x="20" width="8" height="4"/>
	<polygon points="116,12 120,12 120,8 116,8 116,4 112,4 112,16 116,16"/>
	<rect x="116" y="16" width="8" height="4"/>
	<rect x="116" width="8" height="4"/>
	<polygon points="160,28 160,40 164,40 164,36 168,36 168,32 164,32 164,28"/>
	<rect x="164" y="40" width="8" height="4"/>
	<rect x="164" y="24" width="8" height="4"/>
	<polygon points="16,28 20,28 20,40 16,40 16,44 20,44 24,44 28,44 28,40 24,40 24,28 28,28 28,24 16,24"/>
	<polygon points="48,28 52,28 52,40 48,40 48,44 52,44 56,44 60,44 60,40 56,40 56,28 60,28 60,24 48,24"/>
	<polygon points="112,28 116,28 116,40 112,40 112,44 124,44 124,40 120,40 120,28 124,28 124,24 112,24"/>
	<polygon points="144,28 148,28 148,44 152,44 152,28 156,28 156,24 144,24"/>
	<polygon points="80,4 84,4 84,16 80,16 80,20 92,20 92,16 88,16 88,4 92,4 92,0 80,0"/>
	<polygon points="72,28 68,28 68,24 64,24 64,44 68,44 68,36 72,36 72,44 76,44 76,24 72,24"/>
</g>
</svg>
