<?xml version="1.0" encoding="utf-8"?>
<svg version="1.1" xmlns="http://www.w3.org/2000/svg" xmlns:xlink="http://www.w3.org/1999/xlink" x="0px" y="0px" width="260px" height="190px" viewBox="0 0 260 190" enable-background="new 0 0 260 190" xml:space="preserve">
<g id="black" fill="black">
	<path d="M130.004,88.114l43.991,54.57c-12.028,9.708-27.331,15.521-43.991,15.521c-16.662,0-31.965-5.813-43.993-15.522L130.004,88.114z"/>
	<polygon points="118.727,173.195 86.002,173.199 86.002,182.973 118.72,182.973 	"/>
	<polygon points="141.273,182.99 174.003,182.986 174.003,173.209 141.277,173.211 	"/>
</g>

<g id="lines">
	<g id="linesB" fill="none" stroke="black" stroke-linecap="round" stroke-linejoin="round">
		<polygon points="206.726,173.209 141.279,173.215 141.273,182.994 206.72,182.984"/>
		<polygon points="53.273,182.975 118.72,182.969 118.727,173.191 53.278,173.199"/>
		<circle cx="130.004" cy="88.114" r="70.091"/>
		<path d="M164.296,130.654c2.976-2.404,5.74-5.156,8.238-8.254
		c18.937-23.488,15.244-57.882-8.244-76.818c-23.487-18.937-57.882-15.245-76.817,8.244c-18.938,23.489-15.246,57.883,8.243,76.818"/>
		<line x1="130.008" y1="29.62" x2="133.099" y2="29.62"/>
		<line x1="130.008" y1="25.754" x2="135.163" y2="25.754"/>
		<line x1="130.008" y1="21.889" x2="133.099" y2="21.889"/>
		<path stroke-dasharray="5,5" d="M169.152,136.674
		c52.158-42.052,14.037-118.649-39.153-118.649S38.705,94.611,90.862,136.663"/>
	</g>

	<g id="linesW" fill="none" stroke="white" stroke-linecap="round" stroke-linejoin="round">
		<line x1="129.999" y1="146.611" x2="126.906" y2="146.611"/>
		<line x1="129.999" y1="150.477" x2="124.843" y2="150.477"/>
		<line x1="129.999" y1="154.342" x2="126.906" y2="154.342"/>
		<path d="M164.296,130.654c-19.578,15.813-48.188,16.43-68.581-0.01"/>
		<path stroke-dasharray="5,5" d="M90.862,136.662
		c6.688,5.391,18.405,6.084,39.146,6.084s32.455-0.682,39.143-6.072"/>
	</g>
</g>

<g id="text">
	<g id="textW" fill="white">
		<path d="M139.247,133.213c0.084,0.055,0.135,0.129,0.152,0.229l0.139,0.716c0.021,0.1,0,0.19-0.057,0.272
			c-0.056,0.082-0.133,0.133-0.232,0.15c-0.102,0.02-0.19,0.002-0.272-0.055c-0.082-0.058-0.134-0.133-0.152-0.232l-0.107-0.564
			l-0.424-0.289l-0.289,0.427l0.105,0.563c0.021,0.101,0.002,0.189-0.055,0.273c-0.058,0.08-0.134,0.131-0.234,0.15
			c-0.1,0.02-0.189,0-0.271-0.056c-0.082-0.057-0.133-0.135-0.151-0.233l-0.545-2.855c-0.021-0.102,0-0.191,0.055-0.273
			c0.057-0.082,0.135-0.133,0.234-0.151c0.099-0.019,0.188,0,0.272,0.057c0.08,0.056,0.133,0.134,0.15,0.232l0.244,1.278
			l0.088-0.121c0.053-0.084,0.129-0.137,0.229-0.153c0.101-0.021,0.188,0,0.271,0.06L139.247,133.213z"/>
		<path d="M134.3,134.588c-0.104,0.014-0.19-0.014-0.268-0.076c-0.08-0.059-0.127-0.139-0.139-0.238
			c-0.013-0.104,0.014-0.19,0.076-0.268l0.635-0.811c0.059-0.08,0.139-0.127,0.24-0.142c0.1-0.012,0.188,0.017,0.266,0.078
			l0.524,0.404l0.412-0.521c0.06-0.08,0.14-0.127,0.238-0.139c0.104-0.014,0.191,0.014,0.269,0.076
			c0.079,0.061,0.127,0.139,0.141,0.24c0.012,0.102-0.016,0.188-0.078,0.266l-0.635,0.811c-0.06,0.08-0.14,0.127-0.24,0.14
			c-0.104,0.014-0.191-0.013-0.264-0.076l-0.527-0.403l-0.412,0.52C134.482,134.529,134.402,134.576,134.3,134.588z"/>
		<path d="M129.76,135.395c-0.07-0.067-0.107-0.153-0.109-0.256l-0.014-0.729c-0.002-0.1,0.032-0.188,0.104-0.256
			l1.169-1.223l-0.369-0.355l-0.575,0.01c-0.103,0.002-0.188-0.031-0.26-0.1c-0.072-0.07-0.107-0.154-0.109-0.256
			c-0.001-0.104,0.031-0.189,0.101-0.263c0.069-0.069,0.154-0.106,0.256-0.108l0.729-0.017c0.102,0,0.188,0.033,0.256,0.105
			l0.74,0.713c0.073,0.065,0.112,0.149,0.114,0.252c0.002,0.104-0.033,0.188-0.104,0.258l-1.319,1.377l0.005,0.211l1.089-0.02
			c0.103-0.005,0.188,0.03,0.263,0.1c0.069,0.068,0.106,0.154,0.108,0.256c0.002,0.104-0.03,0.189-0.102,0.263
			c-0.068,0.069-0.154,0.106-0.256,0.108l-1.455,0.027C129.919,135.498,129.832,135.465,129.76,135.395z"/>
		<path d="M127.643,134.697l0.066-1.664l-0.112,0.098c-0.07,0.068-0.157,0.104-0.26,0.1s-0.186-0.045-0.249-0.118
			c-0.069-0.072-0.104-0.158-0.1-0.261c0.004-0.104,0.043-0.186,0.12-0.25l0.756-0.696c0.116-0.111,0.248-0.134,0.396-0.064
			c0.064,0.033,0.118,0.08,0.157,0.144c0.039,0.061,0.058,0.131,0.055,0.203l-0.104,2.541l0.363,0.016
			c0.103,0.004,0.187,0.043,0.253,0.115c0.067,0.074,0.1,0.16,0.096,0.264c-0.004,0.102-0.042,0.188-0.116,0.254
			c-0.073,0.066-0.159,0.1-0.262,0.094l-1.454-0.059c-0.103-0.004-0.187-0.043-0.253-0.115c-0.066-0.074-0.1-0.16-0.096-0.262
			c0.004-0.104,0.042-0.188,0.116-0.254c0.073-0.068,0.16-0.1,0.262-0.096L127.643,134.697z"/>
		<path d="M122.888,134.934c-0.102-0.016-0.183-0.061-0.242-0.141c-0.062-0.078-0.084-0.168-0.07-0.27l0.194-1.441
			c0.013-0.1,0.061-0.182,0.139-0.242c0.079-0.061,0.17-0.084,0.271-0.068l0.721,0.097c0.101,0.016,0.181,0.062,0.237,0.143
			l0.624,0.818c0.062,0.078,0.088,0.166,0.074,0.269l-0.098,0.721c-0.014,0.102-0.061,0.182-0.139,0.24
			c-0.08,0.062-0.169,0.086-0.271,0.069c-0.102-0.014-0.184-0.062-0.242-0.139c-0.062-0.078-0.084-0.168-0.069-0.271l0.077-0.567
			l-0.443-0.58l-0.209-0.027l-0.146,1.08c-0.015,0.102-0.061,0.182-0.14,0.242C123.078,134.922,122.988,134.945,122.888,134.934z"/>
		<path d="M120.065,133.438c-0.012-0.041-0.013-0.09-0.002-0.144c0.01-0.051,0.027-0.094,0.055-0.129
			c0.023-0.045,0.058-0.078,0.103-0.101l0.852-0.575c0.081-0.06,0.17-0.078,0.271-0.06c0.101,0.021,0.177,0.07,0.229,0.154
			l0.577,0.854c0.092,0.131,0.094,0.267,0.003,0.398c-0.042,0.062-0.097,0.107-0.163,0.137c-0.067,0.029-0.137,0.035-0.208,0.021
			l-0.563-0.109l0.08,0.127c0.059,0.082,0.077,0.172,0.059,0.271c-0.02,0.099-0.071,0.178-0.155,0.229
			c-0.081,0.059-0.171,0.078-0.271,0.062c-0.105-0.021-0.182-0.072-0.229-0.156l-0.575-0.853
			C120.09,133.531,120.07,133.488,120.065,133.438z"/>
		<path d="M119.674,117.33l0.364-0.363l-1.192-1.199c-0.073-0.062-0.109-0.147-0.109-0.256v-0.727
			c0-0.104,0.035-0.189,0.104-0.26c0.069-0.068,0.156-0.104,0.259-0.104h1.455c0.102,0,0.188,0.035,0.258,0.104
			c0.069,0.07,0.104,0.156,0.104,0.26c0,0.102-0.035,0.188-0.104,0.258c-0.07,0.072-0.156,0.105-0.258,0.105h-1.092v0.211
			l1.347,1.354c0.072,0.066,0.108,0.152,0.108,0.254s-0.036,0.188-0.108,0.254l-0.729,0.729c-0.067,0.071-0.152,0.108-0.255,0.108
			h-0.728c-0.103,0-0.188-0.035-0.259-0.104c-0.069-0.07-0.104-0.156-0.104-0.258c0-0.104,0.035-0.189,0.104-0.261
			c0.069-0.067,0.156-0.104,0.259-0.104h0.574L119.674,117.33L119.674,117.33z"/>
		<path d="M125.172,116.713c0.072,0.066,0.108,0.152,0.108,0.254v0.729c0,0.103-0.035,0.188-0.104,0.259
			c-0.069,0.071-0.155,0.104-0.258,0.104s-0.188-0.033-0.259-0.104c-0.069-0.07-0.104-0.156-0.104-0.259v-0.573l-0.364-0.365
			l-0.363,0.365v0.573c0,0.103-0.034,0.188-0.104,0.259c-0.07,0.071-0.156,0.104-0.259,0.104s-0.188-0.033-0.258-0.104
			c-0.069-0.07-0.104-0.156-0.104-0.259v-2.909c0-0.103,0.035-0.188,0.104-0.259c0.069-0.069,0.155-0.104,0.258-0.104
			s0.188,0.035,0.259,0.104c0.069,0.07,0.104,0.156,0.104,0.259v1.303l0.109-0.103c0.067-0.073,0.152-0.108,0.254-0.108
			c0.103,0,0.188,0.035,0.255,0.108L125.172,116.713z"/>
		<path d="M128.189,117.33v-1.666l-0.108,0.104c-0.067,0.072-0.152,0.107-0.256,0.107
			c-0.102,0-0.187-0.035-0.254-0.107c-0.072-0.067-0.108-0.151-0.108-0.256c0-0.102,0.036-0.188,0.108-0.254l0.728-0.727
			c0.111-0.117,0.243-0.145,0.394-0.08c0.067,0.027,0.123,0.072,0.164,0.133c0.041,0.062,0.062,0.129,0.062,0.201v2.545h0.362
			c0.103,0,0.188,0.035,0.259,0.105c0.069,0.069,0.104,0.155,0.104,0.258c0,0.102-0.035,0.188-0.104,0.26
			c-0.069,0.07-0.156,0.104-0.259,0.104h-1.455c-0.102,0-0.188-0.033-0.258-0.104c-0.069-0.07-0.104-0.158-0.104-0.26
			c0-0.103,0.035-0.188,0.104-0.258c0.07-0.07,0.156-0.105,0.258-0.105H128.189z"/>
		<path d="M130.915,117.33v-1.666l-0.106,0.104c-0.068,0.072-0.154,0.107-0.256,0.107
			c-0.103,0-0.188-0.035-0.254-0.107c-0.072-0.067-0.108-0.151-0.108-0.256c0-0.102,0.037-0.188,0.108-0.254l0.727-0.727
			c0.111-0.117,0.244-0.145,0.395-0.08c0.066,0.027,0.123,0.072,0.164,0.133c0.041,0.062,0.062,0.129,0.062,0.201v2.545h0.362
			c0.104,0,0.188,0.035,0.261,0.105c0.069,0.069,0.104,0.155,0.104,0.258c0,0.102-0.033,0.188-0.104,0.26
			c-0.07,0.07-0.156,0.104-0.261,0.104h-1.452c-0.104,0-0.189-0.033-0.259-0.104s-0.104-0.158-0.104-0.26
			c0-0.103,0.035-0.188,0.104-0.258c0.069-0.07,0.155-0.105,0.259-0.105H130.915z"/>
		<path d="M134.915,118.057c-0.102,0-0.188-0.033-0.258-0.104c-0.07-0.071-0.104-0.156-0.104-0.258v-1.455
			c0-0.072,0.021-0.139,0.062-0.201c0.041-0.059,0.096-0.104,0.162-0.133c0.149-0.064,0.281-0.037,0.395,0.08l0.132,0.131
			c0.028-0.068,0.071-0.125,0.131-0.172c0.059-0.047,0.127-0.068,0.211-0.068c0.082,0,0.151,0.021,0.211,0.068
			c0.059,0.047,0.102,0.104,0.131,0.172l0.131-0.131c0.111-0.117,0.242-0.146,0.393-0.08c0.066,0.029,0.123,0.074,0.164,0.133
			c0.041,0.062,0.062,0.129,0.062,0.201v1.455c0,0.102-0.035,0.188-0.105,0.258c-0.069,0.072-0.155,0.104-0.258,0.104
			c-0.104,0-0.188-0.033-0.26-0.104c-0.068-0.07-0.104-0.156-0.104-0.258v-0.574l-0.108,0.102c-0.027,0.039-0.066,0.064-0.117,0.08
			c-0.09,0.039-0.184,0.039-0.272,0c-0.05-0.016-0.089-0.041-0.117-0.08l-0.109-0.102v0.574c0,0.102-0.033,0.188-0.104,0.258
			C135.109,118.025,135.019,118.057,134.915,118.057z"/>
		<path d="M138.007,114.785c0,0.102-0.034,0.188-0.104,0.258c-0.07,0.072-0.156,0.105-0.258,0.105
			c-0.103,0-0.188-0.035-0.258-0.105c-0.07-0.07-0.107-0.156-0.107-0.258c0-0.104,0.037-0.189,0.107-0.26
			c0.069-0.068,0.155-0.104,0.258-0.104c0.102,0,0.188,0.035,0.258,0.104C137.972,114.598,138.007,114.684,138.007,114.785z
			 M137.279,116.238c0-0.103,0.037-0.188,0.107-0.258c0.069-0.07,0.155-0.105,0.258-0.105c0.102,0,0.188,0.035,0.258,0.105
			c0.07,0.069,0.104,0.155,0.104,0.258v1.455c0,0.102-0.034,0.188-0.104,0.26c-0.07,0.07-0.156,0.104-0.258,0.104
			c-0.103,0-0.188-0.033-0.258-0.104c-0.07-0.071-0.107-0.158-0.107-0.26V116.238z"/>
		<path d="M138.915,118.057c-0.102,0-0.188-0.033-0.258-0.104c-0.07-0.071-0.104-0.156-0.104-0.258v-1.455
			c0-0.104,0.034-0.189,0.104-0.258c0.07-0.07,0.156-0.105,0.258-0.105h0.729c0.102,0,0.188,0.035,0.254,0.109l0.729,0.727
			c0.072,0.068,0.107,0.152,0.107,0.254v0.729c0,0.103-0.035,0.188-0.104,0.261c-0.069,0.069-0.155,0.104-0.26,0.104
			c-0.102,0-0.188-0.033-0.258-0.104s-0.105-0.158-0.105-0.261v-0.573l-0.516-0.517h-0.213v1.09c0,0.103-0.033,0.188-0.104,0.261
			C139.105,118.025,139.019,118.057,138.915,118.057z"/>
		<path d="M122.208,123.039c-0.072-0.068-0.108-0.152-0.108-0.254c0-0.104,0.036-0.188,0.108-0.254l0.728-0.729
			c0.062-0.071,0.147-0.108,0.254-0.108h0.364v-1.09c0-0.104,0.034-0.189,0.104-0.261c0.07-0.067,0.156-0.104,0.259-0.104
			s0.188,0.037,0.258,0.104c0.069,0.07,0.104,0.156,0.104,0.261v2.908c0,0.102-0.035,0.188-0.104,0.258
			c-0.069,0.069-0.155,0.104-0.258,0.104h-0.729c-0.105,0-0.19-0.037-0.254-0.108L122.208,123.039z M122.978,122.785l0.363,0.363
			h0.212v-0.729h-0.212L122.978,122.785z"/>
		<path d="M124.854,122.924c-0.021-0.039-0.029-0.086-0.029-0.139c0-0.055,0.01-0.1,0.029-0.139
			c0.015-0.049,0.042-0.088,0.08-0.115l0.728-0.729c0.067-0.071,0.152-0.108,0.255-0.108s0.188,0.037,0.254,0.108l0.729,0.729
			c0.116,0.109,0.144,0.242,0.08,0.393c-0.029,0.066-0.074,0.121-0.134,0.162c-0.062,0.041-0.128,0.062-0.2,0.062h-0.575
			l0.103,0.108c0.073,0.066,0.108,0.152,0.108,0.254c0,0.104-0.035,0.188-0.108,0.255c-0.067,0.073-0.152,0.108-0.254,0.108
			c-0.105,0-0.191-0.035-0.255-0.108l-0.728-0.728C124.896,123.01,124.869,122.971,124.854,122.924z"/>
		<path d="M129.553,123.875c-0.104,0-0.188-0.035-0.259-0.104c-0.069-0.07-0.104-0.156-0.104-0.261v-1.452
			c0-0.104,0.035-0.189,0.104-0.261c0.069-0.067,0.155-0.104,0.259-0.104h0.727c0.103,0,0.188,0.035,0.254,0.107l0.729,0.729
			c0.071,0.065,0.108,0.151,0.108,0.254v0.729c0,0.102-0.035,0.188-0.104,0.258c-0.07,0.069-0.156,0.104-0.259,0.104
			c-0.104,0-0.188-0.035-0.258-0.104c-0.071-0.07-0.104-0.156-0.104-0.258v-0.574l-0.518-0.519h-0.211v1.093
			c0,0.102-0.035,0.188-0.104,0.258C129.743,123.841,129.655,123.875,129.553,123.875z"/>
		<path d="M132.025,123.039c-0.072-0.062-0.107-0.146-0.107-0.254v-0.729c0-0.103,0.033-0.188,0.104-0.261
			c0.069-0.067,0.156-0.104,0.258-0.104c0.104,0,0.189,0.035,0.26,0.104c0.07,0.072,0.105,0.158,0.105,0.261v0.573l0.516,0.519
			h0.211v-1.092c0-0.103,0.035-0.188,0.105-0.261c0.069-0.067,0.155-0.104,0.258-0.104c0.104,0,0.188,0.035,0.258,0.104
			c0.07,0.072,0.105,0.158,0.105,0.261v1.454c0,0.103-0.035,0.188-0.105,0.259c-0.068,0.069-0.154,0.104-0.258,0.104h-0.728
			c-0.106,0-0.19-0.037-0.254-0.108L132.025,123.039z"/>
		<path d="M135.37,120.604c0,0.103-0.033,0.188-0.104,0.258c-0.071,0.07-0.156,0.104-0.261,0.104
			c-0.102,0-0.188-0.032-0.258-0.104c-0.069-0.07-0.104-0.155-0.104-0.258c0-0.104,0.035-0.188,0.104-0.26
			c0.07-0.068,0.156-0.104,0.258-0.104c0.104,0,0.188,0.036,0.261,0.104C135.335,120.416,135.37,120.502,135.37,120.604z
			 M134.644,122.057c0-0.102,0.035-0.188,0.104-0.258c0.068-0.068,0.154-0.104,0.258-0.104c0.103,0,0.188,0.035,0.259,0.104
			c0.069,0.07,0.104,0.156,0.104,0.258v1.455c0,0.104-0.033,0.189-0.104,0.26c-0.07,0.068-0.156,0.104-0.259,0.104
			c-0.104,0-0.188-0.035-0.258-0.104s-0.104-0.155-0.104-0.26V122.057z"/>
		<path d="M136.025,123.039c-0.072-0.062-0.107-0.146-0.107-0.254v-2.182c0-0.104,0.033-0.189,0.104-0.261
			c0.069-0.067,0.156-0.104,0.258-0.104c0.104,0,0.189,0.037,0.26,0.104c0.07,0.07,0.105,0.156,0.105,0.261v0.36h0.362
			c0.103,0,0.188,0.037,0.259,0.104c0.069,0.072,0.104,0.158,0.104,0.259c0,0.103-0.033,0.188-0.104,0.26
			c-0.071,0.071-0.156,0.104-0.259,0.104h-0.362v0.938l0.617,0.625c0.073,0.066,0.106,0.152,0.106,0.254
			c0,0.104-0.033,0.188-0.106,0.255c-0.068,0.073-0.152,0.108-0.255,0.108c-0.106,0-0.19-0.035-0.254-0.108L136.025,123.039z"/>
		<path d="M91.569,179.195l0.001-1.666l-0.108,0.104c-0.067,0.072-0.152,0.107-0.254,0.107s-0.187-0.035-0.253-0.107
			c-0.073-0.068-0.108-0.152-0.108-0.256c0-0.102,0.035-0.186,0.108-0.254l0.727-0.729c0.111-0.115,0.241-0.144,0.392-0.078
			c0.068,0.026,0.123,0.072,0.163,0.135c0.042,0.061,0.062,0.125,0.062,0.199l-0.001,2.545h0.362c0.104,0,0.188,0.035,0.258,0.104
			c0.069,0.068,0.104,0.156,0.104,0.259c0,0.102-0.035,0.188-0.104,0.258c-0.069,0.069-0.155,0.104-0.259,0.104h-1.451
			c-0.103,0-0.188-0.035-0.259-0.104c-0.069-0.068-0.104-0.156-0.104-0.258c0-0.103,0.034-0.188,0.104-0.259
			c0.07-0.069,0.156-0.104,0.259-0.104H91.569z"/>
		<path d="M93.67,179.816c-0.069-0.07-0.104-0.156-0.104-0.26v-0.728c0-0.103,0.036-0.187,0.108-0.254l1.19-1.201
			l-0.362-0.363H93.93c-0.104,0-0.188-0.032-0.259-0.104c-0.069-0.07-0.104-0.156-0.104-0.261c0-0.102,0.035-0.188,0.104-0.258
			s0.155-0.104,0.259-0.104h0.726c0.103,0,0.187,0.037,0.254,0.108l0.727,0.729c0.072,0.067,0.107,0.151,0.107,0.254
			c0,0.104-0.035,0.188-0.107,0.254l-1.345,1.354v0.209h1.089c0.103,0,0.188,0.035,0.258,0.105s0.104,0.156,0.104,0.258
			c0,0.104-0.035,0.188-0.104,0.26c-0.07,0.068-0.156,0.104-0.258,0.104h-1.454C93.826,179.922,93.74,179.887,93.67,179.816z"/>
		<path d="M96.395,180.541c-0.073-0.068-0.109-0.152-0.109-0.256c0-0.102,0.037-0.188,0.109-0.254l0.727-0.729
			c0.067-0.069,0.152-0.106,0.254-0.106s0.187,0.035,0.254,0.106c0.072,0.068,0.108,0.152,0.108,0.255
			c0,0.104-0.037,0.188-0.108,0.256l-0.727,0.729c-0.067,0.072-0.151,0.107-0.254,0.107
			C96.543,180.648,96.458,180.613,96.395,180.541z M97.739,178.104c0,0.104-0.034,0.188-0.104,0.261
			c-0.07,0.067-0.156,0.104-0.259,0.104s-0.188-0.032-0.259-0.104c-0.068-0.07-0.104-0.156-0.104-0.261
			c0-0.102,0.034-0.188,0.104-0.258c0.07-0.07,0.156-0.104,0.259-0.104s0.188,0.034,0.257,0.104
			C97.703,177.916,97.739,178.002,97.739,178.104z"/>
		<path d="M100.352,177.123c0.072,0.068,0.108,0.15,0.108,0.254l-0.001,1.455c0,0.105-0.037,0.191-0.108,0.254
			l-0.727,0.729c-0.067,0.072-0.151,0.107-0.254,0.107c-0.105,0-0.19-0.035-0.255-0.107l-0.726-0.729
			c-0.073-0.062-0.108-0.146-0.108-0.254v-1.455c0-0.104,0.037-0.186,0.109-0.254l0.726-0.729c0.068-0.072,0.153-0.109,0.255-0.109
			c0.103,0,0.188,0.037,0.254,0.109L100.352,177.123z M99.735,177.529l-0.362-0.363l-0.362,0.363l-0.002,1.147l0.363,0.363
			l0.362-0.363L99.735,177.529z"/>
		<path d="M103.074,177.121c0.073,0.068,0.109,0.152,0.109,0.256v1.455c0,0.105-0.037,0.191-0.109,0.254
			l-0.726,0.729c-0.068,0.07-0.152,0.107-0.254,0.107c-0.107,0-0.191-0.037-0.255-0.107l-0.726-0.729
			c-0.072-0.062-0.108-0.146-0.108-0.254l0.001-1.455c0-0.104,0.036-0.186,0.108-0.254l0.727-0.729
			c0.067-0.074,0.153-0.109,0.255-0.109c0.101,0,0.186,0.035,0.254,0.109L103.074,177.121z M102.458,177.529l-0.362-0.365
			l-0.363,0.365v1.146l0.362,0.365l0.362-0.365L102.458,177.529z"/>
		<path d="M105.721,179.922c-0.104,0-0.188-0.035-0.259-0.105c-0.069-0.069-0.104-0.155-0.104-0.258l0.001-2.908
			c0-0.104,0.035-0.188,0.104-0.258c0.069-0.071,0.156-0.106,0.259-0.106h0.726c0.104,0,0.188,0.037,0.255,0.108l0.726,0.728
			c0.072,0.067,0.108,0.153,0.108,0.256l-0.002,2.185c0,0.102-0.035,0.188-0.104,0.258c-0.07,0.068-0.156,0.104-0.258,0.104
			s-0.188-0.035-0.258-0.104c-0.069-0.07-0.104-0.156-0.104-0.258l0.001-2.029l-0.516-0.518h-0.211l-0.001,2.547
			c0,0.102-0.035,0.188-0.104,0.258C105.909,179.887,105.823,179.922,105.721,179.922z"/>
		<path d="M108.189,179.086c-0.073-0.062-0.108-0.148-0.108-0.256v-0.727c0-0.104,0.034-0.189,0.104-0.261
			c0.069-0.071,0.155-0.104,0.258-0.104s0.188,0.032,0.258,0.104c0.07,0.07,0.105,0.156,0.105,0.261v0.571l0.515,0.519h0.211v-1.092
			c0-0.103,0.035-0.188,0.105-0.259c0.069-0.069,0.155-0.104,0.258-0.104s0.188,0.035,0.258,0.104
			c0.07,0.07,0.104,0.156,0.104,0.259l-0.001,1.455c0,0.104-0.035,0.188-0.105,0.26c-0.069,0.067-0.155,0.104-0.257,0.104h-0.727
			c-0.106,0-0.19-0.035-0.254-0.107L108.189,179.086z"/>
		<path d="M110.803,178.102c0-0.102,0.034-0.188,0.104-0.258c0.07-0.07,0.156-0.104,0.259-0.104
			s0.188,0.034,0.258,0.104s0.104,0.156,0.104,0.258v1.455c0,0.104-0.036,0.188-0.104,0.26c-0.069,0.068-0.155,0.104-0.258,0.104
			s-0.188-0.035-0.259-0.104c-0.069-0.069-0.104-0.155-0.104-0.26V178.102z M111.53,176.648c0,0.102-0.034,0.188-0.104,0.258
			c-0.069,0.072-0.155,0.104-0.258,0.104s-0.188-0.033-0.259-0.104c-0.069-0.07-0.104-0.156-0.104-0.258
			c0-0.104,0.034-0.189,0.104-0.26c0.07-0.068,0.156-0.104,0.259-0.104s0.188,0.034,0.258,0.104
			C111.496,176.461,111.53,176.547,111.53,176.648z"/>
		<path d="M112.182,179.084c-0.073-0.062-0.109-0.146-0.109-0.254l0.001-2.182c0-0.104,0.035-0.189,0.105-0.26
			c0.069-0.068,0.155-0.104,0.258-0.104s0.188,0.034,0.258,0.104c0.07,0.069,0.104,0.155,0.104,0.26v0.36h0.363
			c0.103,0,0.188,0.037,0.257,0.105c0.069,0.071,0.104,0.155,0.104,0.26c0,0.103-0.035,0.188-0.104,0.258
			c-0.069,0.07-0.155,0.104-0.258,0.104h-0.363v0.938l0.616,0.625c0.072,0.068,0.108,0.152,0.108,0.254
			c0,0.104-0.036,0.188-0.108,0.257c-0.066,0.071-0.151,0.106-0.253,0.106c-0.106,0-0.19-0.035-0.255-0.106L112.182,179.084z"/>
		<path d="M146.361,179.943c-0.103,0-0.188-0.035-0.258-0.105c-0.07-0.068-0.104-0.156-0.104-0.258l0.002-2.91
			c0-0.102,0.033-0.188,0.104-0.258c0.07-0.07,0.156-0.105,0.258-0.105h0.727c0.103,0,0.188,0.037,0.255,0.109l0.727,0.729
			c0.072,0.066,0.107,0.152,0.107,0.254v2.183c0,0.104-0.035,0.188-0.105,0.26s-0.156,0.104-0.258,0.104
			c-0.103,0-0.188-0.033-0.258-0.104c-0.07-0.071-0.105-0.155-0.105-0.26l0.002-2.029l-0.516-0.516h-0.209l-0.002,2.545
			c-0.002,0.104-0.035,0.188-0.105,0.26C146.552,179.912,146.462,179.943,146.361,179.943z"/>
		<path d="M148.829,179.107c-0.072-0.062-0.108-0.148-0.108-0.256v-0.728c0-0.104,0.034-0.188,0.104-0.26
			c0.07-0.07,0.156-0.105,0.258-0.105c0.103,0,0.188,0.035,0.258,0.105c0.068,0.069,0.105,0.155,0.105,0.26l-0.002,0.574
			l0.516,0.516h0.211l0.002-1.09c0-0.104,0.035-0.188,0.104-0.26c0.07-0.07,0.156-0.105,0.258-0.105
			c0.104,0,0.189,0.035,0.258,0.105c0.07,0.069,0.105,0.155,0.105,0.26l-0.002,1.453c0,0.103-0.035,0.188-0.104,0.258
			c-0.069,0.07-0.156,0.104-0.26,0.104h-0.725c-0.107,0-0.191-0.034-0.254-0.108L148.829,179.107z"/>
		<path d="M151.443,178.125c0-0.102,0.035-0.188,0.104-0.258c0.068-0.07,0.156-0.105,0.259-0.105
			c0.102,0,0.188,0.035,0.258,0.105c0.069,0.07,0.104,0.156,0.104,0.258v1.455c0,0.102-0.035,0.188-0.104,0.258
			c-0.07,0.07-0.156,0.105-0.258,0.105c-0.103,0-0.188-0.035-0.259-0.105c-0.069-0.07-0.104-0.156-0.104-0.258V178.125z
			 M152.169,176.67c0,0.104-0.035,0.189-0.104,0.258c-0.07,0.07-0.156,0.107-0.258,0.107c-0.103,0-0.188-0.037-0.259-0.107
			c-0.069-0.068-0.104-0.154-0.104-0.258c0-0.102,0.035-0.188,0.104-0.258c0.07-0.07,0.156-0.104,0.259-0.104
			c0.102,0,0.188,0.032,0.258,0.104C152.134,176.482,152.169,176.568,152.169,176.67z"/>
		<path d="M152.822,179.107c-0.072-0.064-0.107-0.148-0.107-0.256v-2.183c0-0.103,0.035-0.188,0.105-0.258
			c0.07-0.07,0.156-0.106,0.258-0.106c0.103,0,0.188,0.036,0.258,0.106c0.068,0.069,0.104,0.155,0.104,0.258v0.363h0.363
			c0.102,0,0.188,0.034,0.258,0.104c0.069,0.07,0.104,0.156,0.104,0.261c0,0.102-0.035,0.188-0.104,0.258
			c-0.07,0.072-0.156,0.104-0.258,0.104h-0.363v0.938l0.615,0.627c0.073,0.066,0.108,0.152,0.108,0.254s-0.037,0.188-0.108,0.254
			c-0.068,0.074-0.152,0.109-0.255,0.109c-0.104,0-0.19-0.035-0.254-0.109L152.822,179.107z"/>
		<path d="M158.409,177.143c0.074,0.068,0.109,0.152,0.109,0.256v1.455c0,0.105-0.037,0.189-0.109,0.254
			l-0.727,0.728c-0.066,0.074-0.152,0.108-0.254,0.108c-0.105,0-0.191-0.034-0.255-0.108l-0.727-0.728
			c-0.072-0.062-0.107-0.147-0.107-0.254l0.002-1.455c0-0.104,0.035-0.188,0.107-0.254l0.727-0.729
			c0.066-0.072,0.152-0.106,0.255-0.106c0.102,0,0.188,0.034,0.254,0.106L158.409,177.143z M157.794,177.551l-0.362-0.363
			l-0.363,0.363v1.148l0.361,0.363l0.362-0.363L157.794,177.551z"/>
		<path d="M161.132,177.143c0.072,0.068,0.107,0.152,0.107,0.256v1.453c0,0.105-0.037,0.191-0.107,0.256
			l-0.729,0.728c-0.066,0.074-0.15,0.108-0.254,0.108c-0.105,0-0.189-0.034-0.254-0.108l-0.726-0.728
			c-0.073-0.062-0.108-0.147-0.108-0.254l0.002-1.455c0-0.104,0.035-0.188,0.106-0.256l0.728-0.729
			c0.067-0.072,0.151-0.107,0.254-0.107c0.104,0,0.188,0.035,0.254,0.107L161.132,177.143z M160.515,177.549l-0.363-0.361
			l-0.361,0.363v1.148l0.361,0.363l0.363-0.363V177.549z"/>
		<path d="M161.892,180.561c-0.072-0.067-0.107-0.151-0.107-0.256c0-0.102,0.035-0.188,0.109-0.254l0.725-0.729
			c0.068-0.072,0.152-0.109,0.256-0.109c0.103,0,0.187,0.037,0.254,0.109c0.072,0.068,0.107,0.154,0.107,0.256
			s-0.037,0.186-0.107,0.254l-0.729,0.729c-0.066,0.072-0.15,0.107-0.254,0.107C162.04,180.67,161.956,180.633,161.892,180.561z
			 M163.238,178.123c0,0.104-0.037,0.189-0.105,0.26c-0.069,0.07-0.155,0.105-0.258,0.105c-0.104,0-0.188-0.035-0.26-0.105
			c-0.068-0.07-0.104-0.156-0.104-0.26c0-0.102,0.034-0.188,0.104-0.258c0.07-0.07,0.156-0.105,0.26-0.105
			c0.103,0,0.188,0.035,0.256,0.105C163.2,177.936,163.238,178.021,163.238,178.123z"/>
		<path d="M165.849,177.143c0.073,0.066,0.108,0.152,0.108,0.256v1.453c0,0.105-0.037,0.191-0.108,0.254
			l-0.728,0.729c-0.067,0.072-0.151,0.108-0.256,0.108s-0.188-0.036-0.254-0.108l-0.725-0.728c-0.072-0.063-0.109-0.147-0.109-0.256
			l0.002-1.453c0-0.104,0.035-0.188,0.109-0.256l0.725-0.729c0.068-0.072,0.154-0.109,0.256-0.109c0.103,0,0.187,0.037,0.254,0.109
			L165.849,177.143z M165.232,177.549l-0.361-0.361l-0.363,0.361v1.15l0.361,0.363l0.363-0.363V177.549z"/>
		<path d="M168.572,177.143c0.072,0.066,0.109,0.152,0.109,0.254v1.455c0,0.105-0.037,0.191-0.109,0.254
			l-0.727,0.729c-0.068,0.072-0.152,0.108-0.255,0.108c-0.106,0-0.19-0.036-0.254-0.108l-0.727-0.729
			c-0.072-0.062-0.107-0.146-0.107-0.254v-1.453c0-0.104,0.037-0.188,0.107-0.256l0.727-0.729c0.068-0.072,0.152-0.109,0.256-0.109
			c0.103,0,0.187,0.037,0.255,0.109L168.572,177.143z M167.954,177.549l-0.363-0.361l-0.36,0.361l-0.002,1.15l0.362,0.363
			l0.361-0.363L167.954,177.549z"/>
	</g>
	<g id="textB">
		<path d="M139.82,43.768c0.059,0.081,0.076,0.171,0.057,0.271l-0.146,0.713c-0.021,0.099-0.07,0.177-0.154,0.23
			c-0.084,0.056-0.174,0.072-0.271,0.053c-0.104-0.021-0.179-0.072-0.232-0.155s-0.072-0.174-0.053-0.274l0.115-0.562l-0.283-0.429
			l-0.431,0.283l-0.114,0.563c-0.021,0.099-0.072,0.177-0.154,0.23c-0.082,0.056-0.176,0.072-0.273,0.053
			c-0.102-0.021-0.18-0.072-0.231-0.156c-0.055-0.082-0.072-0.174-0.051-0.273l0.582-2.85c0.02-0.101,0.069-0.177,0.153-0.232
			c0.082-0.055,0.174-0.071,0.273-0.051s0.178,0.072,0.231,0.155s0.07,0.174,0.052,0.273l-0.261,1.275l0.127-0.078
			c0.08-0.058,0.173-0.077,0.271-0.056c0.102,0.02,0.176,0.072,0.229,0.158L139.82,43.768z"/>
		<path d="M134.513,43.53c-0.103-0.014-0.183-0.061-0.238-0.142c-0.062-0.077-0.088-0.166-0.074-0.267
			c0.014-0.102,0.062-0.181,0.144-0.238l0.812-0.626c0.076-0.063,0.166-0.088,0.268-0.075c0.103,0.014,0.183,0.062,0.24,0.143
			l0.406,0.522l0.529-0.399c0.075-0.063,0.166-0.089,0.266-0.075c0.104,0.013,0.184,0.061,0.24,0.142
			c0.062,0.077,0.088,0.165,0.074,0.268c-0.015,0.101-0.062,0.18-0.142,0.237l-0.815,0.626c-0.078,0.063-0.166,0.088-0.267,0.075
			c-0.106-0.014-0.188-0.061-0.237-0.141l-0.41-0.523l-0.529,0.4C134.704,43.519,134.614,43.543,134.513,43.53z"/>
		<path d="M129.759,43.931c-0.067-0.072-0.103-0.159-0.101-0.261l0.018-0.728c0.003-0.102,0.041-0.186,0.114-0.252l1.219-1.173
			l-0.354-0.372l-0.574-0.013c-0.103-0.002-0.188-0.039-0.257-0.111c-0.067-0.07-0.102-0.157-0.099-0.26
			c0.002-0.102,0.039-0.187,0.11-0.256c0.071-0.068,0.158-0.103,0.261-0.1l0.726,0.017c0.104,0.002,0.188,0.041,0.254,0.115
			l0.713,0.743c0.068,0.069,0.104,0.154,0.103,0.257c-0.004,0.102-0.039,0.186-0.113,0.252l-1.376,1.323l-0.004,0.21l1.089,0.023
			c0.104,0.002,0.188,0.04,0.258,0.111c0.068,0.072,0.103,0.159,0.1,0.26c-0.002,0.102-0.036,0.188-0.11,0.256
			c-0.07,0.068-0.158,0.103-0.26,0.101l-1.455-0.033C129.913,44.039,129.827,44.002,129.759,43.931z"/>
		<path d="M127.573,43.39l-0.066-1.664l-0.104,0.106c-0.064,0.076-0.147,0.115-0.25,0.12c-0.103,0.004-0.188-0.029-0.259-0.1
			c-0.075-0.064-0.115-0.147-0.119-0.25c-0.004-0.102,0.028-0.188,0.099-0.259l0.696-0.756c0.105-0.121,0.236-0.153,0.39-0.096
			c0.068,0.025,0.126,0.068,0.169,0.128c0.044,0.059,0.066,0.125,0.069,0.196l0.104,2.543l0.363-0.015
			c0.103-0.004,0.188,0.027,0.262,0.095c0.073,0.068,0.112,0.152,0.116,0.253c0.004,0.103-0.026,0.189-0.096,0.264
			c-0.066,0.072-0.151,0.111-0.254,0.116l-1.453,0.059c-0.102,0.004-0.188-0.027-0.262-0.095c-0.073-0.068-0.112-0.152-0.116-0.254
			c-0.004-0.103,0.027-0.189,0.096-0.263c0.067-0.072,0.151-0.111,0.254-0.116L127.573,43.39z"/>
		<path d="M122.84,44.63c-0.102,0.014-0.189-0.008-0.271-0.067c-0.08-0.06-0.126-0.141-0.141-0.241l-0.204-1.439
			c-0.015-0.101,0.009-0.191,0.067-0.271c0.062-0.079,0.141-0.126,0.24-0.141l0.721-0.102c0.102-0.015,0.189,0.009,0.268,0.072
			l0.821,0.618c0.081,0.058,0.13,0.136,0.145,0.237l0.103,0.719c0.016,0.102-0.008,0.192-0.067,0.271
			c-0.061,0.08-0.141,0.126-0.241,0.14s-0.19-0.008-0.271-0.067c-0.079-0.06-0.126-0.141-0.142-0.241l-0.08-0.569l-0.583-0.438
			l-0.209,0.029l0.152,1.08c0.015,0.101-0.009,0.192-0.067,0.271C123.02,44.569,122.94,44.616,122.84,44.63z"/>
		<path d="M119.627,44.292c-0.026-0.035-0.045-0.078-0.057-0.13c-0.011-0.053-0.011-0.1,0-0.142c0.004-0.051,0.022-0.094,0.056-0.13
			l0.565-0.858c0.051-0.084,0.128-0.138,0.228-0.158c0.101-0.021,0.189-0.001,0.271,0.056l0.858,0.567
			c0.137,0.085,0.188,0.208,0.158,0.368c-0.016,0.071-0.049,0.135-0.1,0.188c-0.052,0.052-0.113,0.086-0.185,0.101l-0.562,0.116
			l0.122,0.086c0.084,0.053,0.137,0.127,0.158,0.228c0.021,0.099,0.002,0.189-0.056,0.271c-0.053,0.085-0.128,0.139-0.229,0.158
			c-0.104,0.021-0.194,0.003-0.271-0.056l-0.858-0.564C119.684,44.369,119.65,44.337,119.627,44.292z"/>
		<path fill="#1A171B" d="M118.099,61.034v-1.666l-0.109,0.103c-0.067,0.072-0.152,0.108-0.254,0.108
			c-0.103,0-0.188-0.036-0.255-0.108c-0.073-0.068-0.108-0.153-0.108-0.254c0-0.103,0.035-0.188,0.108-0.256l0.728-0.728
			c0.111-0.115,0.241-0.143,0.394-0.08c0.067,0.029,0.122,0.074,0.164,0.136c0.041,0.062,0.062,0.127,0.062,0.2v2.545h0.363
			c0.103,0,0.188,0.034,0.258,0.104c0.07,0.07,0.105,0.156,0.105,0.259c0,0.104-0.035,0.188-0.105,0.259
			c-0.069,0.069-0.155,0.104-0.258,0.104h-1.454c-0.103,0-0.188-0.034-0.258-0.104c-0.07-0.069-0.104-0.155-0.104-0.259
			c0-0.103,0.034-0.188,0.104-0.259c0.069-0.069,0.155-0.104,0.258-0.104H118.099z"/>
		<path fill="#1A171B" d="M121.038,61.034l0.363-0.362l-1.192-1.201c-0.072-0.062-0.108-0.146-0.108-0.254v-0.728
			c0-0.104,0.035-0.188,0.104-0.259c0.069-0.069,0.155-0.104,0.258-0.104h1.454c0.103,0,0.188,0.034,0.258,0.104
			s0.104,0.155,0.104,0.259c0,0.103-0.035,0.188-0.104,0.258c-0.069,0.069-0.155,0.104-0.258,0.104h-1.091v0.211l1.346,1.354
			c0.072,0.067,0.108,0.152,0.108,0.256c0,0.102-0.036,0.187-0.108,0.254l-0.729,0.727c-0.067,0.073-0.151,0.109-0.254,0.109h-0.729
			c-0.103,0-0.188-0.035-0.258-0.104c-0.07-0.07-0.104-0.156-0.104-0.259c0-0.102,0.034-0.188,0.104-0.258
			c0.069-0.07,0.155-0.104,0.258-0.104L121.038,61.034L121.038,61.034z"/>
		<path fill="#1A171B" d="M126.535,60.416c0.073,0.066,0.109,0.151,0.109,0.254v0.728c0,0.104-0.035,0.188-0.104,0.259
			c-0.069,0.069-0.156,0.104-0.259,0.104c-0.102,0-0.188-0.034-0.258-0.104c-0.071-0.069-0.104-0.155-0.104-0.259v-0.574
			l-0.363-0.363l-0.363,0.363v0.574c0,0.104-0.035,0.188-0.104,0.259c-0.069,0.069-0.155,0.104-0.258,0.104
			s-0.188-0.034-0.259-0.104c-0.069-0.069-0.104-0.155-0.104-0.259v-2.908c0-0.103,0.035-0.188,0.104-0.259
			c0.07-0.069,0.156-0.104,0.259-0.104s0.188,0.035,0.258,0.104c0.069,0.07,0.104,0.156,0.104,0.259v1.303l0.108-0.104
			c0.067-0.072,0.153-0.108,0.255-0.108c0.101,0,0.187,0.037,0.254,0.108L126.535,60.416z"/>
		<path fill="#1A171B" d="M128.934,60.198c-0.073-0.063-0.109-0.147-0.109-0.256v-0.727c0-0.103,0.035-0.188,0.105-0.258
			c0.069-0.07,0.155-0.105,0.258-0.105s0.188,0.035,0.258,0.105c0.07,0.068,0.104,0.155,0.104,0.258v0.574l0.517,0.516h0.211v-1.816
			c0-0.104,0.035-0.188,0.105-0.259c0.07-0.069,0.158-0.104,0.258-0.104c0.102,0,0.188,0.034,0.258,0.104
			c0.072,0.069,0.104,0.155,0.104,0.259v2.908c0,0.103-0.034,0.188-0.104,0.259c-0.068,0.069-0.156,0.104-0.258,0.104
			c-0.103,0-0.189-0.035-0.258-0.104c-0.07-0.07-0.105-0.156-0.105-0.259v-0.363h-0.362c-0.106,0-0.191-0.036-0.256-0.108
			L128.934,60.198z"/>
		<path fill="#1A171B" d="M133.734,59.209v0.006v2.183c0,0.104-0.035,0.188-0.104,0.259c-0.071,0.069-0.155,0.104-0.26,0.104
			c-0.102,0-0.188-0.034-0.258-0.104s-0.105-0.155-0.105-0.259v-1.302l-0.108,0.103c-0.066,0.072-0.15,0.108-0.254,0.108
			c-0.103,0-0.187-0.036-0.254-0.108l-0.728-0.729c-0.074-0.067-0.108-0.152-0.108-0.254s0.034-0.188,0.108-0.254l0.728-0.729
			c0.067-0.072,0.151-0.107,0.254-0.107c0.104,0,0.188,0.035,0.254,0.107l0.729,0.729C133.698,59.028,133.734,59.111,133.734,59.209
			z M132.855,59.217l-0.211-0.211l-0.211,0.211l0.211,0.211L132.855,59.217z"/>
		<path fill="#1A171B" d="M136.279,61.762c-0.102,0-0.188-0.035-0.258-0.104c-0.07-0.07-0.104-0.156-0.104-0.259v-1.455
			c0-0.072,0.021-0.139,0.062-0.199c0.041-0.062,0.096-0.104,0.164-0.136c0.149-0.062,0.28-0.035,0.393,0.08l0.131,0.131
			c0.029-0.066,0.072-0.125,0.133-0.171c0.06-0.046,0.13-0.068,0.212-0.068c0.081,0,0.149,0.022,0.211,0.068
			c0.057,0.046,0.102,0.104,0.131,0.171l0.131-0.131c0.111-0.115,0.242-0.144,0.393-0.08c0.068,0.028,0.123,0.073,0.164,0.136
			c0.041,0.062,0.062,0.127,0.062,0.199v1.455c0,0.103-0.035,0.188-0.105,0.259c-0.067,0.069-0.154,0.104-0.258,0.104
			c-0.102,0-0.188-0.035-0.258-0.104c-0.072-0.07-0.105-0.156-0.105-0.259v-0.574l-0.108,0.103c-0.027,0.039-0.066,0.064-0.115,0.08
			c-0.092,0.039-0.185,0.039-0.275,0c-0.049-0.016-0.088-0.043-0.114-0.08l-0.109-0.103v0.574c0,0.103-0.037,0.188-0.105,0.259
			C136.466,61.727,136.382,61.762,136.279,61.762z"/>
		<path fill="#1A171B" d="M139.37,58.488c0,0.102-0.035,0.188-0.104,0.258c-0.07,0.069-0.156,0.104-0.259,0.104
			c-0.104,0-0.188-0.035-0.258-0.104c-0.071-0.07-0.104-0.156-0.104-0.258c0-0.103,0.035-0.188,0.104-0.259
			c0.068-0.069,0.154-0.104,0.258-0.104c0.103,0,0.188,0.035,0.259,0.104C139.335,58.3,139.37,58.387,139.37,58.488z
			 M138.644,59.942c0-0.102,0.033-0.188,0.104-0.258c0.071-0.069,0.156-0.104,0.26-0.104c0.103,0,0.188,0.035,0.259,0.104
			c0.069,0.07,0.104,0.156,0.104,0.258v1.455c0,0.103-0.033,0.188-0.104,0.259c-0.071,0.069-0.156,0.104-0.259,0.104
			c-0.104,0-0.188-0.035-0.26-0.104c-0.07-0.07-0.104-0.156-0.104-0.259V59.942z"/>
		<path fill="#1A171B" d="M140.279,61.762c-0.102,0-0.188-0.035-0.258-0.104c-0.07-0.07-0.105-0.156-0.105-0.259v-1.455
			c0-0.102,0.035-0.188,0.105-0.258c0.069-0.069,0.156-0.104,0.258-0.104h0.729c0.103,0,0.187,0.037,0.255,0.108l0.727,0.728
			c0.074,0.067,0.109,0.152,0.109,0.256v0.727c0,0.103-0.035,0.188-0.105,0.259c-0.068,0.069-0.154,0.104-0.258,0.104
			c-0.103,0-0.188-0.035-0.258-0.104c-0.07-0.07-0.104-0.156-0.104-0.259v-0.574l-0.518-0.518h-0.211v1.092
			c0,0.103-0.035,0.188-0.105,0.259C140.466,61.727,140.38,61.762,140.279,61.762z"/>
		<path fill="#1A171B" d="M122.21,66.743c-0.072-0.067-0.108-0.151-0.108-0.254c0-0.104,0.036-0.188,0.108-0.255l0.728-0.728
			c0.062-0.073,0.147-0.109,0.255-0.109h0.364v-1.092c0-0.102,0.034-0.188,0.104-0.258c0.07-0.069,0.156-0.104,0.259-0.104
			s0.188,0.035,0.259,0.104c0.069,0.07,0.104,0.156,0.104,0.258v2.91c0,0.102-0.034,0.188-0.104,0.258
			c-0.07,0.07-0.156,0.104-0.259,0.104h-0.728c-0.106,0-0.191-0.036-0.255-0.108L122.21,66.743z M122.98,66.488l0.364,0.363h0.211
			v-0.728h-0.211L122.98,66.488z"/>
		<path fill="#1A171B" d="M124.856,66.627c-0.021-0.039-0.029-0.086-0.029-0.139c0-0.054,0.011-0.101,0.029-0.139
			c0.016-0.048,0.041-0.087,0.08-0.116l0.728-0.729c0.067-0.072,0.152-0.108,0.255-0.108s0.187,0.036,0.254,0.108l0.729,0.729
			c0.116,0.111,0.144,0.242,0.08,0.394c-0.028,0.067-0.074,0.123-0.134,0.164c-0.062,0.041-0.128,0.062-0.201,0.062h-0.574
			l0.103,0.109c0.073,0.066,0.108,0.152,0.108,0.254s-0.036,0.187-0.108,0.254c-0.067,0.074-0.151,0.109-0.254,0.109
			c-0.106,0-0.191-0.035-0.255-0.109l-0.728-0.728C124.897,66.715,124.871,66.676,124.856,66.627z"/>
		<path fill="#1A171B" d="M128.827,69.034c-0.105,0-0.189-0.036-0.255-0.108c-0.071-0.068-0.108-0.153-0.108-0.256
			s0.037-0.188,0.108-0.254l0.618-0.625v-2.029c0-0.102,0.035-0.188,0.104-0.258c0.069-0.069,0.155-0.104,0.259-0.104
			c0.102,0,0.188,0.035,0.258,0.104c0.069,0.07,0.104,0.156,0.104,0.258v2.183c0,0.106-0.037,0.19-0.108,0.255l-0.728,0.728
			C129.013,68.997,128.928,69.034,128.827,69.034z M128.827,69.034c-0.105,0-0.189-0.036-0.255-0.108
			c-0.071-0.068-0.108-0.153-0.108-0.256s0.037-0.188,0.108-0.254l0.618-0.625v-2.029c0-0.102,0.035-0.188,0.104-0.258
			c0.069-0.069,0.155-0.104,0.259-0.104c0.102,0,0.188,0.035,0.258,0.104c0.069,0.07,0.104,0.156,0.104,0.258v2.183
			c0,0.106-0.037,0.19-0.108,0.255l-0.728,0.728C129.013,68.997,128.928,69.034,128.827,69.034z M129.19,64.307
			c0-0.102,0.035-0.188,0.104-0.258c0.069-0.069,0.155-0.104,0.259-0.104c0.102,0,0.188,0.035,0.258,0.104
			c0.069,0.07,0.104,0.156,0.104,0.258c0,0.104-0.035,0.188-0.104,0.259c-0.07,0.069-0.156,0.104-0.258,0.104
			c-0.104,0-0.188-0.035-0.259-0.104C129.225,64.495,129.19,64.408,129.19,64.307z M129.19,64.307c0-0.102,0.035-0.188,0.104-0.258
			c0.069-0.069,0.155-0.104,0.259-0.104c0.102,0,0.188,0.035,0.258,0.104c0.069,0.07,0.104,0.156,0.104,0.258
			c0,0.104-0.035,0.188-0.104,0.259c-0.07,0.069-0.156,0.104-0.258,0.104c-0.104,0-0.188-0.035-0.259-0.104
			C129.225,64.495,129.19,64.408,129.19,64.307z"/>
		<path fill="#1A171B" d="M132.534,66.233c0.072,0.068,0.109,0.152,0.109,0.255c0,0.102-0.037,0.188-0.109,0.254l-0.727,0.729
			c-0.068,0.072-0.152,0.108-0.254,0.108c-0.107,0-0.191-0.036-0.255-0.108l-0.729-0.729c-0.073-0.066-0.109-0.152-0.109-0.254
			c0-0.103,0.036-0.188,0.109-0.255l0.729-0.729c0.066-0.072,0.15-0.108,0.255-0.108c0.102,0,0.186,0.036,0.254,0.108
			L132.534,66.233z M131.765,66.488l-0.211-0.212l-0.212,0.212l0.212,0.211L131.765,66.488z"/>
		<path fill="#1A171B" d="M133.298,66.743c-0.071-0.062-0.106-0.147-0.106-0.254v-0.729c0-0.102,0.033-0.188,0.104-0.258
			c0.07-0.069,0.156-0.104,0.261-0.104c0.102,0,0.188,0.035,0.258,0.104c0.069,0.07,0.104,0.156,0.104,0.258v0.574l0.517,0.518
			h0.211v-1.092c0-0.102,0.035-0.188,0.104-0.258c0.068-0.069,0.156-0.104,0.258-0.104c0.103,0,0.188,0.035,0.259,0.104
			c0.069,0.07,0.104,0.156,0.104,0.258v1.455c0,0.102-0.035,0.188-0.104,0.258c-0.07,0.07-0.156,0.104-0.259,0.104h-0.727
			c-0.107,0-0.191-0.036-0.256-0.108L133.298,66.743z"/>
		<path fill="#1A171B" d="M136.281,67.579c-0.102,0-0.188-0.034-0.258-0.104c-0.072-0.069-0.105-0.156-0.105-0.258v-0.728
			c0-0.104,0.037-0.188,0.107-0.255l0.729-0.728c0.066-0.073,0.152-0.109,0.257-0.109c0.102,0,0.186,0.036,0.254,0.109
			c0.071,0.067,0.108,0.152,0.108,0.254c0,0.104-0.037,0.188-0.108,0.255l-0.619,0.625v0.573c0,0.103-0.033,0.188-0.104,0.258
			C136.468,67.545,136.382,67.579,136.281,67.579z"/>
		<path fill="#1A171B" d="M159.4,162.242c-0.092-0.039-0.158-0.105-0.195-0.199c-0.039-0.094-0.039-0.186-0.002-0.279
			c0.037-0.09,0.104-0.156,0.197-0.192l0.336-0.142l-0.41-1.012c-0.037-0.094-0.037-0.186-0.002-0.277
			c0.039-0.092,0.105-0.156,0.199-0.194l0.672-0.279c0.096-0.039,0.188-0.039,0.279-0.002c0.092,0.039,0.157,0.104,0.196,0.199
			c0.037,0.094,0.039,0.188,0,0.278c-0.039,0.094-0.106,0.158-0.2,0.197l-0.341,0.141l0.418,1.009c0.037,0.094,0.039,0.188,0,0.278
			c-0.036,0.092-0.104,0.156-0.196,0.195l-0.672,0.277C159.583,162.279,159.491,162.279,159.4,162.242z"/>
		<path fill="#1A171B" d="M155.855,162.879l0.225-0.463l-0.598-0.293c-0.09-0.039-0.152-0.109-0.187-0.205s-0.028-0.188,0.019-0.273
			l0.283-0.602l-0.464-0.223l-0.543,0.188c-0.096,0.033-0.188,0.029-0.278-0.014s-0.148-0.113-0.185-0.209
			c-0.032-0.097-0.028-0.188,0.015-0.279c0.043-0.09,0.11-0.149,0.209-0.187l0.688-0.239c0.096-0.035,0.188-0.027,0.275,0.021
			l0.926,0.443c0.092,0.039,0.154,0.107,0.189,0.203c0.032,0.098,0.026,0.189-0.021,0.277l-0.281,0.6l0.597,0.293
			c0.09,0.039,0.153,0.107,0.188,0.203s0.027,0.189-0.02,0.277l-0.445,0.926c-0.039,0.092-0.107,0.154-0.205,0.188l-0.686,0.24
			c-0.097,0.033-0.189,0.029-0.277-0.014c-0.09-0.043-0.15-0.113-0.187-0.209c-0.032-0.096-0.028-0.188,0.015-0.277
			s0.112-0.15,0.209-0.186L155.855,162.879z"/>
		<path fill="#1A171B" d="M152.234,163.168c-0.09-0.037-0.148-0.107-0.18-0.209l-0.22-0.695c-0.028-0.096-0.021-0.188,0.023-0.277
			c0.045-0.088,0.117-0.146,0.215-0.176s0.189-0.022,0.277,0.021c0.088,0.047,0.147,0.119,0.178,0.215l0.172,0.549l0.646,0.34
			l0.2-0.062l-0.541-1.733c-0.03-0.101-0.022-0.189,0.021-0.279c0.047-0.088,0.117-0.146,0.215-0.178
			c0.098-0.029,0.191-0.021,0.279,0.022c0.088,0.047,0.146,0.117,0.178,0.215l0.867,2.777c0.029,0.098,0.021,0.188-0.023,0.276
			c-0.047,0.088-0.117,0.146-0.217,0.178c-0.096,0.029-0.188,0.021-0.275-0.022c-0.087-0.044-0.147-0.116-0.178-0.215l-0.108-0.349
			l-0.347,0.107c-0.104,0.033-0.194,0.023-0.274-0.027L152.234,163.168z"/>
		<path fill="#1A171B" d="M151.788,164.271c0.088,0.045,0.146,0.117,0.174,0.217c0.025,0.098,0.017,0.188-0.037,0.272l-0.504,0.896
			c-0.045,0.09-0.116,0.146-0.215,0.174c-0.104,0.028-0.194,0.021-0.274-0.037c-0.089-0.045-0.146-0.117-0.175-0.215
			c-0.027-0.099-0.016-0.188,0.037-0.272l0.504-0.896c0.045-0.088,0.117-0.146,0.216-0.174
			C151.611,164.208,151.704,164.221,151.788,164.271z"/>
		<path fill="#1A171B" d="M149.32,162.686c0.088,0.047,0.145,0.121,0.168,0.222l0.352,1.409c0.025,0.104,0.011,0.193-0.045,0.273
			l-0.53,0.881c-0.05,0.088-0.121,0.144-0.222,0.166c-0.104,0.025-0.192,0.014-0.272-0.045l-0.881-0.529
			c-0.086-0.043-0.142-0.117-0.166-0.221l-0.353-1.412c-0.022-0.098-0.01-0.188,0.045-0.271l0.529-0.882
			c0.049-0.088,0.123-0.145,0.223-0.168c0.101-0.022,0.189-0.012,0.271,0.046L149.32,162.686z M148.82,163.229l-0.441-0.269
			l-0.266,0.44l0.277,1.115l0.438,0.267l0.267-0.441L148.82,163.229z"/>
		<path fill="#1A171B" d="M142.466,164.396c-0.02-0.101,0-0.189,0.058-0.273c0.057-0.082,0.135-0.131,0.233-0.15l2.146-0.396
			c0.102-0.021,0.19,0,0.272,0.057c0.082,0.058,0.134,0.136,0.15,0.234c0.021,0.1,0,0.19-0.057,0.271
			c-0.058,0.084-0.136,0.135-0.234,0.152l-2.145,0.396c-0.103,0.02-0.191,0-0.273-0.058
			C142.534,164.576,142.484,164.496,142.466,164.396z M142.882,166.062c-0.082-0.058-0.133-0.138-0.149-0.236
			c-0.021-0.098,0-0.189,0.057-0.273c0.058-0.08,0.135-0.131,0.234-0.147l2.145-0.398c0.103-0.02,0.191,0.002,0.273,0.058
			c0.082,0.059,0.131,0.137,0.149,0.233c0.021,0.103,0,0.191-0.057,0.273c-0.057,0.084-0.135,0.133-0.234,0.149l-2.145,0.398
			C143.054,166.137,142.964,166.119,142.882,166.062z"/>
		<path fill="#1A171B" d="M139.163,165.49c-0.08-0.051-0.129-0.131-0.143-0.236l-0.279-2.164c-0.014-0.102,0.012-0.191,0.07-0.271
			c0.062-0.077,0.143-0.122,0.242-0.137c0.099-0.014,0.19,0.012,0.27,0.07c0.08,0.062,0.125,0.143,0.139,0.244l0.047,0.359
			l0.359-0.047c0.104-0.015,0.191,0.012,0.271,0.069c0.077,0.062,0.125,0.144,0.139,0.242c0.014,0.103-0.012,0.19-0.072,0.271
			c-0.061,0.078-0.141,0.125-0.242,0.14l-0.358,0.047l0.121,0.93l0.69,0.539c0.082,0.062,0.129,0.14,0.142,0.24
			c0.014,0.101-0.011,0.188-0.074,0.267c-0.06,0.079-0.139,0.127-0.238,0.143c-0.104,0.012-0.192-0.012-0.268-0.076L139.163,165.49z
			"/>
		<path fill="#1A171B" d="M138.288,163.135c0.01,0.102-0.018,0.191-0.078,0.271c-0.062,0.077-0.145,0.12-0.246,0.133
			c-0.101,0.012-0.188-0.015-0.268-0.076s-0.121-0.146-0.133-0.246c-0.013-0.102,0.016-0.188,0.076-0.271
			c0.062-0.075,0.145-0.118,0.245-0.131c0.101-0.014,0.189,0.015,0.269,0.074C138.232,162.951,138.275,163.035,138.288,163.135z
			 M137.722,164.66c-0.013-0.102,0.014-0.191,0.075-0.27c0.062-0.076,0.146-0.121,0.244-0.134c0.103-0.012,0.189,0.017,0.271,0.076
			c0.076,0.062,0.121,0.146,0.133,0.246l0.156,1.446c0.012,0.101-0.015,0.188-0.076,0.269c-0.062,0.076-0.146,0.121-0.246,0.133
			c-0.101,0.013-0.189-0.016-0.268-0.075c-0.078-0.062-0.121-0.146-0.134-0.246L137.722,164.66z"/>
		<path fill="#1A171B" d="M135.239,165.859c-0.076-0.058-0.121-0.142-0.131-0.246l-0.06-0.725c-0.01-0.103,0.021-0.188,0.082-0.267
			c0.064-0.076,0.146-0.117,0.25-0.127c0.101-0.009,0.189,0.021,0.267,0.084c0.074,0.063,0.117,0.146,0.125,0.248l0.049,0.573
			l0.559,0.472l0.209-0.019l-0.09-1.088c-0.01-0.102,0.021-0.188,0.084-0.266c0.062-0.078,0.146-0.119,0.248-0.127
			c0.103-0.008,0.189,0.02,0.267,0.084c0.076,0.064,0.118,0.146,0.129,0.248l0.119,1.449c0.01,0.102-0.021,0.188-0.084,0.266
			c-0.062,0.076-0.146,0.117-0.248,0.127l-0.726,0.061c-0.104,0.011-0.192-0.021-0.264-0.088L135.239,165.859z"/>
		<path fill="#1A171B" d="M132.849,166.816c-0.103,0.006-0.189-0.025-0.265-0.094c-0.071-0.064-0.112-0.15-0.117-0.252l-0.071-1.451
			c-0.004-0.104,0.026-0.189,0.094-0.267c0.066-0.071,0.15-0.11,0.252-0.117l0.729-0.034c0.102-0.007,0.188,0.026,0.26,0.098
			l0.762,0.689c0.074,0.063,0.115,0.146,0.121,0.247l0.035,0.728c0.004,0.102-0.025,0.188-0.092,0.264
			c-0.068,0.074-0.15,0.113-0.252,0.119c-0.104,0.004-0.191-0.025-0.265-0.094c-0.074-0.066-0.113-0.15-0.119-0.252l-0.026-0.574
			l-0.541-0.49l-0.211,0.01l0.053,1.092c0.006,0.103-0.025,0.188-0.092,0.265C133.034,166.773,132.95,166.812,132.849,166.816z"/>
		<path fill="#1A171B" d="M128.899,167.832c-0.069-0.07-0.105-0.156-0.105-0.258s0.033-0.188,0.104-0.258
			c0.071-0.07,0.156-0.105,0.258-0.107h0.364l0.005-1.09c0-0.104,0.035-0.189,0.104-0.26s0.155-0.105,0.259-0.105l0.727-0.002
			c0.104,0,0.189,0.035,0.26,0.105c0.068,0.067,0.105,0.154,0.105,0.258c0,0.102-0.035,0.188-0.105,0.258
			c-0.069,0.07-0.158,0.105-0.262,0.105l-0.366,0.002l0.002,1.092c0,0.102-0.035,0.188-0.104,0.258
			c-0.07,0.07-0.156,0.105-0.258,0.105l-0.729,0.002C129.056,167.938,128.97,167.902,128.899,167.832z"/>
		<path fill="#1A171B" d="M125.7,167.105c-0.102-0.004-0.186-0.045-0.251-0.119c-0.069-0.07-0.103-0.156-0.1-0.258
			c0.004-0.104,0.043-0.187,0.117-0.25l0.754-0.701c0.07-0.07,0.155-0.104,0.259-0.101c0.103,0.005,0.186,0.043,0.25,0.119
			l0.455,0.479l0.488-0.446c0.07-0.07,0.157-0.104,0.259-0.101s0.185,0.043,0.25,0.117c0.069,0.07,0.104,0.156,0.1,0.26
			c-0.004,0.103-0.043,0.187-0.118,0.25l-0.754,0.699c-0.07,0.07-0.155,0.104-0.258,0.101c-0.106-0.005-0.19-0.044-0.251-0.117
			l-0.455-0.481l-0.488,0.446C125.887,167.076,125.802,167.107,125.7,167.105z"/>
		<path fill="#1A171B" d="M121.067,166.492c-0.015-0.041-0.021-0.088-0.015-0.141c0.005-0.056,0.019-0.101,0.042-0.138
			c0.019-0.047,0.049-0.082,0.09-0.104l0.793-0.654c0.075-0.066,0.163-0.096,0.265-0.086c0.103,0.01,0.183,0.055,0.242,0.133
			l0.654,0.795c0.104,0.121,0.118,0.254,0.042,0.398c-0.036,0.062-0.085,0.113-0.15,0.147c-0.063,0.035-0.132,0.052-0.205,0.043
			l-0.57-0.055l0.091,0.117c0.064,0.073,0.094,0.163,0.084,0.264c-0.011,0.104-0.055,0.185-0.134,0.244
			c-0.074,0.063-0.163,0.094-0.265,0.084c-0.105-0.01-0.188-0.056-0.242-0.133l-0.655-0.795
			C121.1,166.582,121.077,166.541,121.067,166.492z"/>
		<path fill="#1A171B" d="M118.421,166.264c-0.062-0.076-0.088-0.166-0.074-0.266c0.013-0.102,0.06-0.182,0.141-0.238l0.816-0.627
			c0.071-0.062,0.16-0.09,0.267-0.074l0.36,0.047l0.142-1.082c0.014-0.102,0.06-0.182,0.14-0.241c0.078-0.062,0.168-0.084,0.27-0.07
			c0.102,0.015,0.182,0.062,0.242,0.14c0.06,0.078,0.084,0.17,0.07,0.271l-0.378,2.883c-0.014,0.103-0.061,0.185-0.14,0.242
			c-0.079,0.062-0.168,0.084-0.271,0.069l-0.722-0.096c-0.104-0.014-0.186-0.059-0.237-0.141L118.421,166.264z M119.218,166.111
			l0.312,0.408l0.209,0.024l0.096-0.721l-0.209-0.027L119.218,166.111z"/>
		<path fill="#1A171B" d="M114.078,165.381c-0.012-0.041-0.013-0.088-0.003-0.141c0.011-0.053,0.028-0.096,0.055-0.131
			c0.022-0.045,0.058-0.078,0.102-0.103l0.85-0.58c0.078-0.059,0.17-0.077,0.271-0.061c0.099,0.02,0.176,0.069,0.229,0.153
			l0.58,0.851c0.095,0.131,0.097,0.266,0.007,0.399c-0.041,0.062-0.096,0.105-0.163,0.138c-0.067,0.028-0.138,0.036-0.208,0.022
			l-0.563-0.104l0.08,0.125c0.061,0.08,0.08,0.172,0.062,0.271c-0.02,0.103-0.069,0.178-0.153,0.229
			c-0.08,0.061-0.171,0.08-0.271,0.061c-0.104-0.02-0.182-0.069-0.229-0.151l-0.581-0.851
			C114.103,165.477,114.085,165.432,114.078,165.381z"/>
		<path fill="#1A171B" d="M111.54,165.789c-0.101-0.021-0.177-0.074-0.229-0.158c-0.055-0.084-0.069-0.176-0.046-0.273l0.316-1.42
			c0.021-0.1,0.074-0.178,0.158-0.229c0.083-0.053,0.177-0.067,0.275-0.047l0.709,0.16c0.1,0.021,0.175,0.073,0.225,0.159
			l0.552,0.869c0.057,0.082,0.072,0.174,0.052,0.271l-0.159,0.711c-0.021,0.098-0.076,0.174-0.159,0.229
			c-0.084,0.054-0.176,0.068-0.273,0.047c-0.101-0.022-0.177-0.073-0.229-0.159c-0.053-0.084-0.068-0.177-0.046-0.273l0.125-0.561
			l-0.393-0.617l-0.205-0.047l-0.237,1.063c-0.022,0.101-0.076,0.176-0.16,0.229C111.73,165.797,111.639,165.811,111.54,165.789z"/>
		<path fill="#1A171B" d="M108.865,165.105c-0.099-0.025-0.173-0.08-0.224-0.166c-0.052-0.086-0.062-0.181-0.037-0.277l0.367-1.408
			c0.024-0.098,0.082-0.172,0.167-0.223c0.086-0.051,0.178-0.062,0.275-0.037l0.703,0.184c0.1,0.025,0.172,0.082,0.22,0.17
			l0.521,0.889c0.053,0.085,0.066,0.177,0.042,0.271l-0.185,0.705c-0.024,0.1-0.082,0.174-0.167,0.225
			c-0.086,0.049-0.18,0.062-0.275,0.035c-0.1-0.024-0.173-0.082-0.225-0.168c-0.05-0.084-0.062-0.178-0.036-0.274l0.145-0.558
			l-0.37-0.629l-0.203-0.053l-0.274,1.055c-0.025,0.101-0.082,0.174-0.167,0.226C109.056,165.119,108.965,165.131,108.865,165.105z"
			/>
		<path fill="#1A171B" d="M106.184,163.326c-0.007-0.041-0.003-0.088,0.012-0.139c0.016-0.054,0.037-0.097,0.067-0.125
			c0.026-0.043,0.062-0.072,0.108-0.09l0.904-0.488c0.086-0.051,0.178-0.062,0.274-0.031c0.099,0.029,0.169,0.088,0.214,0.178
			l0.488,0.904c0.08,0.139,0.066,0.271-0.035,0.398c-0.047,0.057-0.105,0.096-0.176,0.116c-0.069,0.023-0.141,0.023-0.209,0.002
			l-0.551-0.163l0.066,0.135c0.05,0.086,0.061,0.178,0.031,0.272c-0.028,0.101-0.088,0.17-0.177,0.213
			c-0.087,0.054-0.178,0.062-0.274,0.033c-0.104-0.031-0.175-0.09-0.214-0.178l-0.488-0.904
			C106.199,163.422,106.185,163.379,106.184,163.326z"/>
		<path fill="#1A171B" d="M103.646,162.598c-0.049-0.082-0.057-0.174-0.021-0.274l0.231-0.689c0.032-0.096,0.093-0.166,0.183-0.211
			c0.089-0.043,0.183-0.049,0.277-0.018c0.097,0.032,0.167,0.094,0.211,0.182c0.044,0.09,0.05,0.185,0.019,0.279l-0.184,0.545
			l0.325,0.653l0.2,0.066l0.348-1.035c0.032-0.096,0.093-0.166,0.183-0.211c0.089-0.045,0.183-0.051,0.277-0.018
			c0.098,0.033,0.167,0.094,0.211,0.182c0.044,0.09,0.051,0.184,0.019,0.279l-0.694,2.068c-0.034,0.1-0.097,0.17-0.186,0.205
			l-0.921,0.457c-0.089,0.049-0.181,0.057-0.275,0.022c-0.102-0.035-0.17-0.097-0.207-0.187c-0.047-0.086-0.056-0.182-0.022-0.274
			c0.032-0.099,0.095-0.166,0.186-0.207l0.785-0.396l0.066-0.201l-0.344-0.114c-0.102-0.035-0.17-0.097-0.207-0.187L103.646,162.598
			z"/>
		<path fill="#1A171B" d="M103.105,161.855c0.044,0.088,0.049,0.18,0.013,0.274c-0.034,0.097-0.099,0.162-0.189,0.199l-0.938,0.426
			c-0.089,0.045-0.181,0.05-0.275,0.015c-0.101-0.037-0.167-0.103-0.199-0.193l-0.426-0.936c-0.044-0.091-0.048-0.183-0.014-0.275
			c0.035-0.094,0.102-0.162,0.191-0.201l0.938-0.424c0.089-0.045,0.182-0.049,0.276-0.014c0.095,0.034,0.162,0.1,0.2,0.19
			L103.105,161.855z M102.295,161.822l-0.123-0.271l-0.271,0.121l0.124,0.273L102.295,161.822z"/>
		<path fill="#1A171B" d="M98.494,161.473c-0.094-0.037-0.159-0.104-0.198-0.192c-0.038-0.093-0.037-0.188,0.002-0.279l0.559-1.344
			c0.027-0.066,0.072-0.121,0.134-0.162c0.062-0.039,0.128-0.06,0.203-0.062c0.163-0.002,0.273,0.074,0.332,0.226l0.07,0.172
			c0.053-0.054,0.114-0.088,0.187-0.108c0.071-0.021,0.146-0.015,0.222,0.02c0.075,0.031,0.133,0.078,0.169,0.145
			c0.036,0.064,0.056,0.135,0.057,0.207l0.17-0.068c0.146-0.063,0.279-0.038,0.395,0.076c0.052,0.054,0.084,0.115,0.101,0.188
			c0.015,0.072,0.008,0.142-0.021,0.207l-0.559,1.344c-0.039,0.095-0.104,0.162-0.197,0.199c-0.092,0.037-0.185,0.037-0.277-0.002
			c-0.096-0.039-0.16-0.104-0.197-0.197c-0.039-0.092-0.037-0.186,0.001-0.278l0.221-0.529l-0.14,0.053
			c-0.042,0.025-0.088,0.035-0.14,0.029c-0.101,0.002-0.187-0.035-0.255-0.105c-0.04-0.033-0.063-0.072-0.077-0.119l-0.062-0.137
			l-0.22,0.531c-0.039,0.094-0.105,0.16-0.196,0.199C98.68,161.514,98.589,161.514,98.494,161.473z"/>
		<path d="M159.527,17.438c-0.037-0.092-0.033-0.186,0.006-0.278c0.041-0.094,0.107-0.158,0.201-0.195
			c0.092-0.035,0.186-0.033,0.277,0.008l0.334,0.146l0.442-0.997c0.041-0.094,0.107-0.158,0.199-0.195
			c0.094-0.035,0.188-0.033,0.279,0.007l0.666,0.292c0.094,0.041,0.157,0.107,0.194,0.199c0.035,0.093,0.031,0.187-0.01,0.279
			c-0.039,0.093-0.104,0.157-0.199,0.193c-0.094,0.036-0.188,0.034-0.28-0.008l-0.337-0.146l-0.438,0.999
			c-0.041,0.094-0.107,0.158-0.201,0.194c-0.092,0.036-0.186,0.034-0.277-0.007l-0.665-0.291
			C159.626,17.598,159.562,17.531,159.527,17.438z"/>
		<path d="M156.415,13.126c-0.041-0.09-0.045-0.184-0.01-0.278c0.035-0.096,0.1-0.164,0.189-0.206
			c0.089-0.042,0.182-0.045,0.276-0.009l1.363,0.505c0.098,0.036,0.164,0.098,0.207,0.188c0.041,0.091,0.043,0.184,0.008,0.278
			l-0.252,0.683c-0.035,0.1-0.1,0.167-0.189,0.201l-0.797,0.371l-0.451,1.223c-0.036,0.095-0.1,0.164-0.188,0.206
			s-0.184,0.044-0.277,0.009c-0.096-0.036-0.164-0.098-0.205-0.188c-0.043-0.09-0.045-0.184-0.012-0.278l0.506-1.364
			c0.035-0.095,0.101-0.163,0.191-0.201l0.797-0.373l0.072-0.198l-1.023-0.378C156.527,13.28,156.458,13.217,156.415,13.126z"/>
		<path d="M153.751,14.648l0.459-0.23l-0.76-1.513c-0.049-0.083-0.057-0.176-0.022-0.276l0.229-0.69
			c0.031-0.096,0.092-0.167,0.182-0.213c0.089-0.044,0.183-0.051,0.275-0.019l1.383,0.455c0.099,0.031,0.168,0.092,0.213,0.18
			c0.045,0.089,0.054,0.183,0.021,0.279c-0.031,0.096-0.092,0.167-0.183,0.212c-0.088,0.044-0.182,0.051-0.276,0.019l-1.035-0.341
			l-0.066,0.2l0.855,1.706c0.047,0.086,0.055,0.179,0.022,0.274c-0.03,0.098-0.094,0.166-0.184,0.208l-0.918,0.464
			c-0.088,0.048-0.18,0.056-0.275,0.023l-0.69-0.228c-0.097-0.032-0.168-0.093-0.213-0.181c-0.043-0.089-0.052-0.183-0.019-0.277
			c0.029-0.098,0.092-0.167,0.181-0.213c0.088-0.045,0.182-0.052,0.278-0.021L153.751,14.648z"/>
		<path d="M152.154,14.267c0.051,0.086,0.061,0.178,0.031,0.276c-0.027,0.097-0.086,0.168-0.177,0.213l-0.901,0.492
			c-0.086,0.051-0.178,0.062-0.273,0.033c-0.104-0.03-0.176-0.09-0.217-0.178c-0.049-0.086-0.061-0.177-0.031-0.274
			c0.029-0.099,0.088-0.169,0.179-0.213l0.903-0.492c0.084-0.051,0.177-0.062,0.271-0.033
			C152.038,14.119,152.109,14.178,152.154,14.267z"/>
		<path d="M148.888,13.253l0.422-1.612l-0.133,0.071c-0.085,0.053-0.177,0.066-0.273,0.042c-0.1-0.026-0.172-0.083-0.219-0.17
			c-0.054-0.084-0.068-0.175-0.043-0.274c0.026-0.099,0.084-0.172,0.172-0.219l0.887-0.521c0.137-0.085,0.271-0.077,0.4,0.021
			c0.057,0.046,0.1,0.103,0.125,0.172c0.022,0.069,0.024,0.139,0.008,0.209l-0.642,2.463l0.353,0.091
			c0.1,0.026,0.172,0.082,0.225,0.167c0.05,0.086,0.062,0.179,0.037,0.277c-0.024,0.099-0.082,0.173-0.168,0.223
			c-0.086,0.051-0.178,0.062-0.276,0.037l-1.406-0.365c-0.101-0.025-0.172-0.082-0.226-0.167c-0.049-0.087-0.062-0.179-0.034-0.276
			c0.022-0.099,0.079-0.173,0.166-0.224c0.086-0.051,0.178-0.062,0.274-0.036L148.888,13.253z"/>
		<path d="M143.23,11.934c-0.058-0.083-0.074-0.173-0.056-0.272c0.021-0.101,0.068-0.178,0.152-0.233
			c0.082-0.056,0.174-0.073,0.273-0.054l2.143,0.416c0.1,0.021,0.178,0.069,0.232,0.152c0.054,0.083,0.071,0.174,0.055,0.273
			c-0.021,0.1-0.07,0.178-0.152,0.233s-0.176,0.074-0.272,0.055l-2.144-0.417C143.363,12.066,143.284,12.017,143.23,11.934z
			 M143.454,10.231c0.021-0.101,0.068-0.179,0.15-0.233c0.082-0.056,0.174-0.073,0.272-0.055l2.144,0.417
			c0.1,0.02,0.178,0.07,0.231,0.152c0.058,0.083,0.074,0.174,0.056,0.274c-0.021,0.099-0.07,0.177-0.152,0.232
			c-0.084,0.057-0.174,0.074-0.271,0.056l-2.145-0.417c-0.1-0.02-0.178-0.07-0.232-0.153
			C143.45,10.423,143.433,10.331,143.454,10.231z"/>
		<path d="M139.82,11.197c-0.103-0.014-0.182-0.061-0.24-0.14c-0.062-0.079-0.086-0.168-0.07-0.271l0.097-0.721
			c0.014-0.101,0.062-0.18,0.145-0.237l0.816-0.624c0.076-0.062,0.166-0.087,0.268-0.074c0.103,0.014,0.183,0.062,0.236,0.143
			c0.063,0.077,0.088,0.166,0.074,0.268c-0.015,0.101-0.062,0.181-0.144,0.237l-0.694,0.537l-0.076,0.57
			c-0.015,0.101-0.062,0.182-0.142,0.242C140.011,11.187,139.919,11.211,139.82,11.197z"/>
		<path d="M136.882,10.035c-0.065-0.07-0.094-0.158-0.082-0.265l0.074-0.724c0.01-0.101,0.056-0.183,0.131-0.247
			c0.078-0.062,0.166-0.088,0.269-0.078c0.104,0.011,0.186,0.056,0.246,0.131c0.062,0.078,0.088,0.167,0.078,0.269l-0.06,0.571
			l0.461,0.566l0.209,0.021l0.111-1.086c0.012-0.101,0.055-0.183,0.133-0.246c0.076-0.062,0.166-0.089,0.269-0.078
			c0.102,0.01,0.184,0.055,0.245,0.131c0.062,0.078,0.089,0.167,0.078,0.268l-0.147,1.447c-0.013,0.102-0.056,0.184-0.133,0.247
			c-0.076,0.062-0.166,0.089-0.267,0.079l-0.725-0.075c-0.105-0.011-0.188-0.055-0.242-0.135L136.882,10.035z"/>
		<path d="M136.054,9.464c0.067,0.072,0.098,0.16,0.092,0.261c-0.008,0.103-0.049,0.185-0.127,0.247l-0.773,0.677
			c-0.072,0.069-0.158,0.101-0.262,0.093c-0.105-0.008-0.188-0.05-0.246-0.126l-0.678-0.774c-0.068-0.072-0.101-0.159-0.092-0.261
			c0.006-0.102,0.049-0.185,0.125-0.247l0.772-0.677c0.072-0.068,0.16-0.099,0.264-0.093c0.103,0.008,0.183,0.048,0.246,0.125
			L136.054,9.464z M135.267,9.666l-0.197-0.225l-0.223,0.197l0.194,0.225L135.267,9.666z"/>
		<path d="M132.159,12.062c-0.104-0.004-0.188-0.044-0.248-0.119c-0.07-0.069-0.104-0.156-0.1-0.259
			c0.004-0.102,0.045-0.185,0.119-0.249l0.643-0.601l0.084-2.027c0.002-0.102,0.041-0.186,0.115-0.254
			c0.072-0.067,0.16-0.099,0.262-0.094c0.103,0.004,0.188,0.043,0.254,0.116c0.068,0.073,0.101,0.16,0.096,0.263l-0.088,2.18
			c-0.004,0.106-0.045,0.19-0.119,0.25l-0.756,0.697C132.349,12.034,132.263,12.066,132.159,12.062z M132.159,12.062
			c-0.104-0.004-0.188-0.044-0.248-0.119c-0.07-0.069-0.104-0.156-0.1-0.259c0.004-0.102,0.045-0.185,0.119-0.249l0.643-0.601
			l0.084-2.027c0.002-0.102,0.041-0.186,0.115-0.254c0.072-0.067,0.16-0.099,0.262-0.094c0.103,0.004,0.188,0.043,0.254,0.116
			c0.068,0.073,0.101,0.16,0.096,0.263l-0.088,2.18c-0.004,0.106-0.045,0.19-0.119,0.25l-0.756,0.697
			C132.349,12.034,132.263,12.066,132.159,12.062z M132.716,7.354c0.005-0.102,0.043-0.186,0.115-0.253
			c0.072-0.066,0.16-0.099,0.262-0.094c0.104,0.004,0.187,0.043,0.255,0.116c0.065,0.073,0.1,0.161,0.096,0.262
			c-0.004,0.102-0.043,0.188-0.117,0.254c-0.072,0.067-0.158,0.1-0.262,0.095c-0.103-0.004-0.187-0.043-0.254-0.115
			C132.743,7.543,132.712,7.455,132.716,7.354z M132.716,7.354c0.005-0.102,0.043-0.186,0.115-0.253
			c0.072-0.066,0.16-0.099,0.262-0.094c0.104,0.004,0.187,0.043,0.255,0.116c0.065,0.073,0.1,0.161,0.096,0.262
			c-0.004,0.102-0.043,0.188-0.117,0.254c-0.072,0.067-0.158,0.1-0.262,0.095c-0.103-0.004-0.187-0.043-0.254-0.115
			C132.743,7.543,132.712,7.455,132.716,7.354z"/>
		<path d="M128.905,11.551c-0.069-0.07-0.104-0.157-0.104-0.259c0-0.103,0.035-0.188,0.104-0.258c0.07-0.07,0.157-0.105,0.26-0.104
			h0.363l0.008-1.091c0-0.103,0.036-0.188,0.106-0.259c0.069-0.069,0.156-0.104,0.258-0.104l0.728,0.001
			c0.103,0,0.188,0.036,0.259,0.105c0.069,0.071,0.104,0.158,0.104,0.259s-0.033,0.188-0.105,0.258
			c-0.069,0.07-0.155,0.105-0.262,0.105l-0.366-0.001l-0.001,1.091c0,0.102-0.034,0.188-0.105,0.259
			c-0.069,0.07-0.156,0.105-0.258,0.105l-0.728-0.001C129.061,11.656,128.975,11.621,128.905,11.551z"/>
		<path d="M125.621,11.046c-0.104,0.004-0.188-0.029-0.26-0.099c-0.075-0.064-0.114-0.148-0.12-0.25
			c-0.003-0.103,0.029-0.188,0.101-0.259l0.697-0.756c0.064-0.075,0.147-0.115,0.25-0.119c0.104-0.004,0.188,0.029,0.259,0.1
			l0.491,0.444l0.453-0.481c0.065-0.076,0.148-0.116,0.251-0.12c0.104-0.004,0.188,0.028,0.259,0.099
			c0.074,0.065,0.114,0.148,0.12,0.25c0.003,0.102-0.028,0.188-0.101,0.259l-0.697,0.756c-0.063,0.074-0.146,0.114-0.25,0.119
			c-0.104,0.004-0.192-0.028-0.259-0.099l-0.491-0.446l-0.452,0.484C125.804,11.002,125.721,11.042,125.621,11.046z"/>
		<path d="M120.841,11.244c-0.022-0.038-0.037-0.082-0.043-0.136c-0.005-0.052,0-0.1,0.016-0.14c0.009-0.05,0.032-0.091,0.067-0.124
			l0.648-0.797c0.061-0.08,0.142-0.125,0.242-0.135c0.102-0.011,0.188,0.018,0.265,0.083l0.798,0.649
			c0.127,0.1,0.167,0.227,0.119,0.382c-0.021,0.07-0.061,0.13-0.116,0.177c-0.058,0.047-0.121,0.074-0.192,0.082l-0.572,0.059
			l0.113,0.098c0.079,0.061,0.124,0.142,0.134,0.242c0.012,0.102-0.017,0.19-0.082,0.265c-0.062,0.079-0.141,0.125-0.243,0.135
			c-0.104,0.011-0.193-0.018-0.264-0.083l-0.797-0.65C120.89,11.326,120.86,11.291,120.841,11.244z"/>
		<path d="M118.147,11.73c-0.082-0.057-0.129-0.137-0.145-0.236c-0.015-0.101,0.012-0.19,0.072-0.267l0.62-0.819
			c0.054-0.081,0.133-0.13,0.237-0.145l0.36-0.05l-0.149-1.08c-0.015-0.101,0.009-0.191,0.068-0.271
			c0.061-0.079,0.141-0.125,0.241-0.14c0.102-0.014,0.19,0.009,0.271,0.068c0.08,0.061,0.125,0.142,0.14,0.242l0.4,2.881
			c0.014,0.1-0.01,0.19-0.069,0.27c-0.06,0.08-0.14,0.126-0.24,0.141l-0.722,0.1c-0.104,0.015-0.193-0.01-0.268-0.074L118.147,11.73
			z M118.876,11.372l0.409,0.312l0.209-0.028l-0.1-0.722l-0.209,0.029L118.876,11.372z"/>
		<path d="M113.658,12.443c-0.026-0.034-0.045-0.077-0.056-0.13c-0.012-0.053-0.011-0.1,0.001-0.142
			c0.005-0.05,0.022-0.093,0.056-0.129l0.572-0.854c0.053-0.085,0.129-0.137,0.229-0.155c0.101-0.021,0.189-0.001,0.271,0.058
			l0.854,0.572c0.137,0.087,0.188,0.21,0.154,0.37c-0.016,0.071-0.049,0.134-0.1,0.186c-0.053,0.052-0.113,0.086-0.186,0.1
			l-0.562,0.111l0.121,0.088c0.084,0.052,0.137,0.128,0.155,0.229c0.021,0.1,0.001,0.189-0.058,0.271
			c-0.053,0.085-0.129,0.137-0.229,0.157c-0.104,0.021-0.193,0.002-0.271-0.058l-0.854-0.572
			C113.716,12.52,113.682,12.489,113.658,12.443z"/>
		<path d="M111.486,13.93c-0.099,0.023-0.189,0.009-0.274-0.043c-0.084-0.053-0.14-0.129-0.162-0.228l-0.333-1.416
			c-0.022-0.1-0.008-0.19,0.043-0.276c0.053-0.084,0.129-0.139,0.228-0.162l0.708-0.167c0.1-0.022,0.189-0.007,0.272,0.048
			l0.875,0.542c0.087,0.049,0.142,0.123,0.164,0.224l0.167,0.708c0.022,0.099,0.01,0.19-0.043,0.275
			c-0.054,0.084-0.128,0.139-0.229,0.161c-0.099,0.023-0.189,0.009-0.274-0.043c-0.084-0.053-0.14-0.128-0.161-0.228l-0.132-0.56
			l-0.621-0.385l-0.206,0.048l0.25,1.062c0.022,0.099,0.01,0.19-0.044,0.275C111.663,13.854,111.586,13.907,111.486,13.93z"/>
		<path d="M108.826,14.645c-0.099,0.027-0.189,0.017-0.276-0.034c-0.087-0.049-0.145-0.122-0.17-0.221l-0.384-1.403
			c-0.025-0.098-0.017-0.19,0.033-0.276c0.051-0.086,0.123-0.144,0.222-0.169l0.701-0.192c0.099-0.026,0.189-0.015,0.274,0.038
			l0.895,0.51c0.088,0.046,0.146,0.119,0.172,0.218l0.191,0.7c0.027,0.099,0.017,0.191-0.033,0.277
			c-0.049,0.087-0.124,0.143-0.221,0.169c-0.099,0.027-0.189,0.017-0.277-0.033c-0.086-0.049-0.143-0.123-0.169-0.221l-0.15-0.554
			l-0.635-0.362l-0.203,0.056l0.288,1.053c0.026,0.098,0.017,0.19-0.034,0.276S108.925,14.617,108.826,14.645z"/>
		<path d="M105.584,14.645c-0.029-0.031-0.054-0.072-0.068-0.123c-0.017-0.051-0.021-0.098-0.014-0.141
			c-0.001-0.05,0.014-0.095,0.042-0.135l0.478-0.911c0.043-0.091,0.112-0.15,0.211-0.182c0.097-0.029,0.188-0.021,0.274,0.029
			l0.911,0.478c0.145,0.071,0.208,0.188,0.193,0.352c-0.008,0.072-0.035,0.138-0.08,0.195s-0.103,0.097-0.173,0.119l-0.548,0.171
			l0.13,0.073c0.089,0.044,0.149,0.113,0.181,0.211c0.029,0.097,0.021,0.188-0.028,0.275c-0.043,0.09-0.112,0.149-0.21,0.18
			c-0.104,0.032-0.193,0.022-0.275-0.027l-0.911-0.479C105.648,14.716,105.612,14.687,105.584,14.645z"/>
		<path d="M103.059,15.656c-0.089-0.035-0.151-0.104-0.188-0.203l-0.242-0.687c-0.033-0.096-0.028-0.188,0.014-0.277
			c0.043-0.091,0.111-0.152,0.209-0.187c0.096-0.034,0.188-0.029,0.277,0.014c0.09,0.042,0.15,0.112,0.186,0.208l0.19,0.542
			l0.658,0.315l0.198-0.07L104,14.284c-0.034-0.097-0.028-0.189,0.015-0.278c0.042-0.09,0.111-0.152,0.208-0.187
			c0.096-0.033,0.188-0.028,0.277,0.015c0.09,0.042,0.15,0.112,0.186,0.208l0.726,2.058c0.036,0.101,0.029,0.193-0.019,0.276
			l-0.443,0.927c-0.04,0.091-0.107,0.154-0.203,0.188c-0.102,0.035-0.192,0.029-0.275-0.019c-0.092-0.039-0.153-0.107-0.188-0.203
			c-0.033-0.096-0.027-0.188,0.02-0.275l0.375-0.796l-0.069-0.199l-0.343,0.121c-0.103,0.035-0.192,0.029-0.276-0.02L103.059,15.656
			z"/>
		<path d="M102.096,15.483c0.092,0.036,0.156,0.103,0.194,0.197c0.037,0.094,0.033,0.188-0.01,0.276l-0.409,0.943
			c-0.037,0.094-0.103,0.158-0.197,0.195c-0.1,0.039-0.19,0.037-0.276-0.008l-0.941-0.41c-0.094-0.036-0.158-0.102-0.194-0.197
			c-0.037-0.094-0.035-0.187,0.009-0.275l0.41-0.943c0.035-0.093,0.102-0.158,0.196-0.195c0.095-0.036,0.188-0.034,0.276,0.01
			L102.096,15.483z M101.472,16.003l-0.274-0.119l-0.118,0.273l0.272,0.118L101.472,16.003z"/>
		<path d="M98.477,18.447c-0.094,0.041-0.187,0.043-0.278,0.007S98.04,18.352,98,18.259l-0.582-1.333
			c-0.028-0.067-0.037-0.136-0.022-0.208c0.014-0.072,0.046-0.134,0.096-0.188c0.113-0.118,0.244-0.146,0.393-0.084l0.174,0.066
			c-0.001-0.074,0.016-0.143,0.051-0.209c0.035-0.064,0.09-0.114,0.166-0.146c0.076-0.033,0.148-0.04,0.221-0.022
			c0.072,0.021,0.135,0.054,0.188,0.105l0.066-0.174c0.056-0.15,0.165-0.228,0.327-0.229c0.074,0,0.143,0.019,0.204,0.058
			c0.062,0.04,0.107,0.092,0.137,0.159L100,17.387c0.041,0.093,0.043,0.188,0.007,0.279s-0.103,0.159-0.194,0.199
			s-0.187,0.043-0.279,0.007c-0.092-0.036-0.158-0.103-0.199-0.195l-0.229-0.527l-0.06,0.138c-0.012,0.048-0.036,0.088-0.073,0.121
			c-0.069,0.071-0.153,0.108-0.255,0.109c-0.05,0.007-0.097-0.003-0.14-0.026l-0.14-0.05l0.229,0.527
			c0.041,0.093,0.043,0.188,0.006,0.28C98.636,18.339,98.571,18.406,98.477,18.447z"/>
		<path fill="#1A171B" d="M58.106,179.82c-0.07-0.07-0.104-0.156-0.104-0.258c0-0.104,0.034-0.188,0.104-0.261
			c0.069-0.067,0.156-0.104,0.258-0.104h0.574l0.517-0.519l0.001-2.027c0-0.104,0.034-0.188,0.104-0.26
			c0.069-0.07,0.155-0.104,0.258-0.104s0.188,0.035,0.257,0.104c0.07,0.07,0.105,0.156,0.105,0.26l-0.001,2.183
			c0,0.104-0.037,0.19-0.109,0.254l-0.728,0.729c-0.067,0.072-0.151,0.106-0.254,0.106h-0.727
			C58.262,179.926,58.176,179.893,58.106,179.82z"/>
		<path fill="#1A171B" d="M62.792,178.58c0.072,0.068,0.108,0.152,0.108,0.254c0,0.104-0.037,0.188-0.108,0.256l-0.727,0.729
			c-0.067,0.07-0.151,0.107-0.254,0.107c-0.105,0-0.19-0.035-0.254-0.107l-0.726-0.729c-0.073-0.066-0.107-0.152-0.107-0.254
			c0-0.104,0.036-0.188,0.108-0.256l0.727-0.727c0.067-0.072,0.152-0.109,0.254-0.109c0.103,0,0.187,0.035,0.254,0.109
			L62.792,178.58z M62.022,178.834l-0.211-0.209l-0.21,0.211l0.21,0.211L62.022,178.834z"/>
		<path fill="#1A171B" d="M63.554,179.09c-0.073-0.062-0.109-0.148-0.109-0.256v-0.727c0-0.103,0.035-0.188,0.104-0.258
			c0.07-0.07,0.156-0.105,0.259-0.105c0.102,0,0.188,0.035,0.258,0.105c0.07,0.069,0.104,0.155,0.104,0.258v0.574l0.516,0.518h0.21
			l0.001-1.092c0-0.103,0.035-0.188,0.104-0.258c0.069-0.07,0.155-0.105,0.259-0.105c0.102,0,0.188,0.035,0.257,0.105
			c0.069,0.069,0.104,0.155,0.104,0.258v1.455c0,0.102-0.036,0.188-0.105,0.258c-0.07,0.07-0.156,0.104-0.258,0.104h-0.727
			c-0.104,0-0.19-0.035-0.254-0.107L63.554,179.09z"/>
		<path fill="#1A171B" d="M66.529,179.926c-0.102,0-0.188-0.035-0.258-0.104c-0.07-0.07-0.104-0.156-0.104-0.259v-0.729
			c0-0.102,0.035-0.186,0.108-0.254l0.727-0.729c0.067-0.072,0.151-0.107,0.254-0.107s0.187,0.035,0.254,0.107
			c0.073,0.067,0.108,0.151,0.108,0.256c0,0.102-0.036,0.188-0.108,0.254l-0.616,0.627v0.574c0,0.102-0.036,0.188-0.104,0.258
			C66.717,179.891,66.631,179.926,66.529,179.926z"/>
		<path fill="#1A171B" d="M71.865,177.125c0.073,0.068,0.109,0.152,0.109,0.254v1.455c0,0.107-0.037,0.191-0.109,0.256l-0.726,0.727
			c-0.068,0.072-0.152,0.109-0.254,0.109c-0.106,0-0.191-0.037-0.255-0.109l-0.726-0.727c-0.072-0.062-0.108-0.148-0.108-0.256
			l0.001-1.455c0-0.102,0.036-0.186,0.108-0.254l0.727-0.727c0.067-0.074,0.152-0.109,0.255-0.109c0.101,0,0.186,0.035,0.254,0.109
			L71.865,177.125z M71.249,177.531l-0.362-0.363l-0.363,0.363v1.148l0.362,0.362l0.362-0.362L71.249,177.531z"/>
		<path fill="#1A171B" d="M74.587,177.125c0.072,0.068,0.108,0.152,0.108,0.254v1.455c0,0.107-0.037,0.191-0.108,0.254l-0.728,0.729
			c-0.066,0.072-0.151,0.109-0.254,0.109c-0.105,0-0.19-0.037-0.254-0.109l-0.726-0.727c-0.072-0.062-0.108-0.148-0.108-0.256
			l0.001-1.455c0-0.102,0.036-0.186,0.108-0.254l0.727-0.727c0.067-0.074,0.152-0.109,0.254-0.109s0.187,0.035,0.254,0.107
			L74.587,177.125z M73.97,177.531l-0.363-0.363l-0.363,0.363v1.148l0.362,0.362l0.363-0.362L73.97,177.531z"/>
		<path fill="#1A171B" d="M75.347,180.543c-0.073-0.068-0.109-0.152-0.109-0.254c0-0.104,0.037-0.188,0.109-0.256l0.726-0.729
			c0.068-0.07,0.153-0.107,0.254-0.107c0.103,0,0.188,0.037,0.255,0.107c0.072,0.067,0.108,0.151,0.108,0.256
			c0,0.102-0.037,0.188-0.108,0.256l-0.727,0.727c-0.067,0.072-0.152,0.109-0.254,0.109
			C75.494,180.652,75.41,180.615,75.347,180.543z M76.691,178.107c0,0.102-0.035,0.188-0.105,0.258
			c-0.069,0.07-0.155,0.104-0.258,0.104c-0.101,0-0.188-0.033-0.258-0.104c-0.069-0.07-0.104-0.156-0.104-0.258
			c0-0.104,0.035-0.189,0.104-0.26c0.07-0.07,0.156-0.105,0.258-0.105c0.104,0,0.188,0.035,0.259,0.105
			C76.656,177.918,76.691,178.004,76.691,178.107z"/>
		<path fill="#1A171B" d="M79.304,177.125c0.072,0.068,0.108,0.152,0.108,0.254l-0.001,1.455c0,0.105-0.037,0.191-0.108,0.254
			l-0.728,0.729c-0.067,0.072-0.151,0.107-0.254,0.107c-0.105,0-0.19-0.035-0.254-0.107l-0.725-0.729
			c-0.073-0.061-0.108-0.146-0.108-0.254v-1.455c0-0.102,0.036-0.186,0.109-0.254l0.727-0.729c0.068-0.072,0.152-0.109,0.254-0.109
			c0.104,0,0.188,0.037,0.255,0.109L79.304,177.125z M78.687,177.531l-0.363-0.363l-0.362,0.363l-0.001,1.148l0.362,0.362
			l0.363-0.362L78.687,177.531z"/>
		<path fill="#1A171B" d="M82.025,177.123c0.073,0.068,0.108,0.154,0.108,0.256v1.455c0,0.105-0.036,0.191-0.108,0.254l-0.727,0.729
			c-0.067,0.072-0.151,0.107-0.254,0.107c-0.105,0-0.19-0.035-0.254-0.107l-0.726-0.729c-0.073-0.062-0.108-0.146-0.108-0.254
			l0.001-1.455c0-0.102,0.035-0.186,0.108-0.254l0.727-0.729c0.067-0.072,0.152-0.109,0.254-0.109s0.187,0.037,0.254,0.109
			L82.025,177.123z M81.409,177.531l-0.362-0.363l-0.362,0.363v1.148l0.362,0.362l0.362-0.362V177.531z"/>
		<path fill="#1A171B" d="M178.114,179.213l0.002-1.666l-0.107,0.104c-0.067,0.072-0.153,0.107-0.256,0.107
			c-0.102,0-0.188-0.035-0.254-0.107c-0.071-0.067-0.106-0.151-0.106-0.254c0-0.104,0.035-0.188,0.106-0.256l0.728-0.729
			c0.11-0.115,0.242-0.143,0.393-0.08c0.066,0.031,0.121,0.074,0.162,0.135c0.041,0.062,0.062,0.127,0.062,0.201l-0.003,2.545h0.361
			c0.104,0,0.189,0.035,0.26,0.105c0.068,0.067,0.105,0.154,0.105,0.258c-0.002,0.102-0.037,0.188-0.105,0.258
			c-0.069,0.07-0.155,0.107-0.26,0.107h-1.449c-0.104,0-0.188-0.037-0.26-0.107c-0.068-0.07-0.104-0.156-0.104-0.258
			c0-0.104,0.034-0.188,0.104-0.258c0.068-0.07,0.156-0.105,0.258-0.105H178.114z"/>
		<path fill="#1A171B" d="M180.216,179.834c-0.069-0.07-0.104-0.156-0.104-0.258v-0.729c0-0.103,0.037-0.187,0.109-0.255
			l1.188-1.198l-0.361-0.363h-0.571c-0.103,0-0.188-0.035-0.259-0.105c-0.069-0.07-0.104-0.156-0.104-0.258s0.035-0.188,0.104-0.258
			c0.07-0.072,0.156-0.107,0.259-0.107h0.727c0.103,0,0.187,0.037,0.254,0.109l0.726,0.727c0.071,0.068,0.108,0.154,0.108,0.256
			c0,0.103-0.037,0.188-0.108,0.256l-1.345,1.353v0.211h1.091c0.102,0,0.188,0.035,0.258,0.104c0.067,0.07,0.104,0.156,0.104,0.259
			s-0.037,0.188-0.106,0.258c-0.07,0.072-0.154,0.106-0.259,0.106h-1.45C180.372,179.939,180.286,179.904,180.216,179.834z"/>
		<path fill="#1A171B" d="M182.941,180.559c-0.072-0.067-0.107-0.151-0.107-0.256c0-0.102,0.035-0.186,0.107-0.254l0.727-0.729
			c0.066-0.072,0.152-0.107,0.256-0.107c0.103,0,0.187,0.035,0.252,0.107c0.074,0.068,0.109,0.152,0.109,0.256
			c0,0.102-0.037,0.188-0.109,0.254l-0.727,0.729c-0.066,0.072-0.15,0.107-0.254,0.107
			C183.087,180.666,183.003,180.631,182.941,180.559z M184.284,178.121c0,0.102-0.033,0.188-0.104,0.258
			c-0.07,0.072-0.156,0.105-0.259,0.105c-0.104,0-0.188-0.033-0.258-0.105c-0.069-0.068-0.104-0.156-0.104-0.258
			s0.035-0.188,0.104-0.258c0.068-0.07,0.154-0.105,0.258-0.105c0.103,0,0.188,0.035,0.259,0.105
			C184.25,177.934,184.284,178.02,184.284,178.121z"/>
		<path fill="#1A171B" d="M186.898,177.139c0.072,0.068,0.108,0.154,0.108,0.256v1.453c0,0.107-0.036,0.191-0.108,0.256
			l-0.728,0.729c-0.067,0.072-0.151,0.106-0.254,0.106c-0.106,0-0.19-0.034-0.254-0.106l-0.727-0.729
			c-0.072-0.062-0.109-0.147-0.109-0.256l0.002-1.453c0-0.102,0.035-0.188,0.109-0.256l0.727-0.727
			c0.066-0.072,0.15-0.109,0.254-0.109c0.103,0,0.187,0.037,0.254,0.109L186.898,177.139z M186.281,177.547l-0.361-0.363
			l-0.362,0.363v1.148l0.362,0.365l0.361-0.365V177.547z"/>
		<path fill="#1A171B" d="M189.618,177.139c0.074,0.068,0.109,0.152,0.109,0.256v1.453c0,0.107-0.035,0.191-0.109,0.256
			l-0.727,0.728c-0.066,0.074-0.152,0.108-0.254,0.108c-0.105,0-0.191-0.034-0.255-0.108l-0.727-0.728
			c-0.07-0.062-0.107-0.147-0.107-0.256l0.002-1.453c0-0.102,0.035-0.188,0.107-0.256l0.727-0.727
			c0.068-0.072,0.152-0.109,0.255-0.109c0.102,0,0.188,0.037,0.254,0.109L189.618,177.139z M189.003,177.547l-0.362-0.363
			l-0.363,0.363v1.148l0.363,0.363l0.36-0.363L189.003,177.547z"/>
		<path fill="#1A171B" d="M192.009,179.834c-0.069-0.07-0.104-0.156-0.104-0.258c0-0.104,0.035-0.189,0.104-0.26
			c0.07-0.07,0.156-0.105,0.259-0.105h0.573l0.517-0.516l0.002-2.029c0-0.102,0.033-0.188,0.104-0.258
			c0.071-0.07,0.156-0.105,0.261-0.105c0.1,0,0.188,0.035,0.256,0.105c0.069,0.07,0.104,0.156,0.104,0.258l-0.002,2.182
			c0,0.107-0.035,0.191-0.108,0.256l-0.726,0.728c-0.067,0.071-0.151,0.108-0.256,0.108h-0.725
			C192.165,179.939,192.079,179.904,192.009,179.834z"/>
		<path fill="#1A171B" d="M196.697,178.592c0.072,0.068,0.107,0.154,0.107,0.256c0,0.103-0.035,0.188-0.109,0.256l-0.728,0.728
			c-0.065,0.071-0.151,0.108-0.254,0.108c-0.104,0-0.188-0.037-0.254-0.108l-0.725-0.728c-0.072-0.067-0.109-0.151-0.109-0.256
			c0-0.102,0.037-0.186,0.109-0.254l0.727-0.729c0.066-0.072,0.152-0.107,0.254-0.107c0.103,0,0.187,0.035,0.255,0.107
			L196.697,178.592z M195.925,178.848l-0.209-0.211l-0.211,0.211l0.211,0.211L195.925,178.848z"/>
		<path fill="#1A171B" d="M197.456,179.102c-0.072-0.062-0.106-0.147-0.106-0.256v-0.727c0-0.102,0.034-0.188,0.104-0.258
			c0.068-0.07,0.154-0.105,0.258-0.105c0.103,0,0.188,0.035,0.259,0.105c0.069,0.068,0.104,0.156,0.104,0.258v0.574l0.516,0.518
			h0.211v-1.092c0-0.102,0.035-0.188,0.105-0.258c0.068-0.07,0.156-0.105,0.258-0.105c0.103,0,0.188,0.035,0.258,0.105
			c0.068,0.068,0.105,0.156,0.105,0.258l-0.002,1.455c0,0.102-0.035,0.188-0.104,0.258s-0.155,0.105-0.258,0.105h-0.729
			c-0.105,0-0.189-0.037-0.254-0.109L197.456,179.102z"/>
		<path fill="#1A171B" d="M200.433,179.938c-0.103,0-0.188-0.035-0.259-0.105c-0.069-0.07-0.104-0.156-0.104-0.258l0.002-0.729
			c0-0.103,0.035-0.187,0.107-0.255l0.727-0.727c0.066-0.074,0.152-0.109,0.254-0.109c0.104,0,0.188,0.035,0.254,0.109
			c0.072,0.065,0.109,0.149,0.109,0.254c0,0.103-0.037,0.188-0.109,0.254l-0.617,0.627v0.572c0,0.104-0.034,0.188-0.104,0.26
			C200.62,179.902,200.534,179.938,200.433,179.938z"/>
	</g>
</g>

</svg>
