<?xml version="1.0" encoding="utf-8"?>
<svg version="1.1" id="Calque_1" xmlns="http://www.w3.org/2000/svg" xmlns:xlink="http://www.w3.org/1999/xlink" x="0px" y="0px" width="32px" height="10px" viewBox="0 0 32 10" enable-background="new 0 0 32 10" xml:space="preserve">

<g fill="black">
	<rect x="24" y="4" width="2" height="4"/>
	<rect x="28" y="4" width="2" height="4"/>
	<rect x="26" width="2" height="4"/>
	<rect x="30" width="2" height="4"/>
	<rect x="26" y="8" width="2" height="2"/>
	<rect x="8" y="4" width="2" height="4"/>
	<polygon points="14,10 14,6 12,6 12,8 10,8 10,10"/>
	<rect x="10" y="2" width="2" height="2"/>
	<rect x="12" width="4" height="2"/>
	<polygon points="2,8 0,8 0,10 6,10 6,8 4,8 4,4 2,4"/>
	<polygon points="2,0 2,2 4,2 4,4 6,4 6,2 8,2 8,0"/>
	<rect x="18" y="6" width="2" height="4"/>
	<polygon points="18,0 18,2 20,2 20,6 22,6 22,2 24,2 24,0"/>
</g>

</svg>
