<?xml version="1.0" encoding="utf-8"?>
<svg version="1.1" xmlns="http://www.w3.org/2000/svg" xmlns:xlink="http://www.w3.org/1999/xlink" x="0px" y="0px" width="260px"
	 height="100px" viewBox="3.334 10.833 260 100" enable-background="new 3.334 10.833 260 100" xml:space="preserve">

<g id="sun">
	<circle fill="black" stroke="black" stroke-linejoin="round" cx="161.68" cy="26.547" r="4"/>
	<circle fill="none" stroke="black" stroke-linejoin="round" cx="104.987" cy="26.547" r="3.999"/>
	<circle fill="none" stroke="black" stroke-linejoin="round" cx="133.332" cy="26.547" r="3.999"/>
	<path fill="black" stroke="black" stroke-linejoin="round" d="M190.027,22.548c-2.209,0-4,1.79-4,3.999s1.791,4,4,4V22.548z"/>
	<path fill="black" d="M133.333,22.548c2.209,0,3.998,1.79,3.998,3.999s-1.789,4-3.998,4V22.548z"/>
	<path fill="none" stroke="black" stroke-linejoin="round" d="M76.64,22.548c2.209,0,4,1.79,4,3.999s-1.791,4-4,4V22.548z"/>
</g>

<g id="numbers">
	<path d="M65.639,95.562c0.109,0.104,0.166,0.232,0.166,0.389v2.223c0,0.162-0.057,0.293-0.166,0.39l-1.111,1.11c-0.104,0.111-0.232,0.166-0.389,0.166c-0.163,0-0.293-0.055-0.391-0.166l-1.109-1.11c-0.111-0.097-0.167-0.228-0.167-0.39v-2.223c0-0.156,0.056-0.285,0.167-0.389l1.109-1.111c0.104-0.111,0.233-0.166,0.391-0.166c0.154,0,0.285,0.055,0.389,0.166L65.639,95.562z M64.695,96.185l-0.556-0.557l-0.557,0.557v1.755l0.557,0.556l0.556-0.556V96.185z"/>
	<path d="M60.417,81.056c-0.11-0.104-0.167-0.232-0.167-0.389s0.057-0.285,0.167-0.39l1.11-1.11c0.171-0.178,0.371-0.219,0.602-0.123c0.104,0.045,0.187,0.113,0.25,0.205c0.062,0.094,0.095,0.194,0.095,0.307v2.223c0,0.155-0.056,0.287-0.161,0.395c-0.107,0.107-0.239,0.162-0.396,0.162c-0.155,0-0.286-0.055-0.395-0.162c-0.108-0.106-0.161-0.238-0.161-0.395V80.9l-0.167,0.155c-0.104,0.11-0.232,0.167-0.389,0.167S60.521,81.167,60.417,81.056zM60.806,85.667c-0.163,0-0.293-0.057-0.39-0.168c-0.11-0.104-0.167-0.232-0.167-0.389s0.057-0.285,0.167-0.389l4.444-4.444c0.104-0.11,0.233-0.167,0.389-0.167c0.156,0,0.285,0.057,0.39,0.167c0.11,0.104,0.167,0.233,0.167,0.39s-0.057,0.285-0.167,0.389L61.195,85.5C61.092,85.611,60.962,85.667,60.806,85.667zM65.639,85.5l-0.188,0.201c0.104,0.036,0.188,0.104,0.255,0.199c0.067,0.096,0.102,0.203,0.102,0.322c0,0.154-0.055,0.287-0.161,0.395c-0.107,0.108-0.239,0.161-0.396,0.161h-1.11c-0.111,0-0.213-0.032-0.307-0.095c-0.093-0.062-0.16-0.146-0.204-0.25c-0.098-0.229-0.057-0.43,0.121-0.6l0.944-0.957v-0.321h-0.556c-0.155,0-0.287-0.054-0.396-0.161c-0.107-0.107-0.16-0.238-0.16-0.395c0-0.154,0.055-0.287,0.161-0.395c0.107-0.105,0.239-0.161,0.396-0.161h1.11c0.155,0,0.287,0.056,0.396,0.161c0.106,0.107,0.161,0.238,0.161,0.395v1.111c65.806,85.274,65.75,85.404,65.639,85.5z"/>
	<path d="M63.583,70.382v-2.543l-0.167,0.154c-0.104,0.111-0.232,0.168-0.389,0.168s-0.285-0.057-0.389-0.168c-0.111-0.104-0.167-0.232-0.167-0.389s0.056-0.285,0.167-0.389l1.109-1.111c0.172-0.178,0.371-0.219,0.602-0.122c0.104,0.044,0.187,0.112,0.25,0.205c0.062,0.093,0.095,0.194,0.095,0.306v3.889h0.555c0.156,0,0.287,0.055,0.396,0.162c0.107,0.106,0.161,0.238,0.161,0.395s-0.055,0.287-0.161,0.395c-0.107,0.108-0.238,0.162-0.396,0.162h-2.222c-0.155,0-0.287-0.055-0.395-0.162c-0.108-0.106-0.161-0.238-0.161-0.395s0.054-0.287,0.161-0.395c0.106-0.108,0.238-0.162,0.395-0.162H63.583z"/>
	<path d="M57.195,56.209v-2.544l-0.167,0.155c-0.104,0.111-0.232,0.167-0.389,0.167s-0.285-0.056-0.39-0.167c-0.11-0.104-0.167-0.233-0.167-0.389c0-0.156,0.057-0.285,0.167-0.389l1.11-1.111c0.171-0.178,0.371-0.219,0.601-0.122c0.104,0.044,0.188,0.112,0.25,0.205c0.062,0.093,0.096,0.194,0.096,0.306v3.889h0.555c0.156,0,0.287,0.054,0.396,0.161c0.107,0.107,0.16,0.239,0.16,0.395c0,0.156-0.054,0.287-0.16,0.395c-0.107,0.108-0.238,0.161-0.396,0.161h-2.222c-0.155,0-0.287-0.054-0.396-0.161c-0.107-0.107-0.161-0.239-0.161-0.395c0-0.156,0.055-0.287,0.161-0.395c0.107-0.108,0.239-0.161,0.396-0.161H57.195z"/>
	<path d="M60.417,52.709c-0.11-0.104-0.167-0.233-0.167-0.389c0-0.156,0.057-0.285,0.167-0.389l1.11-1.111c0.171-0.178,0.371-0.219,0.602-0.122c0.104,0.044,0.187,0.113,0.25,0.205c0.062,0.093,0.095,0.194,0.095,0.306v2.223c0,0.155-0.056,0.287-0.161,0.395c-0.107,0.107-0.239,0.161-0.396,0.161c-0.155,0-0.286-0.054-0.395-0.161c-0.108-0.107-0.161-0.239-0.161-0.395v-0.878l-0.167,0.155c-0.104,0.111-0.232,0.167-0.389,0.167S60.521,52.82,60.417,52.709z M60.806,57.32c-0.163,0-0.293-0.056-0.39-0.167c-0.11-0.104-0.167-0.233-0.167-0.389c0-0.156,0.057-0.285,0.167-0.389l4.444-4.444c0.104-0.111,0.233-0.167,0.389-0.167c0.156,0,0.285,0.056,0.39,0.167c0.11,0.104,0.167,0.233,0.167,0.389c0,0.156-0.057,0.285-0.167,0.389l-4.444,4.444C61.092,57.265,60.962,57.32,60.806,57.32z M65.639,57.153l-0.188,0.2c0.104,0.037,0.188,0.104,0.255,0.2c0.067,0.096,0.102,0.203,0.102,0.322c0,0.155-0.055,0.287-0.161,0.395c-0.107,0.108-0.239,0.161-0.396,0.161h-1.11c-0.111,0-0.213-0.032-0.307-0.096c-0.093-0.062-0.16-0.146-0.204-0.25c-0.098-0.229-0.057-0.43,0.121-0.6l0.944-0.956v-0.322h-0.556c-0.155,0-0.287-0.054-0.396-0.161c-0.107-0.107-0.161-0.238-0.161-0.395c0-0.155,0.055-0.287,0.161-0.395c0.107-0.106,0.239-0.161,0.396-0.161h1.11c0.155,0,0.287,0.055,0.396,0.161c0.106,0.107,0.161,0.239,0.161,0.395v1.111C65.806,56.928,65.75,57.058,65.639,57.153z"/>
	<path d="M62.634,42.986c-0.107-0.107-0.161-0.239-0.161-0.395V41.48c0-0.155,0.056-0.285,0.167-0.389l1.822-1.833l-0.557-0.556h-0.878c-0.155,0-0.287-0.054-0.395-0.161c-0.108-0.107-0.161-0.239-0.161-0.395s0.054-0.287,0.161-0.395c0.106-0.108,0.238-0.161,0.395-0.161h1.111c0.154,0,0.285,0.056,0.389,0.167l1.111,1.111c0.109,0.104,0.166,0.232,0.166,0.389c0,0.155-0.057,0.285-0.166,0.389l-2.057,2.066v0.322h1.666c0.156,0,0.287,0.054,0.396,0.161c0.107,0.107,0.161,0.239,0.161,0.395c0,0.156-0.055,0.287-0.161,0.395c-0.107,0.108-0.238,0.161-0.396,0.161h-2.222C62.872,43.147,62.74,43.094,62.634,42.986z"/>
</g>

<g id="lines" fill="none" stroke="black" stroke-linejoin="round">
	<rect x="76.641" y="40.547" width="113.386" height="56.693"/>
	<line x1="76.641" y1="54.72" x2="190.026" y2="54.72"/>
	<line x1="76.641" y1="68.893" x2="190.026" y2="68.893"/>
	<line x1="76.641" y1="83.065" x2="190.026" y2="83.065"/>
	<line x1="175.853" y1="97.24" x2="175.853" y2="40.547"/>
	<line x1="175.853" y1="97.24" x2="175.853" y2="40.547"/>
	<line x1="161.68" y1="97.24" x2="161.68" y2="40.547"/>
	<line x1="147.508" y1="97.24" x2="147.508" y2="40.547"/>
	<line x1="133.333" y1="97.24" x2="133.333" y2="40.547"/>
	<line x1="119.16" y1="97.24" x2="119.16" y2="40.547"/>
	<line x1="104.988" y1="97.24" x2="104.988" y2="40.547"/>
	<line x1="90.814" y1="97.24" x2="90.814" y2="40.547"/>
	<line x1="190.027" y1="97.806" x2="190.027" y2="41.113"/>
	<path stroke-linecap="round" stroke-dasharray="2,2" d="M76.64,68.894c7.087-7.087,14.174-14.174,28.348-14.174c28.346,0,28.346,28.346,56.691,28.346c14.174,0,21.26-7.086,28.347-14.172"/>
</g>
</svg>
