<?xml version="1.0" encoding="utf-8"?>
<svg version="1.1" id="Calque_1" xmlns="http://www.w3.org/2000/svg" xmlns:xlink="http://www.w3.org/1999/xlink" x="0px" y="0px" width="2002.289px" height="985.386px" viewBox="0 0 2002.289 985.386" enable-background="new 0 0 2002.289 985.386" xml:space="preserve">

<g id="servers" fill="none" stroke="#0000FF" stroke-linecap="round" stroke-linejoin="round" stroke-miterlimit="3">
	<polygon points="1772.294,985.683 1758.765,993.503 1745.236,985.683 1745.236,970.041 1758.765,962.216 1772.294,970.041"/>
	<polygon points="1799.353,985.683 1785.823,993.503 1772.294,985.683 1772.294,970.041 1785.823,962.216 1799.353,970.041"/>
	<polygon points="1826.411,985.683 1812.882,993.503 1799.353,985.683 1799.353,970.041 1812.882,962.216 1826.411,970.041"/>
	<polygon points="1853.47,985.683 1839.942,993.503 1826.411,985.683 1826.411,970.041 1839.942,962.216 1853.47,970.041"/>
	<polygon points="1785.823,962.216 1772.294,970.039 1758.765,962.216 1758.765,946.578 1772.294,938.755 1785.823,946.578"/>
	<polygon points="1812.882,962.216 1799.353,970.039 1785.823,962.216 1785.823,946.578 1799.353,938.755 1812.882,946.578"/>
	<polygon points="1839.942,962.216 1826.411,970.039 1812.882,962.216 1812.882,946.578 1826.411,938.755 1839.942,946.578"/>
	<polygon points="1799.353,938.755 1785.823,946.576 1772.294,938.755 1772.294,923.113 1785.823,915.291 1799.353,923.113"/>
	<polygon points="1812.882,821.466 1799.353,829.289 1785.823,821.466 1785.823,805.826 1799.353,798.003 1812.882,805.826"/>
	<polygon points="1582.888,844.927 1569.36,852.75 1555.831,844.927 1555.831,829.287 1569.36,821.464 1582.888,829.287"/>
	<polygon points="1596.418,868.392 1582.888,876.214 1569.36,868.392 1569.36,852.751 1582.888,844.927 1596.418,852.751"/>
	<polygon points="1677.591,962.222 1664.062,970.044 1650.532,962.222 1650.532,946.58 1664.062,938.759 1677.591,946.58"/>
	<polygon points="1434.071,962.224 1420.542,970.044 1407.013,962.224 1407.013,946.582 1420.542,938.759 1434.071,946.582"/>
	<polygon points="1569.36,868.392 1555.831,876.214 1542.301,868.392 1542.301,852.751 1555.831,844.927 1569.36,852.751"/>
	<polygon points="2002.288,774.513 1988.759,782.333 1975.231,774.513 1975.231,758.871 1988.759,751.048 2002.288,758.871"/>
	<polygon points="1812.884,680.705 1799.356,688.525 1785.825,680.705 1785.825,665.062 1799.356,657.24 1812.884,665.062"/>
	<polygon points="1718.179,751.05 1704.651,758.873 1691.122,751.05 1691.122,735.41 1704.651,727.587 1718.179,735.41"/>
	<polygon points="1596.417,727.625 1582.888,735.445 1569.359,727.625 1569.359,711.982 1582.888,704.16 1596.417,711.982"/>
	<polygon points="1718.179,610.324 1704.651,618.144 1691.12,610.324 1691.12,594.681 1704.651,586.859 1718.179,594.681"/>
	<polygon points="1501.72,657.208 1488.192,665.029 1474.66,657.208 1474.66,641.566 1488.192,633.744 1501.72,641.566"/>
	<polygon points="1461.128,774.542 1447.599,782.363 1434.069,774.542 1434.069,758.9 1447.599,751.078 1461.128,758.9"/>
	<polygon points="1366.429,797.976 1352.901,805.796 1339.37,797.976 1339.37,782.333 1352.901,774.509 1366.429,782.333"/>
	<polygon points="1379.96,680.664 1366.431,688.486 1352.902,680.664 1352.902,665.023 1366.431,657.201 1379.96,665.023"/>
	<polygon points="1298.784,727.589 1285.255,735.41 1271.726,727.589 1271.726,711.947 1285.255,704.125 1298.784,711.947"/>
	<polygon points="1312.315,751.05 1298.784,758.875 1285.255,751.05 1285.255,735.412 1298.784,727.589 1312.315,735.412"/>
	<polygon points="1258.197,844.896 1244.668,852.716 1231.138,844.896 1231.138,829.255 1244.668,821.433 1258.197,829.255"/>
	<polygon points="1136.438,821.433 1122.906,829.253 1109.377,821.433 1109.377,805.791 1122.906,797.966 1136.438,805.791"/>
	<polygon points="1231.144,985.669 1217.612,993.49 1204.083,985.669 1204.083,970.027 1217.612,962.205 1231.144,970.027"/>
	<polygon points="1014.672,938.492 1001.144,946.312 987.613,938.492 987.613,922.849 1001.144,915.027 1014.672,922.849"/>
	<polygon points="892.91,961.955 879.38,969.775 865.851,961.955 865.851,946.312 879.38,938.49 892.91,946.312"/>
	<polygon points="703.508,961.871 689.98,969.693 676.45,961.871 676.45,946.23 689.98,938.408 703.508,946.23"/>
	<polygon points="717.038,985.335 703.508,993.158 689.98,985.335 689.98,969.695 703.508,961.871 717.038,969.695"/>
	<polygon points="676.447,961.955 662.918,969.775 649.388,961.955 649.388,946.312 662.918,938.49 676.447,946.312"/>
	<polygon points="662.918,985.417 649.388,993.24 635.86,985.417 635.86,969.777 649.388,961.955 662.918,969.777"/>
	<polygon points="676.447,1008.882 662.918,1016.703 649.388,1008.882 649.388,993.24 662.918,985.417 676.447,993.24"/>
	<polygon points="703.508,1008.8 689.98,1016.621 676.45,1008.8 676.45,993.158 689.98,985.335 703.508,993.158"/>
	<polygon points="635.861,891.568 622.332,899.388 608.802,891.568 608.802,875.925 622.332,868.103 635.861,875.925"/>
	<polygon points="568.217,821.181 554.689,829.001 541.159,821.181 541.159,805.539 554.689,797.716 568.217,805.539"/>
	<polygon points="744.092,797.722 730.564,805.542 717.034,797.722 717.034,782.08 730.564,774.257 744.092,782.08"/>
	<polygon points="771.148,844.646 757.618,852.466 744.088,844.646 744.088,829.005 757.618,821.183 771.148,829.005"/>
	<polygon points="892.91,774.259 879.38,782.082 865.851,774.259 865.851,758.619 879.38,750.796 892.91,758.619"/>
	<polygon points="933.498,750.798 919.968,758.619 906.44,750.798 906.44,735.156 919.968,727.333 933.498,735.156"/>
	<polygon points="838.793,680.414 825.263,688.234 811.735,680.414 811.735,664.771 825.263,656.949 838.793,664.771"/>
	<polygon points="798.205,703.875 784.675,711.695 771.147,703.875 771.147,688.232 784.675,680.41 798.205,688.232"/>
	<polygon points="703.506,680.414 689.978,688.234 676.448,680.414 676.448,664.771 689.978,656.949 703.506,664.771"/>
	<polygon points="676.447,680.414 662.918,688.234 649.388,680.414 649.388,664.771 662.918,656.949 676.447,664.771"/>
	<polygon points="689.976,703.876 676.447,711.699 662.918,703.876 662.918,688.236 676.447,680.414 689.976,688.236"/>
	<polygon points="500.574,938.492 487.045,946.312 473.515,938.492 473.515,922.849 487.045,915.027 500.574,922.849"/>
	<polygon points="473.512,938.492 459.985,946.312 446.455,938.492 446.455,922.849 459.985,915.027 473.512,922.849"/>
	<polygon points="392.34,844.646 378.812,852.466 365.282,844.646 365.282,829.005 378.812,821.183 392.34,829.005"/>
	<polygon points="405.87,868.111 392.34,875.931 378.812,868.111 378.812,852.466 392.34,844.646 405.87,852.466"/>
	<polygon points="378.812,868.111 365.282,875.931 351.753,868.111 351.753,852.466 365.282,844.646 378.812,852.466"/>
	<polygon points="284.11,891.568 270.58,899.388 257.051,891.568 257.051,875.925 270.58,868.103 284.11,875.925"/>
	<polygon points="243.522,961.955 229.992,969.775 216.462,961.955 216.462,946.312 229.992,938.49 243.522,946.312"/>
	<polygon points="162.349,961.955 148.819,969.775 135.29,961.955 135.29,946.312 148.819,938.49 162.349,946.312"/>
	<polygon points="162.349,821.181 148.819,829.001 135.29,821.181 135.29,805.539 148.819,797.716 162.349,805.539"/>
	<polygon points="270.581,774.259 257.052,782.082 243.523,774.259 243.523,758.619 257.052,750.796 270.581,758.619"/>
	<polygon points="378.813,727.263 365.283,735.083 351.754,727.263 351.754,711.621 365.283,703.798 378.813,711.621"/>
	<polygon points="378.813,633.425 365.283,641.246 351.754,633.425 351.754,617.783 365.283,609.96 378.813,617.783"/>
	<polygon points="297.638,680.412 284.11,688.232 270.58,680.412 270.58,664.769 284.11,656.947 297.638,664.769"/>
	<polygon points="202.935,656.89 189.405,664.71 175.876,656.89 175.876,641.248 189.405,633.425 202.935,641.248"/>
	<polygon points="148.819,609.966 135.289,617.787 121.76,609.966 121.76,594.324 135.289,586.501 148.819,594.324"/>
	<polygon points="81.176,539.589 67.647,547.412 54.117,539.589 54.117,523.949 67.647,516.126 81.176,523.949"/>
	<polygon points="162.349,492.67 148.819,500.49 135.29,492.67 135.29,477.027 148.819,469.205 162.349,477.027"/>
	<polygon points="338.226,469.209 324.697,477.031 311.168,469.209 311.168,453.568 324.697,445.746 338.226,453.568"/>
	<polygon points="297.638,398.83 284.11,406.65 270.58,398.83 270.58,383.188 284.11,375.365 297.638,383.188"/>
	<polygon points="473.512,422.338 459.985,430.158 446.455,422.338 446.455,406.695 459.985,398.873 473.512,406.695"/>
	<polygon points="432.927,304.984 419.399,312.807 405.869,304.984 405.869,289.342 419.399,281.521 432.927,289.342"/>
	<polygon points="324.697,258.064 311.168,265.885 297.638,258.064 297.638,242.424 311.168,234.602 324.697,242.424"/>
	<polygon points="257.051,281.561 243.522,289.383 229.992,281.561 229.992,265.92 243.522,258.098 257.051,265.92"/>
	<polygon points="148.819,140.795 135.29,148.617 121.76,140.795 121.76,125.154 135.29,117.332 148.819,125.154"/>
	<polygon points="67.646,93.848 54.116,101.668 40.587,93.848 40.587,78.205 54.116,70.385 67.646,78.205"/>
	<polygon points="40.587,0.002 27.058,7.822 13.529,0.002 13.529,-15.641 27.058,-23.463 40.587,-15.641"/>
	<polygon points="446.457,46.926 432.927,54.746 419.399,46.926 419.399,31.283 432.927,23.461 446.457,31.283"/>
	<polygon points="459.986,70.389 446.457,78.209 432.927,70.389 432.927,54.746 446.457,46.926 459.986,54.746"/>
	<polygon points="338.224,93.875 324.695,101.695 311.166,93.875 311.166,78.232 324.695,70.41 338.224,78.232"/>
	<polygon points="432.927,164.258 419.399,172.078 405.869,164.258 405.869,148.615 419.399,140.793 432.927,148.615"/>
	<polygon points="554.69,187.688 541.16,195.51 527.63,187.688 527.63,172.045 541.16,164.225 554.69,172.045"/>
	<polygon points="568.219,70.389 554.691,78.209 541.161,70.389 541.161,54.746 554.691,46.926 568.219,54.746"/>
	<polygon points="581.748,46.926 568.218,54.746 554.69,46.926 554.69,31.283 568.218,23.461 581.748,31.283"/>
	<polygon points="554.69,46.926 541.16,54.746 527.63,46.926 527.63,31.283 541.16,23.461 554.69,31.283"/>
	<polygon points="676.449,23.389 662.92,31.209 649.39,23.389 649.39,7.746 662.92,-0.074 676.449,7.746"/>
	<polygon points="703.506,23.393 689.978,31.213 676.448,23.393 676.448,7.75 689.978,-0.07 703.506,7.75"/>
	<polygon points="717.037,0.004 703.507,7.826 689.979,0.004 689.979,-15.637 703.507,-23.459 717.037,-15.637"/>
	<polygon points="838.793,23.473 825.263,31.293 811.735,23.473 811.735,7.83 825.263,0.01 838.793,7.83"/>
	<polygon points="784.678,117.336 771.151,125.158 757.621,117.336 757.621,101.695 771.151,93.873 784.678,101.695"/>
	<polygon points="689.979,140.768 676.449,148.588 662.92,140.768 662.92,125.125 676.449,117.303 689.979,125.125"/>
	<polygon points="892.91,70.412 879.38,78.232 865.851,70.412 865.851,54.77 879.38,46.947 892.91,54.77"/>
	<polygon points="838.793,164.258 825.263,172.078 811.735,164.258 811.735,148.615 825.263,140.793 838.793,148.615"/>
	<polygon points="852.322,187.721 838.793,195.541 825.263,187.721 825.263,172.078 838.793,164.258 852.322,172.078"/>
	<polygon points="1014.672,93.875 1001.144,101.697 987.613,93.875 987.613,78.234 1001.144,70.412 1014.672,78.234"/>
	<polygon points="1231.142,0.266 1217.612,8.086 1204.083,0.266 1204.083,-15.377 1217.612,-23.199 1231.142,-15.377"/>
	<polygon points="1258.197,141.049 1244.668,148.869 1231.138,141.049 1231.138,125.406 1244.668,117.584 1258.197,125.406"/>
	<polygon points="1217.61,164.514 1204.081,172.334 1190.551,164.514 1190.551,148.871 1204.081,141.051 1217.61,148.871"/>
	<polygon points="1379.96,70.668 1366.431,78.488 1352.902,70.668 1352.902,55.025 1366.431,47.203 1379.96,55.025"/>
	<polygon points="1407.017,117.588 1393.487,125.408 1379.958,117.588 1379.958,101.945 1393.487,94.123 1407.017,101.945"/>
	<polygon points="1461.131,211.438 1447.603,219.258 1434.072,211.438 1434.072,195.795 1447.603,187.973 1461.131,195.795"/>
	<polygon points="1447.603,234.9 1434.072,242.723 1420.543,234.9 1420.543,219.26 1434.072,211.438 1447.603,219.26"/>
	<polygon points="1474.66,234.9 1461.131,242.723 1447.603,234.9 1447.603,219.26 1461.131,211.438 1474.66,219.26"/>
	<polygon points="1528.776,47.207 1515.247,55.027 1501.718,47.207 1501.718,31.564 1515.247,23.742 1528.776,31.564"/>
	<polygon points="1582.892,94.125 1569.362,101.945 1555.833,94.125 1555.833,78.482 1569.362,70.66 1582.892,78.482"/>
	<polygon points="1650.534,258.357 1637.005,266.178 1623.476,258.357 1623.476,242.717 1637.005,234.895 1650.534,242.717"/>
	<polygon points="1772.294,188.043 1758.765,195.865 1745.236,188.043 1745.236,172.402 1758.765,164.58 1772.294,172.402"/>
	<polygon points="1758.767,70.664 1745.237,78.484 1731.708,70.664 1731.708,55.021 1745.237,47.199 1758.767,55.021"/>
	<polygon points="1799.356,47.207 1785.825,55.027 1772.296,47.207 1772.296,31.564 1785.825,23.742 1799.356,31.564"/>
	<polygon points="1812.882,23.744 1799.353,31.564 1785.823,23.744 1785.823,8.102 1799.353,0.281 1812.882,8.102"/>
	<polygon points="1785.825,23.744 1772.296,31.564 1758.767,23.744 1758.767,8.102 1772.296,0.281 1785.825,8.102"/>
	<polygon points="1772.294,0.285 1758.765,8.105 1745.236,0.285 1745.236,-15.357 1758.765,-23.18 1772.294,-15.357"/>
	<polygon points="1826.411,0.285 1812.882,8.105 1799.353,0.285 1799.353,-15.357 1812.882,-23.18 1826.411,-15.357"/>
	<polygon points="1880.528,0.285 1866.999,8.105 1853.47,0.285 1853.47,-15.357 1866.999,-23.18 1880.528,-15.357"/>
	<polygon points="1907.585,94.125 1894.056,101.947 1880.527,94.125 1880.527,78.484 1894.056,70.662 1907.585,78.484"/>
	<polygon points="1988.759,94.125 1975.231,101.945 1961.7,94.125 1961.7,78.482 1975.231,70.66 1988.759,78.482"/>
	<polygon points="1880.528,141.049 1866.999,148.869 1853.47,141.049 1853.47,125.406 1866.999,117.584 1880.528,125.406"/>
	<polygon points="1826.411,47.207 1812.882,55.029 1799.353,47.207 1799.353,31.566 1812.882,23.744 1826.411,31.566"/>
	<polygon points="1839.942,23.744 1826.411,31.564 1812.882,23.744 1812.882,8.102 1826.411,0.281 1839.942,8.102"/>
	<polygon points="1867,23.74 1853.47,31.562 1839.942,23.74 1839.942,8.1 1853.47,0.277 1867,8.1"/>
	<polygon points="1853.47,47.205 1839.942,55.025 1826.411,47.205 1826.411,31.562 1839.942,23.74 1853.47,31.562"/>
	<polygon points="662.918,0.012 649.388,7.832 635.86,0.012 635.86,-15.629 649.388,-23.451 662.918,-15.629"/>
	<polygon points="40.587,93.842 27.058,101.664 13.529,93.842 13.529,78.201 27.058,70.379 40.587,78.201"/>
	<polygon points="338.224,234.604 324.695,242.426 311.166,234.604 311.166,218.961 324.695,211.141 338.224,218.961"/>
	<polygon points="446.457,563.103 432.927,570.925 419.399,563.103 419.399,547.462 432.927,539.64 446.457,547.462"/>
	<polygon points="527.631,563.103 514.103,570.925 500.573,563.103 500.573,547.462 514.103,539.64 527.631,547.462"/>
	<polygon points="568.217,586.568 554.689,594.388 541.159,586.568 541.159,570.925 554.689,563.103 568.217,570.925"/>
	<polygon points="689.976,516.183 676.447,524.003 662.918,516.183 662.918,500.541 676.447,492.719 689.976,500.541"/>
	<polygon points="581.746,469.262 568.216,477.084 554.688,469.262 554.688,453.621 568.216,445.799 581.746,453.621"/>
	<polygon points="676.447,539.646 662.918,547.466 649.388,539.646 649.388,524.005 662.918,516.183 676.447,524.005"/>
	<polygon points="744.092,563.103 730.564,570.925 717.034,563.103 717.034,547.462 730.564,539.64 744.092,547.462"/>
	<polygon points="811.74,445.75 798.211,453.57 784.681,445.75 784.681,430.107 798.211,422.285 811.74,430.107"/>
	<polygon points="798.211,469.213 784.681,477.035 771.152,469.213 771.152,453.572 784.681,445.75 798.211,453.572"/>
	<polygon points="811.732,492.721 798.202,500.541 784.672,492.721 784.672,477.078 798.202,469.256 811.732,477.078"/>
	<polygon points="838.791,492.723 825.26,500.542 811.733,492.723 811.733,477.08 825.26,469.258 838.791,477.08"/>
	<polygon points="852.322,469.262 838.793,477.084 825.263,469.262 825.263,453.621 838.793,445.799 852.322,453.621"/>
	<polygon points="919.967,539.644 906.439,547.464 892.909,539.644 892.909,524.001 906.439,516.177 919.967,524.001"/>
	<polygon points="974.086,633.49 960.556,641.31 947.027,633.49 947.027,617.847 960.556,610.025 974.086,617.847"/>
	<polygon points="1041.734,656.89 1028.204,664.71 1014.675,656.89 1014.675,641.248 1028.204,633.425 1041.734,641.248"/>
	<polygon points="1136.438,680.664 1122.906,688.486 1109.377,680.664 1109.377,665.023 1122.906,657.201 1136.438,665.023"/>
	<polygon points="1082.318,493.018 1068.788,500.837 1055.259,493.018 1055.259,477.375 1068.788,469.553 1082.318,477.375"/>
	<polygon points="1068.792,422.289 1055.263,430.111 1041.735,422.289 1041.735,406.648 1055.263,398.826 1068.792,406.648"/>
	<polygon points="974.086,351.953 960.556,359.775 947.027,351.953 947.027,336.312 960.556,328.49 974.086,336.312"/>
	<polygon points="865.851,351.953 852.322,359.773 838.793,351.953 838.793,336.311 852.322,328.488 865.851,336.311"/>
	<polygon points="717.035,375.414 703.505,383.234 689.976,375.414 689.976,359.771 703.505,351.949 717.035,359.771"/>
	<polygon points="649.388,258.105 635.86,265.926 622.33,258.105 622.33,242.463 635.86,234.641 649.388,242.463"/>
	<polygon points="771.148,234.646 757.618,242.467 744.088,234.646 744.088,219.004 757.618,211.184 771.148,219.004"/>
	<polygon points="1177.023,281.816 1163.492,289.639 1149.963,281.816 1149.963,266.176 1163.492,258.354 1177.023,266.176"/>
	<polygon points="1312.317,234.896 1298.786,242.717 1285.256,234.896 1285.256,219.254 1298.786,211.434 1312.317,219.254"/>
	<polygon points="1352.903,211.438 1339.374,219.258 1325.845,211.438 1325.845,195.795 1339.374,187.973 1352.903,195.795"/>
	<polygon points="1109.376,258.416 1095.847,266.236 1082.318,258.416 1082.318,242.773 1095.847,234.951 1109.376,242.773"/>
	<polygon points="1014.672,234.646 1001.144,242.467 987.613,234.646 987.613,219.004 1001.144,211.184 1014.672,219.004"/>
	<polygon points="1177.023,563.361 1163.492,571.181 1149.963,563.361 1149.963,547.716 1163.492,539.896 1177.023,547.716"/>
	<polygon points="1285.256,563.357 1271.728,571.175 1258.197,563.357 1258.197,547.714 1271.728,539.892 1285.256,547.714"/>
	<polygon points="1434.072,539.896 1420.543,547.716 1407.013,539.896 1407.013,524.255 1420.543,516.433 1434.072,524.255"/>
	<polygon points="1677.594,492.973 1664.066,500.794 1650.535,492.973 1650.535,477.33 1664.066,469.51 1677.594,477.33"/>
	<polygon points="1569.362,446.049 1555.833,453.871 1542.304,446.049 1542.304,430.408 1555.833,422.586 1569.362,430.408"/>
	<polygon points="1853.47,516.478 1839.942,524.3 1826.411,516.478 1826.411,500.837 1839.942,493.016 1853.47,500.837"/>
	<polygon points="1812.882,446.1 1799.353,453.922 1785.823,446.1 1785.823,430.459 1799.353,422.635 1812.882,430.459"/>
	<polygon points="1988.759,422.639 1975.231,430.461 1961.7,422.639 1961.7,406.996 1975.231,399.176 1988.759,406.996"/>
	<polygon points="2002.288,305.344 1988.759,313.164 1975.231,305.344 1975.231,289.701 1988.759,281.879 2002.288,289.701"/>
	<polygon points="1948.172,258.422 1934.644,266.242 1921.113,258.422 1921.113,242.779 1934.644,234.957 1948.172,242.779"/>
	<polygon points="1853.47,234.896 1839.942,242.717 1826.411,234.896 1826.411,219.254 1839.942,211.434 1853.47,219.254"/>
	<polygon points="1772.294,281.885 1758.765,289.705 1745.236,281.885 1745.236,266.242 1758.765,258.42 1772.294,266.242"/>
	<polygon points="1704.651,352.205 1691.122,360.027 1677.593,352.205 1677.593,336.564 1691.122,328.742 1704.651,336.564"/>
	<polygon points="1623.478,352.203 1609.947,360.025 1596.418,352.203 1596.418,336.562 1609.947,328.74 1623.478,336.562"/>
	<polygon points="1582.892,328.742 1569.362,336.562 1555.833,328.742 1555.833,313.1 1569.362,305.277 1582.892,313.1"/>
	<polygon points="1474.66,375.668 1461.131,383.488 1447.603,375.668 1447.603,360.025 1461.131,352.203 1474.66,360.025"/>
	<polygon points="1461.131,399.133 1447.603,406.953 1434.072,399.133 1434.072,383.49 1447.603,375.668 1461.131,383.49"/>
	<polygon points="1407.017,352.203 1393.487,360.025 1379.958,352.203 1379.958,336.562 1393.487,328.74 1407.017,336.562"/>
	<polygon points="1339.376,422.588 1325.847,430.41 1312.318,422.588 1312.318,406.947 1325.847,399.125 1339.376,406.947"/>
	<polygon points="1352.905,446.051 1339.376,453.873 1325.847,446.051 1325.847,430.41 1339.376,422.588 1352.905,430.41"/>
	<polygon points="1339.376,469.516 1325.847,477.338 1312.318,469.516 1312.318,453.875 1325.847,446.051 1339.376,453.875"/>
	<polygon points="1312.317,469.512 1298.786,477.334 1285.256,469.512 1285.256,453.871 1298.786,446.049 1312.317,453.871"/>
	<polygon points="1298.788,446.049 1285.259,453.869 1271.731,446.049 1271.731,430.406 1285.259,422.584 1298.788,430.406"/>
	<polygon points="1312.317,422.59 1298.786,430.412 1285.256,422.59 1285.256,406.949 1298.786,399.127 1312.317,406.949"/>
	<polygon points="1231.142,375.668 1217.612,383.488 1204.083,375.668 1204.083,360.025 1217.612,352.203 1231.142,360.025"/>
	<polygon points="2029.347,493.025 2015.818,500.847 2002.288,493.025 2002.288,477.385 2015.818,469.562 2029.347,477.385"/>
	<polygon points="2029.347,586.865 2015.818,594.685 2002.288,586.865 2002.288,571.222 2015.818,563.4 2029.347,571.222"/>
	<polygon points="838.793,445.799 825.263,453.619 811.735,445.799 811.735,430.156 825.263,422.334 838.793,430.156"/>
	<polygon points="500.574,656.953 487.045,664.773 473.515,656.953 473.515,641.31 487.045,633.488 500.574,641.31"/>
	<polygon points="121.761,422.289 108.233,430.109 94.703,422.289 94.703,406.646 108.233,398.824 121.761,406.646"/>
	<polygon points="108.232,304.986 94.702,312.809 81.173,304.986 81.173,289.344 94.702,281.523 108.232,289.344"/>
	<polygon points="121.76,328.451 108.232,336.271 94.702,328.451 94.702,312.809 108.232,304.986 121.76,312.809"/>
	<polygon points="108.232,351.914 94.702,359.736 81.173,351.914 81.173,336.273 94.702,328.451 108.232,336.273"/>
	<polygon points="81.175,351.908 67.646,359.729 54.116,351.908 54.116,336.266 67.646,328.443 81.175,336.266"/>
	<polygon points="67.646,328.449 54.116,336.27 40.587,328.449 40.587,312.807 54.116,304.984 67.646,312.807"/>
	<polygon points="81.176,304.986 67.647,312.809 54.117,304.986 54.117,289.344 67.647,281.523 81.176,289.344"/>
	<polygon points="94.703,750.798 81.174,758.619 67.645,750.798 67.645,735.156 81.174,727.333 94.703,735.156"/>
	<polygon points="0.002,774.259 -13.528,782.082 -27.056,774.259 -27.056,758.619 -13.528,750.796 0.002,758.619"/>
	<polygon points="67.646,891.568 54.116,899.388 40.587,891.568 40.587,875.925 54.116,868.103 67.646,875.925"/>
	<polygon points="40.587,985.408 27.058,993.228 13.529,985.408 13.529,969.765 27.058,961.943 40.587,969.765"/>
	<polygon points="40.589,656.896 27.06,664.716 13.53,656.896 13.53,641.255 27.06,633.433 40.589,641.255"/>
	<polygon points="27.058,633.433 13.529,641.253 0,633.433 0,617.791 13.529,609.966 27.058,617.791"/>
	<polygon points="13.529,609.968 0,617.791 -13.53,609.968 -13.53,594.328 0,586.505 13.529,594.328"/>
	<polygon points="13.529,656.898 0,664.716 -13.53,656.898 -13.53,641.255 0,633.433 13.529,641.255"/>
	<polygon points="838.793,1008.876 825.263,1016.697 811.735,1008.876 811.735,993.234 825.263,985.412 838.793,993.234"/>
	<polygon points="1298.784,962.205 1285.255,970.027 1271.726,962.205 1271.726,946.564 1285.255,938.742 1298.784,946.564"/>
	<polygon points="1826.411,657.244 1812.882,665.064 1799.353,657.244 1799.353,641.601 1812.882,633.779 1826.411,641.601"/>
	<polygon points="1894.054,633.744 1880.526,641.564 1866.997,633.744 1866.997,618.101 1880.526,610.279 1894.054,618.101"/>
	<polygon points="1826.411,938.755 1812.882,946.576 1799.353,938.755 1799.353,923.113 1812.882,915.291 1826.411,923.113"/>
	<polygon points="1853.47,938.755 1839.942,946.576 1826.411,938.755 1826.411,923.113 1839.942,915.291 1853.47,923.113"/>
	<polygon points="1799.353,1032.609 1785.823,1040.427 1772.294,1032.609 1772.294,1016.966 1785.823,1009.144 1799.353,1016.966"/>
	<polygon points="1826.411,1032.609 1812.882,1040.427 1799.353,1032.609 1799.353,1016.966 1812.882,1009.144 1826.411,1016.966"/>
	<polygon points="1853.47,1032.609 1839.942,1040.427 1826.411,1032.609 1826.411,1016.966 1839.942,1009.144 1853.47,1016.966"/>
	<polygon points="1867,962.216 1853.47,970.039 1839.942,962.216 1839.942,946.578 1853.47,938.755 1867,946.578"/>
	<polygon points="1785.823,1009.146 1772.294,1016.966 1758.765,1009.146 1758.765,993.503 1772.294,985.681 1785.823,993.503"/>
	<polygon points="1812.882,1009.146 1799.353,1016.966 1785.823,1009.146 1785.823,993.503 1799.353,985.681 1812.882,993.503"/>
	<polygon points="1839.942,1009.146 1826.411,1016.966 1812.882,1009.146 1812.882,993.503 1826.411,985.681 1839.942,993.503"/>
	<polygon points="1867,1009.146 1853.47,1016.966 1839.942,1009.146 1839.942,993.503 1853.47,985.681 1867,993.503"/>
	<polygon points="1880.528,985.683 1867,993.503 1853.47,985.683 1853.47,970.041 1867,962.216 1880.528,970.041"/>
	<polygon points="2029.347,1009.146 2015.818,1016.966 2002.288,1009.146 2002.288,993.505 2015.818,985.683 2029.347,993.505"/>
</g>

<g id="cables" fill="none" stroke="#0000FF" stroke-linecap="round" stroke-linejoin="round" stroke-miterlimit="3">
	<polyline points="1785.823,446.1 1772.294,453.92 1758.765,446.102 1745.237,453.92 1731.708,446.102 1718.179,453.92 1718.179,469.562 1704.651,477.379 1691.122,469.562 1677.595,477.33"/>
	<polyline points="1799.353,453.92 1799.353,469.562 1812.882,477.379 1826.411,469.562 1839.942,477.379 1839.942,493.016"/>
	<polyline points="1826.411,516.482 1812.882,524.298 1799.353,516.482 1785.823,524.298 1772.294,516.482 1758.765,524.298 1745.237,516.482 1731.708,524.298 1718.179,516.482 1704.651,524.298 1691.122,516.482 1691.122,500.839 1677.595,492.971"/>
	<polyline points="1704.651,524.298 1704.651,539.941 1691.122,547.759 1691.122,563.402 1704.651,571.218 1704.651,586.859"/>
	<polyline points="1799.353,641.599 1785.823,633.783 1772.294,641.599 1758.765,633.783 1745.237,641.599 1731.708,633.783 1731.708,618.14 1718.179,610.322"/>
	<polyline points="1704.651,618.14 1704.651,633.783 1691.122,641.599 1691.122,657.242 1704.651,665.06 1704.651,680.703 1691.122,688.521 1691.122,704.164 1704.651,711.98 1704.651,727.587"/>
	<polyline points="1691.122,735.408 1677.593,727.623 1664.065,735.441 1650.534,727.623 1637.005,735.441 1623.478,727.623 1609.947,735.441 1596.418,727.623"/>
	<polyline points="1582.888,735.441 1582.888,751.083 1569.36,758.902 1569.36,774.544 1555.831,782.361 1555.831,798.003 1569.36,805.822 1569.36,821.464"/>
	<polyline points="1542.301,852.74 1528.776,844.923 1528.776,829.281 1515.245,821.464 1515.245,805.822 1501.716,798.003 1488.187,805.822 1474.657,798.003 1474.657,782.361 1461.128,774.541"/>
	<polyline points="1434.071,758.898 1420.542,751.083 1420.542,735.441 1407.013,727.623 1407.013,711.98 1393.484,704.164 1393.487,688.482 1379.959,680.662"/>
	<polyline points="1569.36,711.98 1555.831,704.164 1555.831,688.521 1542.304,680.703 1528.776,688.521 1515.245,680.703 1515.245,665.06 1501.718,657.201"/>
	<polyline points="1569.36,727.621 1555.831,735.441 1542.304,727.623 1528.776,735.441 1515.245,727.623 1501.716,735.441 1501.716,751.083 1488.187,758.902 1474.657,751.083 1461.128,758.898"/>
	<polyline points="1434.071,774.541 1420.542,782.361 1407.013,774.544 1393.484,782.361 1379.954,774.544 1366.426,782.361"/>
	<polyline points="1691.122,610.32 1677.593,618.14 1664.065,610.322 1650.534,618.14 1637.005,610.322 1623.478,618.14 1609.947,610.322 1596.418,618.14 1582.888,610.322 1569.36,618.14 1569.36,633.783 1555.831,641.599 1542.304,633.783 1528.776,641.599 1515.245,633.783"/>
	<polyline points="1677.593,618.14 1677.593,633.783 1664.065,641.599 1664.065,657.242 1650.534,665.06 1637.005,657.242 1623.478,665.06 1623.478,680.703 1609.947,688.521 1609.947,704.164 1596.418,711.98"/>
	<polyline points="1839.942,524.298 1839.942,539.941 1853.47,547.759 1853.47,563.402 1866.999,571.218 1866.999,586.863 1880.526,594.677 1880.526,610.279"/>
	<polyline points="1866.999,633.744 1853.47,641.599 1839.942,633.783 1826.411,641.599"/>
	<polyline points="1799.356,688.525 1799.353,704.164 1785.823,711.98 1785.823,727.623 1799.353,735.441 1799.353,751.083 1785.823,758.902 1785.823,774.544 1799.353,782.361 1799.353,798.003"/>
	<polyline points="1785.823,805.822 1772.294,798.003 1772.294,782.361 1758.765,774.544 1745.237,782.361 1731.708,774.544 1731.708,758.902 1718.181,751.048"/>
	<polyline points="1785.825,680.703 1772.294,688.521 1772.294,704.164 1758.765,711.98 1745.237,704.164 1731.708,711.98 1731.708,727.623 1718.179,735.441"/>
	<polyline points="1839.942,539.941 1826.411,547.759 1826.411,563.402 1812.882,571.218 1812.882,586.863 1826.411,594.677 1826.411,610.322 1812.882,618.14 1812.882,633.779"/>
	<polyline points="1961.7,422.641 1948.171,430.459 1934.644,422.643 1921.113,430.459 1907.584,422.643 1894.056,430.459 1880.526,422.643 1866.999,430.459 1853.47,422.643 1839.942,430.459 1826.411,422.643"/>
	<polyline points="1975.231,430.459 1975.231,446.102 1988.759,453.92 1988.759,469.562 2002.288,477.379"/>
	<polyline points="2002.288,493.018 1988.759,500.839 1975.231,493.021 1961.7,500.839 1948.171,493.021 1934.644,500.839 1921.113,493.021 1907.584,500.839 1894.056,493.021 1880.526,500.839 1866.999,493.021 1853.468,500.837"/>
	<polyline points="2015.818,610.32 2002.288,618.14 1988.759,610.322 1975.231,618.14 1961.7,610.322 1948.171,618.14 1934.644,610.322 1921.113,618.14 1907.584,610.322 1894.056,618.103"/>
	<polyline points="2002.288,571.218 1988.759,563.402 1988.759,547.759 1975.231,539.941 1961.7,547.759 1948.171,539.941 1934.644,547.759 1921.113,539.941 1907.584,547.759 1894.056,539.941 1880.526,547.759 1866.999,539.941 1866.999,524.298 1853.468,516.478"/>
	<polyline points="1704.651,758.871 1704.651,774.544 1691.122,782.361 1677.593,774.544 1664.065,782.361 1650.534,774.544 1637.005,782.361 1637.005,798.003 1623.478,805.822 1623.478,821.464 1609.947,829.281 1596.418,821.464 1582.888,829.277"/>
	<polyline points="1975.231,774.509 1961.7,782.361 1948.171,774.544 1934.644,782.361 1921.113,774.544 1907.584,782.361 1894.056,774.544 1880.526,782.361 1880.526,798.003 1866.999,805.822 1853.47,798.003 1839.942,805.822 1826.411,798.003 1812.884,805.791"/>
	<polyline points="1975.231,758.902 1961.7,751.083 1961.7,735.441 1948.171,727.623 1948.171,711.98 1934.644,704.164 1934.644,688.521 1921.113,680.703 1921.113,665.06 1907.584,657.242 1907.584,641.599 1894.056,633.744"/>
	<polyline points="338.228,453.566 351.754,445.746 365.283,453.562 378.814,445.746 392.341,453.562 405.87,445.746 405.87,430.104 419.399,422.285 432.927,430.104 446.454,422.334"/>
	<polyline points="324.697,445.746 324.697,430.104 311.168,422.285 297.639,430.104 284.11,422.285 284.11,406.648"/>
	<polyline points="297.639,383.184 311.168,375.365 324.697,383.184 338.226,375.365 351.754,383.184 365.283,375.365 378.814,383.184 392.341,375.365 405.87,383.184 419.399,375.365 432.927,383.184 432.927,398.824 446.454,406.693"/>
	<polyline points="419.399,375.365 419.399,359.725 432.927,351.906 432.927,336.262 419.399,328.443 419.399,312.805"/>
	<polyline points="324.697,258.064 338.226,265.883 351.754,258.064 365.283,265.883 378.814,258.064 392.341,265.883 392.341,281.523 405.87,289.342"/>
	<polyline points="432.927,289.344 446.456,281.523 459.986,289.342 473.517,281.523 487.045,289.342 500.572,281.523 514.103,289.342 527.63,281.523 541.16,289.342 554.691,281.523 554.691,265.883 568.218,258.064 581.745,265.883 595.276,258.064 608.803,265.883 622.33,258.105"/>
	<polyline points="284.11,375.365 284.11,359.725 270.58,351.906 270.58,336.262 257.052,328.443 257.052,312.801 243.523,304.984 243.523,289.385"/>
	<polyline points="257.052,265.92 270.58,258.064 284.11,265.883 297.639,258.064"/>
	<polyline points="284.11,359.725 297.639,351.906 297.639,336.262 311.168,328.443 311.168,312.801 297.639,304.984 297.639,289.342 311.168,281.523 311.168,265.885"/>
	<polyline points="324.697,477.029 324.697,492.666 338.226,500.484 338.226,516.125 324.697,523.943 324.697,539.585 338.226,547.402 338.226,563.044 351.754,570.863 351.754,586.505 365.283,594.324 365.283,609.964"/>
	<polyline points="365.283,594.324 378.814,586.505 392.341,594.324 405.87,586.505 405.87,570.863 419.399,563.044"/>
	<polyline points="378.814,633.425 392.341,641.244 405.87,633.425 419.399,641.244 432.927,633.425 446.456,641.244 446.456,656.884 459.985,664.767 473.512,656.949"/>
	<polyline points="365.283,641.244 365.283,656.884 378.814,664.703 378.814,680.343 365.283,688.164 365.283,703.808"/>
	<polyline points="297.639,664.767 311.168,656.884 311.168,641.244 324.697,633.425 338.226,641.244 351.754,633.425"/>
	<polyline points="81.174,727.333 81.175,711.623 94.702,703.808 94.702,688.164 108.233,680.343 108.233,664.703 121.761,656.884 121.761,641.244 135.29,633.425 135.29,617.783"/>
	<polyline points="148.819,609.964 162.349,617.783 162.349,633.425 175.877,641.244"/>
	<polyline points="189.405,633.425 189.405,617.783 202.936,609.964 202.936,594.324 216.465,586.505 216.465,570.863 229.993,563.044 229.993,547.402 243.523,539.585 243.523,523.943 257.052,516.125 257.052,500.484 270.58,492.666 284.11,500.484 297.639,492.666 297.639,477.023 311.168,469.207"/>
	<polyline points="162.349,477.025 175.877,469.205 189.405,477.023 202.936,469.205 216.465,477.023 229.993,469.205 243.523,477.023 257.052,469.205 270.58,477.023 284.11,469.205 297.639,477.023"/>
	<polyline points="148.819,469.205 148.819,453.562 135.29,445.746 135.29,430.104 121.761,422.285"/>
	<polyline points="121.761,406.646 135.29,398.824 148.819,406.643 162.349,398.824 175.877,406.643 189.405,398.824 202.936,406.643 216.465,398.824 229.993,406.643 243.523,398.824 257.052,406.643 270.582,398.826"/>
	<polyline points="67.647,516.126 67.647,500.484 81.175,492.666 81.175,477.023 94.702,469.205 94.702,453.562 108.233,445.746 108.233,430.104"/>
	<polyline points="-13.529,422.285 0,430.104 13.528,422.285 27.058,430.104 40.587,422.285 54.116,430.104 67.647,422.285 81.175,430.104 94.704,422.287"/>
	<polyline points="108.233,398.824 108.233,383.184 94.702,375.365 94.702,359.729"/>
	<polyline points="121.761,328.443 135.29,336.262 135.29,351.906 148.819,359.725 162.349,351.906 175.877,359.725 189.405,351.906 202.936,359.725 216.465,351.906 229.993,359.725 243.523,351.906 257.052,359.725 257.052,375.365 270.582,383.186"/>
	<polyline points="-13.529,375.365 0,383.184 13.528,375.365 13.528,359.725 27.058,351.906 40.587,359.725 54.115,351.906"/>
	<polyline points="-13.529,328.443 0,336.262 13.528,328.443 27.058,336.262 40.587,328.443"/>
	<polyline points="-13.529,234.602 0,242.42 0,258.062 13.528,265.883 13.528,281.523 27.058,289.342 27.058,304.984 40.587,312.803"/>
	<polyline points="13.529,594.328 27.058,586.505 27.058,570.863 40.587,563.044 40.587,547.402 54.116,539.585"/>
	<polyline points="81.175,539.585 94.702,547.402 94.702,563.044 108.233,570.863 108.233,586.505 121.761,594.324"/>
	<polyline points="135.289,586.501 135.29,570.863 148.819,563.044 148.819,547.402 162.349,539.585 162.349,523.943 148.819,516.125 148.819,500.484"/>
	<polyline points="202.936,656.884 216.465,664.703 229.993,656.884 243.523,664.703 257.052,656.884 270.58,664.703"/>
	<polyline points="67.647,735.156 54.116,727.267 54.116,711.623 40.587,703.808 40.587,688.164 27.058,680.343 27.06,664.714"/>
	<polyline points="-13.529,735.083 0,727.267 0,711.623 13.528,703.808 13.528,688.164 27.058,680.343"/>
	<polyline points="1542.301,868.38 1528.776,876.203 1528.776,891.843 1515.245,899.662 1515.245,915.302 1501.716,923.123 1488.187,915.302 1474.657,923.123 1474.657,938.765 1461.128,946.582 1447.599,938.765 1434.069,946.58"/>
	<polyline points="1407.013,946.58 1393.484,938.765 1379.954,946.582 1366.426,938.765 1352.898,946.582 1339.367,938.765 1325.838,946.582 1312.31,938.765 1298.786,946.562"/>
	<polyline points="1447.599,782.361 1447.599,798.003 1434.071,805.822 1434.071,821.464 1447.599,829.281 1447.599,844.923 1434.071,852.742 1434.071,868.384 1420.542,876.203 1420.542,891.843 1407.013,899.662 1407.013,915.302 1420.542,923.123 1420.542,938.759"/>
	<polyline points="1596.418,868.384 1609.947,876.203 1609.947,891.843 1623.478,899.662 1623.478,915.302 1637.005,923.123 1637.005,938.765 1650.534,946.58"/>
	<polyline points="1650.534,962.224 1637.005,970.042 1623.478,962.224 1609.947,970.042 1596.418,962.224 1582.888,970.042 1569.36,962.224 1555.831,970.042 1542.304,962.224 1528.776,970.042 1515.245,962.224 1501.716,970.042 1488.187,962.224 1474.657,970.042 1461.128,962.224 1447.599,970.042 1434.071,962.224"/>
	<polyline points="1758.765,946.583 1745.237,938.765 1731.708,946.582 1718.179,938.765 1704.651,946.582 1691.122,938.765 1677.591,946.58"/>
	<polyline points="2002.288,993.503 1988.759,985.685 1975.231,993.503 1961.7,985.685 1948.171,993.503 1934.644,985.685 1921.113,993.503 1907.584,985.685 1894.056,993.503 1880.526,985.685"/>
	<polyline points="2083.462,899.664 2069.931,891.843 2056.403,899.662 2042.876,891.843 2029.347,899.662 2015.818,891.843 2002.288,899.662 2002.288,915.302 1988.759,923.123 1975.231,915.302 1961.7,923.123 1948.171,915.302 1934.644,923.123 1921.113,915.302 1921.113,899.662 1907.584,891.843 1894.056,899.662 1880.526,891.843 1866.999,899.662 1866.999,915.302 1853.47,923.123"/>
	<polyline points="1812.882,915.302 1812.882,899.662 1799.353,891.843 1799.353,876.203 1812.882,868.384 1812.882,852.742 1799.353,844.923 1799.356,829.253"/>
	<polyline points="1772.294,923.123 1758.765,915.302 1758.765,899.662 1745.237,891.843 1731.708,899.662 1718.179,891.843 1718.179,876.203 1704.651,868.384 1691.122,876.203 1677.593,868.384 1677.593,852.742 1664.065,844.923 1650.534,852.742 1637.005,844.923 1623.478,852.742 1609.947,844.923 1596.418,852.74"/>
	<polyline points="1988.759,782.332 1988.759,798.003 1975.231,805.822 1961.7,798.003 1948.171,805.822 1948.171,821.464 1934.644,829.281 1921.113,821.464 1907.584,829.281 1907.584,844.923 1894.056,852.742 1880.526,844.923 1866.999,852.742 1866.999,868.384 1853.47,876.203 1853.47,891.843 1839.942,899.662 1839.942,915.302"/>
	<polyline points="40.587,0 54.116,7.818 67.647,0.002 81.175,7.818 94.702,0.002 108.233,7.818 121.761,0.002 121.761,-15.641"/>
	<polyline points="148.819,-15.641 148.819,-0.002 162.349,7.816 162.349,23.459 148.819,31.281 148.819,46.92 162.349,54.738 162.349,70.383 148.819,78.201 148.819,93.842 135.29,101.66 135.29,117.332"/>
	<polyline points="67.646,93.848 81.175,101.66 81.175,117.303 94.702,125.119 108.233,117.303 121.76,125.154"/>
	<polyline points="27.058,70.379 27.058,54.74 13.528,46.922 13.528,31.281 27.058,23.461 27.058,7.822"/>
	<polyline points="13.529,78.201 0,70.383 -13.529,78.199"/>
	<polyline points="13.529,93.842 0,101.66 -13.529,93.842"/>
	<polyline points="27.058,101.662 27.058,117.303 13.528,125.119 13.528,140.764 0,148.58 0,164.225 -13.529,172.041"/>
	<polyline points="-13.529,218.961 0,211.143 0,195.5 13.528,187.684 27.058,195.5 40.587,187.684 40.587,172.041 54.116,164.225 67.647,172.041 81.175,164.225 94.702,172.041 108.233,164.225 108.233,148.58 121.76,140.795"/>
	<polyline points="135.29,148.615 135.29,164.225 121.761,172.041 121.761,187.684 135.29,195.5 135.29,211.143 121.761,218.961 121.761,234.604 108.233,242.422 108.233,258.064 94.702,265.883 94.702,281.523"/>
	<polyline points="108.232,289.344 121.761,281.523 135.29,289.342 148.819,281.523 162.349,289.342 175.877,281.523 189.405,289.342 202.936,281.523 216.465,289.342 229.992,281.561"/>
	<polyline points="148.819,140.795 162.349,148.58 162.349,164.225 175.877,172.041 175.877,187.684 189.405,195.5 189.405,211.143 202.936,218.961 202.936,234.604 216.465,242.422 216.465,258.064 229.992,265.92"/>
	<polyline points="148.819,125.152 162.349,117.303 175.877,125.119 189.405,117.303 202.936,125.119 216.465,117.303 229.993,125.119 243.523,117.303 243.523,101.66 257.052,93.842 270.58,101.66 284.11,93.855 297.639,101.66 311.166,93.875"/>
	<polyline points="148.819,93.842 162.349,101.66 175.877,93.842 175.877,78.199 189.405,70.385 189.405,54.74 202.933,46.924 202.933,31.281 216.462,23.459 216.462,7.816 229.992,-0.004 229.992,-15.631"/>
	<polyline points="257.052,-15.635 257.052,0.01 270.58,7.828 270.58,23.461 284.11,31.289 284.11,46.932 297.639,54.75 297.639,70.396 311.166,78.232"/>
	<polyline points="365.283,-15.635 365.283,0.002 378.812,7.828 378.812,23.471 392.339,31.289 405.868,23.471 419.399,31.281"/>
	<polyline points="446.457,31.283 459.985,23.471 459.985,7.828 473.512,0.01 473.512,-15.635"/>
	<polyline points="500.572,-15.635 500.572,0.01 514.101,7.828 514.103,23.461 527.632,31.289"/>
	<polyline points="554.689,-15.635 554.689,0.01 568.216,7.828 581.745,0.01 595.274,7.828 608.802,0.01 622.332,7.828 635.86,0.012"/>
	<polyline points="622.332,7.828 622.332,23.467 608.802,31.287 595.275,23.467 581.746,31.287"/>
	<polyline points="459.986,54.74 473.517,46.922 487.045,54.74 500.572,46.922 514.103,54.74 527.632,46.932"/>
	<polyline points="338.224,78.232 351.752,70.396 365.283,78.213 378.812,70.396 392.339,78.213 405.868,70.396 419.399,78.213 432.927,70.396"/>
	<polyline points="338.226,93.842 351.754,101.66 351.754,117.303 365.283,125.119 378.814,117.303 392.341,125.119 392.341,140.764 405.869,148.615 	"/>
	<polyline points="419.399,140.793 419.399,125.119 432.927,117.303 432.927,101.676 446.454,93.855 446.457,78.209"/>
	<polyline points="432.927,117.303 446.456,125.119 459.986,117.303 473.517,125.119 487.045,117.316 487.045,101.66 500.572,93.842 500.572,78.199 514.103,70.385 527.63,78.199 541.158,70.396"/>
	<polyline points="554.691,78.199 554.691,93.842 568.218,101.66 568.216,117.316 554.691,125.119 554.691,140.764 541.16,148.58 541.16,164.225"/>
	<polyline points="527.63,172.045 514.103,164.225 500.572,172.041 487.045,164.225 473.517,172.041 459.986,164.225 446.456,172.041 432.927,164.258"/>
	<polyline points="324.695,211.141 324.697,195.5 338.226,187.684 338.226,172.041 324.697,164.225 324.697,148.58 338.226,140.764 338.226,125.119 324.697,117.303 324.697,101.66"/>
	<polyline points="338.226,218.961 351.754,211.143 351.754,195.5 365.283,187.684 378.814,195.5 392.341,187.684 392.341,172.041 405.87,164.225"/>
	<polyline points="419.399,172.076 419.399,187.684 432.927,195.5 432.927,211.143 419.399,218.961 419.399,234.604 432.927,242.422 432.927,258.064 419.399,265.883 419.399,281.523"/>
	<polyline points="432.927,289.342 446.456,281.523 446.456,265.883 459.986,258.064 459.986,242.422 473.517,234.604 487.045,242.422 500.572,234.604 500.572,218.961 514.103,211.143 514.103,195.5 527.63,187.688"/>
	<polyline points="554.69,187.688 568.218,195.5 568.218,211.143 581.745,218.961 595.276,211.143 608.803,218.961 608.803,234.604 622.33,242.463"/>
	<polyline points="554.691,172.043 568.218,164.225 581.745,172.041 595.276,164.225 608.803,172.041 622.334,164.225 622.334,148.58 635.863,140.764 649.394,148.58 662.92,140.768"/>
	<polyline points="581.748,46.926 595.276,54.74 595.276,70.385 608.803,78.199 608.803,93.842 622.334,101.66 635.863,93.842 649.392,101.676 649.394,117.303 662.92,125.125"/>
	<polyline points="676.449,117.303 676.449,101.66 689.98,93.842 689.98,78.199 676.449,70.385 676.449,54.74 689.98,46.922 689.982,31.205"/>
	<polyline points="717.035,0.01 730.564,7.828 744.089,0.01 757.618,7.828 771.151,0.01 784.675,7.828 784.675,23.471 798.207,31.307 811.736,23.486 	"/>
	<polyline points="798.207,31.307 798.207,46.947 784.675,54.768 784.675,70.41 771.151,78.229 771.151,93.873"/>
	<polyline points="784.675,101.689 798.207,93.873 811.736,101.689 825.263,93.873 825.263,78.229 838.795,70.41 852.322,78.229 865.851,70.412"/>
	<polyline points="865.851,54.75 852.322,46.932 852.322,31.289 838.795,23.486"/>
	<polyline points="838.795,7.83 852.322,0.025 852.322,-15.615"/>
	<polyline points="906.439,-15.635 906.439,0.01 919.968,7.828 919.968,23.471 933.495,31.289 933.495,46.932 947.024,54.75 960.549,46.934 974.084,54.768 974.084,70.412 987.613,78.234"/>
	<polyline points="974.084,54.768 987.612,46.932 987.612,31.289 974.084,23.471 974.084,7.828 987.612,0.01 987.612,-15.635"/>
	<polyline points="1041.732,-15.363 1041.732,0.027 1028.2,7.846 1028.2,23.488 1041.735,31.205 1041.735,46.848 1028.2,54.77 1028.2,70.412 1014.672,78.234"/>
	<polyline points="689.979,125.125 703.507,117.303 717.036,125.119 730.567,117.303 744.094,125.119 757.618,117.332"/>
	<polyline points="771.151,125.152 771.151,140.793 757.618,148.613 757.618,164.258 771.151,172.074 771.151,187.717 757.618,195.535 757.618,211.184"/>
	<polyline points="744.089,219.002 730.564,211.184 730.567,195.5 717.036,187.684 717.036,172.041 703.507,164.225 703.507,148.58 689.979,140.768"/>
	<polyline points="649.392,242.463 662.918,234.641 676.447,242.461 689.978,234.641 703.505,242.461 717.035,234.641 717.035,218.998 730.564,211.184"/>
	<polyline points="757.618,242.467 757.618,258.102 744.089,265.92 744.089,281.564 730.564,289.385 730.564,305.025 717.035,312.844 717.035,328.488 703.505,336.309 703.505,351.949"/>
	<polyline points="717.035,359.771 730.564,351.949 744.089,359.768 757.618,351.949 771.151,359.768 784.675,351.949 798.207,359.768 811.736,351.949 825.263,359.768 838.793,351.953"/>
	<polyline points="838.793,336.311 825.263,328.488 811.736,336.309 798.207,328.488 798.207,312.844 784.675,305.025 784.675,289.385 771.151,281.564 771.151,265.92 757.618,258.102"/>
	<polyline points="771.151,219.002 784.675,211.184 798.207,218.998 811.736,211.184 811.736,195.535 825.263,187.721"/>
	<polyline points="811.735,148.615 798.207,140.793 798.207,125.15 784.678,117.336"/>
	<polyline points="825.263,140.793 825.263,125.15 838.795,117.332 838.795,101.689 852.322,93.873 865.851,101.689 879.38,93.873 879.38,78.232"/>
	<polyline points="892.91,70.412 906.439,78.213 919.968,70.396 933.495,78.217 933.495,93.859 947.024,101.689 960.556,93.873 974.084,101.689 987.613,93.875"/>
	<polyline points="974.084,101.689 974.084,117.316 987.612,125.152 987.612,140.793 974.084,148.615 974.084,164.258 987.612,172.076 987.612,187.719 1001.144,195.537 1001.144,211.184"/>
	<polyline points="1014.672,219.004 1028.2,211.184 1041.732,218.998 1055.26,211.184 1068.792,219.252 1068.792,234.896 1082.319,242.717"/>
	<polyline points="1028.2,70.412 1041.732,78.229 1055.26,70.412 1068.792,78.229 1068.792,93.873 1082.318,101.438 1082.318,117.08 1095.845,124.896 1095.845,140.539 1109.376,148.611 1122.905,140.795 1136.431,148.613 1136.431,164.512 1149.963,172.328 1163.492,164.512 1177.026,172.33 1190.551,164.514"/>
	<polyline points="1190.554,148.867 1177.026,141.051 1177.026,125.406 1163.492,117.588 1163.492,101.93 1149.966,94.111 1149.966,78.482 1163.492,70.65 1163.492,55.008 1177.026,47.188 1190.554,55.008 1204.081,47.188 1204.081,31.561 1217.612,23.742 1217.612,8.08"/>
	<polyline points="1095.849,-15.363 1095.849,0.266 1109.38,8.08 1122.906,0.281 1136.44,8.1 1136.44,23.742 1149.966,31.543 1163.492,23.727 1177.026,31.543 1190.554,23.727 1190.554,8.08 1204.083,0.266"/>
	<polyline points="1217.612,23.742 1231.138,31.557 1231.138,47.201 1217.612,55.02 1217.612,70.65 1231.138,78.482 1231.138,94.125 1244.668,101.947 1244.668,117.588"/>
	<line x1="1217.612" y1="148.867" x2="1231.138" y2="141.047"/>
	<polyline points="1258.2,125.406 1271.728,117.588 1271.728,101.947 1285.255,94.125 1298.786,101.947 1312.315,94.125 1325.843,101.947 1339.374,94.125 1339.374,78.482 1352.902,70.668"/>
	<polyline points="1352.896,55.016 1339.366,47.199 1325.838,55.021 1312.31,47.203 1312.31,31.561 1298.78,23.744 1298.78,8.102 1285.255,0.266 1285.255,-15.379"/>
	<polyline points="1285.255,0.266 1271.728,8.08 1271.728,23.727 1258.2,31.543 1258.2,47.188 1271.728,55.004 1271.728,70.65 1258.2,78.467 1258.2,94.111 1244.668,101.947"/>
	<polyline points="1366.426,47.203 1366.431,31.561 1379.954,23.744 1379.954,8.102 1393.484,0.283 1393.484,-15.359"/>
	<polyline points="1447.599,-15.359 1447.599,0.283 1461.128,8.102 1474.659,0.281 1488.187,8.102 1488.187,23.744 1501.718,31.564"/>
	<polyline points="1488.187,23.744 1474.659,31.561 1474.659,47.203 1461.131,55.02 1461.131,70.662 1447.603,78.482 1447.603,94.125 1434.072,101.947 1420.543,94.125 1407.017,101.945"/>
	<polyline points="1393.484,94.121 1393.487,78.482 1379.96,70.668"/>
	<polyline points="1339.374,187.969 1339.374,172.33 1352.894,164.223 1352.901,148.867 1339.374,141.051 1339.374,125.406 1352.901,117.588 1352.901,101.947 1366.431,94.125 1366.431,78.488"/>
	<polyline points="1352.903,195.795 1366.431,187.973 1366.431,172.33 1379.959,164.512 1379.959,148.867 1393.487,141.051 1393.487,125.406"/>
	<polyline points="1407.017,117.588 1420.543,125.406 1420.543,141.051 1434.072,148.867 1434.072,164.512 1447.603,172.33 1447.603,187.969"/>
	<polyline points="1461.131,195.795 1474.659,187.973 1474.659,172.33 1488.192,164.512 1501.718,172.33 1515.247,164.512 1515.247,148.867 1528.776,141.051 1528.776,125.406 1542.304,117.588 1542.304,101.947 1555.833,94.125"/>
	<polyline points="1555.833,78.482 1542.304,70.662 1542.304,55.02 1528.776,47.207"/>
	<polyline points="1582.89,78.482 1596.417,70.662 1609.947,78.482 1623.478,70.664 1623.478,55.021 1637.005,47.203 1637.005,31.561 1650.534,23.744 1650.534,8.102 1664.065,0.283 1664.065,-15.359"/>
	<polyline points="1691.122,-15.363 1691.122,0.281 1704.651,8.1 1704.651,23.742 1718.181,31.561 1718.181,47.203 1731.709,55.02"/>
	<line x1="1758.767" y1="55.02" x2="1772.296" y2="47.201"/>
	<polyline points="1758.767,70.664 1772.296,78.482 1785.825,70.662 1799.356,78.482 1799.356,94.125 1812.884,101.947 1812.884,117.588 1826.411,125.406 1839.942,117.588 1853.47,125.406"/>
	<polyline points="1880.528,0.285 1894.056,8.102 1907.584,0.283 1921.113,8.102 1934.644,0.283 1948.171,8.1 1961.7,0.281 1975.231,8.1 1988.759,0.281 2002.288,8.102 2015.818,0.281"/>
	<polyline points="2015.818,31.564 2002.288,23.744 1988.759,31.561 1988.759,47.203 1975.231,55.02 1961.7,47.203 1948.171,55.021 1948.171,70.664 1934.644,78.48 1921.113,70.664 1907.585,78.484"/>
	<line x1="1975.231" y1="55.02" x2="1975.231" y2="70.66"/>
	<polyline points="1988.759,78.482 2002.288,70.662 2015.818,78.482"/>
	<polyline points="1988.759,94.125 2002.288,101.947 2002.288,117.588 2015.818,125.406"/>
	<polyline points="1961.7,94.125 1948.171,101.947 1948.171,117.588 1934.644,125.406 1921.113,117.588 1907.584,125.406 1907.584,141.051 1894.056,148.867 1880.526,141.047"/>
	<polyline points="1880.528,125.406 1894.056,117.588 1894.056,101.945"/>
	<polyline points="1839.942,211.434 1839.942,195.791 1853.47,187.973 1853.47,172.33 1866.999,164.512 1866.999,148.869"/>
	<polyline points="1853.47,219.254 1866.999,211.434 1880.526,219.252 1894.056,211.434 1894.056,195.791 1907.584,187.973 1921.113,195.791 1934.644,187.973 1948.171,195.791 1961.7,187.969 1961.7,172.33 1975.231,164.508 1988.759,172.33 2002.288,164.508 2015.818,172.33"/>
	<polyline points="1948.172,258.422 1961.7,266.238 1961.7,281.879 1975.231,289.699"/>
	<polyline points="1988.759,281.877 1988.759,266.238 2002.288,258.42 2002.288,242.777 2015.818,234.959"/>
	<line x1="2002.288" y1="305.344" x2="2015.818" y2="313.158"/>
	<polyline points="1988.759,313.164 1988.759,328.801 1975.231,336.619 1975.231,352.26 1961.7,360.078 1961.7,375.721 1975.231,383.539 1975.231,399.182"/>
	<polyline points="1934.644,266.238 1934.644,281.879 1921.113,289.699 1921.113,305.34 1907.584,313.158 1907.584,328.801 1894.056,336.619 1894.056,352.26 1880.526,360.078 1880.526,375.721 1866.999,383.539 1866.999,399.182 1853.47,406.998 1839.942,399.182 1826.411,406.998 1826.411,422.643 1812.882,430.459"/>
	<polyline points="1799.353,422.635 1799.353,406.998 1785.823,399.182 1785.823,383.539 1799.353,375.721 1799.353,360.078 1785.823,352.26 1785.823,336.619 1772.294,328.801 1772.294,313.158 1758.765,305.34 1758.765,289.699"/>
	<polyline points="1772.294,266.238 1785.823,258.42 1799.353,266.238 1812.882,258.42 1812.882,242.777 1826.411,234.896"/>
	<polyline points="1853.47,234.896 1866.999,242.777 1880.526,234.959 1894.056,242.777 1907.584,234.959 1921.113,242.777"/>
	<polyline points="1826.411,219.254 1812.884,211.434 1799.356,219.252 1785.825,211.434 1785.825,195.791 1772.294,188.043"/>
	<polyline points="1772.296,172.402 1785.823,164.582 1799.353,172.402 1812.882,164.582 1812.884,148.867 1826.411,141.051 1839.942,148.867 1853.47,141.047"/>
	<polyline points="1758.765,164.508 1758.765,148.867 1772.296,141.051 1772.296,125.406 1758.765,117.588 1758.765,101.947 1745.237,94.125 1745.237,78.482"/>
	<polyline points="1609.947,78.482 1609.947,94.121 1623.478,101.947 1637.005,94.125 1650.535,101.947 1664.066,94.125 1677.595,101.947 1677.595,117.588 1691.122,125.406 1704.651,117.588 1718.181,125.406 1718.181,141.051 1731.709,148.867 1731.708,164.58 1745.236,172.402"/>
	<polyline points="1731.708,164.58 1718.179,172.396 1704.651,164.58 1691.12,172.396 1677.593,164.58 1664.065,172.396 1650.534,164.58 1637.002,172.396 1623.474,164.58 1609.947,172.396 1596.414,164.58 1582.888,172.396 1569.36,164.58 1555.833,172.33 1555.833,187.973 1542.304,195.791 1528.776,187.973 1515.247,195.791 1515.247,211.434 1501.718,219.252 1488.192,211.434 1474.66,219.26"/>
	<polyline points="1474.66,234.9 1488.192,242.717 1501.718,234.896 1515.247,242.717 1528.776,234.896 1542.304,242.717 1555.833,234.896 1569.362,242.717 1582.89,234.896 1596.417,242.717 1609.95,234.896 1623.476,242.717"/>
	<polyline points="1650.535,242.717 1664.066,234.896 1664.066,219.252 1677.595,211.434 1691.122,219.252 1704.651,211.434 1718.181,219.252 1731.709,211.434 1731.709,195.791 1745.236,188.043"/>
	<polyline points="1758.765,258.42 1758.765,242.777 1745.237,234.959 1745.237,219.318 1758.765,211.498 1758.765,195.857"/>
	<polyline points="1664.066,234.896 1677.593,242.777 1677.593,258.42 1691.122,266.238 1704.651,258.42 1718.179,266.238 1731.708,258.42 1745.237,266.238"/>
	<polyline points="1352.901,211.434 1366.431,219.252 1379.959,211.434 1393.487,219.252 1407.013,211.434 1420.543,219.26"/>
	<polyline points="1258.197,141.049 1271.728,148.867 1285.255,141.051 1298.786,148.867 1298.786,164.512 1312.315,172.33 1312.315,187.973 1325.843,195.791"/>
	<polyline points="1217.61,164.514 1231.138,172.33 1231.138,187.973 1244.668,195.791 1258.2,187.973 1271.728,195.791 1271.728,211.434 1285.256,219.254"/>
	<polyline points="1271.728,211.434 1258.2,219.252 1258.2,234.896 1244.668,242.717 1231.138,234.896 1217.612,242.717 1217.612,258.354 1204.081,266.176 1190.554,258.354 1177.026,266.176"/>
	<polyline points="1163.492,258.354 1163.492,242.717 1177.026,234.896 1177.026,219.252 1190.554,211.434 1190.554,195.791 1204.081,187.973 1204.081,172.334"/>
	<polyline points="1109.376,258.416 1122.906,266.176 1122.906,281.82 1136.44,289.641 1149.966,281.82"/>
	<polyline points="1068.796,406.891 1082.322,399.07 1082.319,383.484 1095.849,375.664 1095.853,360.023 1109.38,352.203 1109.38,336.561 1122.906,328.742 1122.906,313.1 1136.44,305.281 1136.44,289.641"/>
	<polyline points="1177.023,281.816 1190.554,289.641 1190.554,305.281 1204.081,313.1 1204.081,328.742 1217.612,336.561 1217.612,352.203"/>
	<polyline points="1231.138,360.023 1244.668,352.203 1244.668,336.561 1258.2,328.742 1258.2,313.1 1271.728,305.281 1271.728,289.641 1285.255,281.82 1285.255,266.176 1298.786,258.354 1298.786,242.717"/>
	<line x1="1312.315" y1="219.252" x2="1325.845" y2="211.438"/>
	<polyline points="1339.374,219.258 1339.374,234.896 1352.901,242.717 1352.901,258.354 1339.374,266.176 1339.374,281.82 1352.901,289.641 1352.901,305.281 1366.431,313.1 1366.431,328.742 1379.959,336.561"/>
	<polyline points="0,758.617 13.528,750.796 27.06,758.617 40.587,750.796 54.116,758.617 67.647,750.796"/>
	<polyline points="-13.528,875.921 0,868.103 0,852.46 13.528,844.642 13.528,829.001 27.06,821.183 40.587,829.001 54.116,821.183 54.116,805.537 67.647,797.716 67.647,782.076 81.174,774.257 81.174,758.617"/>
	<polyline points="81.174,774.257 94.702,782.076 108.233,774.257 121.761,782.076 121.761,797.716 135.29,805.539"/>
	<polyline points="94.702,735.156 108.233,727.333 121.761,735.156 135.29,727.333 148.819,735.156 162.349,727.333 162.349,711.695 175.877,703.871 189.405,711.691 202.936,703.871 216.465,711.691 229.992,703.871 229.992,688.232 243.523,680.41 257.052,688.232 270.58,680.412 	"/>
	<polyline points="162.349,805.539 175.877,797.716 175.877,782.076 189.405,774.257 202.936,782.076 216.465,774.257 216.465,758.615 229.992,750.796 243.523,758.617"/>
	<polyline points="257.052,750.796 257.052,735.152 270.58,727.333 270.58,711.691 284.11,703.871 284.11,688.232"/>
	<polyline points="297.639,680.41 311.166,688.232 324.695,680.41 338.226,688.232 338.226,703.871 351.754,711.621"/>
	<polyline points="270.58,758.617 284.11,750.796 297.639,758.615 311.166,750.796 311.166,735.152 324.697,727.259 338.226,735.08 351.754,727.263"/>
	<polyline points="270.581,774.259 284.11,782.076 297.639,774.257 311.166,782.076 311.166,797.716 324.695,805.537 324.695,821.183 338.226,829.001 351.752,821.183 365.283,829.003"/>
	<polyline points="365.283,735.083 365.283,750.796 351.752,758.615 351.752,774.257 365.283,782.076 365.283,797.716 378.812,805.537 378.812,821.183"/>
	<polyline points="378.812,727.333 392.341,735.083 392.339,750.796 405.868,758.615 405.868,774.257 419.399,782.076 432.927,774.257 446.454,782.076 446.454,797.716 459.985,805.537 473.512,797.716 487.045,805.537 500.572,797.716 514.101,805.537 514.103,821.183 527.632,829.001 541.158,821.183"/>
	<polyline points="527.632,829.001 527.632,844.642 514.101,852.46 514.101,868.103 500.572,875.921 500.572,891.564 487.045,899.384 487.045,915.027"/>
	<polyline points="446.454,922.849 432.927,915.027 432.927,899.384 419.399,891.564 419.399,875.921 405.868,868.103"/>
	<polyline points="351.753,868.111 338.226,875.921 324.695,868.103 311.166,875.921 297.639,868.103 284.11,875.923"/>
	<polyline points="270.58,868.103 270.58,852.46 257.052,844.642 257.052,829.001 270.58,821.183 270.58,805.537 257.052,797.716 257.052,782.08"/>
	<polyline points="243.523,774.259 229.992,782.076 229.992,797.716 216.465,805.537 216.465,821.183 229.992,829.001 229.992,844.642 216.465,852.46 202.936,844.642 189.405,852.46 189.405,868.103 175.877,875.921 175.877,891.564 162.349,899.384 162.349,915.027 148.819,922.843 148.819,938.49"/>
	<polyline points="67.646,875.925 81.174,868.103 81.174,852.46 94.702,844.642 94.702,829.001 108.233,821.183 121.761,829.001 135.29,821.183"/>
	<polyline points="148.819,829.001 148.819,844.642 135.29,852.46 135.29,868.103 148.819,875.921 148.819,891.564 135.29,899.384 135.29,915.027 121.761,922.843 121.761,938.49 135.29,946.312"/>
	<polyline points="121.761,938.49 108.233,946.308 94.702,938.49 94.702,922.843 81.174,915.027 81.174,899.384 67.647,891.564"/>
	<polyline points="40.587,891.568 27.058,899.378 13.528,891.564 0,899.384 -13.528,891.564"/>
	<polyline points="27.058,899.378 27.058,915.021 40.587,922.841 40.587,938.484 27.058,946.3 27.058,961.941"/>
	<polyline points="13.528,969.763 0,961.943 0,946.3 -13.529,938.484"/>
	<line x1="27.058" y1="1008.863" x2="27.058" y2="993.224"/>
	<polyline points="40.587,985.402 54.116,993.222 67.647,985.404 81.175,993.222 94.702,985.404 108.233,993.222 121.761,985.404 121.761,969.763 135.29,961.943"/>
	<polyline points="148.819,969.775 148.819,985.402 162.349,993.218 162.349,1008.863"/>
	<polyline points="162.349,946.312 175.877,938.49 189.405,946.308 202.936,938.49 216.465,946.308"/>
	<polyline points="229.992,938.49 229.992,922.843 243.523,915.027 243.523,899.384 257.052,891.564"/>
	<polyline points="284.11,891.568 297.639,899.384 297.639,915.027 311.166,922.843 311.166,938.49 324.695,946.308 324.695,961.951 338.226,969.767 351.754,961.943 365.283,969.763 365.283,985.404 378.814,993.222 378.812,1008.873"/>
	<polyline points="243.522,961.955 257.052,969.767 257.052,985.412 270.58,993.23 270.58,1008.873"/>
	<polyline points="216.462,1008.863 216.462,993.218 229.992,985.4 229.992,969.757"/>
	<polyline points="459.985,1008.873 459.985,993.23 473.512,985.412 473.512,969.767 459.985,961.951 459.986,946.308"/>
	<polyline points="473.512,969.767 487.045,961.943 500.572,969.763 500.572,985.404 514.103,993.222 514.103,1008.873"/>
	<polyline points="500.572,938.49 514.101,946.308 514.101,961.951 527.632,969.767 541.158,961.951 554.689,969.767 554.689,985.412 568.216,993.23 581.745,985.412 595.274,993.23 608.802,985.412 622.332,993.23 635.86,985.417"/>
	<line x1="622.332" y1="993.23" x2="622.332" y2="1008.871"/>
	<polyline points="500.572,922.849 514.103,915.027 527.632,922.843 541.158,915.027 554.689,922.843 568.216,915.027 568.216,899.384 581.745,891.564 595.274,899.384 608.802,891.564"/>
	<polyline points="568.216,821.183 581.745,829.001 581.745,844.642 595.274,852.46 595.274,868.103 608.802,875.921"/>
	<polyline points="568.216,805.539 581.745,797.716 581.745,782.076 595.274,774.257 595.274,758.615 608.802,750.796 608.802,735.152 622.332,727.333 635.86,735.152 649.392,727.333 649.392,711.691 662.918,703.876"/>
	<polyline points="392.341,735.083 405.87,727.267 419.401,735.083 432.928,727.267 446.456,735.083 459.986,727.267 473.517,735.083 487.046,727.267 500.574,735.083 514.103,727.267 527.634,735.083 541.16,727.267 554.691,735.083 568.216,727.333 568.216,711.691 581.745,703.871 595.274,711.691 608.802,703.871 608.802,688.232 622.332,680.41 635.86,688.232 649.388,680.414 	"/>
	<polyline points="378.813,711.621 392.339,703.871 392.339,688.232 405.868,680.41 419.399,688.232 432.927,680.41 446.454,688.232 459.985,680.41 459.985,664.767"/>
	<polyline points="432.927,570.925 432.927,586.564 446.454,594.382 446.454,610.025 459.985,617.841 459.985,633.488 473.515,641.31"/>
	<polyline points="500.574,641.31 514.101,633.488 514.101,617.841 527.632,610.025 527.632,594.382 541.158,586.564"/>
	<line x1="527.632" y1="563.103" x2="541.158" y2="570.921"/>
	<polyline points="446.457,547.462 459.985,539.64 473.512,547.46 473.512,563.103 487.045,570.921 500.572,563.103"/>
	<polyline points="487.045,570.921 487.045,586.564 500.572,594.382 500.572,610.025 514.101,617.841"/>
	<polyline points="432.927,539.64 432.927,524 446.454,516.177 446.454,500.539 459.985,492.719 459.985,477.076 446.454,469.258 446.454,453.615 459.985,445.799 459.985,430.156"/>
	<polyline points="459.985,398.873 459.985,383.23 473.512,375.41 473.512,359.768 487.045,351.949 500.572,359.768 514.101,351.949 514.101,336.309 527.632,328.488 541.158,336.309 554.689,328.488 568.216,336.309 581.745,328.488 581.745,312.844 595.274,305.025 595.274,289.385 608.802,281.564 608.803,265.883"/>
	<polyline points="635.86,265.926 635.86,281.564 649.392,289.385 649.392,305.025 662.918,312.844 662.918,328.488 676.447,336.309 676.447,351.949 689.976,359.771"/>
	<polyline points="676.447,351.949 662.918,359.768 649.392,351.949 635.86,359.768 622.332,351.949 608.802,359.768 608.802,375.41 595.274,383.23 581.745,375.41 568.216,383.23 568.216,398.873 561.533,402.736 554.689,406.691 541.158,398.873 527.632,406.691 514.101,398.873 500.572,406.691 487.045,398.873 473.512,406.693"/>
	<polyline points="473.512,422.334 487.045,430.154 487.045,445.799 500.572,453.615 514.101,445.799 527.632,453.615 527.632,469.258 541.158,477.076 554.689,469.258"/>
	<polyline points="568.216,477.084 568.216,492.719 581.745,500.539 581.745,516.177 568.216,524 568.216,539.64 554.689,547.46 554.689,563.103"/>
	<polyline points="514.103,539.64 514.101,524 527.632,516.177 527.632,500.539 541.158,492.719 541.158,477.076"/>
	<polyline points="568.217,570.925 581.745,563.103 595.274,570.921 608.802,563.103 622.332,570.921 635.86,563.103 635.86,547.46 649.392,539.64"/>
	<polyline points="662.918,500.541 649.392,492.719 649.392,477.076 635.86,469.258 622.332,477.076 608.802,469.258 595.274,477.076 581.745,469.258"/>
	<polyline points="581.745,453.615 595.274,445.799 595.274,430.154 608.802,422.334 622.332,430.154 635.86,422.334 649.392,430.154 662.918,422.334 662.918,406.691 676.447,398.873 676.447,383.23 689.978,375.41"/>
	<polyline points="717.035,375.41 730.564,383.23 744.089,375.41 757.618,383.23 757.618,398.873 771.151,406.691 771.151,422.334 784.685,430.107"/>
	<polyline points="730.564,383.23 730.564,398.873 717.035,406.691 716.937,422.391 703.505,430.154 703.505,445.799 689.978,453.615 689.978,469.258 676.447,477.076 676.447,492.719"/>
	<polyline points="676.447,539.646 689.978,547.46 703.505,539.64 717.034,547.462"/>
	<polyline points="730.564,539.64 730.564,524 744.089,516.177 744.089,500.539 757.618,492.719 771.151,500.539 784.675,492.719"/>
	<polyline points="744.092,563.103 757.618,570.921 757.618,586.564 771.151,594.382 771.151,610.025 784.675,617.841 784.675,633.488 771.151,641.31 771.151,656.949 784.675,664.767 784.675,680.41"/>
	<polyline points="771.147,688.232 757.618,680.41 744.089,688.232 730.564,680.41 717.035,688.232 703.505,680.41"/>
	<polyline points="689.978,656.949 689.978,641.31 703.505,633.488 703.505,617.841 689.978,610.025 689.978,594.382 676.447,586.564 676.447,570.921 662.918,563.103 662.918,547.46"/>
	<polyline points="500.572,656.949 514.101,664.767 527.632,656.949 541.158,664.767 554.689,656.949 568.216,664.767 581.745,656.949 595.274,664.767 608.802,656.949 622.332,664.767 635.86,656.949 649.392,664.769"/>
	<polyline points="676.447,711.691 676.447,727.333 689.978,735.152 689.978,750.796 703.505,758.615 703.505,774.257 717.034,782.08"/>
	<polyline points="730.564,774.257 730.564,758.615 744.089,750.796 744.089,735.152 757.618,727.333 757.618,711.691 771.151,703.871"/>
	<polyline points="757.618,821.183 757.618,805.537 771.151,797.716 771.151,782.076 784.675,774.257 784.675,758.615 771.151,750.796 771.151,735.152 784.675,727.333 784.675,711.691"/>
	<line x1="798.205" y1="688.232" x2="811.736" y2="680.41"/>
	<polyline points="771.151,594.382 784.675,586.564 784.675,570.921 798.207,563.103 798.207,547.46 811.736,539.64 811.736,524 825.263,516.177 825.263,500.539"/>
	<polyline points="825.263,516.177 838.791,524.001 838.795,539.64 852.322,547.46 865.851,539.64 879.38,547.46 892.909,539.644"/>
	<polyline points="879.38,547.46 879.38,563.103 865.851,570.921 865.851,586.564 852.322,594.382 852.322,610.025 838.795,617.841 838.795,633.488 825.263,641.31 825.263,656.949"/>
	<polyline points="838.795,680.41 852.322,688.232 852.322,703.871 865.851,711.691 879.38,703.871 892.91,711.691 892.91,727.333 906.44,735.156"/>
	<polyline points="919.968,727.333 919.968,711.691 933.495,703.871 933.495,688.232 947.024,680.41 947.024,664.767 960.556,656.949 960.556,641.31 	"/>
	<polyline points="852.322,688.232 865.851,680.41 865.851,664.767 879.38,656.949 892.91,664.767 906.439,656.949 906.439,641.31 919.968,633.488 933.495,641.31 947.027,633.49"/>
	<polyline points="947.027,617.847 933.495,610.025 933.495,594.382 919.968,586.564 919.968,570.921 906.439,563.103 906.439,547.46"/>
	<polyline points="852.322,453.615 865.851,445.799 879.38,453.615 879.38,469.258 892.91,477.076 892.91,492.719 906.439,500.539 906.439,516.177"/>
	<polyline points="906.439,500.539 919.964,492.719 919.972,477.023 933.5,469.203 947.029,477.023 960.556,469.203 960.56,453.562 974.087,445.746 987.618,453.562 1001.149,445.688 1001.149,430.047 1014.676,422.287 1028.204,430.107 1041.728,422.338"/>
	<polyline points="1041.732,406.693 1028.2,398.875 1028.2,383.232 1014.671,375.412 1001.144,383.232 987.612,375.412 987.612,359.768 974.084,351.951"/>
	<polyline points="960.556,359.768 960.556,375.412 947.024,383.232 947.024,398.875 933.495,406.693 919.968,398.875 906.439,406.691 906.439,422.334 892.91,430.154 879.38,422.334 865.851,430.154 865.851,445.799"/>
	<polyline points="825.263,422.334 825.263,406.691 838.795,398.873 838.795,383.23 852.322,375.41 852.322,359.773"/>
	<polyline points="865.851,351.949 879.38,359.768 892.91,351.949 892.91,336.309 906.439,328.488 919.968,336.309 919.968,351.951 933.495,359.768 947.027,351.953"/>
	<polyline points="960.556,328.49 960.556,312.844 974.084,305.027 974.084,289.387 960.556,281.564 960.556,265.92 974.084,258.102 974.084,242.461 987.613,234.646"/>
	<polyline points="987.612,219.002 974.084,211.184 960.556,218.998 947.024,211.184 933.495,218.998 919.968,211.184 906.439,218.998 892.91,211.184 892.91,195.535 879.38,187.717 865.851,195.535 852.322,187.721"/>
	<polyline points="838.793,195.541 838.795,211.184 852.322,218.998 852.322,234.641 838.795,242.461 838.795,258.102 852.322,265.92 852.322,281.564 865.851,289.385 865.851,305.025 852.322,312.844 852.322,328.488"/>
	<polyline points="1095.849,375.664 1109.38,383.484 1122.906,375.664 1136.44,383.484 1149.966,375.664 1163.492,383.484 1177.026,375.664 1190.554,383.484 1204.083,375.668"/>
	<polyline points="635.861,891.568 649.392,899.384 649.392,915.027 662.918,922.843 662.918,938.49"/>
	<polyline points="635.861,875.925 649.392,868.103 649.392,852.46 662.918,844.642 662.918,829.001 676.447,821.183 676.447,805.537 689.978,797.716 703.505,805.537 717.035,797.716"/>
	<polyline points="730.564,805.537 730.564,821.183 744.089,829.001"/>
	<polyline points="744.088,844.646 730.564,852.46 730.567,868.027 717.038,875.843 717.038,891.49 730.567,899.308 730.564,915.027 717.035,922.843 717.036,938.486 703.505,946.228"/>
	<polyline points="757.618,852.46 757.618,868.103 771.151,875.921 771.151,891.564 784.675,899.384 784.675,915.027 798.207,922.843 798.207,938.49 811.736,946.308 825.263,938.49 838.795,946.324 838.795,961.951 852.322,969.767 852.322,985.412 838.795,993.248"/>
	<line x1="852.322" y1="969.767" x2="865.851" y2="961.955"/>
	<polyline points="717.033,985.332 730.564,993.23 744.089,985.412 757.618,993.23 771.151,985.412 784.675,993.23 784.675,1008.873"/>
	<polyline points="892.91,961.955 906.439,969.767 906.439,985.412 919.968,993.23 919.968,1008.873"/>
	<polyline points="974.084,1008.873 974.084,993.23 987.612,985.412 987.612,969.767 1001.144,961.951 1001.144,946.308"/>
	<polyline points="892.91,946.308 906.439,938.503 919.968,946.324 933.495,938.49 947.024,946.308 960.556,938.49 974.084,946.308 987.613,938.492"/>
	<polyline points="1271.726,962.205 1258.2,970.023 1244.668,962.205 1231.138,970.023"/>
	<polyline points="1204.081,985.664 1190.554,993.484 1190.554,1009.128"/>
	<line x1="1217.612" y1="993.503" x2="1217.612" y2="1009.128"/>
	<polyline points="1217.612,962.203 1217.612,946.562 1204.081,938.744 1204.081,923.099 1190.554,915.281 1190.554,899.64 1177.026,891.82 1177.026,876.175 1163.492,868.359 1163.492,852.716 1149.966,844.896 1149.966,829.253 1136.438,821.433"/>
	<polyline points="1014.672,922.849 1028.2,915.027 1041.732,922.843 1055.26,915.027 1068.792,922.843 1082.319,915.281 1082.319,899.64 1095.849,891.82 1095.849,876.175 1109.38,868.359 1109.38,852.716 1122.906,844.896 1122.906,829.253"/>
	<polyline points="933.495,735.152 947.024,727.333 960.556,735.152 974.084,727.333 987.612,735.152 1001.144,727.333 1014.671,735.152 1028.2,727.333 1041.732,735.152 1055.26,727.333 1068.792,735.152 1068.792,750.798 1082.322,758.617 1082.322,774.259 1095.849,782.078 1095.849,797.718 1109.38,805.791"/>
	<polyline points="771.151,829.001 784.675,821.183 784.675,805.537 798.207,797.716 811.736,805.537 825.263,797.716 838.795,805.537 852.322,797.716 852.322,782.076 865.851,774.257"/>
	<polyline points="865.851,758.617 852.322,750.796 838.795,758.615 825.263,750.796 825.263,735.152 811.736,727.333 811.736,711.691 798.207,703.871"/>
	<polyline points="919.968,524 933.495,516.177 947.024,524 960.556,516.177 974.084,524 987.612,516.177 1001.144,524 1014.671,516.177 1028.2,524 1041.724,516.48 1041.724,500.837 1055.259,493.018"/>
	<polyline points="1068.79,469.217 1068.79,453.574 1055.263,445.754 1055.263,430.113"/>
	<polyline points="1082.318,477.375 1095.847,469.559 1109.377,477.383 1122.905,469.562 1122.905,453.922 1136.431,446.102 1149.962,453.92 1163.492,446.104 1163.492,430.461 1177.023,422.639 1190.55,430.459 1204.084,422.588 1204.084,406.945 1217.612,399.127 1217.612,383.488"/>
	<polyline points="1217.612,399.127 1231.138,406.945 1231.138,422.59 1244.668,430.408 1244.668,446.049 1258.2,453.869 1271.32,446.6"/>
	<polyline points="1258.2,453.869 1258.2,469.51 1244.668,477.33 1231.138,469.51 1217.612,477.33 1217.612,492.975 1204.081,500.791 1190.554,492.975 1177.026,500.791 1177.026,516.433 1163.492,524.253 1163.492,539.896"/>
	<polyline points="1082.319,492.975 1095.849,500.791 1095.849,516.433 1109.38,524.253 1122.906,516.433 1136.44,524.253 1136.44,539.896 1149.966,547.714"/>
	<polyline points="1163.492,571.181 1163.492,586.82 1149.966,594.64 1149.966,610.279 1163.492,618.099 1163.492,633.744 1149.966,641.562 1149.966,657.203 1136.44,665.023"/>
	<polyline points="1109.38,680.662 1095.849,688.482 1082.319,680.666 1068.79,688.482 1055.259,680.666 1055.259,664.767 1041.734,656.89"/>
	<polyline points="1014.671,641.31 1001.144,633.488 1001.144,617.841 987.612,610.025 974.084,617.841"/>
	<line x1="892.91" y1="758.619" x2="906.439" y2="750.796"/>
	<polyline points="879.38,782.082 879.38,797.716 892.91,805.537 892.91,821.183 906.439,829.001 906.439,844.642 919.968,852.46 919.968,868.103 906.439,875.921 906.439,891.564 892.91,899.384 892.91,915.027 879.38,922.843 879.38,938.49"/>
	<polyline points="1001.144,915.027 1001.144,899.384 987.612,891.564 987.612,875.921 974.084,868.103 974.084,852.46 960.556,844.642 960.556,829.001 974.084,821.183 974.084,805.537 960.556,797.716 960.556,782.076 947.024,774.257 947.024,758.615 933.498,750.798"/>
	<polyline points="1136.44,805.791 1149.966,797.974 1149.966,782.332 1136.44,774.515 1136.44,758.871 1149.966,751.05 1149.966,735.408 1136.44,727.589 1136.44,711.947 1122.906,704.128 1122.906,688.482"/>
	<polyline points="1136.438,680.664 1149.966,688.482 1163.492,680.666 1177.026,688.482 1190.554,680.666 1204.081,688.482 1217.612,680.666 1231.138,688.482 1231.138,704.128 1244.668,711.947 1258.2,704.128 1271.726,711.947"/>
	<polyline points="1285.255,704.125 1285.255,688.482 1271.728,680.666 1271.728,665.023 1285.255,657.203 1285.255,641.562 1271.728,633.744 1271.728,618.099 1258.2,610.279 1258.2,594.64 1271.728,586.82 1271.728,571.175"/>
	<polyline points="1177.023,547.716 1190.554,539.896 1204.081,547.714 1204.081,563.355 1217.612,571.175 1231.138,563.355 1231.138,547.714 1244.668,539.896 1258.197,547.714"/>
	<polyline points="1271.728,539.892 1271.728,524.253 1285.255,516.433 1285.255,500.791 1298.786,492.975 1298.786,477.334"/>
	<polyline points="1339.366,469.559 1352.901,477.33 1352.901,492.975 1366.431,500.791 1366.431,516.433 1379.959,524.253 1393.487,516.433 1407.013,524.253"/>
	<polyline points="1393.487,516.433 1393.487,500.791 1407.013,492.975 1407.113,477.273 1420.543,469.51 1420.543,453.867 1434.072,446.049 1434.072,430.408 1447.603,422.59 1447.603,406.945"/>
	<polyline points="1339.376,406.947 1352.901,399.127 1366.431,406.945 1379.959,399.127 1379.959,383.484 1393.487,375.664 1393.487,360.023"/>
	<polyline points="1298.786,399.125 1298.786,383.484 1312.315,375.664 1312.315,360.023 1325.843,352.203 1325.843,336.561 1339.374,328.742 1339.374,313.1 1352.901,305.281"/>
	<polyline points="1244.668,352.203 1258.2,360.023 1271.728,352.203 1285.255,360.023 1298.786,352.203 1312.315,360.023"/>
	<polyline points="1434.072,242.717 1434.072,258.354 1420.543,266.176 1420.543,281.82 1434.072,289.641 1434.072,305.281 1447.603,313.1 1447.603,328.742 1461.131,336.561 1461.131,352.203"/>
	<polyline points="1407.017,352.203 1420.543,360.023 1434.072,352.203 1447.603,360.023"/>
	<polyline points="1474.659,360.023 1488.192,352.203 1488.192,336.561 1501.718,328.742 1515.247,336.561 1528.776,328.742 1542.304,336.561 1555.833,328.742"/>
	<polyline points="1582.89,313.1 1596.417,305.281 1596.417,289.641 1609.95,281.82 1609.95,266.176 1623.478,258.354"/>
	<polyline points="1609.95,281.82 1623.478,289.641 1623.478,305.281 1637.005,313.1 1637.005,328.742 1623.478,336.562"/>
	<polyline points="1637.005,328.742 1650.535,336.561 1650.535,352.203 1664.066,360.023 1677.593,352.205"/>
	<polyline points="1650.535,258.354 1664.066,266.176 1664.066,281.82 1677.595,289.641 1677.595,305.281 1691.122,313.1 1691.122,328.742"/>
	<polyline points="1704.651,336.619 1718.179,328.801 1718.179,313.158 1731.708,305.34 1745.237,313.158 1758.765,305.34"/>
	<polyline points="1691.122,360.027 1691.122,375.664 1677.595,383.484 1677.595,399.127 1664.066,406.945 1664.066,422.59 1677.595,430.408 1677.595,446.049 1664.066,453.867 1664.066,469.51"/>
	<polyline points="1650.535,477.33 1637.005,469.51 1637.005,453.867 1623.478,446.049 1609.95,453.867 1596.417,446.049 1596.417,430.408 1582.89,422.59 1569.362,430.408"/>
	<polyline points="1582.89,422.59 1582.89,406.945 1596.417,399.127 1596.417,383.484 1609.95,375.664 1609.947,360.025"/>
	<line x1="1596.418" y1="336.562" x2="1582.89" y2="328.742"/>
	<polyline points="1569.362,336.562 1569.362,352.203 1555.833,360.023 1555.833,375.664 1542.304,383.484 1542.304,399.127 1555.833,406.945 1555.833,422.586"/>
	<polyline points="1542.304,430.408 1528.776,422.59 1515.247,430.408 1501.718,422.59 1488.192,430.408 1474.659,422.59 1474.659,406.945 1461.131,399.127"/>
	<polyline points="1434.072,524.253 1447.603,516.433 1447.603,500.791 1461.131,492.975 1461.131,477.33 1474.659,469.51 1488.192,477.33 1501.718,469.51 1515.247,477.33 1528.776,469.51 1528.776,453.867 1542.304,446.049"/>
	<polyline points="1285.256,547.714 1298.786,539.896 1312.315,547.714 1325.843,539.896 1339.374,547.714 1352.901,539.896 1366.431,547.714 1379.959,539.896 1393.487,547.714 1407.013,539.896"/>
	<polyline points="1285.255,563.353 1298.786,571.175 1312.315,563.355 1325.843,571.175 1325.843,586.82 1339.374,594.64 1339.374,610.279 1352.901,618.099 1352.901,633.744 1366.431,641.562 1366.431,657.201"/>
	<polyline points="1366.431,641.562 1379.959,633.744 1379.959,618.099 1393.487,610.279 1393.487,594.64 1407.013,586.82 1407.013,571.175 1420.543,563.355 1420.543,547.714"/>
	<polyline points="1434.072,539.896 1447.603,547.714 1461.131,539.896 1474.659,547.714 1488.192,539.896 1501.718,547.714 1515.247,539.896 1515.247,524.253 1528.776,516.433 1542.304,524.253 1555.833,516.433 1555.833,500.791 1569.362,492.975 1582.89,500.791 1596.417,492.975 1609.95,500.791 1623.478,492.975 1637.005,500.791 1650.535,492.973"/>
	<polyline points="1664.066,500.794 1664.066,516.433 1650.535,524.253 1650.535,539.896 1637.005,547.714 1623.478,539.896 1609.95,547.714 1609.95,563.355 1596.417,571.175 1582.89,563.355 1569.362,571.175 1555.833,563.355 1542.304,571.175 1542.304,586.82 1528.776,594.64 1528.776,610.279 1515.247,618.099 1515.245,633.783"/>
	<polyline points="1447.603,547.714 1447.603,563.355 1461.131,571.175 1461.131,586.82 1474.659,594.64 1474.659,610.279 1488.192,618.099 1488.192,633.744"/>
	<polyline points="1474.66,657.208 1461.131,665.023 1447.603,657.203 1434.072,665.023 1420.543,657.203 1407.013,665.023 1407.013,680.666 1393.487,688.482"/>
	<polyline points="1298.786,711.947 1312.315,704.128 1312.315,688.482 1325.843,680.666 1339.374,688.482 1352.902,680.664"/>
	<polyline points="1366.431,688.486 1366.431,704.128 1352.901,711.947 1352.901,727.589 1366.431,735.408 1366.431,751.05 1352.901,758.871 1352.901,774.509"/>
	<polyline points="1312.315,751.05 1325.843,758.871 1325.843,774.515 1339.37,782.333"/>
	<polyline points="1149.966,797.974 1163.492,805.791 1177.026,797.974 1197.315,805.822 1204.081,797.974 1217.612,805.791 1231.138,797.974 1244.668,805.791 1244.668,821.433"/>
	<polyline points="1244.668,805.791 1258.2,797.974 1271.728,805.791 1285.255,797.974 1285.255,782.332 1298.786,774.515 1298.786,758.871"/>
	<polyline points="1258.2,829.253 1271.728,821.435 1285.255,829.253 1298.786,821.435 1298.786,805.791 1312.315,797.974 1325.843,805.791 1339.374,797.974"/>
	<polyline points="1352.901,805.796 1352.901,821.435 1339.374,829.253 1339.374,844.896 1325.843,852.716 1325.843,868.359 1312.315,876.175 1298.786,868.359 1285.255,876.175 1285.255,891.82 1271.728,899.64 1271.728,915.281 1285.255,923.099 1285.255,938.757"/>
	<polyline points="1988.759,751.048 1988.759,735.441 2002.288,727.623 2002.288,711.98 1988.759,704.164 1988.759,688.521 2002.288,680.703 2002.288,657.242 2015.818,657.242"/>
	<line x1="2002.288" y1="774.513" x2="2015.818" y2="782.361"/>
	<line x1="2002.288" y1="758.902" x2="2015.818" y2="751.083"/>
	<polyline points="1677.595,962.216 1691.122,970.039 1691.122,985.683 1704.651,993.503 1704.651,1009.146"/>
	<polyline points="1664.066,970.039 1664.065,985.685 1650.534,993.503 1650.534,1009.146"/>
	<polyline points="1447.599,970.042 1447.599,985.685 1461.128,993.503 1474.659,985.683 1488.187,993.503 1488.192,1009.146"/>
	<polyline points="1407.013,962.224 1393.484,970.042 1393.484,985.685 1379.954,993.503 1379.954,1009.146"/>
	<polyline points="1285.255,970.027 1285.255,985.667 1298.78,993.503 1298.78,1009.146"/>
	<polyline points="1285.255,985.667 1271.728,993.484 1271.728,1009.128"/>
	<polyline points="1014.671,938.49 1028.201,946.308 1028.204,961.869 1041.735,969.687 1041.735,985.328 1028.204,993.144 1028.2,1008.89"/>
	<polyline points="1028.201,946.308 1041.73,938.49 1055.26,946.324 1055.26,961.951 1068.787,969.767 1082.316,961.951 1095.845,969.785 1095.845,985.412 1109.373,993.228 1122.901,985.41 1136.431,993.244 1136.431,1008.871"/>
	<polyline points="0,586.505 0,570.863 -13.529,563.044"/>
	<polyline points="-13.529,547.402 0,539.585 0,523.943 -13.427,516.183"/>
	<line x1="1515.245" y1="633.783" x2="1501.72" y2="641.566"/>
</g>

</svg>
