<?xml version="1.0" encoding="utf-8"?>
<svg version="1.1" id="adiTitre" xmlns="http://www.w3.org/2000/svg" xmlns:xlink="http://www.w3.org/1999/xlink" x="0px" y="0px"
	 width="306.041px" height="101px" viewBox="0 0 306.041 101" enable-background="new 0 0 306.041 101" xml:space="preserve">

<g fill="none" stroke="black" stroke-width="4.5" stroke-linecap="round" stroke-linejoin="round">
	<polyline points="209.291,2.25 200.291,2.25 200.291,6.75 195.791,6.75 195.791,11.25 191.291,11.25 191.291,33.75 195.791,33.75 195.791,38.25 200.291,38.25 200.291,42.75 209.291,42.75"/>
	<polyline points="254.291,2.25 263.291,2.25 263.291,6.75 267.791,6.75 267.791,11.25 272.291,11.25 272.291,33.75 267.791,33.75 267.791,38.25 263.291,38.25 263.291,42.75 254.291,42.75"/>
	<polyline points="2.25,38.25 2.25,29.25 6.75,24.75 6.75,15.75 11.25,11.25 11.25,6.75 15.75,6.75 20.25,11.25 20.25,38.25"/>
	<polyline points="20.25,29.25 11.25,29.25 11.25,24.75 6.75,24.75"/>
	<polyline points="65.25,24.75 69.75,24.75 74.25,29.25 78.75,29.25 83.25,24.75 83.25,20.25 78.75,20.25 78.75,15.75 69.75,15.75 69.75,20.25 65.25,20.25 65.25,33.75 69.75,38.25 78.75,38.25"/>
	<polyline points="159.75,85.25 164.25,85.25 168.75,89.75 173.25,89.75 177.75,85.25 177.75,80.75 173.25,80.75 173.25,76.25 164.25,76.25 164.25,80.75 159.75,80.75 159.75,94.25 164.25,98.75 173.25,98.75"/>
	<polyline points="254.291,85.25 258.791,85.25 263.291,89.75 267.791,89.75 272.291,85.25 272.291,80.75 267.791,80.75 267.791,76.25 258.791,76.25 258.791,80.75 254.291,80.75 254.291,94.25 258.791,98.75 267.791,98.75"/>
	<polygon points="15.75,98.75 6.75,98.75 6.75,94.25 2.25,94.25 2.25,80.75 6.75,80.75 6.75,76.25 15.75,76.25 20.25,80.75 20.25,94.25"/>
	<polyline points="15.75,76.25 20.25,71.75 20.25,67.25"/>
	<line x1="137.25" y1="6.75" x2="137.25" y2="11.25"/>
	<polyline points="137.25,20.25 137.25,33.75 132.75,38.25 128.25,38.25"/>
	<polyline points="137.25,33.75 141.75,38.25 146.25,38.25"/>
	<line x1="132.75" y1="24.75" x2="141.75" y2="24.75"/>
	<line x1="74.25" y1="67.25" x2="74.25" y2="71.75"/>
	<polyline points="74.25,80.75 74.25,94.25 69.75,98.75 65.25,98.75"/>
	<polyline points="74.25,94.25 78.75,98.75 83.25,98.75"/>
	<line x1="69.75" y1="85.25" x2="78.75" y2="85.25"/>
	<polyline points="96.75,38.25 96.75,24.75 105.75,15.75 110.25,15.75 114.75,20.25 114.75,38.25"/>
	<line x1="101.25" y1="20.25" x2="96.75" y2="15.75"/>
	<polyline points="222.791,98.75 222.791,85.25 231.791,76.25 236.291,76.25 240.791,80.75 240.791,98.75"/>
	<line x1="227.291" y1="80.75" x2="222.791" y2="76.25"/>
	<polyline points="164.291,38.25 164.291,24.75 159.791,20.25 168.791,20.25 168.791,15.75 173.291,15.75 177.791,20.25"/>
	<polyline points="195.791,98.75 195.791,85.25 191.291,80.75 200.291,80.75 200.291,76.25 204.791,76.25 209.291,80.75"/>
	<polyline points="222.791,33.75 227.291,33.75 227.291,38.25 236.291,38.25 240.791,33.75 231.791,24.75 227.291,24.75 227.291,20.25 231.791,15.75 236.291,15.75"/>
	<polyline points="132.75,67.25 132.75,76.25 137.25,76.25 137.25,85.25 132.75,85.25 132.75,94.25 137.25,98.75 141.75,98.75 146.25,94.25"/>
	<line x1="137.25" y1="80.75" x2="141.75" y2="80.75"/>
	<polyline points="33.75,20.25 33.75,24.75 38.25,29.25 38.25,33.75 42.75,38.25 47.25,33.75 47.25,24.75 51.75,20.25 51.75,15.75"/>
	<polyline points="96.75,98.75 96.75,85.25 105.75,76.25 110.25,76.25 114.75,80.75 114.75,98.75"/>
	<line x1="101.25" y1="80.75" x2="96.75" y2="76.25"/>
	<polyline points="132.75,85.25 128.25,80.75 132.75,76.25"/>
	<polyline points="290.291,67.25 290.291,76.25 294.791,76.25 294.791,85.25 290.291,85.25 290.291,94.25 294.791,98.75 299.291,98.75 303.791,94.25"/>
	<line x1="294.791" y1="80.75" x2="299.291" y2="80.75"/>
	<polyline points="290.291,85.25 285.791,80.75 290.291,76.25"/>
	<polyline points="33.75,62.75 33.75,67.25 38.25,67.25 38.25,71.75"/>
</g>

</svg>
