<?xml version="1.0" encoding="utf-8"?>
<svg version="1.1" id="Calque_1" xmlns="http://www.w3.org/2000/svg" xmlns:xlink="http://www.w3.org/1999/xlink" x="0px" y="0px" width="910px" height="680px" viewBox="0 0 910 680" enable-background="new 0 0 910 680" xml:space="preserve">

<g id="line" fill="none" stroke="black" stroke-width="3" stroke-linecap="round" stroke-linejoin="round">
	<polyline points="591.665,390.854 552.062,466.071 584.439,523.842 402.89,597.29 376.601,609.165 646.55,631.153 664.903,620.006 796.925,409.86 661.595,340.521 483.997,274.329"/>
	<polyline points="376.601,609.165 121.675,634.68 140.793,612.206 290.693,483.661 253.636,374.693 84.364,49.152 207.759,84.251 258.323,149.36 322.769,219.435 311.736,295.048 429.455,347.516 483.997,274.329 322.769,219.435"/>
</g>

<g id="star" fill="white" stroke="black" stroke-width="3" stroke-linecap="round" stroke-linejoin="round">
	<polygon points="121.674,640.737 117.392,638.963 115.617,634.68 117.392,630.399 121.675,628.625 125.953,630.399 127.728,634.68 125.955,638.963 	"/>
	<polygon points="140.793,618.262 136.511,616.489 134.736,612.206 136.511,607.924 140.794,606.151 145.072,607.924 146.847,612.206 145.074,616.489"/>
	<polygon points="290.694,489.715 286.413,487.942 284.638,483.659 286.413,479.377 290.695,477.604 294.974,479.377 296.748,483.661 294.976,487.942"/>
	<polygon points="253.636,380.75 249.355,378.977 247.582,374.693 249.355,370.413 253.637,368.639 257.918,370.413 259.691,374.693 257.919,378.977"/>
	<polygon points="311.736,301.104 307.455,299.33 305.681,295.047 307.455,290.766 311.737,288.992 316.016,290.766 317.79,295.048 316.017,299.33"/>
	<polygon points="322.771,225.49 318.49,223.717 316.716,219.434 318.49,215.152 322.772,213.379 327.052,215.152 328.826,219.435 327.052,223.717"/>
	<polygon points="258.323,155.415 254.044,153.642 252.268,149.358 254.044,145.077 258.324,143.304 262.604,145.077 264.38,149.359 262.606,153.642"/>
	<polygon points="207.759,90.307 203.478,88.533 201.703,84.25 203.478,79.969 207.76,78.195 212.04,79.969 213.814,84.251 212.042,88.533"/>
	<polygon points="84.364,55.208 80.085,53.435 78.309,49.151 80.085,44.87 84.365,43.097 88.645,44.87 90.421,49.152 88.647,53.435"/>
	<polygon points="483.997,280.385 479.718,278.611 477.943,274.328 479.718,270.047 483.998,268.273 488.279,270.047 490.052,274.329 488.28,278.611"/>
	<polygon points="429.455,353.57 425.175,351.797 423.4,347.516 425.175,343.232 429.455,341.46 433.736,343.232 435.51,347.516 433.737,351.797"/>
	<polygon points="661.595,346.577 657.315,344.805 655.54,340.521 657.315,336.239 661.596,334.466 665.876,336.239 667.651,340.521 665.877,344.805"/>
	<polygon points="591.665,396.909 587.385,395.135 585.611,390.854 587.385,386.57 591.666,384.797 595.947,386.57 597.72,390.854 595.948,395.135"/>
	<polygon points="552.062,472.127 547.781,470.354 546.009,466.071 547.781,461.79 552.064,460.016 556.344,461.79 558.117,466.071 556.344,470.354 	"/>
	<polygon points="584.437,529.899 580.157,528.125 578.384,523.842 580.157,519.561 584.44,517.788 588.719,519.561 590.493,523.842 588.72,528.125 	"/>
	<polygon points="402.89,603.344 398.61,601.571 396.835,597.288 398.61,593.006 402.891,591.233 407.171,593.006 408.946,597.288 407.172,601.571"/>
	<polygon points="646.55,637.208 642.267,635.434 640.493,631.151 642.267,626.87 646.55,625.096 650.829,626.87 652.603,631.153 650.83,635.434"/>
	<polygon points="664.902,626.062 660.621,624.288 658.845,620.004 660.621,615.723 664.903,613.95 669.181,615.723 670.956,620.006 669.183,624.288"/>
	<polygon points="796.925,415.915 792.643,414.141 790.869,409.858 792.643,405.577 796.927,403.803 801.205,405.577 802.98,409.86 801.206,414.141 	"/>
	<polygon points="376.601,615.219 372.321,613.446 370.546,609.163 372.321,604.881 376.602,603.108 380.881,604.881 382.657,609.165 380.885,613.446"/>
</g>

<g id="cercleLettre" stroke="black" stroke-width="1" fill="none">
	<circle cx="630.365" cy="542.78" r="6.25"/>
	<circle cx="697.558" cy="638.864" r="6.25"/>
	<circle cx="637.615" cy="409.698" r="6.25"/>
	<circle cx="600.562" cy="650.086" r="6.25"/>
	<circle cx="396.872" cy="366.338" r="6.25"/>
	<circle cx="207.643" cy="393.592" r="6.25"/>
	<circle cx="75.741" cy="653.674" r="6.25"/>
	<circle cx="506.132" cy="447.153" r="6.25"/>
	<circle cx="357.084" cy="578.37" r="6.25"/>
	<circle cx="94.861" cy="593.288" r="6.25"/>
	<circle cx="842.807" cy="390.942" r="6.25"/>
	<circle cx="707.599" cy="321.604" r="6.25"/>
	<circle cx="516.608" cy="255.412" r="6.25"/>
	<circle cx="323.307" cy="464.743" r="6.25"/>
	<circle cx="393.807" cy="632.155" r="6.25"/>
	<circle cx="368.682" cy="200.518" r="6.25"/>
	<circle cx="344.345" cy="276.131" r="6.25"/>
	<circle cx="290.933" cy="130.442" r="6.25"/>
	<circle cx="240.368" cy="65.334" r="6.25"/>
	<circle cx="116.974" cy="30.235" r="6.25"/>
</g>

<g id="text">
	<path d="M810.497,396.286v-8.144l-0.533,0.498c-0.333,0.354-0.746,0.53-1.243,0.53c-0.498,0-0.913-0.178-1.245-0.53
		c-0.354-0.332-0.532-0.746-0.532-1.244s0.178-0.912,0.532-1.244l3.558-3.557c0.545-0.568,1.186-0.699,1.92-0.394
		c0.331,0.146,0.598,0.36,0.8,0.657c0.2,0.298,0.304,0.621,0.304,0.979v12.443h1.775c0.498,0,0.919,0.172,1.264,0.516
		c0.346,0.344,0.518,0.768,0.518,1.264s-0.172,0.92-0.518,1.264c-0.345,0.344-0.766,0.516-1.264,0.516h-7.108
		c-0.497,0-0.921-0.172-1.265-0.516s-0.516-0.768-0.516-1.264s0.172-0.92,0.516-1.264s0.768-0.516,1.265-0.516h1.775
		L810.497,396.286L810.497,396.286z"/>
	<path d="M820.79,399.325c-0.344-0.344-0.516-0.768-0.516-1.262v-3.559c0-0.498,0.178-0.909,0.532-1.243l5.83-5.865
		l-1.776-1.778h-2.808c-0.498,0-0.919-0.17-1.264-0.515c-0.344-0.347-0.516-0.767-0.516-1.265s0.172-0.918,0.516-1.264
		c0.345-0.345,0.766-0.517,1.264-0.517h3.557c0.497,0,0.912,0.18,1.244,0.532l3.556,3.558c0.354,0.332,0.533,0.746,0.533,1.244
		s-0.179,0.912-0.533,1.244l-6.578,6.612v1.03h5.334c0.498,0,0.918,0.173,1.264,0.517c0.345,0.344,0.517,0.767,0.517,1.262
		c0,0.498-0.172,0.918-0.517,1.266c-0.346,0.344-0.766,0.516-1.264,0.516h-7.111C821.554,399.84,821.135,399.668,820.79,399.325z"/>
	<path d="M98.97,35.578l1.777-1.777l-2.274-2.312c-0.355-0.332-0.533-0.746-0.533-1.244s0.178-0.912,0.533-1.245
		l2.274-2.311l-1.777-1.778H96.16c-0.498,0-0.919-0.171-1.262-0.515c-0.344-0.344-0.517-0.765-0.517-1.263s0.173-0.918,0.517-1.263
		c0.343-0.343,0.764-0.515,1.262-0.515h3.558c0.498,0,0.912,0.178,1.244,0.533l3.557,3.556c0.354,0.332,0.532,0.746,0.532,1.244
		s-0.178,0.913-0.532,1.244l-2.275,2.312l2.275,2.311c0.354,0.333,0.532,0.747,0.532,1.245c0,0.497-0.178,0.912-0.532,1.244
		l-3.557,3.556c-0.332,0.355-0.747,0.533-1.244,0.533H96.16c-0.498,0-0.919-0.172-1.262-0.516c-0.344-0.344-0.517-0.765-0.517-1.262
		c0-0.498,0.173-0.919,0.517-1.263c0.343-0.344,0.764-0.516,1.262-0.516h2.812L98.97,35.578L98.97,35.578z"/>
	<path d="M218.309,66.588c-0.355-0.308-0.533-0.723-0.533-1.244v-3.556c0-0.498,0.172-0.918,0.518-1.263
		c0.344-0.343,0.765-0.516,1.263-0.516s0.918,0.173,1.262,0.516c0.343,0.345,0.518,0.765,0.518,1.263v2.809l2.522,2.524h1.031
		v-8.889c0-0.498,0.171-0.918,0.515-1.263c0.344-0.343,0.767-0.515,1.264-0.515c0.496,0,0.918,0.172,1.263,0.515
		c0.344,0.345,0.516,0.765,0.516,1.263v14.223c0,0.497-0.172,0.918-0.516,1.262c-0.345,0.344-0.767,0.516-1.263,0.516
		c-0.498,0-0.92-0.172-1.264-0.516c-0.344-0.344-0.515-0.765-0.515-1.262v-1.778h-1.778c-0.521,0-0.938-0.178-1.245-0.533
		L218.309,66.588z"/>
	<path d="M271.898,135.785v-8.143l-0.533,0.498c-0.333,0.355-0.747,0.533-1.245,0.533
		c-0.496,0-0.911-0.178-1.243-0.533c-0.354-0.331-0.532-0.746-0.532-1.244s0.178-0.912,0.532-1.244l3.557-3.556
		c0.545-0.569,1.185-0.699,1.92-0.392c0.332,0.143,0.599,0.362,0.8,0.658c0.201,0.297,0.302,0.622,0.302,0.978v12.444h1.777
		c0.498,0,0.918,0.172,1.262,0.516c0.346,0.344,0.519,0.765,0.519,1.263c0,0.497-0.173,0.918-0.519,1.262
		c-0.344,0.344-0.764,0.516-1.262,0.516h-7.111c-0.496,0-0.919-0.172-1.262-0.516c-0.344-0.344-0.516-0.765-0.516-1.262
		c0-0.498,0.172-0.919,0.516-1.263c0.343-0.344,0.766-0.516,1.262-0.516L271.898,135.785L271.898,135.785z"/>
	<path d="M336.344,205.86v-8.143l-0.532,0.498c-0.334,0.355-0.747,0.533-1.245,0.533s-0.913-0.178-1.245-0.533
		c-0.354-0.331-0.533-0.746-0.533-1.244c0-0.498,0.18-0.912,0.533-1.244l3.556-3.556c0.545-0.569,1.188-0.699,1.92-0.392
		c0.332,0.143,0.602,0.362,0.802,0.658c0.201,0.297,0.303,0.622,0.303,0.978v12.444h1.776c0.498,0,0.918,0.172,1.263,0.516
		c0.344,0.344,0.516,0.765,0.516,1.263c0,0.497-0.172,0.918-0.516,1.262c-0.345,0.344-0.765,0.516-1.263,0.516h-7.11
		c-0.498,0-0.919-0.172-1.263-0.516c-0.346-0.344-0.518-0.765-0.518-1.262c0-0.498,0.172-0.919,0.518-1.263
		c0.344-0.344,0.765-0.516,1.263-0.516L336.344,205.86L336.344,205.86z"/>
	<path d="M349.677,205.86v-8.143l-0.533,0.498c-0.332,0.355-0.746,0.533-1.244,0.533s-0.913-0.178-1.245-0.533
		c-0.354-0.331-0.533-0.746-0.533-1.244c0-0.498,0.18-0.912,0.533-1.244l3.556-3.556c0.546-0.569,1.188-0.699,1.921-0.392
		c0.331,0.143,0.601,0.362,0.801,0.658c0.199,0.297,0.303,0.622,0.303,0.978v12.444h1.776c0.498,0,0.918,0.172,1.263,0.516
		c0.344,0.344,0.516,0.765,0.516,1.263c0,0.497-0.172,0.918-0.516,1.262c-0.345,0.344-0.765,0.516-1.263,0.516H347.9
		c-0.498,0-0.919-0.172-1.263-0.516c-0.346-0.344-0.518-0.765-0.518-1.262c0-0.498,0.172-0.919,0.518-1.263
		c0.344-0.344,0.765-0.516,1.263-0.516L349.677,205.86L349.677,205.86z"/>
	<path d="M331.887,278.451c0.354,0.333,0.531,0.747,0.531,1.245c0,0.497-0.178,0.912-0.531,1.244l-3.558,3.556
		c-0.332,0.355-0.747,0.533-1.244,0.533c-0.521,0-0.937-0.178-1.243-0.533l-3.558-3.556c-0.188-0.166-0.326-0.355-0.409-0.569
		c-0.083-0.213-0.125-0.426-0.125-0.64v-0.035v-7.111c0-0.498,0.18-0.912,0.533-1.244l3.558-3.556
		c0.332-0.355,0.745-0.533,1.243-0.533s0.912,0.178,1.244,0.533c0.354,0.332,0.534,0.746,0.534,1.244
		c0,0.498-0.179,0.913-0.534,1.244l-3.021,3.058v2.062l0.533-0.498c0.33-0.355,0.745-0.533,1.243-0.533s0.912,0.178,1.244,0.533
		L331.887,278.451z M328.119,279.696l-1.031-1.031l-1.029,1.031l1.029,1.031L328.119,279.696z"/>
	<path d="M413.372,371.684l1.778-1.775l-5.831-5.867c-0.355-0.311-0.533-0.725-0.533-1.244v-3.557
		c0-0.498,0.172-0.92,0.518-1.264c0.344-0.344,0.765-0.516,1.263-0.516h7.11c0.496,0,0.918,0.172,1.263,0.516
		c0.344,0.344,0.516,0.766,0.516,1.264c0,0.496-0.172,0.92-0.516,1.264c-0.345,0.346-0.767,0.516-1.263,0.516h-5.333v1.029
		l6.576,6.613c0.355,0.334,0.533,0.748,0.533,1.246c0,0.494-0.178,0.91-0.533,1.242l-3.556,3.557
		c-0.332,0.354-0.747,0.533-1.244,0.533h-3.556c-0.498,0-0.92-0.174-1.263-0.518c-0.346-0.344-0.518-0.766-0.518-1.262
		c0-0.498,0.172-0.92,0.518-1.264c0.343-0.344,0.765-0.516,1.263-0.516L413.372,371.684L413.372,371.684z"/>
	<path d="M494.532,263.795c-0.344-0.344-0.517-0.765-0.517-1.262v-3.556c0-0.498,0.179-0.912,0.533-1.245
		l5.829-5.866l-1.776-1.778h-2.811c-0.498,0-0.919-0.171-1.262-0.515c-0.345-0.344-0.517-0.765-0.517-1.263s0.172-0.918,0.517-1.263
		c0.343-0.343,0.764-0.515,1.262-0.515h3.558c0.498,0,0.912,0.178,1.244,0.533l3.557,3.556c0.354,0.332,0.532,0.746,0.532,1.244
		s-0.18,0.913-0.532,1.244l-6.578,6.613v1.031h5.333c0.498,0,0.918,0.172,1.262,0.516c0.346,0.344,0.518,0.765,0.518,1.263
		c0,0.497-0.172,0.918-0.518,1.262c-0.344,0.344-0.764,0.516-1.262,0.516h-7.111C495.295,264.311,494.874,264.139,494.532,263.795z"
		/>
	<path d="M675.169,326.947v-8.143l-0.531,0.498c-0.333,0.355-0.748,0.533-1.245,0.533
		c-0.498,0-0.912-0.178-1.244-0.533c-0.355-0.331-0.533-0.746-0.533-1.244s0.178-0.912,0.533-1.244l3.557-3.556
		c0.545-0.569,1.187-0.699,1.92-0.392c0.331,0.143,0.6,0.362,0.802,0.658c0.198,0.297,0.302,0.622,0.302,0.978v12.444h1.775
		c0.498,0,0.92,0.172,1.266,0.516c0.344,0.344,0.516,0.765,0.516,1.263c0,0.497-0.172,0.918-0.516,1.262
		c-0.346,0.344-0.768,0.516-1.266,0.516h-7.107c-0.498,0-0.92-0.172-1.266-0.516c-0.344-0.344-0.516-0.765-0.516-1.262
		c0-0.498,0.172-0.919,0.516-1.263c0.346-0.344,0.768-0.516,1.266-0.516L675.169,326.947L675.169,326.947z"/>
	<path d="M695.08,323.925c0.354,0.333,0.533,0.747,0.533,1.245c0,0.497-0.178,0.912-0.533,1.244l-3.556,3.556
		c-0.332,0.355-0.747,0.533-1.244,0.533c-0.521,0-0.938-0.178-1.245-0.533l-3.555-3.556c-0.19-0.166-0.326-0.355-0.409-0.569
		c-0.083-0.213-0.124-0.426-0.124-0.64v-0.035v-7.111c0-0.498,0.178-0.912,0.533-1.244l3.555-3.556
		c0.332-0.355,0.747-0.533,1.245-0.533c0.497,0,0.912,0.178,1.244,0.533c0.354,0.332,0.533,0.746,0.533,1.244
		s-0.181,0.913-0.533,1.244l-3.022,3.058v2.062l0.533-0.498c0.332-0.355,0.747-0.533,1.245-0.533c0.497,0,0.912,0.178,1.244,0.533
		L695.08,323.925z M691.31,325.17l-1.029-1.031l-1.031,1.031l1.031,1.031L691.31,325.17z"/>
	<path d="M605.24,415.04v-8.143l-0.533,0.494c-0.333,0.355-0.748,0.533-1.245,0.533
		c-0.498,0-0.913-0.178-1.244-0.533c-0.354-0.329-0.532-0.742-0.532-1.24s0.179-0.912,0.532-1.244l3.559-3.559
		c0.545-0.566,1.185-0.697,1.92-0.393c0.331,0.143,0.598,0.363,0.8,0.658c0.2,0.297,0.302,0.623,0.302,0.979v12.443h1.777
		c0.498,0,0.919,0.172,1.263,0.516c0.346,0.348,0.518,0.768,0.518,1.266s-0.172,0.918-0.518,1.262
		c-0.344,0.344-0.765,0.516-1.263,0.516h-7.11c-0.498,0-0.919-0.172-1.263-0.516c-0.345-0.344-0.517-0.764-0.517-1.262
		s0.172-0.918,0.517-1.266c0.344-0.344,0.765-0.516,1.263-0.516h1.777L605.24,415.04L605.24,415.04z"/>
	<path d="M625.683,406.151c0,0.498-0.178,0.911-0.532,1.24l-2.275,2.312l2.275,2.311
		c0.354,0.334,0.532,0.748,0.532,1.246c0,0.496-0.178,0.912-0.532,1.244l-3.557,3.555c-0.332,0.355-0.747,0.533-1.244,0.533
		c-0.521,0-0.938-0.178-1.245-0.533l-3.555-3.555c-0.354-0.332-0.533-0.748-0.533-1.244c0-0.498,0.179-0.912,0.533-1.246
		l2.273-2.311l-2.273-2.312c-0.354-0.329-0.533-0.742-0.533-1.24s0.179-0.912,0.533-1.244l3.555-3.559
		c0.332-0.354,0.747-0.531,1.245-0.531c0.497,0,0.912,0.178,1.244,0.531l3.557,3.559
		C625.507,405.239,625.683,405.653,625.683,406.151z M621.382,406.151l-1.03-1.031l-1.03,1.031l1.03,1.027L621.382,406.151z
		 M621.382,413.262l-1.03-1.029l-1.03,1.029l1.03,1.031L621.382,413.262z"/>
	<path d="M518.56,455.536c-0.344-0.344-0.518-0.764-0.518-1.262v-3.559c0-0.498,0.18-0.912,0.533-1.244l5.831-5.863
		l-1.776-1.779h-2.811c-0.498,0-0.919-0.17-1.263-0.514c-0.346-0.348-0.518-0.768-0.518-1.266s0.172-0.918,0.518-1.264
		c0.344-0.342,0.765-0.515,1.263-0.515h3.556c0.498,0,0.912,0.179,1.244,0.53l3.558,3.559c0.354,0.332,0.533,0.746,0.533,1.243
		s-0.18,0.911-0.533,1.243l-6.578,6.613v1.031h5.333c0.498,0,0.919,0.172,1.263,0.516s0.518,0.768,0.518,1.266
		c0,0.494-0.174,0.918-0.518,1.262s-0.765,0.516-1.263,0.516h-7.11C519.325,456.051,518.904,455.879,518.56,455.536z"/>
	<path d="M541.511,442.364c0.354,0.332,0.531,0.746,0.531,1.244v7.107c0,0.521-0.178,0.938-0.531,1.244l-3.558,3.557
		c-0.332,0.355-0.747,0.533-1.244,0.533c-0.521,0-0.937-0.178-1.243-0.533l-3.557-3.557c-0.354-0.307-0.533-0.723-0.533-1.244
		v-7.107c0-0.498,0.18-0.912,0.533-1.244l3.557-3.559c0.33-0.354,0.745-0.531,1.243-0.531c0.497,0,0.912,0.178,1.244,0.531
		L541.511,442.364z M538.49,444.354l-1.778-1.775l-1.776,1.775v5.617l1.776,1.779l1.778-1.779V444.354z"/>
	<path d="M598.013,548.122v-8.144l-0.533,0.497c-0.332,0.355-0.747,0.533-1.244,0.533
		c-0.498,0-0.913-0.178-1.245-0.533c-0.354-0.329-0.533-0.744-0.533-1.242s0.18-0.912,0.533-1.244l3.557-3.559
		c0.547-0.566,1.188-0.695,1.922-0.391c0.331,0.143,0.599,0.361,0.8,0.658c0.2,0.297,0.303,0.621,0.303,0.977v12.445h1.776
		c0.498,0,0.919,0.172,1.264,0.516c0.344,0.345,0.516,0.768,0.516,1.266c0,0.495-0.172,0.918-0.516,1.262
		c-0.345,0.344-0.766,0.516-1.264,0.516h-7.109c-0.498,0-0.919-0.172-1.264-0.516c-0.346-0.344-0.518-0.767-0.518-1.262
		c0-0.498,0.172-0.921,0.518-1.266c0.345-0.344,0.766-0.516,1.264-0.516L598.013,548.122L598.013,548.122z"/>
	<path d="M617.925,537.989c0.354,0.332,0.531,0.746,0.531,1.244v7.109c0,0.521-0.178,0.938-0.531,1.244l-3.558,3.558
		c-0.332,0.354-0.747,0.53-1.244,0.53c-0.521,0-0.938-0.178-1.245-0.53l-3.555-3.558c-0.354-0.309-0.533-0.723-0.533-1.244v-7.109
		c0-0.498,0.18-0.912,0.533-1.244l3.555-3.559c0.332-0.354,0.747-0.529,1.245-0.529c0.497,0,0.912,0.178,1.244,0.529
		L617.925,537.989z M614.903,539.979l-1.778-1.775l-1.776,1.775v5.617l1.776,1.779l1.778-1.779V539.979z"/>
	<path d="M372.553,583.713v-8.143l-0.532,0.498c-0.334,0.354-0.747,0.529-1.245,0.529s-0.913-0.178-1.245-0.529
		c-0.354-0.332-0.533-0.746-0.533-1.244s0.18-0.912,0.533-1.244l3.556-3.557c0.547-0.568,1.188-0.699,1.922-0.395
		c0.33,0.146,0.6,0.363,0.8,0.658c0.201,0.297,0.303,0.623,0.303,0.979v12.443h1.776c0.498,0,0.918,0.172,1.263,0.516
		c0.344,0.348,0.516,0.768,0.516,1.266s-0.172,0.918-0.516,1.262c-0.345,0.344-0.765,0.516-1.263,0.516h-7.11
		c-0.498,0-0.919-0.172-1.263-0.516c-0.346-0.344-0.518-0.764-0.518-1.262s0.172-0.918,0.518-1.266
		c0.344-0.344,0.765-0.516,1.263-0.516h1.778L372.553,583.713L372.553,583.713z"/>
	<path d="M386.917,583.713l1.778-1.777l-2.275-2.312c-0.354-0.332-0.531-0.746-0.531-1.244s0.179-0.912,0.531-1.244
		l2.275-2.311l-1.778-1.779h-2.809c-0.498,0-0.919-0.17-1.263-0.514c-0.346-0.344-0.518-0.768-0.518-1.266
		c0-0.497,0.172-0.918,0.518-1.264c0.344-0.342,0.765-0.514,1.263-0.514h3.556c0.498,0,0.912,0.178,1.244,0.533l3.558,3.555
		c0.354,0.332,0.531,0.746,0.531,1.244s-0.178,0.914-0.531,1.244l-2.274,2.312l2.274,2.312c0.354,0.334,0.531,0.748,0.531,1.246
		c0,0.494-0.178,0.908-0.531,1.24l-3.558,3.559c-0.332,0.354-0.747,0.533-1.244,0.533h-3.556c-0.498,0-0.919-0.174-1.263-0.518
		c-0.346-0.344-0.518-0.766-0.518-1.262c0-0.498,0.172-0.92,0.518-1.264c0.344-0.346,0.765-0.518,1.263-0.518h2.809V583.713z"/>
	<path d="M381.869,628.608c0,0.497-0.178,0.913-0.533,1.242l-2.273,2.312l2.273,2.311
		c0.355,0.332,0.533,0.746,0.533,1.244s-0.178,0.912-0.533,1.244l-3.556,3.557c-0.332,0.355-0.747,0.533-1.244,0.533
		c-0.521,0-0.938-0.178-1.245-0.533l-3.556-3.557c-0.355-0.332-0.533-0.746-0.533-1.244s0.178-0.912,0.533-1.244l2.275-2.311
		l-2.275-2.312c-0.355-0.33-0.533-0.745-0.533-1.242c0-0.498,0.178-0.912,0.533-1.244l3.556-3.559
		c0.332-0.354,0.747-0.529,1.245-0.529s0.912,0.178,1.244,0.529l3.556,3.559C381.692,627.696,381.869,628.11,381.869,628.608z
		 M377.567,628.608l-1.031-1.031l-1.031,1.031l1.031,1.029L377.567,628.608z M377.567,635.719l-1.031-1.027l-1.031,1.027
		l1.031,1.031L377.567,635.719z"/>
	<path d="M616.031,655.43v-8.143l-0.533,0.498c-0.333,0.354-0.748,0.533-1.245,0.533
		c-0.498,0-0.913-0.182-1.244-0.533c-0.354-0.332-0.532-0.746-0.532-1.244s0.179-0.912,0.532-1.244l3.559-3.557
		c0.545-0.568,1.185-0.699,1.92-0.395c0.331,0.146,0.598,0.363,0.8,0.658c0.2,0.297,0.302,0.623,0.302,0.979v12.441h1.777
		c0.498,0,0.919,0.172,1.263,0.52c0.346,0.344,0.518,0.764,0.518,1.262s-0.172,0.918-0.518,1.262
		c-0.344,0.348-0.765,0.52-1.263,0.52h-7.11c-0.498,0-0.919-0.172-1.263-0.52c-0.345-0.344-0.517-0.764-0.517-1.262
		s0.172-0.918,0.517-1.262c0.344-0.348,0.765-0.52,1.263-0.52h1.777L616.031,655.43L616.031,655.43z"/>
	<path d="M630.394,655.43l1.775-1.775l-5.828-5.867c-0.354-0.309-0.533-0.725-0.533-1.244v-3.555
		c0-0.498,0.173-0.918,0.517-1.266c0.343-0.344,0.764-0.516,1.262-0.516h7.111c0.498,0,0.918,0.172,1.262,0.516
		c0.346,0.348,0.519,0.768,0.519,1.266s-0.173,0.918-0.519,1.262c-0.344,0.344-0.764,0.516-1.262,0.516h-5.334v1.031l6.578,6.613
		c0.354,0.332,0.532,0.746,0.532,1.244s-0.178,0.912-0.532,1.244l-3.557,3.557c-0.332,0.354-0.747,0.533-1.244,0.533h-3.558
		c-0.498,0-0.919-0.172-1.262-0.52c-0.344-0.344-0.517-0.764-0.517-1.262s0.173-0.918,0.517-1.262
		c0.343-0.348,0.764-0.52,1.262-0.52h2.811V655.43z"/>
	<path d="M685.586,635.282v0.037v10.666c0,0.498-0.172,0.918-0.516,1.262c-0.345,0.344-0.766,0.516-1.264,0.516
		c-0.497,0-0.918-0.172-1.264-0.516c-0.344-0.344-0.516-0.764-0.516-1.262v-6.365l-0.533,0.498
		c-0.332,0.354-0.746,0.533-1.244,0.533s-0.913-0.18-1.244-0.533l-3.557-3.559c-0.354-0.329-0.533-0.742-0.533-1.24
		s0.18-0.912,0.533-1.244l3.557-3.559c0.331-0.354,0.746-0.531,1.244-0.531s0.912,0.178,1.244,0.531l3.558,3.559
		C685.409,634.407,685.586,634.809,685.586,635.282z M681.285,635.319l-1.031-1.031l-1.029,1.031l1.029,1.027L681.285,635.319z"/>
	<path d="M91.212,659.018v-8.143l-0.532,0.498c-0.333,0.354-0.747,0.533-1.245,0.533s-0.913-0.178-1.245-0.533
		c-0.354-0.33-0.533-0.746-0.533-1.244s0.18-0.912,0.533-1.244l3.556-3.555c0.547-0.57,1.188-0.699,1.922-0.395
		c0.33,0.145,0.6,0.361,0.8,0.658c0.201,0.297,0.303,0.621,0.303,0.979v12.441h1.776c0.498,0,0.918,0.173,1.263,0.518
		c0.344,0.344,0.516,0.766,0.516,1.264c0,0.496-0.172,0.918-0.516,1.262c-0.345,0.346-0.765,0.518-1.263,0.518h-7.109
		c-0.498,0-0.919-0.172-1.263-0.518c-0.346-0.344-0.518-0.766-0.518-1.262c0-0.498,0.172-0.92,0.518-1.264
		c0.344-0.344,0.765-0.518,1.263-0.518L91.212,659.018L91.212,659.018z"/>
	<path d="M111.654,650.094v0.035v10.668c0,0.496-0.172,0.918-0.516,1.262c-0.345,0.346-0.765,0.518-1.263,0.518
		s-0.918-0.172-1.264-0.518c-0.344-0.344-0.515-0.766-0.515-1.262v-6.365l-0.534,0.498c-0.332,0.355-0.747,0.533-1.244,0.533
		c-0.498,0-0.913-0.178-1.245-0.533l-3.556-3.557c-0.354-0.33-0.533-0.746-0.533-1.244s0.18-0.912,0.533-1.244l3.556-3.555
		c0.332-0.355,0.747-0.533,1.245-0.533s0.912,0.178,1.244,0.533l3.556,3.555C111.477,649.217,111.654,649.62,111.654,650.094z
		 M107.352,650.129l-1.031-1.031l-1.029,1.031l1.029,1.031L107.352,650.129z"/>
	<path d="M110.33,598.631v-8.143l-0.531,0.498c-0.333,0.354-0.747,0.529-1.244,0.529
		c-0.498,0-0.913-0.178-1.245-0.529c-0.355-0.332-0.533-0.746-0.533-1.244s0.178-0.912,0.533-1.244l3.556-3.557
		c0.545-0.568,1.187-0.699,1.92-0.395c0.332,0.146,0.602,0.363,0.802,0.658c0.199,0.297,0.303,0.623,0.303,0.979v12.443h1.774
		c0.498,0,0.919,0.172,1.265,0.516c0.344,0.348,0.516,0.768,0.516,1.266s-0.172,0.918-0.516,1.262
		c-0.346,0.344-0.767,0.516-1.265,0.516h-7.108c-0.498,0-0.919-0.172-1.263-0.516c-0.346-0.344-0.518-0.764-0.518-1.262
		s0.172-0.918,0.518-1.266c0.344-0.344,0.765-0.516,1.263-0.516h1.777v0.003L110.33,598.631L110.33,598.631z"/>
	<path d="M120.64,594.542c-0.355-0.307-0.533-0.723-0.533-1.244v-3.555c0-0.498,0.172-0.918,0.518-1.266
		c0.343-0.344,0.765-0.516,1.263-0.516c0.497,0,0.918,0.172,1.262,0.516c0.343,0.348,0.516,0.768,0.516,1.266v2.809l2.524,2.523
		h1.031v-8.891c0-0.497,0.171-0.918,0.515-1.264c0.344-0.342,0.767-0.514,1.262-0.514c0.498,0,0.918,0.172,1.265,0.514
		c0.344,0.346,0.516,0.768,0.516,1.264v14.225c0,0.498-0.172,0.918-0.516,1.262c-0.347,0.344-0.767,0.52-1.265,0.52
		c-0.497,0-0.918-0.176-1.262-0.52s-0.515-0.764-0.515-1.262v-1.777h-1.778c-0.521,0-0.938-0.178-1.245-0.533L120.64,594.542z"/>
	<path d="M301.227,458.905c-0.345-0.348-0.519-0.768-0.519-1.266s0.174-0.918,0.519-1.264
		c0.343-0.342,0.764-0.514,1.262-0.514h7.11c0.498,0,0.918,0.172,1.263,0.514c0.344,0.346,0.516,0.766,0.516,1.264v3.559
		c0,0.52-0.178,0.936-0.531,1.244l-3.021,3.057v6.365c0,0.498-0.172,0.918-0.517,1.262c-0.346,0.344-0.767,0.516-1.264,0.516
		c-0.498,0-0.919-0.172-1.262-0.516c-0.344-0.344-0.516-0.764-0.516-1.262v-7.111c0-0.498,0.178-0.912,0.531-1.244l3.021-3.059
		v-1.031h-5.333C301.991,459.418,301.57,459.249,301.227,458.905z"/>
	<path d="M223.113,398.938v-8.145l-0.533,0.498c-0.331,0.355-0.745,0.533-1.243,0.533s-0.913-0.178-1.245-0.533
		c-0.354-0.33-0.532-0.746-0.532-1.244s0.178-0.911,0.532-1.242l3.557-3.557c0.545-0.568,1.187-0.699,1.92-0.393
		c0.332,0.143,0.601,0.359,0.8,0.658c0.201,0.297,0.304,0.62,0.304,0.979v12.441h1.775c0.498,0,0.918,0.174,1.264,0.518
		c0.345,0.344,0.517,0.766,0.517,1.264c0,0.496-0.172,0.918-0.517,1.262c-0.346,0.346-0.766,0.518-1.264,0.518h-7.109
		c-0.498,0-0.919-0.172-1.264-0.518c-0.344-0.344-0.516-0.766-0.516-1.262c0-0.498,0.172-0.92,0.516-1.264
		c0.345-0.344,0.766-0.518,1.264-0.518h1.777L223.113,398.938L223.113,398.938z"/>
	<path d="M233.406,387.754c-0.344-0.344-0.516-0.764-0.516-1.262s0.172-0.918,0.516-1.264
		c0.345-0.345,0.766-0.518,1.264-0.518h7.109c0.498,0,0.918,0.172,1.264,0.518c0.345,0.346,0.517,0.766,0.517,1.264v3.555
		c0,0.521-0.179,0.938-0.533,1.244l-3.021,3.059v6.365c0,0.496-0.173,0.918-0.518,1.262c-0.344,0.346-0.765,0.518-1.262,0.518
		c-0.498,0-0.919-0.172-1.263-0.518c-0.346-0.344-0.518-0.766-0.518-1.262v-7.111c0-0.498,0.18-0.912,0.533-1.244l3.021-3.059
		v-1.031h-5.333C234.171,388.27,233.75,388.1,233.406,387.754z"/>
	<path d="M313.533,581.172h1.533v-5.508l-1.836,0.885v-0.947l1.825-0.867h0.984v6.438h1.516v0.826h-4.022V581.172L313.533,581.172z"
		/>
	<path d="M322.025,578.096c0.479,0.127,0.845,0.354,1.099,0.68c0.254,0.32,0.381,0.729,0.381,1.213c0,0.672-0.226,1.195-0.676,1.58
		c-0.451,0.383-1.075,0.57-1.873,0.57c-0.335,0-0.677-0.027-1.023-0.092c-0.35-0.062-0.689-0.148-1.024-0.27v-0.98
		c0.332,0.172,0.659,0.301,0.98,0.385c0.32,0.086,0.644,0.127,0.962,0.127c0.541,0,0.956-0.119,1.245-0.363s0.436-0.598,0.436-1.057
		c0-0.424-0.146-0.76-0.436-1.008c-0.29-0.25-0.684-0.375-1.179-0.375h-0.752v-0.811h0.752c0.453,0,0.808-0.102,1.062-0.297
		c0.254-0.199,0.381-0.479,0.381-0.83c0-0.375-0.118-0.662-0.354-0.861c-0.233-0.201-0.57-0.301-1.008-0.301
		c-0.29,0-0.589,0.031-0.896,0.098c-0.311,0.066-0.633,0.162-0.974,0.293v-0.908c0.396-0.104,0.745-0.184,1.054-0.232
		c0.308-0.051,0.58-0.078,0.816-0.078c0.709,0,1.277,0.178,1.702,0.535c0.425,0.354,0.637,0.83,0.637,1.418
		c0,0.398-0.108,0.732-0.334,1.002C322.778,577.797,322.451,577.987,322.025,578.096z"/>
	<path d="M324.934,574.708h4.591v0.42l-2.607,6.871h-1.028l2.539-6.461h-3.491L324.934,574.708L324.934,574.708z"/>
	<path d="M332.434,580.235h1.521v1.295l-1.084,2.104l-0.978,0.004l0.537-2.105L332.434,580.235L332.434,580.235z"/>
	<path d="M337.307,574.708h3.689v0.83h-2.793v1.793c0.142-0.053,0.281-0.09,0.422-0.115c0.144-0.021,0.284-0.037,0.429-0.037
		c0.755,0,1.354,0.227,1.797,0.67c0.441,0.445,0.664,1.053,0.664,1.812c0,0.768-0.231,1.373-0.695,1.812
		c-0.464,0.443-1.099,0.664-1.902,0.664c-0.387,0-0.739-0.023-1.062-0.074c-0.32-0.055-0.607-0.133-0.861-0.234v-1.002
		c0.299,0.164,0.603,0.285,0.902,0.363c0.304,0.079,0.612,0.117,0.929,0.117c0.543,0,0.963-0.143,1.257-0.43
		c0.294-0.285,0.442-0.69,0.442-1.221c0-0.521-0.152-0.927-0.457-1.215c-0.306-0.291-0.729-0.438-1.272-0.438
		c-0.264,0-0.521,0.029-0.771,0.09c-0.25,0.062-0.49,0.15-0.719,0.271v-3.662h0.002V574.708L337.307,574.708z"/>
	<path d="M343.635,581.172h1.531v-5.508l-1.836,0.885v-0.947l1.826-0.867h0.985v6.438h1.515v0.826h-4.021V581.172L343.635,581.172z"
		/>
	<path d="M354.534,574.733h1.317l1.261,3.697l1.27-3.697h1.323v7.266h-0.913v-6.422l-1.299,3.828h-0.747l-1.304-3.828v6.422h-0.908
		V574.733z"/>
	<path d="M114.851,33.561v-1.152c0.296,0.264,0.602,0.462,0.918,0.593c0.315,0.133,0.643,0.198,0.98,0.198
		c0.465,0,0.79-0.121,0.975-0.364c0.184-0.242,0.275-0.693,0.275-1.354V27.4h-1.859v-0.83h2.847v4.912
		c0,0.918-0.172,1.567-0.515,1.948c-0.344,0.381-0.918,0.57-1.723,0.57c-0.312,0-0.624-0.036-0.935-0.107
		C115.509,33.822,115.186,33.71,114.851,33.561z"/>
	<path d="M127.678,33.033h1.532v-5.508l-1.836,0.884v-0.947l1.824-0.869h0.986v6.44h1.514v0.825h-4.021V33.033L127.678,33.033z"/>
	<path d="M135.388,26.461c0.777,0,1.365,0.317,1.765,0.952c0.398,0.635,0.6,1.574,0.6,2.817s-0.198,2.183-0.6,2.817
		c-0.397,0.634-0.985,0.953-1.765,0.953c-0.78,0-1.366-0.317-1.764-0.952c-0.396-0.635-0.598-1.574-0.598-2.817
		s0.199-2.183,0.598-2.817C134.022,26.78,134.61,26.461,135.388,26.461z M135.388,27.242c-0.459,0-0.803,0.246-1.028,0.737
		c-0.227,0.491-0.339,1.242-0.339,2.251c0,0.459,0.03,0.889,0.093,1.289l2.275-3.628C136.141,27.459,135.808,27.242,135.388,27.242z
		 M135.388,33.219c0.462,0,0.807-0.246,1.032-0.737c0.227-0.491,0.339-1.242,0.339-2.251c0-0.537-0.032-1.022-0.1-1.455
		l-2.322,3.638C134.583,32.95,134.932,33.219,135.388,33.219z"/>
	<path d="M142.19,29.957c0.479,0.127,0.845,0.353,1.101,0.677c0.254,0.323,0.381,0.728,0.381,1.213c0,0.671-0.228,1.197-0.678,1.58
		c-0.449,0.382-1.073,0.573-1.873,0.573c-0.335,0-0.677-0.031-1.022-0.093c-0.349-0.062-0.69-0.151-1.025-0.269v-0.981
		c0.332,0.173,0.659,0.301,0.981,0.386c0.321,0.085,0.643,0.127,0.962,0.127c0.541,0,0.956-0.122,1.245-0.366
		c0.288-0.244,0.435-0.596,0.435-1.055c0-0.423-0.146-0.76-0.435-1.008c-0.29-0.25-0.685-0.374-1.178-0.374h-0.752v-0.811h0.752
		c0.451,0,0.807-0.1,1.061-0.298c0.254-0.198,0.381-0.476,0.381-0.83c0-0.374-0.118-0.662-0.354-0.861
		c-0.235-0.201-0.571-0.301-1.01-0.301c-0.29,0-0.589,0.032-0.896,0.098c-0.312,0.066-0.634,0.163-0.973,0.293v-0.908
		c0.395-0.104,0.743-0.183,1.053-0.234c0.307-0.051,0.579-0.078,0.815-0.078c0.709,0,1.277,0.178,1.702,0.535
		c0.425,0.355,0.639,0.829,0.639,1.418c0,0.4-0.11,0.734-0.334,1.001C142.943,29.658,142.616,29.847,142.19,29.957z"/>
	<path d="M146.579,32.096h1.523v1.294l-1.084,2.104l-0.978,0.005l0.535-2.109L146.579,32.096L146.579,32.096z"/>
	<path d="M151.594,33.707v-0.908c0.205,0.12,0.424,0.212,0.654,0.276c0.229,0.062,0.473,0.095,0.724,0.095
		c0.625,0,1.098-0.235,1.418-0.706c0.32-0.47,0.479-1.162,0.479-2.077c-0.151,0.325-0.366,0.575-0.645,0.749
		c-0.277,0.175-0.595,0.262-0.952,0.262c-0.703,0-1.248-0.217-1.633-0.649c-0.386-0.432-0.579-1.047-0.579-1.841
		c0-0.784,0.197-1.393,0.593-1.824s0.955-0.646,1.679-0.646c0.847,0,1.466,0.305,1.858,0.913c0.396,0.608,0.591,1.565,0.591,2.871
		c0,1.228-0.235,2.164-0.71,2.81c-0.474,0.646-1.161,0.97-2.062,0.97c-0.237,0-0.479-0.025-0.718-0.075
		C152.052,33.874,151.819,33.802,151.594,33.707z M153.352,30.626c0.42,0,0.75-0.151,0.988-0.454
		c0.237-0.303,0.357-0.721,0.357-1.255s-0.12-0.952-0.357-1.255c-0.238-0.303-0.568-0.454-0.988-0.454
		c-0.437,0-0.766,0.145-0.986,0.432c-0.221,0.289-0.332,0.714-0.332,1.277c0,0.566,0.11,0.993,0.33,1.279
		C152.585,30.482,152.912,30.626,153.352,30.626z"/>
	<path d="M159.89,26.568h1.143v4.751h0.974v0.801h-0.974v1.738h-0.979V32.12h-3.092v-0.933L159.89,26.568z M160.052,27.467
		l-2.3,3.853h2.3V27.467z"/>
	<path d="M238.383,61.695h4.049v0.83h-1.528v5.63h1.528v0.83h-4.049v-0.83h1.526v-5.63h-1.526V61.695z"/>
	<path d="M251.591,65.113c-0.42-0.107-0.748-0.308-0.983-0.601c-0.236-0.293-0.354-0.646-0.354-1.06c0-0.579,0.195-1.039,0.592-1.38
		c0.394-0.34,0.929-0.51,1.604-0.51c0.682,0,1.219,0.17,1.611,0.51c0.394,0.341,0.591,0.801,0.591,1.38
		c0,0.413-0.118,0.767-0.354,1.06c-0.235,0.293-0.563,0.493-0.983,0.601c0.487,0.107,0.861,0.324,1.121,0.649
		c0.259,0.325,0.388,0.747,0.388,1.265c0,0.657-0.21,1.172-0.63,1.543c-0.42,0.371-1.001,0.557-1.743,0.557s-1.32-0.185-1.739-0.554
		c-0.42-0.37-0.629-0.882-0.629-1.536c0-0.521,0.131-0.944,0.391-1.272C250.728,65.438,251.102,65.221,251.591,65.113z
		 M252.449,65.523c-0.438,0-0.777,0.123-1.018,0.368c-0.239,0.246-0.359,0.594-0.359,1.043c0,0.449,0.121,0.799,0.364,1.047
		c0.243,0.25,0.58,0.374,1.013,0.374c0.443,0,0.784-0.123,1.023-0.368c0.238-0.246,0.358-0.597,0.358-1.053
		c0-0.446-0.121-0.793-0.364-1.04C253.224,65.647,252.885,65.523,252.449,65.523z M251.234,63.546c0,0.391,0.104,0.688,0.312,0.894
		s0.51,0.308,0.901,0.308c0.396,0,0.7-0.103,0.908-0.308s0.312-0.503,0.312-0.894c0-0.397-0.104-0.7-0.312-0.908
		s-0.51-0.312-0.911-0.312c-0.395,0-0.693,0.105-0.901,0.314C251.339,62.851,251.234,63.152,251.234,63.546z"/>
	<path d="M256.473,61.695h3.69v0.83h-2.795v1.792c0.142-0.052,0.281-0.09,0.424-0.115c0.143-0.023,0.282-0.036,0.428-0.036
		c0.755,0,1.354,0.223,1.797,0.669c0.442,0.446,0.664,1.05,0.664,1.812c0,0.769-0.232,1.374-0.696,1.816
		c-0.464,0.442-1.098,0.664-1.9,0.664c-0.389,0-0.741-0.026-1.062-0.078c-0.321-0.052-0.608-0.13-0.862-0.234v-1.001
		c0.301,0.163,0.604,0.284,0.903,0.363c0.303,0.08,0.611,0.12,0.928,0.12c0.543,0,0.963-0.144,1.258-0.43
		c0.295-0.286,0.441-0.693,0.441-1.221c0-0.521-0.152-0.926-0.457-1.216c-0.305-0.29-0.729-0.435-1.271-0.435
		c-0.266,0-0.521,0.03-0.771,0.091c-0.25,0.06-0.49,0.15-0.718,0.271L256.473,61.695L256.473,61.695z"/>
	<path d="M263.641,67.223h1.522v1.294l-1.086,2.104l-0.977,0.005l0.537-2.109L263.641,67.223L263.641,67.223z"/>
	<path d="M269.652,65.113c-0.42-0.107-0.748-0.308-0.982-0.601c-0.235-0.293-0.354-0.646-0.354-1.06c0-0.579,0.197-1.039,0.591-1.38
		c0.396-0.34,0.931-0.51,1.606-0.51c0.68,0,1.217,0.17,1.608,0.51c0.396,0.341,0.593,0.801,0.593,1.38
		c0,0.413-0.117,0.767-0.354,1.06c-0.235,0.293-0.562,0.493-0.982,0.601c0.486,0.107,0.86,0.324,1.119,0.649
		c0.261,0.325,0.391,0.747,0.391,1.265c0,0.657-0.21,1.172-0.631,1.543c-0.42,0.371-1.001,0.557-1.742,0.557
		c-0.742,0-1.322-0.185-1.741-0.554c-0.418-0.37-0.627-0.882-0.627-1.536c0-0.521,0.129-0.944,0.388-1.272
		C268.791,65.438,269.163,65.221,269.652,65.113z M270.51,65.523c-0.438,0-0.778,0.123-1.02,0.368
		c-0.237,0.246-0.357,0.594-0.357,1.043c0,0.449,0.121,0.799,0.364,1.047c0.241,0.25,0.578,0.374,1.014,0.374
		c0.44,0,0.783-0.123,1.021-0.368c0.239-0.246,0.359-0.597,0.359-1.053c0-0.446-0.121-0.793-0.364-1.04
		S270.947,65.523,270.51,65.523z M269.296,63.546c0,0.391,0.104,0.688,0.312,0.894s0.509,0.308,0.903,0.308
		c0.396,0,0.699-0.103,0.907-0.308s0.312-0.503,0.312-0.894c0-0.397-0.104-0.7-0.311-0.908s-0.512-0.312-0.911-0.312
		c-0.396,0-0.694,0.105-0.902,0.314C269.399,62.851,269.296,63.152,269.296,63.546z"/>
	<path d="M274.843,68.16h1.533v-5.508l-1.838,0.884v-0.947l1.826-0.869h0.986v6.44h1.514v0.825h-4.021V68.16L274.843,68.16z"/>
	<path d="M280.862,68.16h1.533v-5.508l-1.836,0.884v-0.947l1.825-0.869h0.984v6.44h1.516v0.825h-4.022V68.16L280.862,68.16z"/>
	<path d="M293.069,133.49c-0.264,0.244-0.562,0.429-0.891,0.554c-0.331,0.126-0.688,0.188-1.072,0.188
		c-0.924,0-1.645-0.331-2.158-0.993c-0.514-0.663-0.771-1.592-0.771-2.786c0-1.191,0.26-2.12,0.78-2.786
		c0.521-0.665,1.243-0.998,2.173-0.998c0.307,0,0.6,0.043,0.88,0.129c0.279,0.087,0.55,0.218,0.811,0.394v1.011
		c-0.264-0.251-0.534-0.436-0.811-0.555c-0.277-0.118-0.57-0.178-0.88-0.178c-0.643,0-1.122,0.248-1.442,0.744
		c-0.321,0.497-0.479,1.243-0.479,2.239c0,1.013,0.153,1.762,0.466,2.249c0.312,0.486,0.789,0.729,1.434,0.729
		c0.218,0,0.409-0.025,0.574-0.075c0.165-0.051,0.312-0.13,0.446-0.237v-1.958h-1.062v-0.811h2.002V133.49L293.069,133.49z"/>
	<path d="M301.867,130.219c-0.42-0.107-0.748-0.308-0.982-0.601c-0.235-0.293-0.354-0.646-0.354-1.06
		c0-0.579,0.197-1.039,0.591-1.38c0.396-0.34,0.929-0.51,1.606-0.51c0.68,0,1.217,0.17,1.608,0.51
		c0.396,0.341,0.594,0.801,0.594,1.38c0,0.413-0.118,0.767-0.354,1.06s-0.562,0.493-0.984,0.601
		c0.488,0.107,0.862,0.324,1.121,0.649c0.262,0.325,0.391,0.747,0.391,1.265c0,0.657-0.21,1.172-0.63,1.543
		c-0.423,0.371-1.002,0.557-1.743,0.557c-0.742,0-1.322-0.185-1.741-0.554c-0.418-0.37-0.627-0.882-0.627-1.536
		c0-0.521,0.129-0.944,0.388-1.272C301.005,130.544,301.378,130.326,301.867,130.219z M302.727,130.629
		c-0.439,0-0.779,0.123-1.021,0.368c-0.236,0.246-0.356,0.594-0.356,1.043s0.121,0.799,0.361,1.047
		c0.243,0.25,0.58,0.374,1.016,0.374c0.44,0,0.784-0.123,1.021-0.368c0.239-0.246,0.359-0.597,0.359-1.053
		c0-0.446-0.121-0.793-0.364-1.04S303.163,130.629,302.727,130.629z M301.51,128.651c0,0.391,0.104,0.688,0.312,0.894
		s0.509,0.308,0.903,0.308c0.396,0,0.699-0.103,0.907-0.308s0.312-0.503,0.312-0.894c0-0.397-0.104-0.7-0.31-0.908
		c-0.206-0.208-0.513-0.312-0.911-0.312c-0.396,0-0.695,0.105-0.903,0.314C301.615,127.956,301.51,128.258,301.51,128.651z"/>
	<path d="M307.56,133.261h3.351v0.83h-4.429v-0.83c0.608-0.642,1.141-1.208,1.597-1.699c0.456-0.491,0.771-0.838,0.942-1.04
		c0.325-0.397,0.545-0.719,0.658-0.964c0.112-0.246,0.171-0.498,0.171-0.755c0-0.407-0.119-0.726-0.358-0.957
		s-0.567-0.347-0.984-0.347c-0.296,0-0.604,0.054-0.933,0.161c-0.326,0.107-0.67,0.271-1.035,0.488v-0.996
		c0.335-0.159,0.665-0.28,0.989-0.361c0.323-0.081,0.644-0.122,0.959-0.122c0.713,0,1.287,0.189,1.721,0.568
		c0.438,0.38,0.652,0.877,0.652,1.492c0,0.312-0.072,0.625-0.218,0.938s-0.38,0.657-0.706,1.035
		c-0.184,0.212-0.446,0.505-0.793,0.879S308.269,132.516,307.56,133.261z"/>
	<path d="M313.917,132.328h1.523v1.294l-1.084,2.104l-0.979,0.005l0.537-2.109L313.917,132.328L313.917,132.328z"/>
	<path d="M318.79,126.801h3.691v0.83h-2.793v1.792c0.14-0.052,0.28-0.09,0.422-0.115c0.142-0.023,0.283-0.036,0.427-0.036
		c0.755,0,1.354,0.223,1.797,0.669c0.443,0.446,0.664,1.05,0.664,1.812c0,0.769-0.23,1.374-0.694,1.816
		c-0.466,0.442-1.1,0.664-1.901,0.664c-0.388,0-0.741-0.026-1.062-0.078c-0.318-0.052-0.605-0.13-0.859-0.234v-1.001
		c0.299,0.163,0.601,0.284,0.9,0.363c0.305,0.08,0.612,0.12,0.93,0.12c0.543,0,0.964-0.144,1.258-0.43
		c0.294-0.286,0.439-0.693,0.439-1.221c0-0.521-0.149-0.926-0.457-1.216c-0.305-0.29-0.729-0.435-1.271-0.435
		c-0.265,0-0.521,0.03-0.771,0.091c-0.25,0.06-0.489,0.15-0.719,0.271V126.801L318.79,126.801z"/>
	<path d="M324.812,126.801h3.688v0.83h-2.793v1.792c0.142-0.052,0.281-0.09,0.422-0.115c0.145-0.023,0.284-0.036,0.429-0.036
		c0.756,0,1.354,0.223,1.798,0.669c0.442,0.446,0.663,1.05,0.663,1.812c0,0.769-0.231,1.374-0.695,1.816s-1.099,0.664-1.902,0.664
		c-0.387,0-0.739-0.026-1.062-0.078c-0.321-0.052-0.608-0.13-0.862-0.234v-1.001c0.299,0.163,0.603,0.284,0.903,0.363
		c0.303,0.08,0.611,0.12,0.928,0.12c0.543,0,0.963-0.144,1.257-0.43c0.294-0.286,0.442-0.693,0.442-1.221
		c0-0.521-0.152-0.926-0.457-1.216c-0.306-0.29-0.729-0.435-1.272-0.435c-0.264,0-0.521,0.03-0.771,0.091
		c-0.25,0.06-0.49,0.15-0.719,0.271v-3.662H324.812z"/>
	<path d="M333.611,130.189c0.479,0.127,0.845,0.353,1.099,0.677c0.254,0.323,0.383,0.728,0.383,1.213
		c0,0.671-0.228,1.197-0.678,1.58c-0.451,0.382-1.074,0.573-1.873,0.573c-0.335,0-0.677-0.031-1.023-0.093
		c-0.35-0.062-0.689-0.151-1.024-0.269v-0.981c0.332,0.173,0.659,0.301,0.98,0.386c0.32,0.085,0.644,0.127,0.962,0.127
		c0.541,0,0.956-0.122,1.245-0.366s0.436-0.596,0.436-1.055c0-0.423-0.146-0.76-0.436-1.008c-0.29-0.25-0.684-0.374-1.179-0.374
		h-0.752v-0.811h0.752c0.453,0,0.808-0.1,1.062-0.298c0.254-0.198,0.381-0.476,0.381-0.83c0-0.374-0.118-0.662-0.354-0.861
		c-0.235-0.201-0.572-0.301-1.01-0.301c-0.29,0-0.589,0.032-0.896,0.098c-0.311,0.066-0.633,0.163-0.974,0.293v-0.908
		c0.396-0.104,0.745-0.183,1.054-0.234c0.308-0.051,0.58-0.078,0.816-0.078c0.709,0,1.277,0.178,1.702,0.535
		c0.425,0.355,0.637,0.829,0.637,1.418c0,0.4-0.109,0.734-0.334,1.001C334.364,129.89,334.037,130.079,333.611,130.189z"/>
	<path d="M366.594,196.827h4.292v0.83h-3.303v1.953h2.993v0.83h-2.993v3.677h-0.989V196.827L366.594,196.827z"/>
	<path d="M379.644,200.245c-0.42-0.107-0.747-0.308-0.983-0.601s-0.354-0.646-0.354-1.06c0-0.579,0.195-1.039,0.592-1.38
		c0.394-0.34,0.929-0.51,1.604-0.51c0.682,0,1.219,0.17,1.611,0.51c0.396,0.341,0.591,0.801,0.591,1.38
		c0,0.413-0.118,0.767-0.354,1.06c-0.235,0.293-0.563,0.493-0.983,0.601c0.487,0.107,0.861,0.324,1.121,0.649
		c0.259,0.325,0.388,0.747,0.388,1.265c0,0.657-0.21,1.172-0.63,1.543s-1.001,0.557-1.743,0.557c-0.74,0-1.32-0.185-1.739-0.554
		c-0.418-0.37-0.627-0.882-0.627-1.536c0-0.521,0.129-0.944,0.388-1.272C378.783,200.57,379.156,200.353,379.644,200.245z
		 M380.503,200.655c-0.438,0-0.777,0.123-1.018,0.368c-0.239,0.246-0.359,0.594-0.359,1.043c0,0.449,0.121,0.799,0.364,1.047
		c0.243,0.25,0.58,0.374,1.013,0.374c0.443,0,0.784-0.123,1.023-0.368c0.238-0.246,0.358-0.597,0.358-1.053
		c0-0.446-0.121-0.793-0.363-1.04C381.278,200.779,380.94,200.655,380.503,200.655z M379.288,198.678
		c0,0.391,0.104,0.688,0.312,0.896c0.208,0.206,0.51,0.308,0.901,0.308c0.397,0,0.7-0.103,0.908-0.308
		c0.208-0.205,0.312-0.503,0.312-0.896c0-0.396-0.104-0.7-0.312-0.908s-0.51-0.312-0.911-0.312c-0.395,0-0.693,0.105-0.901,0.314
		C379.391,197.982,379.288,198.284,379.288,198.678z"/>
	<path d="M386.525,196.72c0.777,0,1.365,0.317,1.765,0.952c0.399,0.635,0.6,1.574,0.6,2.817c0,1.243-0.198,2.183-0.6,2.817
		c-0.397,0.634-0.985,0.952-1.765,0.952c-0.78,0-1.366-0.317-1.764-0.952c-0.396-0.635-0.598-1.574-0.598-2.817
		c0-1.243,0.199-2.183,0.598-2.817C385.159,197.038,385.747,196.72,386.525,196.72z M386.525,197.501
		c-0.459,0-0.803,0.246-1.028,0.737c-0.227,0.491-0.339,1.242-0.339,2.251c0,0.459,0.031,0.889,0.093,1.289l2.275-3.628
		C387.278,197.718,386.945,197.501,386.525,197.501z M386.525,203.478c0.462,0,0.807-0.246,1.032-0.737
		c0.227-0.491,0.339-1.242,0.339-2.251c0-0.537-0.032-1.022-0.098-1.455l-2.324,3.638
		C385.719,203.209,386.069,203.478,386.525,203.478z"/>
	<path d="M391.695,202.354h1.522v1.294l-1.084,2.104l-0.979,0.005l0.537-2.109L391.695,202.354L391.695,202.354z"/>
	<path d="M396.569,196.827h3.69v0.83h-2.793v1.792c0.141-0.052,0.279-0.09,0.422-0.115c0.143-0.023,0.282-0.036,0.428-0.036
		c0.755,0,1.354,0.223,1.797,0.669c0.442,0.446,0.664,1.05,0.664,1.812c0,0.769-0.232,1.374-0.696,1.816
		c-0.464,0.442-1.098,0.664-1.9,0.664c-0.389,0-0.74-0.026-1.062-0.078c-0.321-0.052-0.607-0.13-0.862-0.234v-1.001
		c0.301,0.163,0.604,0.284,0.903,0.363c0.303,0.08,0.612,0.12,0.928,0.12c0.543,0,0.965-0.144,1.259-0.43s0.44-0.693,0.44-1.221
		c0-0.521-0.151-0.926-0.457-1.216c-0.305-0.29-0.729-0.435-1.271-0.435c-0.266,0-0.521,0.03-0.771,0.091
		c-0.25,0.06-0.49,0.15-0.718,0.271L396.569,196.827L396.569,196.827z"/>
	<path d="M402.897,203.292h1.532v-5.508l-1.836,0.884v-0.947l1.824-0.869h0.986v6.44h1.514v0.825h-4.021V203.292L402.897,203.292z"
		/>
	<path d="M408.61,196.827h3.69v0.83h-2.793v1.792c0.141-0.052,0.279-0.09,0.422-0.115c0.143-0.023,0.282-0.036,0.428-0.036
		c0.755,0,1.354,0.223,1.797,0.669c0.442,0.446,0.664,1.05,0.664,1.812c0,0.769-0.232,1.374-0.696,1.816
		c-0.464,0.442-1.098,0.664-1.9,0.664c-0.389,0-0.74-0.026-1.062-0.078c-0.321-0.052-0.607-0.13-0.862-0.234v-1.001
		c0.301,0.163,0.604,0.284,0.903,0.363c0.303,0.08,0.611,0.12,0.928,0.12c0.543,0,0.965-0.144,1.259-0.43s0.44-0.693,0.44-1.221
		c0-0.521-0.151-0.926-0.457-1.216c-0.305-0.29-0.729-0.435-1.271-0.435c-0.266,0-0.521,0.03-0.771,0.091
		c-0.25,0.06-0.49,0.15-0.718,0.271L408.61,196.827L408.61,196.827z"/>
	<path d="M342.01,272.44h0.989v2.793h2.7v-2.793h0.991v7.29h-0.991v-3.667h-2.7v3.667h-0.989V272.44z"/>
	<path d="M355.529,275.858c-0.42-0.107-0.748-0.308-0.984-0.601c-0.234-0.293-0.354-0.646-0.354-1.06
		c0-0.579,0.196-1.039,0.591-1.38c0.396-0.34,0.929-0.51,1.605-0.51c0.681,0,1.218,0.17,1.609,0.51
		c0.396,0.341,0.591,0.801,0.591,1.38c0,0.413-0.116,0.767-0.354,1.06c-0.238,0.293-0.564,0.493-0.984,0.601
		c0.488,0.107,0.862,0.324,1.121,0.649c0.259,0.325,0.39,0.747,0.39,1.265c0,0.657-0.21,1.172-0.632,1.543
		c-0.42,0.371-1.001,0.557-1.741,0.557c-0.741,0-1.321-0.185-1.74-0.554c-0.419-0.37-0.628-0.882-0.628-1.536
		c0-0.521,0.13-0.944,0.389-1.272C354.667,276.184,355.04,275.966,355.529,275.858z M356.388,276.269
		c-0.438,0-0.778,0.123-1.02,0.368c-0.239,0.246-0.357,0.594-0.357,1.043c0,0.449,0.121,0.799,0.362,1.047
		c0.243,0.25,0.58,0.374,1.015,0.374c0.441,0,0.782-0.123,1.021-0.368c0.239-0.246,0.359-0.597,0.359-1.053
		c0-0.446-0.121-0.793-0.364-1.04C357.163,276.393,356.825,276.269,356.388,276.269z M355.172,274.291
		c0,0.391,0.104,0.688,0.312,0.894s0.509,0.308,0.902,0.308c0.396,0,0.698-0.103,0.906-0.308s0.312-0.503,0.312-0.894
		c0-0.397-0.104-0.7-0.312-0.908c-0.204-0.208-0.51-0.312-0.909-0.312c-0.396,0-0.694,0.105-0.902,0.314
		C355.277,273.596,355.172,273.897,355.172,274.291z"/>
	<path d="M363.191,275.829c0.479,0.127,0.845,0.353,1.099,0.677c0.254,0.323,0.381,0.728,0.381,1.213
		c0,0.671-0.226,1.197-0.676,1.58c-0.451,0.382-1.075,0.573-1.873,0.573c-0.335,0-0.677-0.031-1.023-0.093
		c-0.35-0.062-0.689-0.151-1.024-0.271v-0.979c0.332,0.173,0.659,0.301,0.98,0.386c0.32,0.085,0.644,0.127,0.962,0.127
		c0.541,0,0.956-0.122,1.245-0.366c0.289-0.244,0.436-0.596,0.436-1.055c0-0.423-0.146-0.76-0.436-1.008
		c-0.29-0.25-0.684-0.374-1.179-0.374h-0.752v-0.811h0.752c0.453,0,0.808-0.1,1.062-0.298c0.254-0.198,0.381-0.476,0.381-0.83
		c0-0.374-0.118-0.662-0.354-0.861c-0.233-0.201-0.57-0.301-1.008-0.301c-0.29,0-0.589,0.032-0.896,0.098
		c-0.311,0.063-0.633,0.163-0.974,0.293v-0.908c0.396-0.104,0.745-0.183,1.054-0.234c0.308-0.051,0.58-0.078,0.816-0.078
		c0.709,0,1.277,0.178,1.702,0.535c0.425,0.355,0.637,0.829,0.637,1.418c0,0.4-0.108,0.734-0.334,1.001
		C363.944,275.53,363.617,275.719,363.191,275.829z"/>
	<path d="M367.58,277.968h1.522v1.294l-1.084,2.104l-0.979,0.005l0.537-2.109L367.58,277.968L367.58,277.968z"/>
	<path d="M372.76,278.905h1.531v-5.508l-1.836,0.884v-0.947l1.826-0.869h0.985v6.44h1.515v0.825h-4.021V278.905L372.76,278.905z"/>
	<path d="M379.611,275.858c-0.42-0.107-0.748-0.308-0.984-0.601c-0.234-0.293-0.354-0.646-0.354-1.06
		c0-0.579,0.196-1.039,0.591-1.38c0.396-0.34,0.929-0.51,1.605-0.51c0.681,0,1.217,0.17,1.609,0.51
		c0.396,0.341,0.591,0.801,0.591,1.38c0,0.413-0.116,0.767-0.354,1.06c-0.238,0.293-0.564,0.493-0.984,0.601
		c0.488,0.107,0.862,0.324,1.121,0.649c0.259,0.325,0.39,0.747,0.39,1.265c0,0.657-0.21,1.172-0.632,1.543
		c-0.42,0.371-1.001,0.557-1.741,0.557c-0.742,0-1.321-0.185-1.741-0.554c-0.418-0.37-0.627-0.882-0.627-1.536
		c0-0.521,0.13-0.944,0.389-1.272C378.749,276.184,379.122,275.966,379.611,275.858z M380.47,276.269
		c-0.438,0-0.778,0.123-1.02,0.368c-0.239,0.246-0.357,0.594-0.357,1.043c0,0.449,0.119,0.799,0.362,1.047
		c0.243,0.25,0.58,0.374,1.015,0.374c0.441,0,0.782-0.123,1.021-0.368c0.239-0.246,0.358-0.597,0.358-1.053
		c0-0.446-0.12-0.793-0.363-1.04C381.246,276.393,380.907,276.269,380.47,276.269z M379.254,274.291
		c0,0.391,0.104,0.688,0.312,0.894s0.509,0.308,0.902,0.308c0.396,0,0.698-0.103,0.906-0.308s0.312-0.503,0.312-0.894
		c0-0.397-0.104-0.7-0.312-0.908c-0.204-0.208-0.51-0.312-0.909-0.312c-0.396,0-0.694,0.105-0.902,0.314
		C379.359,273.596,379.254,273.897,379.254,274.291z"/>
	<path d="M384.494,272.44h3.69v0.83h-2.793v1.792c0.141-0.052,0.279-0.09,0.423-0.115c0.142-0.023,0.283-0.036,0.427-0.036
		c0.755,0,1.354,0.223,1.797,0.669c0.443,0.446,0.664,1.05,0.664,1.812c0,0.769-0.23,1.374-0.696,1.816
		c-0.464,0.442-1.098,0.664-1.899,0.664c-0.388,0-0.741-0.026-1.062-0.078c-0.319-0.052-0.606-0.13-0.86-0.234v-1.001
		c0.3,0.163,0.602,0.284,0.901,0.363c0.305,0.08,0.612,0.12,0.93,0.12c0.543,0,0.963-0.144,1.257-0.43
		c0.295-0.286,0.44-0.693,0.44-1.221c0-0.521-0.15-0.926-0.457-1.216c-0.305-0.29-0.729-0.435-1.271-0.435
		c-0.265,0-0.521,0.03-0.771,0.091c-0.25,0.06-0.488,0.15-0.718,0.271L384.494,272.44L384.494,272.44z"/>
	<path d="M352.219,362.7h4.59v0.42l-2.606,6.869h-1.03l2.539-6.46h-3.489L352.219,362.7L352.219,362.7z"/>
	<path d="M358.711,369.838v-0.908c0.205,0.119,0.425,0.213,0.654,0.275c0.23,0.062,0.472,0.096,0.723,0.096
		c0.625,0,1.1-0.234,1.418-0.705c0.321-0.471,0.481-1.162,0.481-2.078c-0.153,0.326-0.368,0.576-0.646,0.75
		c-0.276,0.174-0.596,0.263-0.952,0.263c-0.703,0-1.248-0.218-1.634-0.649s-0.578-1.047-0.578-1.84c0-0.785,0.196-1.395,0.593-1.824
		c0.396-0.432,0.955-0.646,1.678-0.646c0.846,0,1.466,0.305,1.859,0.911c0.395,0.608,0.592,1.565,0.592,2.871
		c0,1.229-0.237,2.164-0.71,2.812c-0.477,0.646-1.161,0.972-2.063,0.972c-0.236,0-0.477-0.025-0.718-0.074
		C359.169,370.004,358.937,369.934,358.711,369.838z M360.469,366.756c0.42,0,0.75-0.15,0.987-0.453
		c0.239-0.303,0.359-0.721,0.359-1.256c0-0.533-0.12-0.951-0.359-1.254c-0.237-0.304-0.567-0.455-0.987-0.455
		c-0.438,0-0.767,0.146-0.985,0.434c-0.222,0.289-0.332,0.713-0.332,1.275c0,0.566,0.109,0.994,0.33,1.279
		C359.702,366.613,360.03,366.756,360.469,366.756z"/>
	<path d="M365.738,368.227h1.522v1.295l-1.084,2.104l-0.979,0.004l0.537-2.106L365.738,368.227L365.738,368.227z"/>
	<path d="M370.279,362.7h4.59v0.42l-2.605,6.869h-1.029l2.539-6.46h-3.491L370.279,362.7L370.279,362.7z"/>
	<path d="M379.05,362.7h1.144v4.75h0.972v0.801h-0.972v1.738h-0.981v-1.738h-3.091v-0.933L379.05,362.7z M379.209,363.598
		l-2.3,3.854h2.3V363.598z"/>
	<path d="M382.32,362.7h4.59v0.42l-2.605,6.869h-1.029l2.539-6.46h-3.491L382.32,362.7L382.32,362.7z"/>
	<path d="M394.644,362.7h4.326v0.829h-3.342v1.964h3.193v0.829h-3.193v2.837h3.436v0.83h-4.42V362.7L394.644,362.7z"/>
	<path d="M514.564,251.68h0.99v6.46h3.521v0.83h-4.512V251.68z"/>
	<path d="M526.872,258.145h1.533v-5.508l-1.836,0.884v-0.947l1.825-0.869h0.984v6.44h1.516v0.825h-4.022V258.145z"/>
	<path d="M533.396,258.14h3.351v0.83h-4.429v-0.83c0.608-0.642,1.141-1.208,1.597-1.699c0.456-0.491,0.771-0.838,0.942-1.04
		c0.324-0.397,0.546-0.719,0.658-0.964c0.111-0.246,0.171-0.498,0.171-0.755c0-0.407-0.119-0.726-0.357-0.957
		c-0.24-0.231-0.566-0.347-0.982-0.347c-0.296,0-0.606,0.054-0.935,0.161s-0.67,0.271-1.035,0.488v-0.996
		c0.335-0.159,0.665-0.28,0.989-0.361s0.646-0.122,0.959-0.122c0.713,0,1.287,0.189,1.721,0.568c0.438,0.38,0.652,0.877,0.652,1.492
		c0,0.312-0.072,0.625-0.217,0.938c-0.146,0.312-0.382,0.657-0.706,1.035c-0.184,0.212-0.446,0.505-0.793,0.879
		C534.635,256.834,534.106,257.395,533.396,258.14z"/>
	<path d="M539.416,258.14h3.352v0.83h-4.431v-0.83c0.609-0.642,1.144-1.208,1.599-1.699c0.456-0.491,0.771-0.838,0.94-1.04
		c0.326-0.397,0.545-0.719,0.659-0.964c0.114-0.246,0.171-0.498,0.171-0.755c0-0.407-0.119-0.726-0.357-0.957
		c-0.237-0.231-0.565-0.347-0.982-0.347c-0.296,0-0.605,0.054-0.934,0.161c-0.327,0.107-0.67,0.271-1.034,0.488v-0.996
		c0.336-0.159,0.665-0.28,0.987-0.361s0.646-0.122,0.96-0.122c0.713,0,1.286,0.189,1.723,0.568c0.434,0.38,0.65,0.877,0.65,1.492
		c0,0.312-0.071,0.625-0.22,0.938c-0.145,0.312-0.379,0.657-0.705,1.035c-0.182,0.212-0.445,0.505-0.793,0.879
		C540.654,256.834,540.126,257.395,539.416,258.14z"/>
	<path d="M545.775,257.207h1.521v1.294l-1.084,2.104l-0.977,0.005l0.537-2.109L545.775,257.207L545.775,257.207z"/>
	<path d="M550.788,258.818v-0.908c0.205,0.12,0.424,0.212,0.654,0.276c0.229,0.062,0.473,0.095,0.723,0.095
		c0.625,0,1.1-0.235,1.418-0.706c0.321-0.47,0.481-1.162,0.481-2.077c-0.153,0.325-0.368,0.575-0.646,0.749
		c-0.273,0.175-0.595,0.262-0.95,0.262c-0.703,0-1.248-0.217-1.635-0.649c-0.387-0.433-0.577-1.047-0.577-1.841
		c0-0.784,0.196-1.393,0.593-1.824c0.396-0.431,0.955-0.646,1.679-0.646c0.846,0,1.467,0.305,1.859,0.913
		c0.394,0.608,0.592,1.565,0.592,2.871c0,1.228-0.236,2.164-0.712,2.81c-0.475,0.646-1.159,0.97-2.062,0.97
		c-0.236,0-0.477-0.025-0.718-0.075C551.246,258.985,551.013,258.913,550.788,258.818z M552.546,255.737
		c0.422,0,0.75-0.151,0.988-0.454c0.24-0.303,0.358-0.721,0.358-1.255c0-0.534-0.118-0.952-0.358-1.255
		c-0.238-0.303-0.566-0.454-0.988-0.454c-0.436,0-0.766,0.145-0.983,0.432c-0.224,0.289-0.332,0.714-0.332,1.277
		c0,0.566,0.106,0.993,0.33,1.279C551.778,255.594,552.108,255.737,552.546,255.737z"/>
	<path d="M707.103,317.966c1.111,0,1.934,0.296,2.461,0.889c0.525,0.593,0.791,1.514,0.791,2.764c0,1.243-0.265,2.161-0.791,2.751
		c-0.527,0.592-1.35,0.887-2.461,0.887h-1.479v-7.29L707.103,317.966L707.103,317.966z M707.082,324.445
		c0.83,0,1.409-0.204,1.738-0.613c0.328-0.408,0.492-1.146,0.492-2.214c0-1.077-0.164-1.82-0.489-2.229
		c-0.328-0.408-0.908-0.612-1.741-0.612h-0.469v5.669L707.082,324.445L707.082,324.445z"/>
	<path d="M717.675,317.966h4.59v0.42l-2.606,6.87h-1.03l2.539-6.46h-3.491L717.675,317.966L717.675,317.966z"/>
	<path d="M723.695,317.966h4.59v0.42l-2.605,6.87h-1.029l2.539-6.46h-3.491L723.695,317.966L723.695,317.966z"/>
	<path d="M731.195,323.493h1.522v1.294l-1.084,2.104l-0.979,0.005l0.537-2.109L731.195,323.493L731.195,323.493z"/>
	<path d="M739.896,318.127v0.908c-0.205-0.12-0.424-0.213-0.654-0.275c-0.229-0.064-0.473-0.096-0.724-0.096
		c-0.625,0-1.101,0.235-1.421,0.705c-0.321,0.471-0.482,1.163-0.482,2.078c0.156-0.325,0.372-0.575,0.648-0.75
		c0.275-0.174,0.595-0.261,0.95-0.261c0.703,0,1.247,0.216,1.636,0.647c0.386,0.431,0.578,1.042,0.578,1.833
		c0,0.788-0.199,1.398-0.598,1.831c-0.396,0.433-0.955,0.649-1.675,0.649c-0.848,0-1.466-0.304-1.86-0.911
		c-0.395-0.606-0.591-1.562-0.591-2.868c0-1.23,0.237-2.169,0.71-2.815c0.477-0.646,1.16-0.969,2.061-0.969
		c0.24,0,0.48,0.025,0.724,0.076C739.437,317.96,739.67,318.032,739.896,318.127z M738.137,321.208c-0.42,0-0.751,0.151-0.991,0.454
		c-0.239,0.303-0.36,0.721-0.36,1.255s0.121,0.952,0.36,1.255c0.24,0.303,0.57,0.454,0.991,0.454c0.438,0,0.766-0.144,0.984-0.433
		c0.224-0.287,0.332-0.713,0.332-1.276c0-0.566-0.108-0.993-0.332-1.279C738.902,321.352,738.574,321.208,738.137,321.208z"/>
	<path d="M741.757,317.966h4.59v0.42l-2.606,6.87h-1.03l2.539-6.46h-3.491L741.757,317.966L741.757,317.966z"/>
	<path d="M747.777,317.966h4.59v0.42l-2.605,6.87h-1.029l2.539-6.46h-3.491L747.777,317.966L747.777,317.966z"/>
	<path d="M845.218,390.938c0,1.271-0.201,2.217-0.604,2.842c-0.401,0.625-1.015,0.938-1.838,0.938c-0.824,0-1.438-0.311-1.836-0.932
		c-0.4-0.623-0.604-1.57-0.604-2.849c0-1.271,0.201-2.224,0.604-2.849c0.402-0.625,1.014-0.938,1.834-0.938
		c0.823,0,1.437,0.312,1.838,0.938C845.015,388.715,845.218,389.665,845.218,390.938z M844.187,390.938
		c0-1.068-0.11-1.836-0.329-2.295c-0.222-0.459-0.58-0.688-1.082-0.688c-0.498,0-0.857,0.229-1.076,0.688
		c-0.221,0.459-0.33,1.227-0.33,2.295c0,1.066,0.109,1.832,0.33,2.291c0.219,0.459,0.578,0.688,1.076,0.688
		c0.502,0,0.86-0.229,1.082-0.688C844.076,392.771,844.187,392.008,844.187,390.938z"/>
	<path d="M853.126,393.75h1.533v-5.508l-1.836,0.883v-0.945l1.826-0.869h0.985v6.439h1.515v0.824h-4.023V393.75z"/>
	<path d="M858.509,387.286h4.59v0.42l-2.606,6.869h-1.03l2.539-6.459h-3.491L858.509,387.286L858.509,387.286z"/>
	<path d="M865.001,394.424v-0.908c0.205,0.121,0.426,0.213,0.654,0.275c0.229,0.062,0.473,0.096,0.723,0.096
		c0.625,0,1.1-0.234,1.42-0.705c0.319-0.471,0.479-1.162,0.479-2.078c-0.153,0.326-0.368,0.576-0.646,0.75
		c-0.275,0.174-0.596,0.264-0.951,0.264c-0.703,0-1.248-0.219-1.635-0.65s-0.577-1.047-0.577-1.84c0-0.785,0.196-1.395,0.593-1.822
		c0.396-0.434,0.955-0.646,1.679-0.646c0.846,0,1.467,0.305,1.859,0.912c0.394,0.609,0.591,1.564,0.591,2.871
		c0,1.229-0.235,2.164-0.711,2.811c-0.475,0.646-1.159,0.971-2.062,0.971c-0.236,0-0.478-0.023-0.718-0.074
		C865.458,394.59,865.226,394.52,865.001,394.424z M866.76,391.342c0.42,0,0.75-0.15,0.986-0.453
		c0.24-0.303,0.359-0.721,0.359-1.256c0-0.533-0.119-0.951-0.359-1.254c-0.236-0.303-0.566-0.455-0.986-0.455
		c-0.438,0-0.768,0.146-0.985,0.434c-0.222,0.289-0.332,0.713-0.332,1.275c0,0.566,0.108,0.994,0.33,1.279
		C865.99,391.2,866.32,391.342,866.76,391.342z"/>
	<path d="M872.028,392.812h1.522v1.293l-1.084,2.104l-0.979,0.006l0.537-2.107L872.028,392.812L872.028,392.812z"/>
	<path d="M877.208,393.75h1.533v-5.508l-1.836,0.883v-0.945l1.826-0.869h0.985v6.439h1.515v0.824h-4.023V393.75z"/>
	<path d="M883.23,393.75h1.532v-5.508l-1.836,0.883v-0.945l1.824-0.869h0.986v6.439h1.514v0.824h-4.021V393.75L883.23,393.75z"/>
	<path d="M635.254,406.057h0.991v3.242l3.081-3.242h1.157l-2.837,2.979l2.92,4.312h-1.191l-2.378-3.65l-0.752,0.801v2.852h-0.991
		V406.057z"/>
	<path d="M647.945,412.522h1.533v-5.512l-1.837,0.887v-0.947l1.826-0.869h0.984v6.441h1.516v0.822h-4.022V412.522z"/>
	<path d="M653.966,412.522h1.532v-5.512l-1.836,0.887v-0.947l1.826-0.869h0.985v6.441h1.515v0.822h-4.022V412.522z"/>
	<path d="M663.507,406.217v0.908c-0.204-0.119-0.424-0.213-0.653-0.275c-0.23-0.062-0.472-0.096-0.725-0.096
		c-0.625,0-1.099,0.236-1.421,0.705c-0.32,0.471-0.481,1.164-0.481,2.078c0.155-0.324,0.372-0.574,0.647-0.75
		c0.277-0.174,0.596-0.26,0.952-0.26c0.703,0,1.247,0.215,1.634,0.646c0.387,0.434,0.578,1.041,0.578,1.832
		c0,0.789-0.197,1.398-0.596,1.832c-0.397,0.432-0.955,0.648-1.676,0.648c-0.849,0-1.466-0.307-1.859-0.91
		c-0.396-0.607-0.591-1.562-0.591-2.869c0-1.23,0.236-2.168,0.71-2.814c0.475-0.646,1.159-0.969,2.059-0.969
		c0.24,0,0.482,0.025,0.725,0.076C663.05,406.051,663.282,406.124,663.507,406.217z M661.748,409.299
		c-0.42,0-0.751,0.15-0.989,0.453c-0.24,0.303-0.36,0.721-0.36,1.256c0,0.533,0.12,0.951,0.36,1.254
		c0.238,0.307,0.569,0.455,0.989,0.455c0.438,0,0.767-0.145,0.986-0.434c0.222-0.287,0.332-0.713,0.332-1.275
		c0-0.564-0.11-0.994-0.332-1.277C662.511,409.444,662.185,409.299,661.748,409.299z"/>
	<path d="M666.846,411.584h1.521v1.293l-1.084,2.105l-0.978,0.004l0.537-2.109L666.846,411.584L666.846,411.584z"/>
	<path d="M672.53,412.516h3.35v0.83h-4.429v-0.83c0.608-0.641,1.143-1.207,1.597-1.695c0.456-0.492,0.771-0.838,0.942-1.041
		c0.326-0.396,0.545-0.721,0.659-0.963c0.113-0.246,0.171-0.498,0.171-0.758c0-0.404-0.119-0.727-0.359-0.957
		c-0.236-0.229-0.564-0.348-0.98-0.348c-0.297,0-0.606,0.055-0.936,0.162c-0.325,0.107-0.67,0.271-1.033,0.488v-0.996
		c0.336-0.16,0.665-0.281,0.986-0.361c0.324-0.082,0.646-0.123,0.96-0.123c0.713,0,1.286,0.189,1.724,0.568
		c0.435,0.381,0.649,0.877,0.649,1.492c0,0.312-0.07,0.625-0.218,0.938c-0.146,0.312-0.379,0.658-0.705,1.035
		c-0.183,0.213-0.447,0.506-0.793,0.879C673.767,411.211,673.24,411.772,672.53,412.516z"/>
	<path d="M680.157,406.057h1.145v4.75h0.973v0.805h-0.973v1.734h-0.98v-1.734h-3.091v-0.936L680.157,406.057z M680.319,406.956
		l-2.301,3.852h2.301V406.956z"/>
	<path d="M461.986,443.696h3.69v0.83h-2.793v1.793c0.141-0.055,0.279-0.094,0.422-0.115c0.143-0.023,0.284-0.037,0.428-0.037
		c0.755,0,1.354,0.223,1.797,0.67c0.442,0.445,0.664,1.049,0.664,1.812c0,0.768-0.232,1.373-0.696,1.812
		c-0.464,0.443-1.098,0.664-1.9,0.664c-0.389,0-0.74-0.025-1.062-0.078c-0.321-0.051-0.606-0.129-0.862-0.23v-1.002
		c0.301,0.16,0.604,0.281,0.903,0.361c0.303,0.08,0.612,0.119,0.928,0.119c0.543,0,0.965-0.143,1.259-0.43
		c0.294-0.285,0.44-0.693,0.44-1.222c0-0.521-0.151-0.927-0.457-1.218c-0.305-0.289-0.729-0.434-1.271-0.434
		c-0.266,0-0.521,0.029-0.771,0.09c-0.25,0.062-0.49,0.15-0.718,0.271v-3.662l0,0L461.986,443.696L461.986,443.696z"/>
	<path d="M470.002,443.588c0.778,0,1.366,0.318,1.767,0.953c0.397,0.635,0.599,1.574,0.599,2.816c0,1.24-0.199,2.184-0.599,2.814
		c-0.398,0.635-0.986,0.953-1.767,0.953c-0.776,0-1.364-0.318-1.763-0.953c-0.396-0.635-0.597-1.574-0.597-2.814
		c0-1.242,0.199-2.186,0.597-2.816C468.636,443.907,469.224,443.588,470.002,443.588z M470.002,444.37
		c-0.459,0-0.802,0.246-1.026,0.738c-0.228,0.488-0.339,1.238-0.339,2.25c0,0.459,0.029,0.889,0.094,1.289l2.272-3.631
		C470.756,444.586,470.422,444.37,470.002,444.37z M470.002,450.346c0.464,0,0.809-0.246,1.033-0.734
		c0.228-0.49,0.339-1.242,0.339-2.25c0-0.537-0.031-1.023-0.098-1.455l-2.324,3.637
		C469.197,450.079,469.547,450.346,470.002,450.346z"/>
	<path d="M475.163,447.114c-0.42-0.107-0.748-0.311-0.982-0.604c-0.235-0.293-0.354-0.645-0.354-1.059
		c0-0.58,0.197-1.039,0.591-1.381c0.396-0.34,0.931-0.511,1.606-0.511c0.68,0,1.217,0.171,1.609,0.511
		c0.396,0.342,0.592,0.801,0.592,1.381c0,0.412-0.117,0.766-0.354,1.059c-0.234,0.293-0.562,0.494-0.982,0.604
		c0.486,0.105,0.86,0.324,1.12,0.646c0.26,0.326,0.39,0.748,0.39,1.268c0,0.654-0.21,1.172-0.631,1.543
		c-0.42,0.371-1.001,0.557-1.742,0.557c-0.742,0-1.322-0.184-1.741-0.553c-0.418-0.371-0.627-0.883-0.627-1.537
		c0-0.521,0.129-0.943,0.388-1.271C474.302,447.44,474.677,447.221,475.163,447.114z M476.024,447.524
		c-0.439,0-0.779,0.122-1.021,0.365c-0.237,0.246-0.356,0.598-0.356,1.043c0,0.449,0.12,0.803,0.363,1.051
		c0.241,0.25,0.579,0.372,1.014,0.372c0.442,0,0.783-0.122,1.021-0.366c0.239-0.246,0.359-0.6,0.359-1.057
		c0-0.443-0.121-0.793-0.364-1.039C476.8,447.649,476.459,447.524,476.024,447.524z M474.807,445.547
		c0,0.391,0.104,0.688,0.312,0.896c0.208,0.204,0.509,0.307,0.903,0.307c0.396,0,0.699-0.102,0.907-0.307s0.312-0.506,0.312-0.896
		c0-0.396-0.104-0.701-0.311-0.908c-0.206-0.209-0.511-0.312-0.91-0.312c-0.396,0-0.695,0.104-0.903,0.312
		C474.912,444.852,474.807,445.153,474.807,445.547z"/>
	<path d="M481.195,449.223h1.522v1.295l-1.084,2.104l-0.979,0.006l0.537-2.109L481.195,449.223L481.195,449.223z"/>
	<path d="M487.205,447.114c-0.42-0.107-0.748-0.311-0.982-0.604c-0.235-0.293-0.354-0.645-0.354-1.059
		c0-0.58,0.197-1.039,0.591-1.381c0.396-0.34,0.931-0.511,1.606-0.511c0.68,0,1.217,0.171,1.608,0.511
		c0.396,0.342,0.593,0.801,0.593,1.381c0,0.412-0.117,0.766-0.354,1.059c-0.234,0.293-0.562,0.494-0.982,0.604
		c0.486,0.105,0.86,0.324,1.119,0.646c0.261,0.326,0.391,0.748,0.391,1.268c0,0.654-0.21,1.172-0.631,1.543
		c-0.42,0.371-1.001,0.557-1.742,0.557c-0.742,0-1.322-0.184-1.741-0.553c-0.418-0.371-0.627-0.883-0.627-1.537
		c0-0.521,0.129-0.943,0.388-1.271C486.344,447.44,486.718,447.221,487.205,447.114z M488.065,447.524
		c-0.439,0-0.779,0.122-1.021,0.365c-0.237,0.246-0.356,0.598-0.356,1.043c0,0.449,0.12,0.803,0.363,1.051
		c0.241,0.25,0.578,0.372,1.014,0.372c0.442,0,0.783-0.122,1.021-0.366c0.239-0.246,0.359-0.6,0.359-1.057
		c0-0.443-0.121-0.793-0.364-1.039C488.839,447.649,488.5,447.524,488.065,447.524z M486.848,445.547
		c0,0.391,0.104,0.688,0.312,0.896c0.208,0.204,0.509,0.307,0.903,0.307c0.396,0,0.699-0.102,0.907-0.307s0.312-0.506,0.312-0.896
		c0-0.396-0.104-0.701-0.311-0.908c-0.206-0.209-0.511-0.312-0.91-0.312c-0.396,0-0.695,0.104-0.903,0.312
		C486.953,444.852,486.848,445.153,486.848,445.547z"/>
	<path d="M494.504,443.696h1.146v4.752h0.972v0.801h-0.972v1.738h-0.981v-1.738h-3.091v-0.934L494.504,443.696z M494.665,444.594
		l-2.3,3.854h2.3V444.594z"/>
	<path d="M503.347,443.696h5.562v0.83h-2.28v6.461h-0.989v-6.461h-2.29L503.347,443.696L503.347,443.696z"/>
	<path d="M628.31,539.139h2.158c0.746,0,1.318,0.162,1.725,0.484c0.405,0.322,0.604,0.777,0.604,1.367
		c0,0.312-0.104,0.602-0.318,0.855c-0.214,0.26-0.532,0.418-0.96,0.484c0.479,0.07,0.854,0.275,1.126,0.611
		c0.271,0.338,0.407,0.832,0.407,1.48c0,0.66-0.218,1.16-0.648,1.496c-0.435,0.338-1.078,0.506-1.935,0.506h-2.158V539.139
		L628.31,539.139z M629.302,539.95v2.002h1.146c0.475,0,0.818-0.09,1.033-0.273c0.213-0.182,0.317-0.412,0.317-0.688
		c0-0.367-0.104-0.633-0.313-0.795c-0.209-0.164-0.556-0.244-1.037-0.244h-1.146V539.95z M629.302,542.752v2.867h1.167
		c0.57,0,0.979-0.1,1.227-0.301c0.244-0.199,0.365-0.529,0.365-0.988c0-0.605-0.129-1.021-0.386-1.242
		c-0.259-0.225-0.659-0.336-1.206-0.336H629.302z"/>
	<path d="M642.969,539.139h1.144v4.752h0.972v0.803h-0.972v1.736h-0.981v-1.736h-3.091v-0.936L642.969,539.139z M643.129,540.038
		l-2.3,3.854h2.3V540.038z"/>
	<path d="M649.35,542.528c0.479,0.127,0.846,0.354,1.1,0.678c0.254,0.322,0.381,0.727,0.381,1.213c0,0.67-0.226,1.197-0.676,1.58
		c-0.451,0.381-1.076,0.572-1.873,0.572c-0.336,0-0.679-0.031-1.025-0.092c-0.347-0.062-0.688-0.152-1.022-0.271v-0.979
		c0.332,0.172,0.658,0.301,0.979,0.385c0.322,0.086,0.646,0.127,0.962,0.127c0.541,0,0.955-0.121,1.245-0.365
		s0.438-0.596,0.438-1.055c0-0.424-0.146-0.763-0.438-1.008c-0.29-0.25-0.683-0.375-1.177-0.375h-0.752v-0.812h0.752
		c0.453,0,0.806-0.1,1.061-0.299c0.255-0.197,0.382-0.475,0.382-0.83c0-0.373-0.117-0.662-0.354-0.861
		c-0.234-0.197-0.572-0.301-1.008-0.301c-0.289,0-0.59,0.033-0.898,0.098c-0.308,0.066-0.633,0.164-0.972,0.297v-0.908
		c0.396-0.105,0.745-0.186,1.052-0.234c0.311-0.053,0.58-0.078,0.818-0.078c0.709,0,1.276,0.18,1.701,0.535
		c0.426,0.355,0.638,0.828,0.638,1.418c0,0.4-0.111,0.734-0.335,1C650.101,542.229,649.778,542.418,649.35,542.528z"/>
	<path d="M653.74,544.667h1.522v1.295l-1.084,2.104l-0.979,0.006l0.537-2.109L653.74,544.667L653.74,544.667z"/>
	<path d="M658.754,546.278v-0.908c0.205,0.121,0.425,0.213,0.654,0.276c0.23,0.062,0.472,0.095,0.724,0.095
		c0.625,0,1.1-0.234,1.42-0.705c0.318-0.472,0.479-1.162,0.479-2.078c-0.152,0.326-0.367,0.576-0.646,0.75
		c-0.277,0.174-0.596,0.262-0.952,0.262c-0.703,0-1.247-0.217-1.636-0.646c-0.385-0.436-0.576-1.047-0.576-1.842
		c0-0.783,0.195-1.395,0.595-1.824c0.395-0.434,0.953-0.646,1.677-0.646c0.847,0,1.466,0.309,1.859,0.914
		c0.395,0.607,0.592,1.564,0.592,2.871c0,1.229-0.237,2.164-0.71,2.812c-0.478,0.646-1.162,0.97-2.063,0.97
		c-0.235,0-0.478-0.025-0.718-0.074C659.212,546.446,658.98,546.374,658.754,546.278z M660.512,543.198
		c0.42,0,0.749-0.152,0.987-0.455c0.238-0.304,0.358-0.722,0.358-1.254c0-0.535-0.12-0.953-0.358-1.256
		c-0.238-0.305-0.567-0.453-0.987-0.453c-0.438,0-0.767,0.145-0.985,0.432c-0.223,0.289-0.332,0.713-0.332,1.277
		c0,0.562,0.109,0.991,0.329,1.275C659.744,543.053,660.073,543.198,660.512,543.198z"/>
	<path d="M668.461,539.301v0.908c-0.205-0.121-0.423-0.213-0.652-0.275c-0.23-0.062-0.474-0.096-0.725-0.096
		c-0.625,0-1.099,0.234-1.421,0.705c-0.32,0.471-0.481,1.162-0.481,2.078c0.154-0.326,0.372-0.576,0.647-0.75
		c0.276-0.174,0.595-0.262,0.952-0.262c0.703,0,1.247,0.217,1.634,0.646c0.387,0.433,0.578,1.043,0.578,1.834
		c0,0.787-0.199,1.398-0.597,1.83c-0.396,0.435-0.954,0.65-1.675,0.65c-0.849,0-1.468-0.307-1.859-0.912
		c-0.396-0.605-0.591-1.562-0.591-2.867c0-1.229,0.236-2.17,0.71-2.816c0.475-0.645,1.159-0.969,2.059-0.969
		c0.24,0,0.482,0.025,0.725,0.076C668.003,539.133,668.237,539.206,668.461,539.301z M666.704,542.381
		c-0.42,0-0.751,0.152-0.991,0.455c-0.238,0.303-0.359,0.721-0.359,1.254c0,0.535,0.121,0.953,0.359,1.256
		c0.24,0.305,0.571,0.453,0.991,0.453c0.438,0,0.767-0.143,0.986-0.432c0.222-0.287,0.331-0.713,0.331-1.277
		c0-0.562-0.109-0.992-0.331-1.275C667.469,542.526,667.14,542.381,666.704,542.381z"/>
	<path d="M673.071,539.139h1.143v4.752h0.974v0.803h-0.974v1.736h-0.979v-1.736h-3.092v-0.936L673.071,539.139z M673.233,540.038
		l-2.301,3.854h2.301V540.038z"/>
	<path d="M699.422,642.254c-0.25,0.133-0.508,0.232-0.771,0.299c-0.265,0.068-0.544,0.104-0.841,0.104
		c-0.937,0-1.658-0.33-2.175-0.99c-0.519-0.662-0.773-1.59-0.773-2.789c0-1.189,0.26-2.119,0.777-2.785
		c0.521-0.666,1.243-0.998,2.171-0.998c0.297,0,0.576,0.033,0.841,0.102c0.264,0.065,0.521,0.168,0.771,0.301v1.012
		c-0.241-0.198-0.5-0.35-0.775-0.455c-0.277-0.104-0.556-0.154-0.836-0.154c-0.644,0-1.121,0.247-1.439,0.74
		c-0.316,0.496-0.479,1.242-0.479,2.242c0,0.996,0.16,1.74,0.479,2.236c0.319,0.494,0.799,0.742,1.439,0.742
		c0.286,0,0.566-0.055,0.844-0.156c0.273-0.104,0.531-0.256,0.771-0.455v1.01h-0.003V642.254L699.422,642.254z"/>
	<path d="M709.653,635.223h1.143v4.75h0.974v0.805h-0.974v1.734h-0.979v-1.734h-3.092v-0.936L709.653,635.223z M709.814,636.122
		l-2.301,3.852h2.301V636.122z"/>
	<path d="M712.925,635.223h4.59v0.42l-2.606,6.869h-1.03l2.539-6.459h-3.491L712.925,635.223L712.925,635.223z"/>
	<path d="M720.425,640.75h1.521v1.293l-1.084,2.105l-0.978,0.004l0.535-2.109v-1.293H720.425z"/>
	<path d="M728.075,638.612c0.479,0.127,0.845,0.352,1.1,0.676s0.382,0.729,0.382,1.213c0,0.672-0.228,1.197-0.678,1.58
		c-0.449,0.383-1.074,0.574-1.873,0.574c-0.336,0-0.678-0.031-1.022-0.095c-0.35-0.062-0.689-0.149-1.025-0.271v-0.979
		c0.332,0.175,0.659,0.302,0.981,0.388c0.319,0.084,0.644,0.127,0.962,0.127c0.541,0,0.955-0.123,1.245-0.367
		c0.289-0.244,0.435-0.596,0.435-1.055c0-0.422-0.146-0.761-0.435-1.008c-0.29-0.25-0.686-0.373-1.179-0.373h-0.753v-0.812h0.753
		c0.452,0,0.808-0.1,1.062-0.297c0.254-0.199,0.381-0.477,0.381-0.83c0-0.375-0.118-0.662-0.354-0.861
		c-0.233-0.199-0.57-0.301-1.009-0.301c-0.289,0-0.59,0.031-0.896,0.099c-0.311,0.065-0.634,0.161-0.975,0.294v-0.908
		c0.396-0.104,0.745-0.186,1.055-0.234c0.309-0.051,0.579-0.078,0.815-0.078c0.709,0,1.277,0.179,1.701,0.535
		c0.426,0.355,0.638,0.83,0.638,1.418c0,0.4-0.108,0.734-0.335,1.002C728.826,638.312,728.501,638.5,728.075,638.612z"/>
	<path d="M732.127,641.682h3.352v0.83h-4.431v-0.83c0.609-0.641,1.144-1.207,1.599-1.695c0.456-0.492,0.771-0.839,0.94-1.041
		c0.326-0.396,0.545-0.721,0.659-0.964c0.114-0.245,0.171-0.497,0.171-0.757c0-0.404-0.119-0.727-0.357-0.957
		c-0.237-0.229-0.565-0.348-0.982-0.348c-0.296,0-0.604,0.055-0.933,0.162c-0.329,0.107-0.671,0.271-1.035,0.488v-0.996
		c0.336-0.16,0.665-0.281,0.987-0.361c0.322-0.082,0.646-0.123,0.96-0.123c0.714,0,1.286,0.189,1.723,0.568
		c0.435,0.381,0.65,0.877,0.65,1.492c0,0.312-0.071,0.625-0.22,0.938c-0.145,0.312-0.379,0.658-0.704,1.035
		c-0.183,0.213-0.445,0.506-0.794,0.879C733.365,640.377,732.837,640.938,732.127,641.682z"/>
	<path d="M737.337,635.223h3.691v0.83h-2.793v1.791c0.141-0.051,0.28-0.09,0.422-0.111c0.145-0.023,0.284-0.037,0.428-0.037
		c0.756,0,1.354,0.223,1.797,0.67c0.443,0.443,0.664,1.049,0.664,1.811c0,0.771-0.229,1.375-0.693,1.816
		c-0.465,0.439-1.1,0.664-1.901,0.664c-0.388,0-0.741-0.025-1.062-0.078c-0.319-0.051-0.606-0.129-0.86-0.234v-1
		c0.299,0.162,0.601,0.283,0.902,0.363s0.61,0.119,0.929,0.119c0.544,0,0.963-0.146,1.257-0.432
		c0.295-0.283,0.441-0.691,0.441-1.221c0-0.521-0.151-0.926-0.456-1.217c-0.307-0.289-0.729-0.434-1.271-0.434
		c-0.264,0-0.521,0.027-0.771,0.09c-0.251,0.061-0.488,0.148-0.72,0.271v-3.662L737.337,635.223L737.337,635.223z"/>
	<path d="M559.169,649.834c0.479,0.127,0.847,0.354,1.101,0.676c0.255,0.324,0.382,0.729,0.382,1.213
		c0,0.672-0.228,1.197-0.678,1.58c-0.449,0.383-1.073,0.574-1.872,0.574c-0.335,0-0.678-0.031-1.024-0.094
		c-0.348-0.063-0.688-0.15-1.024-0.271v-0.979c0.331,0.174,0.658,0.301,0.98,0.387c0.322,0.084,0.643,0.127,0.962,0.127
		c0.54,0,0.956-0.123,1.245-0.367s0.435-0.596,0.435-1.055c0-0.422-0.146-0.76-0.435-1.008c-0.289-0.25-0.683-0.373-1.178-0.373
		h-0.752v-0.812h0.752c0.452,0,0.807-0.1,1.061-0.297c0.254-0.195,0.381-0.477,0.381-0.83c0-0.375-0.117-0.662-0.354-0.859
		c-0.236-0.201-0.572-0.303-1.01-0.303c-0.29,0-0.59,0.031-0.897,0.1c-0.31,0.064-0.634,0.164-0.973,0.293v-0.908
		c0.396-0.104,0.744-0.182,1.054-0.234c0.307-0.051,0.58-0.074,0.816-0.074c0.71,0,1.274,0.178,1.701,0.531
		c0.425,0.355,0.638,0.83,0.638,1.42c0,0.398-0.11,0.732-0.334,1.002C559.92,649.534,559.595,649.723,559.169,649.834z"/>
	<path d="M562.412,646.446h3.69v0.83h-2.793v1.791c0.142-0.055,0.279-0.092,0.423-0.115c0.143-0.023,0.284-0.035,0.428-0.035
		c0.756,0,1.354,0.223,1.797,0.668c0.443,0.447,0.664,1.051,0.664,1.812c0,0.77-0.23,1.375-0.695,1.814
		c-0.465,0.441-1.098,0.664-1.9,0.664c-0.388,0-0.74-0.026-1.062-0.078c-0.318-0.053-0.604-0.131-0.859-0.232v-1
		c0.3,0.161,0.602,0.281,0.901,0.359c0.305,0.08,0.612,0.121,0.93,0.121c0.544,0,0.963-0.145,1.258-0.43
		c0.295-0.287,0.439-0.693,0.439-1.221c0-0.521-0.15-0.93-0.456-1.219c-0.305-0.291-0.729-0.436-1.271-0.436
		c-0.265,0-0.521,0.031-0.771,0.092c-0.251,0.062-0.487,0.15-0.718,0.271v-3.662h-0.004L562.412,646.446L562.412,646.446z"/>
	<path d="M569.57,649.864c-0.42-0.107-0.748-0.311-0.984-0.604c-0.232-0.293-0.354-0.646-0.354-1.061
		c0-0.578,0.196-1.039,0.591-1.379c0.396-0.341,0.929-0.514,1.605-0.514c0.681,0,1.218,0.173,1.609,0.514
		c0.396,0.34,0.592,0.801,0.592,1.379c0,0.414-0.117,0.768-0.354,1.061c-0.235,0.293-0.563,0.492-0.983,0.604
		c0.488,0.104,0.862,0.32,1.12,0.646c0.261,0.324,0.391,0.746,0.391,1.268c0,0.654-0.21,1.172-0.632,1.543
		c-0.42,0.371-1,0.557-1.741,0.557s-1.321-0.186-1.739-0.555c-0.42-0.369-0.629-0.881-0.629-1.535c0-0.521,0.131-0.945,0.389-1.273
		C568.708,650.188,569.081,649.971,569.57,649.864z M570.429,650.274c-0.438,0-0.778,0.122-1.02,0.365
		c-0.24,0.246-0.357,0.596-0.357,1.043c0,0.449,0.119,0.801,0.361,1.049c0.243,0.25,0.58,0.375,1.016,0.375
		c0.441,0,0.781-0.123,1.021-0.369c0.238-0.246,0.357-0.6,0.357-1.055c0-0.443-0.121-0.793-0.363-1.039
		C571.205,650.396,570.865,650.274,570.429,650.274z M569.213,648.295c0,0.393,0.104,0.689,0.312,0.896s0.509,0.309,0.902,0.309
		c0.396,0,0.697-0.104,0.906-0.309s0.312-0.504,0.312-0.896c0-0.396-0.104-0.699-0.312-0.908c-0.206-0.207-0.511-0.311-0.909-0.311
		c-0.396,0-0.694,0.104-0.902,0.312C569.319,647.6,569.213,647.903,569.213,648.295z"/>
	<path d="M575.6,651.973h1.521v1.293l-1.084,2.105l-0.978,0.004l0.537-2.109L575.6,651.973L575.6,651.973z"/>
	<path d="M582.89,646.446h1.144v4.75h0.972v0.801h-0.972v1.738h-0.979v-1.738h-3.093v-0.932L582.89,646.446z M583.052,647.344
		l-2.302,3.854h2.302V647.344z"/>
	<path d="M589.273,649.834c0.479,0.127,0.845,0.354,1.099,0.676c0.254,0.324,0.381,0.729,0.381,1.213
		c0,0.672-0.226,1.197-0.676,1.58c-0.451,0.383-1.076,0.574-1.873,0.574c-0.336,0-0.678-0.031-1.023-0.094
		c-0.349-0.062-0.688-0.15-1.024-0.271v-0.979c0.332,0.174,0.658,0.301,0.98,0.387c0.32,0.084,0.645,0.127,0.962,0.127
		c0.541,0,0.953-0.123,1.244-0.367c0.289-0.244,0.437-0.596,0.437-1.055c0-0.422-0.146-0.76-0.437-1.008
		c-0.29-0.25-0.684-0.373-1.178-0.373h-0.752v-0.812h0.752c0.453,0,0.808-0.1,1.062-0.297c0.255-0.195,0.382-0.477,0.382-0.83
		c0-0.375-0.118-0.662-0.354-0.859c-0.232-0.201-0.57-0.303-1.008-0.303c-0.289,0-0.59,0.031-0.896,0.1
		c-0.31,0.064-0.635,0.164-0.974,0.293v-0.908c0.396-0.104,0.745-0.182,1.052-0.234c0.312-0.051,0.58-0.074,0.818-0.074
		c0.709,0,1.277,0.178,1.701,0.531c0.426,0.355,0.638,0.83,0.638,1.42c0,0.398-0.11,0.732-0.335,1.002
		C590.024,649.534,589.699,649.723,589.273,649.834z"/>
	<path d="M601.236,650.293c0.254,0.064,0.47,0.188,0.648,0.367c0.181,0.182,0.4,0.543,0.669,1.082l0.989,1.992h-1.06l-0.869-1.844
		c-0.251-0.521-0.477-0.859-0.677-1.012c-0.199-0.151-0.462-0.229-0.783-0.229h-0.942v3.082h-0.989v-7.291h2.029
		c0.803,0,1.414,0.182,1.843,0.543c0.427,0.357,0.641,0.883,0.641,1.564c0,0.48-0.132,0.875-0.394,1.18
		C602.079,650.038,601.71,650.225,601.236,650.293z M599.213,647.256v2.588h1.079c0.475,0,0.824-0.104,1.057-0.314
		c0.229-0.213,0.348-0.535,0.348-0.975c0-0.42-0.123-0.738-0.368-0.965c-0.246-0.223-0.604-0.334-1.072-0.334H599.213z"/>
	<path d="M32.379,656.495h3.351v0.83H31.3v-0.83c0.607-0.645,1.142-1.207,1.598-1.699c0.456-0.49,0.771-0.838,0.941-1.039
		c0.326-0.396,0.545-0.719,0.659-0.965c0.112-0.246,0.171-0.498,0.171-0.754c0-0.408-0.12-0.729-0.358-0.957
		c-0.239-0.23-0.567-0.348-0.984-0.348c-0.296,0-0.604,0.055-0.933,0.16c-0.326,0.105-0.67,0.271-1.035,0.486v-0.996
		c0.335-0.158,0.665-0.277,0.989-0.357c0.323-0.082,0.644-0.123,0.959-0.123c0.713,0,1.286,0.188,1.721,0.566
		c0.437,0.382,0.652,0.877,0.652,1.492c0,0.312-0.072,0.625-0.218,0.938c-0.146,0.312-0.38,0.654-0.706,1.033
		c-0.184,0.215-0.446,0.508-0.793,0.881C33.616,655.19,33.089,655.75,32.379,656.495z"/>
	<path d="M37.257,650.036h4.591v0.42l-2.607,6.869h-1.028l2.539-6.459H37.26L37.257,650.036L37.257,650.036z"/>
	<path d="M44.757,655.562h1.521v1.294l-1.084,2.104l-0.978,0.006l0.537-2.107L44.757,655.562L44.757,655.562z"/>
	<path d="M50.44,656.495h3.352v0.83h-4.431v-0.83c0.609-0.645,1.143-1.207,1.599-1.699c0.456-0.49,0.771-0.838,0.94-1.039
		c0.326-0.396,0.545-0.719,0.659-0.965c0.113-0.246,0.171-0.498,0.171-0.754c0-0.408-0.12-0.729-0.359-0.957
		c-0.237-0.23-0.564-0.348-0.981-0.348c-0.297,0-0.607,0.055-0.936,0.16c-0.324,0.105-0.67,0.271-1.033,0.486v-0.996
		c0.335-0.158,0.665-0.277,0.987-0.357c0.324-0.082,0.646-0.123,0.959-0.123c0.713,0,1.287,0.188,1.723,0.566
		c0.436,0.382,0.65,0.877,0.65,1.492c0,0.312-0.07,0.625-0.217,0.938c-0.146,0.312-0.38,0.654-0.706,1.033
		c-0.183,0.215-0.447,0.508-0.793,0.881C51.678,655.19,51.149,655.75,50.44,656.495z"/>
	<path d="M55.792,657.174v-0.908c0.203,0.119,0.423,0.211,0.652,0.275c0.23,0.062,0.474,0.096,0.725,0.096
		c0.625,0,1.099-0.232,1.418-0.707c0.319-0.469,0.479-1.162,0.479-2.074c-0.151,0.322-0.368,0.572-0.646,0.746
		c-0.276,0.178-0.596,0.266-0.951,0.266c-0.703,0-1.248-0.217-1.634-0.65c-0.387-0.432-0.579-1.047-0.579-1.84
		c0-0.785,0.197-1.393,0.594-1.824c0.396-0.431,0.955-0.646,1.677-0.646c0.848,0,1.466,0.305,1.86,0.914
		c0.394,0.605,0.591,1.562,0.591,2.871c0,1.227-0.237,2.164-0.71,2.809c-0.475,0.646-1.161,0.971-2.062,0.971
		c-0.238,0-0.479-0.023-0.72-0.075C56.25,657.34,56.016,657.268,55.792,657.174z M57.55,654.092c0.421,0,0.75-0.148,0.987-0.453
		c0.239-0.303,0.359-0.721,0.359-1.256c0-0.533-0.12-0.951-0.359-1.254c-0.237-0.303-0.566-0.455-0.987-0.455
		c-0.438,0-0.767,0.146-0.985,0.436c-0.222,0.287-0.332,0.713-0.332,1.273c0,0.566,0.109,0.994,0.33,1.279
		C56.781,653.95,57.11,654.092,57.55,654.092z"/>
	<path d="M64.088,650.036h1.144v4.75h0.972v0.801H65.23v1.738h-0.979v-1.738h-3.093v-0.932L64.088,650.036z M64.249,650.934
		l-2.302,3.854h2.302V650.934z"/>
	<path d="M75.112,650.036h1.196l2.23,7.289h-1.021l-0.537-1.898h-2.555l-0.526,1.898H72.88L75.112,650.036z M75.709,650.905
		l-1.04,3.729h2.08L75.709,650.905z"/>
	<path d="M53.488,593.036c0.479,0.127,0.847,0.354,1.101,0.678c0.254,0.322,0.382,0.729,0.382,1.213c0,0.67-0.229,1.197-0.677,1.58
		c-0.451,0.381-1.074,0.572-1.873,0.572c-0.335,0-0.679-0.031-1.024-0.092c-0.349-0.062-0.69-0.152-1.025-0.271v-0.979
		c0.332,0.172,0.659,0.301,0.981,0.385c0.321,0.086,0.643,0.127,0.962,0.127c0.541,0,0.956-0.121,1.245-0.365
		s0.435-0.596,0.435-1.055c0-0.424-0.145-0.76-0.435-1.008c-0.29-0.25-0.683-0.375-1.178-0.375H51.63v-0.812h0.752
		c0.453,0,0.807-0.1,1.061-0.299c0.254-0.197,0.381-0.475,0.381-0.83c0-0.373-0.118-0.662-0.354-0.857
		c-0.236-0.201-0.572-0.305-1.009-0.305c-0.29,0-0.591,0.033-0.897,0.102c-0.31,0.062-0.633,0.162-0.973,0.293v-0.908
		c0.395-0.104,0.745-0.184,1.053-0.234c0.307-0.05,0.58-0.077,0.817-0.077c0.709,0,1.275,0.179,1.7,0.534
		c0.427,0.355,0.639,0.828,0.639,1.418c0,0.4-0.11,0.734-0.334,1C54.241,592.737,53.916,592.926,53.488,593.036z"/>
	<path d="M56.873,596.786v-0.908c0.203,0.121,0.423,0.213,0.652,0.277c0.23,0.061,0.474,0.094,0.725,0.094
		c0.625,0,1.099-0.234,1.418-0.705s0.479-1.162,0.479-2.078c-0.153,0.326-0.368,0.576-0.646,0.75
		c-0.276,0.174-0.596,0.262-0.952,0.262c-0.702,0-1.248-0.217-1.633-0.646c-0.387-0.432-0.579-1.047-0.579-1.842
		c0-0.783,0.196-1.395,0.594-1.824c0.396-0.43,0.955-0.646,1.677-0.646c0.846,0,1.466,0.308,1.859,0.913
		c0.395,0.607,0.592,1.564,0.592,2.871c0,1.229-0.237,2.164-0.71,2.812c-0.475,0.645-1.161,0.969-2.063,0.969
		c-0.236,0-0.477-0.025-0.718-0.074C57.33,596.954,57.097,596.881,56.873,596.786z M58.631,593.706c0.42,0,0.75-0.152,0.987-0.455
		c0.239-0.303,0.359-0.721,0.359-1.254c0-0.535-0.12-0.953-0.359-1.256c-0.237-0.305-0.567-0.453-0.987-0.453
		c-0.438,0-0.767,0.145-0.985,0.432c-0.222,0.289-0.332,0.713-0.332,1.277s0.109,0.992,0.33,1.279
		C57.862,593.561,58.191,593.706,58.631,593.706z"/>
	<path d="M62.893,596.786v-0.908c0.205,0.121,0.423,0.213,0.653,0.277c0.229,0.061,0.473,0.094,0.724,0.094
		c0.625,0,1.098-0.234,1.418-0.705s0.48-1.162,0.48-2.078c-0.152,0.326-0.368,0.576-0.646,0.75
		c-0.276,0.174-0.594,0.262-0.952,0.262c-0.703,0-1.248-0.217-1.633-0.646c-0.385-0.432-0.579-1.047-0.579-1.842
		c0-0.783,0.198-1.395,0.593-1.824c0.396-0.43,0.955-0.646,1.679-0.646c0.847,0,1.467,0.308,1.858,0.913
		c0.396,0.607,0.593,1.564,0.593,2.871c0,1.229-0.236,2.164-0.712,2.812c-0.474,0.645-1.159,0.969-2.062,0.969
		c-0.238,0-0.478-0.025-0.719-0.074C63.35,596.954,63.117,596.881,62.893,596.786z M64.651,593.706c0.42,0,0.75-0.152,0.989-0.455
		c0.238-0.303,0.359-0.721,0.359-1.254c0-0.535-0.12-0.953-0.358-1.256c-0.239-0.304-0.569-0.453-0.989-0.453
		c-0.437,0-0.765,0.145-0.984,0.432c-0.223,0.289-0.332,0.713-0.332,1.277c0,0.565,0.108,0.992,0.328,1.279
		C63.884,593.561,64.212,593.706,64.651,593.706z"/>
	<path d="M69.92,595.174h1.521v1.295l-1.084,2.104l-0.978,0.006l0.537-2.109L69.92,595.174L69.92,595.174z"/>
	<path d="M75.603,596.108h3.35v0.828h-4.429v-0.828c0.608-0.645,1.143-1.209,1.597-1.699c0.456-0.492,0.771-0.838,0.942-1.041
		c0.326-0.396,0.545-0.719,0.659-0.963c0.113-0.246,0.171-0.498,0.171-0.756c0-0.406-0.12-0.729-0.359-0.957
		c-0.237-0.23-0.565-0.35-0.982-0.35c-0.296,0-0.606,0.057-0.935,0.162c-0.324,0.107-0.67,0.271-1.033,0.488v-0.996
		c0.335-0.16,0.663-0.281,0.987-0.361c0.324-0.082,0.646-0.123,0.959-0.123c0.713,0,1.287,0.189,1.723,0.568
		c0.436,0.381,0.65,0.877,0.65,1.492c0,0.312-0.07,0.625-0.217,0.938c-0.146,0.314-0.38,0.658-0.706,1.035
		c-0.183,0.213-0.447,0.506-0.793,0.879C76.842,594.801,76.312,595.362,75.603,596.108z"/>
	<path d="M83.592,593.036c0.479,0.127,0.846,0.354,1.1,0.678c0.254,0.322,0.381,0.729,0.381,1.213c0,0.67-0.226,1.197-0.676,1.58
		c-0.451,0.381-1.075,0.572-1.873,0.572c-0.335,0-0.677-0.031-1.025-0.092c-0.348-0.062-0.688-0.152-1.022-0.271v-0.979
		c0.332,0.172,0.658,0.301,0.979,0.385c0.322,0.086,0.646,0.127,0.964,0.127c0.541,0,0.954-0.121,1.243-0.365
		s0.438-0.596,0.438-1.055c0-0.424-0.146-0.76-0.438-1.008c-0.29-0.25-0.682-0.375-1.177-0.375h-0.752v-0.812h0.752
		c0.453,0,0.808-0.1,1.062-0.299c0.254-0.197,0.381-0.475,0.381-0.83c0-0.373-0.117-0.662-0.354-0.857
		c-0.234-0.201-0.57-0.305-1.008-0.305c-0.29,0-0.589,0.033-0.897,0.102c-0.31,0.062-0.634,0.162-0.973,0.293v-0.908
		c0.396-0.104,0.745-0.184,1.052-0.234c0.31-0.051,0.58-0.077,0.818-0.077c0.709,0,1.276,0.179,1.702,0.534
		c0.425,0.355,0.637,0.828,0.637,1.418c0,0.4-0.109,0.734-0.334,1C84.344,592.737,84.017,592.926,83.592,593.036z"/>
	<path d="M96.784,589.896v1c-0.299-0.19-0.6-0.339-0.899-0.437c-0.299-0.098-0.604-0.145-0.91-0.145
		c-0.466,0-0.833,0.105-1.104,0.32c-0.27,0.22-0.403,0.511-0.403,0.877c0,0.322,0.09,0.568,0.267,0.738
		c0.177,0.168,0.509,0.312,0.994,0.424l0.518,0.117c0.687,0.16,1.185,0.41,1.494,0.752c0.312,0.342,0.47,0.81,0.47,1.396
		c0,0.691-0.216,1.223-0.646,1.588c-0.431,0.361-1.056,0.547-1.875,0.547c-0.342,0-0.686-0.037-1.03-0.111
		c-0.345-0.072-0.69-0.182-1.04-0.328v-1.051c0.375,0.238,0.729,0.412,1.062,0.523c0.333,0.107,0.67,0.166,1.008,0.166
		c0.498,0,0.885-0.111,1.162-0.337c0.276-0.224,0.415-0.532,0.415-0.937c0-0.363-0.096-0.643-0.286-0.834
		c-0.191-0.193-0.521-0.34-0.994-0.445l-0.526-0.12c-0.678-0.151-1.169-0.386-1.476-0.692c-0.308-0.308-0.459-0.726-0.459-1.244
		c0-0.652,0.219-1.174,0.657-1.565c0.438-0.392,1.02-0.589,1.745-0.589c0.278,0,0.575,0.031,0.885,0.1
		C96.117,589.674,96.443,589.77,96.784,589.896z"/>
	<path d="M320.734,461.125h1.348l2.854,5.982v-5.982h1.051v7.266h-1.349l-2.854-5.979v5.979h-1.05V461.125z"/>
	<path d="M333.999,467.567h1.533v-5.512l-1.836,0.887v-0.947l1.825-0.869h0.984v6.441h1.516v0.822h-4.022V467.567L333.999,467.567z"
		/>
	<path d="M342.129,461.102h1.146v4.75h0.972v0.805h-0.972v1.734h-0.981v-1.734h-3.091v-0.936L342.129,461.102z M342.29,462
		l-2.3,3.852h2.3V462z"/>
	<path d="M348.151,461.102h1.143v4.75h0.974v0.805h-0.974v1.734h-0.979v-1.734h-3.092v-0.936L348.151,461.102z M348.312,462
		l-2.301,3.852h2.301V462z"/>
	<path d="M352.902,466.629h1.522v1.293l-1.085,2.105l-0.978,0.004l0.537-2.109L352.902,466.629L352.902,466.629z"/>
	<path d="M357.775,461.102h3.69v0.83h-2.795v1.791c0.142-0.051,0.281-0.09,0.424-0.111c0.143-0.023,0.282-0.037,0.428-0.037
		c0.755,0,1.354,0.223,1.797,0.67c0.442,0.443,0.664,1.049,0.664,1.811c0,0.771-0.232,1.375-0.696,1.816s-1.098,0.664-1.9,0.664
		c-0.389,0-0.74-0.025-1.062-0.078c-0.321-0.051-0.608-0.129-0.862-0.234v-1c0.301,0.162,0.604,0.283,0.903,0.363
		c0.303,0.08,0.611,0.119,0.928,0.119c0.543,0,0.964-0.146,1.259-0.43c0.294-0.285,0.44-0.693,0.44-1.223
		c0-0.521-0.151-0.926-0.457-1.217c-0.305-0.289-0.729-0.434-1.271-0.434c-0.266,0-0.521,0.027-0.771,0.09
		c-0.25,0.061-0.49,0.148-0.718,0.271L357.775,461.102L357.775,461.102L357.775,461.102z"/>
	<path d="M364.102,467.567h1.533v-5.512l-1.836,0.887v-0.947l1.824-0.869h0.986v6.441h1.514v0.822h-4.021V467.567L364.102,467.567z"
		/>
	<path d="M164.031,396.418h1.533v-5.508l-1.836,0.883v-0.945l1.826-0.869h0.985v6.439h1.515v0.824h-4.023V396.418L164.031,396.418z"
		/>
	<path d="M170.883,393.372c-0.42-0.106-0.748-0.31-0.983-0.603c-0.236-0.293-0.354-0.646-0.354-1.062
		c0-0.578,0.195-1.039,0.592-1.379c0.394-0.34,0.929-0.513,1.604-0.513c0.682,0,1.219,0.173,1.611,0.513
		c0.392,0.34,0.591,0.801,0.591,1.379c0,0.414-0.118,0.769-0.354,1.062c-0.235,0.293-0.563,0.494-0.983,0.603
		c0.487,0.106,0.861,0.323,1.121,0.647c0.259,0.323,0.388,0.748,0.388,1.267c0,0.655-0.21,1.172-0.63,1.543
		s-1.001,0.557-1.743,0.557c-0.74,0-1.32-0.186-1.739-0.555c-0.418-0.369-0.627-0.881-0.627-1.535c0-0.521,0.129-0.944,0.389-1.272
		C170.021,393.695,170.394,393.479,170.883,393.372z M171.741,393.782c-0.438,0-0.777,0.122-1.018,0.366
		c-0.239,0.246-0.359,0.595-0.359,1.043c0,0.449,0.121,0.8,0.364,1.048c0.243,0.25,0.58,0.375,1.013,0.375
		c0.443,0,0.784-0.123,1.023-0.369c0.238-0.246,0.358-0.597,0.358-1.054c0-0.444-0.121-0.793-0.364-1.039
		C172.516,393.904,172.177,393.782,171.741,393.782z M170.526,391.805c0,0.391,0.104,0.688,0.312,0.895s0.51,0.309,0.901,0.309
		c0.397,0,0.7-0.104,0.908-0.309s0.312-0.504,0.312-0.895c0-0.396-0.104-0.701-0.312-0.908c-0.207-0.209-0.51-0.312-0.911-0.312
		c-0.395,0-0.693,0.104-0.901,0.312C170.631,391.107,170.526,391.411,170.526,391.805z"/>
	<path d="M178.544,393.342c0.479,0.127,0.846,0.354,1.1,0.678c0.254,0.322,0.381,0.729,0.381,1.213c0,0.67-0.227,1.197-0.676,1.582
		c-0.451,0.381-1.075,0.57-1.873,0.57c-0.335,0-0.678-0.03-1.025-0.094c-0.348-0.061-0.688-0.15-1.022-0.268v-0.982
		c0.331,0.174,0.658,0.301,0.979,0.387c0.322,0.084,0.645,0.127,0.962,0.127c0.541,0,0.956-0.121,1.245-0.365
		c0.289-0.243,0.437-0.598,0.437-1.057c0-0.422-0.146-0.76-0.437-1.008c-0.29-0.25-0.682-0.373-1.177-0.373h-0.752v-0.812h0.752
		c0.453,0,0.806-0.101,1.06-0.297c0.256-0.199,0.383-0.478,0.383-0.83c0-0.375-0.117-0.662-0.354-0.86
		c-0.236-0.201-0.572-0.302-1.008-0.302c-0.29,0-0.589,0.031-0.898,0.099c-0.309,0.065-0.633,0.164-0.972,0.293v-0.907
		c0.395-0.104,0.745-0.183,1.052-0.232c0.309-0.051,0.58-0.077,0.818-0.077c0.709,0,1.276,0.178,1.702,0.534
		c0.425,0.354,0.637,0.828,0.637,1.418c0,0.398-0.111,0.732-0.334,1C179.297,393.043,178.969,393.23,178.544,393.342z"/>
	<path d="M182.933,395.48h1.522v1.294l-1.086,2.104l-0.977,0.006l0.537-2.107L182.933,395.48L182.933,395.48z"/>
	<path d="M191.635,390.114v0.907c-0.204-0.119-0.423-0.213-0.653-0.274c-0.229-0.063-0.473-0.097-0.724-0.097
		c-0.625,0-1.101,0.234-1.421,0.705c-0.321,0.472-0.482,1.164-0.482,2.078c0.155-0.324,0.373-0.574,0.648-0.75
		c0.275-0.175,0.595-0.263,0.95-0.263c0.703,0,1.248,0.218,1.635,0.646c0.387,0.432,0.579,1.043,0.579,1.834
		c0,0.787-0.199,1.397-0.598,1.833c-0.396,0.432-0.956,0.646-1.675,0.646c-0.847,0-1.467-0.305-1.86-0.911
		c-0.394-0.604-0.591-1.562-0.591-2.867c0-1.229,0.237-2.17,0.71-2.813c0.476-0.646,1.16-0.972,2.06-0.972
		c0.239,0,0.48,0.024,0.724,0.076C191.177,389.947,191.409,390.02,191.635,390.114z M189.877,393.195c-0.42,0-0.75,0.15-0.99,0.453
		c-0.241,0.304-0.361,0.722-0.361,1.256c0,0.533,0.121,0.951,0.361,1.255c0.239,0.303,0.57,0.455,0.99,0.455
		c0.437,0,0.766-0.146,0.984-0.435c0.223-0.287,0.332-0.714,0.332-1.275c0-0.565-0.109-0.993-0.332-1.278
		C190.641,393.338,190.312,393.195,189.877,393.195z"/>
	<path d="M193.826,389.954h3.691v0.83h-2.793v1.791c0.14-0.052,0.28-0.091,0.422-0.115c0.142-0.022,0.284-0.035,0.427-0.035
		c0.755,0,1.354,0.224,1.797,0.668c0.443,0.447,0.664,1.052,0.664,1.812c0,0.771-0.229,1.375-0.694,1.816
		c-0.464,0.441-1.1,0.664-1.901,0.664c-0.388,0-0.741-0.023-1.062-0.078c-0.32-0.053-0.607-0.131-0.861-0.232v-1.001
		c0.299,0.161,0.601,0.282,0.902,0.362c0.303,0.078,0.61,0.119,0.929,0.119c0.543,0,0.963-0.145,1.257-0.43
		c0.294-0.287,0.441-0.693,0.441-1.223c0-0.521-0.151-0.926-0.457-1.215c-0.307-0.291-0.729-0.438-1.271-0.438
		c-0.265,0-0.521,0.031-0.771,0.092s-0.489,0.15-0.72,0.271v-3.662h0.002V389.954z"/>
	<path d="M205.819,389.954h2.129c0.814,0,1.433,0.185,1.853,0.553c0.421,0.371,0.631,0.912,0.631,1.625
		c0,0.72-0.209,1.263-0.627,1.632c-0.418,0.366-1.036,0.551-1.854,0.551h-1.143v2.933h-0.986L205.819,389.954L205.819,389.954z
		 M206.805,390.764v2.738h1.143c0.456,0,0.812-0.119,1.067-0.359c0.255-0.242,0.383-0.578,0.383-1.012s-0.127-0.77-0.381-1.01
		c-0.254-0.238-0.61-0.357-1.069-0.357H206.805L206.805,390.764z"/>
	<path d="M394.037,635.489c-0.021,0-0.055,0.002-0.098,0.006c-0.043,0.002-0.077,0.004-0.104,0.004
		c-0.812,0-1.422-0.311-1.822-0.938c-0.401-0.625-0.604-1.57-0.604-2.842c0-1.271,0.201-2.223,0.604-2.848
		c0.4-0.625,1.014-0.938,1.833-0.938c0.822,0,1.438,0.312,1.838,0.938c0.399,0.627,0.604,1.574,0.604,2.848
		c0,0.957-0.109,1.729-0.334,2.312c-0.223,0.584-0.562,0.994-1.013,1.229l0.977,0.93l-0.735,0.486L394.037,635.489z
		 M395.259,631.719c0-1.068-0.109-1.836-0.33-2.295c-0.222-0.459-0.58-0.688-1.082-0.688c-0.498,0-0.856,0.229-1.077,0.688
		c-0.22,0.459-0.329,1.227-0.329,2.295s0.109,1.832,0.329,2.291c0.221,0.459,0.579,0.688,1.077,0.688
		c0.501,0,0.86-0.229,1.082-0.688C395.148,633.555,395.259,632.792,395.259,631.719z"/>
	<path d="M404.701,634.528h3.352v0.83h-4.431v-0.83c0.609-0.645,1.143-1.209,1.599-1.699c0.456-0.492,0.771-0.838,0.94-1.041
		c0.326-0.396,0.545-0.719,0.659-0.963c0.113-0.246,0.171-0.498,0.171-0.756c0-0.406-0.12-0.729-0.359-0.957
		c-0.237-0.23-0.564-0.35-0.981-0.35c-0.297,0-0.607,0.057-0.935,0.162c-0.325,0.107-0.671,0.271-1.034,0.488v-0.996
		c0.335-0.16,0.665-0.281,0.987-0.361c0.324-0.08,0.646-0.12,0.959-0.12c0.714,0,1.287,0.188,1.723,0.565
		c0.436,0.381,0.65,0.877,0.65,1.492c0,0.312-0.07,0.625-0.217,0.938c-0.146,0.314-0.38,0.658-0.706,1.035
		c-0.183,0.213-0.446,0.506-0.793,0.879C405.939,633.221,405.411,633.782,404.701,634.528z"/>
	<path d="M412.69,631.456c0.479,0.127,0.845,0.354,1.099,0.678c0.254,0.322,0.381,0.729,0.381,1.213c0,0.67-0.226,1.197-0.676,1.58
		c-0.451,0.381-1.075,0.572-1.873,0.572c-0.335,0-0.677-0.031-1.023-0.092c-0.35-0.062-0.689-0.152-1.024-0.271v-0.979
		c0.332,0.172,0.659,0.301,0.98,0.385c0.32,0.086,0.644,0.127,0.962,0.127c0.541,0,0.956-0.121,1.245-0.365
		c0.287-0.242,0.436-0.596,0.436-1.055c0-0.424-0.146-0.76-0.436-1.008c-0.29-0.25-0.684-0.375-1.179-0.375h-0.752v-0.812h0.752
		c0.453,0,0.808-0.1,1.062-0.299c0.254-0.197,0.381-0.475,0.381-0.83c0-0.373-0.118-0.662-0.354-0.857
		c-0.233-0.201-0.57-0.305-1.008-0.305c-0.29,0-0.589,0.033-0.896,0.102c-0.311,0.062-0.634,0.162-0.974,0.293v-0.908
		c0.396-0.104,0.745-0.184,1.054-0.234c0.308-0.051,0.579-0.076,0.816-0.076c0.709,0,1.277,0.178,1.702,0.533
		s0.637,0.828,0.637,1.418c0,0.4-0.109,0.734-0.334,1C413.443,631.157,413.116,631.346,412.69,631.456z"/>
	<path d="M417.928,627.959c0.776,0,1.364,0.318,1.766,0.953c0.4,0.635,0.598,1.574,0.598,2.814c0,1.242-0.197,2.186-0.598,2.816
		c-0.399,0.635-0.987,0.953-1.766,0.953c-0.777,0-1.366-0.318-1.765-0.953c-0.396-0.635-0.596-1.574-0.596-2.816
		c0-1.24,0.198-2.184,0.596-2.814C416.562,628.278,417.151,627.959,417.928,627.959z M417.928,628.741
		c-0.459,0-0.804,0.246-1.027,0.737c-0.228,0.489-0.34,1.239-0.34,2.25c0,0.459,0.031,0.89,0.094,1.288l2.274-3.629
		C418.681,628.958,418.348,628.741,417.928,628.741z M417.928,634.717c0.462,0,0.808-0.246,1.031-0.736
		c0.228-0.488,0.341-1.24,0.341-2.25c0-0.535-0.033-1.021-0.1-1.453l-2.324,3.637C417.122,634.45,417.472,634.717,417.928,634.717z"
		/>
	<path d="M423.099,633.594h1.521v1.295l-1.084,2.104l-0.978,0.006l0.537-2.109L423.099,633.594L423.099,633.594z"/>
	<path d="M430.75,631.456c0.479,0.127,0.847,0.354,1.101,0.678c0.255,0.322,0.382,0.729,0.382,1.213c0,0.67-0.229,1.197-0.677,1.58
		c-0.45,0.381-1.074,0.572-1.873,0.572c-0.335,0-0.679-0.031-1.024-0.092c-0.348-0.062-0.688-0.152-1.023-0.271v-0.979
		c0.33,0.172,0.657,0.301,0.979,0.385c0.321,0.086,0.645,0.127,0.962,0.127c0.541,0,0.956-0.121,1.245-0.365
		c0.289-0.242,0.435-0.596,0.435-1.055c0-0.424-0.145-0.76-0.435-1.008c-0.29-0.25-0.683-0.375-1.177-0.375h-0.753v-0.812h0.753
		c0.452,0,0.806-0.1,1.06-0.299c0.254-0.197,0.381-0.475,0.381-0.83c0-0.373-0.116-0.662-0.354-0.857
		c-0.236-0.201-0.572-0.305-1.009-0.305c-0.29,0-0.589,0.033-0.897,0.102c-0.31,0.062-0.633,0.162-0.972,0.293v-0.908
		c0.394-0.104,0.744-0.184,1.052-0.234c0.307-0.05,0.58-0.076,0.817-0.076c0.709,0,1.275,0.178,1.702,0.533
		c0.425,0.355,0.638,0.828,0.638,1.418c0,0.4-0.111,0.734-0.334,1C431.503,631.157,431.177,631.346,430.75,631.456z"/>
	<path d="M436.41,628.067h1.145v4.752h0.973v0.801h-0.974v1.738h-0.98v-1.738h-3.091v-0.935L436.41,628.067z M436.571,628.965
		l-2.3,3.854h2.3V628.965z"/>
</g>
</svg>
