<?xml version="1.0" encoding="utf-8"?>
<svg version="1.1" id="Calque_1" xmlns="http://www.w3.org/2000/svg" xmlns:xlink="http://www.w3.org/1999/xlink" x="0px" y="0px"
	 width="2000px" height="1000px" viewBox="0 0 2000 1000" enable-background="new 0 0 2000 1000" xml:space="preserve">
<g fill="#0000FF" >
	<circle cx="518.078" cy="173.154" r="0.7"/>
	<circle cx="453.706" cy="271.701" r="0.7"/>
	<circle cx="417.729" cy="391.568" r="0.7"/>
	<circle cx="477.862" cy="486.559" r="0.7"/>
	<circle cx="529.943" cy="566.484" r="0.7"/>
	<circle cx="648.193" cy="694.84" r="0.7"/>
	<circle cx="730.456" cy="737.328" r="0.7"/>
	<circle cx="872.903" cy="759.914" r="0.7"/>
	<circle cx="1035.027" cy="690.869" r="0.7"/>
	<circle cx="952.031" cy="722.43" r="0.7"/>
	<circle cx="732.162" cy="686.627" r="0.7"/>
	<circle cx="879.248" cy="678.939" r="0.7"/>
	<circle cx="1016.232" cy="646.359" r="0.7"/>
	<circle cx="895.223" cy="568.092" r="0.7"/>
	<circle cx="877.077" cy="622.098" r="0.7"/>
	<circle cx="1024.655" cy="558.17" r="0.7"/>
	<circle cx="945.906" cy="505.617" r="0.7"/>
	<circle cx="915.562" cy="539.689" r="0.7"/>
	<circle cx="1022.541" cy="495.781" r="0.7"/>
	<circle cx="976.073" cy="453.464" r="0.7"/>
	<circle cx="946.161" cy="574.262" r="0.7"/>
	<circle cx="1091.044" cy="526.203" r="0.7"/>
	<circle cx="1130.695" cy="391.59" r="0.7"/>
	<circle cx="1100.49" cy="353.43" r="0.7"/>
	<circle cx="913.839" cy="341.606" r="0.7"/>
	<circle cx="819.411" cy="361.548" r="0.7"/>
	<circle cx="785.031" cy="460.028" r="0.7"/>
	<circle cx="891.701" cy="642.639" r="0.7"/>
	<circle cx="1049.421" cy="655.143" r="0.7"/>
	<circle cx="1144.933" cy="454.361" r="0.7"/>
	<circle cx="1034.384" cy="271.611" r="0.7"/>
	<circle cx="897.762" cy="257.405" r="0.7"/>
	<circle cx="797.14" cy="405.82" r="0.7"/>
	<circle cx="796.748" cy="598.182" r="0.7"/>
	<circle cx="986.59" cy="702.93" r="0.7"/>
	<circle cx="1177.48" cy="584.572" r="0.7"/>
	<circle cx="1185.376" cy="363.482" r="0.7"/>
	<circle cx="1012.082" cy="239.191" r="0.7"/>
	<circle cx="775.168" cy="223.741" r="0.7"/>
	<circle cx="734.905" cy="327.691" r="0.7"/>
	<circle cx="726.655" cy="516.213" r="0.7"/>
	<circle cx="799.05" cy="686.82" r="0.7"/>
	<circle cx="1037.305" cy="706.146" r="0.7"/>
	<circle cx="1195.675" cy="458.291" r="0.7"/>
	<circle cx="1114.707" cy="231.426" r="0.7"/>
	<circle cx="917.923" cy="129.305" r="0.7"/>
	<circle cx="710.842" cy="169.542" r="0.7"/>
	<circle cx="610.363" cy="314.207" r="0.7"/>
	<circle cx="604.357" cy="552.365" r="0.7"/>
	<circle cx="762.729" cy="688.775" r="0.7"/>
	<circle cx="1049.32" cy="639.803" r="0.7"/>
	<circle cx="1245.85" cy="407.999" r="0.7"/>
	<circle cx="1221.953" cy="160.854" r="0.7"/>
	<circle cx="1036.017" cy="-17.514" r="0.7"/>
	<circle cx="829.395" cy="-25.362" r="0.7"/>
	<circle cx="676.248" cy="127.281" r="0.7"/>
	<circle cx="546.158" cy="381.921" r="0.7"/>
	<circle cx="533.938" cy="636.621" r="0.7"/>
	<circle cx="658.239" cy="831.596" r="0.7"/>
	<circle cx="946.931" cy="926.502" r="0.7"/>
	<circle cx="1225.858" cy="836.145" r="0.7"/>
	<circle cx="1372.221" cy="546.523" r="0.7"/>
	<circle cx="1319.83" cy="291.013" r="0.7"/>
	<circle cx="1100.452" cy="71.3" r="0.7"/>
	<circle cx="887.455" cy="-39.258" r="0.7"/>
	<circle cx="690.831" cy="-65.409" r="0.7"/>
	<circle cx="506.072" cy="89.011" r="0.7"/>
	<circle cx="355.077" cy="415.95" r="0.7"/>
	<circle cx="429.454" cy="707.014" r="0.7"/>
	<circle cx="788.623" cy="821.666" r="0.7"/>
	<circle cx="1207.756" cy="662.57" r="0.7"/>
	<circle cx="1415.994" cy="308.893" r="0.7"/>
	<circle cx="1451.234" cy="120.656" r="0.7"/>
	<circle cx="1299.025" cy="-60.015" r="0.7"/>
	<circle cx="1075.095" cy="-202.893" r="0.7"/>
	<circle cx="855.644" cy="-241.186" r="0.7"/>
	<circle cx="703.261" cy="-146.515" r="0.7"/>
	<circle cx="591.942" cy="-59.657" r="0.7"/>
	<circle cx="612.312" cy="-218.226" r="0.7"/>
	<circle cx="767.435" cy="-293.224" r="0.7"/>
	<circle cx="906.009" cy="-297.892" r="0.7"/>
	<circle cx="1128.683" cy="-231.403" r="0.7"/>
	<circle cx="1292.759" cy="-152.213" r="0.7"/>
	<circle cx="1491.802" cy="33.937" r="0.7"/>
	<circle cx="1527.492" cy="199.524" r="0.7"/>
	<circle cx="1568.63" cy="181.454" r="0.7"/>
	<circle cx="1541.843" cy="-117.277" r="0.7"/>
	<circle cx="1413.303" cy="-216.06" r="0.7"/>
	<circle cx="1208.567" cy="-294.374" r="0.7"/>
	<circle cx="999.235" cy="-357.515" r="0.7"/>
	<circle cx="821.509" cy="-367.305" r="0.7"/>
	<circle cx="811.715" cy="-345.283" r="0.7"/>
	<circle cx="1065.579" cy="-323.147" r="0.7"/>
	<circle cx="1304.752" cy="-218.211" r="0.7"/>
	<circle cx="1375.445" cy="-125.488" r="0.7"/>
	<circle cx="1088.312" cy="-236.28" r="0.7"/>
	<circle cx="1028.91" cy="-200.42" r="0.7"/>
	<circle cx="1191.549" cy="-127.109" r="0.7"/>
	<circle cx="1277.836" cy="-64.115" r="0.7"/>
	<circle cx="1055.741" cy="-132.091" r="0.7"/>
	<circle cx="979.592" cy="-190.945" r="0.7"/>
	<circle cx="1027.052" cy="-126.391" r="0.7"/>
	<circle cx="1233.715" cy="-16.104" r="0.7"/>
	<circle cx="1052.963" cy="-13.539" r="0.7"/>
	<circle cx="934.219" cy="-94.314" r="0.7"/>
	<circle cx="1663.091" cy="96.346" r="0.7"/>
	<circle cx="1839.732" cy="329.803" r="0.7"/>
	<circle cx="1775.087" cy="283.275" r="0.7"/>
	<circle cx="1347.344" cy="-66.502" r="0.7"/>
	<circle cx="1331.264" cy="-105.402" r="0.7"/>
	<circle cx="1545.068" cy="132.797" r="0.7"/>
	<circle cx="1445.757" cy="330.704" r="0.7"/>
	<circle cx="1483.193" cy="219.396" r="0.7"/>
	<circle cx="1525.43" cy="-100.825" r="0.7"/>
	<circle cx="1626.695" cy="34.204" r="0.7"/>
	<circle cx="1823.548" cy="273.044" r="0.7"/>
	<circle cx="1805.348" cy="470.149" r="0.7"/>
	<circle cx="1732.936" cy="624.848" r="0.7"/>
	<circle cx="1702.83" cy="693.844" r="0.7"/>
	<circle cx="1644.791" cy="352.148" r="0.7"/>
	<circle cx="1569.837" cy="111.429" r="0.7"/>
	<circle cx="1564.843" cy="113.374" r="0.7"/>
	<circle cx="1568.943" cy="117.025" r="0.7"/>
	<circle cx="1557.947" cy="253.792" r="0.7"/>
	<circle cx="1503.598" cy="813.432" r="0.7"/>
	<circle cx="1505.382" cy="857.781" r="0.7"/>
	<circle cx="1575.287" cy="530.6" r="0.7"/>
	<circle cx="1618.337" cy="305.317" r="0.7"/>
	<circle cx="1620.293" cy="326.141" r="0.7"/>
	<circle cx="1630.072" cy="708.877" r="0.7"/>
	<circle cx="1519.943" cy="884.17" r="0.7"/>
	<circle cx="1529.752" cy="926.797" r="0.7"/>
	<circle cx="1762.716" cy="488.67" r="0.7"/>
	<circle cx="1775.08" cy="441.891" r="0.7"/>
	<circle cx="1753.041" cy="777.568" r="0.7"/>
	<circle cx="1626.373" cy="988.461" r="0.7"/>
	<circle cx="1569.947" cy="1051.172" r="0.7"/>
	<circle cx="1507.535" cy="1113.867" r="0.7"/>
	<circle cx="1414.675" cy="1181.506" r="0.7"/>
	<circle cx="1368.346" cy="1222.346" r="0.7"/>
	<circle cx="1298.361" cy="1246.324" r="0.7"/>
	<circle cx="1507.164" cy="986.953" r="0.7"/>
	<circle cx="1569.6" cy="765.416" r="0.7"/>
	<circle cx="1379.158" cy="957.207" r="0.7"/>
	<circle cx="1197.658" cy="1118.861" r="0.7"/>
	<circle cx="1200.101" cy="1108.965" r="0.7"/>
	<circle cx="1377.296" cy="922.625" r="0.7"/>
	<circle cx="1366.594" cy="907.758" r="0.7"/>
	<circle cx="1142.876" cy="1035.311" r="0.7"/>
	<circle cx="1192.179" cy="966.855" r="0.7"/>
	<circle cx="1290.597" cy="886.494" r="0.7"/>
	<circle cx="1227.959" cy="928.578" r="0.7"/>
	<circle cx="1173.161" cy="968.918" r="0.7"/>
	<circle cx="1272.052" cy="870.016" r="0.7"/>
	<circle cx="1369.216" cy="715.445" r="0.7"/>
	<circle cx="1404.964" cy="594.09" r="0.7"/>
	<circle cx="1389.391" cy="542.219" r="0.7"/>
	<circle cx="1310.451" cy="737.846" r="0.7"/>
	<circle cx="1129.098" cy="948.617" r="0.7"/>
	<circle cx="1060.873" cy="972.957" r="0.7"/>
	<circle cx="1222.379" cy="736.135" r="0.7"/>
	<circle cx="1252.258" cy="546.881" r="0.7"/>
	<circle cx="1241.772" cy="528.107" r="0.7"/>
	<circle cx="1187.262" cy="697.059" r="0.7"/>
	<circle cx="1105.091" cy="816.309" r="0.7"/>
	<circle cx="1153.601" cy="790.133" r="0.7"/>
	<circle cx="1332.238" cy="358.615" r="0.7"/>
	<circle cx="1209.127" cy="173.84" r="0.7"/>
	<circle cx="1184.899" cy="153.085" r="0.7"/>
	<circle cx="1154.613" cy="134.988" r="0.7"/>
	<circle cx="1309.302" cy="320.027" r="0.7"/>
	<circle cx="1332.457" cy="313.783" r="0.7"/>
	<circle cx="1115.103" cy="52.556" r="0.7"/>
	<circle cx="930.363" cy="-28.896" r="0.7"/>
	<circle cx="801.651" cy="2.999" r="0.7"/>
	<circle cx="786.386" cy="5.048" r="0.7"/>
	<circle cx="1243.896" cy="35.025" r="0.7"/>
	<circle cx="1344.175" cy="49.523" r="0.7"/>
	<circle cx="1208.886" cy="-24.238" r="0.7"/>
	<circle cx="968.548" cy="-100.07" r="0.7"/>
	<circle cx="865.511" cy="-104.522" r="0.7"/>
	<circle cx="844.732" cy="-100.297" r="0.7"/>
	<circle cx="905.617" cy="-161.081" r="0.7"/>
	<circle cx="1065.938" cy="-216.033" r="0.7"/>
	<circle cx="1050.687" cy="-217.896" r="0.7"/>
	<circle cx="608.132" cy="-244.906" r="0.7"/>
	<circle cx="525.882" cy="-186.253" r="0.7"/>
	<circle cx="430.281" cy="54.154" r="0.7"/>
	<circle cx="427.063" cy="47.68" r="0.7"/>
	<circle cx="584.125" cy="-164.051" r="0.7"/>
	<circle cx="674.579" cy="-228.102" r="0.7"/>
	<circle cx="683.713" cy="-237.199" r="0.7"/>
	<circle cx="407.537" cy="-152.075" r="0.7"/>
	<circle cx="333.124" cy="-61.904" r="0.7"/>
	<circle cx="273.528" cy="113.196" r="0.7"/>
	<circle cx="165.312" cy="377.559" r="0.7"/>
	<circle cx="169.055" cy="584.711" r="0.7"/>
	<circle cx="255.795" cy="738.885" r="0.7"/>
	<circle cx="335.254" cy="897.141" r="0.7"/>
	<circle cx="430.043" cy="995.84" r="0.7"/>
	<circle cx="541.854" cy="1056.422" r="0.7"/>
	<circle cx="596.126" cy="1105.096" r="0.7"/>
	<circle cx="421.764" cy="1117.23" r="0.7"/>
	<circle cx="393.256" cy="1006.395" r="0.7"/>
	<circle cx="349.602" cy="923.424" r="0.7"/>
	<circle cx="345.128" cy="946.092" r="0.7"/>
	<circle cx="566.216" cy="1187.482" r="0.7"/>
	<circle cx="784.905" cy="1308.83" r="0.7"/>
	<circle cx="904.674" cy="1364.391" r="0.7"/>
	<circle cx="811.749" cy="1294.508" r="0.7"/>
	<circle cx="556.108" cy="1212.297" r="0.7"/>
	<circle cx="559.728" cy="1166.734" r="0.7"/>
	<circle cx="799.223" cy="1273.717" r="0.7"/>
	<circle cx="951.626" cy="1306.092" r="0.7"/>
	<circle cx="768.926" cy="1163.031" r="0.7"/>
	<circle cx="723.338" cy="1083" r="0.7"/>
	<circle cx="710.925" cy="1060.305" r="0.7"/>
	<circle cx="806.203" cy="1195.33" r="0.7"/>
	<circle cx="794.812" cy="1202.066" r="0.7"/>
	<circle cx="527.356" cy="878.609" r="0.7"/>
	<circle cx="529.853" cy="868.639" r="0.7"/>
	<circle cx="828.493" cy="1160.906" r="0.7"/>
	<circle cx="912.756" cy="1215.205" r="0.7"/>
	<circle cx="783.625" cy="1030.553" r="0.7"/>
	<circle cx="742.93" cy="921.77" r="0.7"/>
	<circle cx="751.375" cy="940.678" r="0.7"/>
	<circle cx="960.735" cy="1054.957" r="0.7"/>
	<circle cx="892.34" cy="916.924" r="0.7"/>
	<circle cx="859.541" cy="818.037" r="0.7"/>
	<circle cx="928.347" cy="864.215" r="0.7"/>
	<circle cx="1060.951" cy="892.475" r="0.7"/>
	<circle cx="964.908" cy="778.879" r="0.7"/>
	<circle cx="954.101" cy="764.23" r="0.7"/>
	<circle cx="1252.315" cy="694.809" r="0.7"/>
	<circle cx="1312.466" cy="616.838" r="0.7"/>
	<circle cx="1209.189" cy="729.488" r="0.7"/>
	<circle cx="930.276" cy="943.184" r="0.7"/>
	<circle cx="807.55" cy="1152.518" r="0.7"/>
	<circle cx="993.115" cy="1121.201" r="0.7"/>
	<circle cx="1293.832" cy="1021.199" r="0.7"/>
	<circle cx="1340.334" cy="950.895" r="0.7"/>
	<circle cx="1129.525" cy="1151.857" r="0.7"/>
	<circle cx="943.315" cy="1231.074" r="0.7"/>
	<circle cx="918.376" cy="1257.699" r="0.7"/>
	<circle cx="1414.736" cy="1202.514" r="0.7"/>
	<circle cx="1563.828" cy="998.734" r="0.7"/>
	<circle cx="1636.732" cy="798.115" r="0.7"/>
	<circle cx="1629.812" cy="751.615" r="0.7"/>
	<circle cx="1498.923" cy="898.643" r="0.7"/>
	<circle cx="1322.803" cy="1033.029" r="0.7"/>
	<circle cx="1258.24" cy="1079.779" r="0.7"/>
	<circle cx="1468.867" cy="817.631" r="0.7"/>
	<circle cx="1571.962" cy="589.602" r="0.7"/>
	<circle cx="1573.289" cy="547.025" r="0.7"/>
	<circle cx="1569.119" cy="536.764" r="0.7"/>
	<circle cx="1568.311" cy="542.088" r="0.7"/>
	<circle cx="1322.841" cy="1026.09" r="0.7"/>
	<circle cx="1077.898" cy="1235.912" r="0.7"/>
	<circle cx="921.178" cy="1329.084" r="0.7"/>
	<circle cx="1010.151" cy="1302.375" r="0.7"/>
	<circle cx="1498.734" cy="1098.947" r="0.7"/>
	<circle cx="1580.408" cy="904.314" r="0.7"/>
	<circle cx="1608.027" cy="810.197" r="0.7"/>
	<circle cx="1647.046" cy="747.451" r="0.7"/>
	<circle cx="1702.752" cy="678.537" r="0.7"/>
	<circle cx="1728.666" cy="426.006" r="0.7"/>
	<circle cx="1681.05" cy="247.298" r="0.7"/>
	<circle cx="1584.262" cy="116.497" r="0.7"/>
	<circle cx="1614.654" cy="237.358" r="0.7"/>
	<circle cx="1654.502" cy="470.412" r="0.7"/>
	<circle cx="1600.087" cy="396.237" r="0.7"/>
	<circle cx="1352.507" cy="103.201" r="0.7"/>
	<circle cx="1219" cy="24.676" r="0.7"/>
	<circle cx="1384.85" cy="225.231" r="0.7"/>
	<circle cx="1364.814" cy="332.201" r="0.7"/>
	<circle cx="1277.722" cy="203.393" r="0.7"/>
	<circle cx="1389.652" cy="74.491" r="0.7"/>
	<circle cx="1285.041" cy="-94.007" r="0.7"/>
	<circle cx="1040.94" cy="-252.753" r="0.7"/>
	<circle cx="1067.396" cy="-195.516" r="0.7"/>
	<circle cx="1399.537" cy="-52.701" r="0.7"/>
	<circle cx="1441.298" cy="3.625" r="0.7"/>
	<circle cx="1477.837" cy="-4.7" r="0.7"/>
	<circle cx="1409.646" cy="-151.657" r="0.7"/>
	<circle cx="1132.671" cy="-256.444" r="0.7"/>
	<circle cx="1013.083" cy="-306.57" r="0.7"/>
	<circle cx="978.18" cy="-302.082" r="0.7"/>
	<circle cx="1100.048" cy="-294.836" r="0.7"/>
	<circle cx="982.528" cy="-336.821" r="0.7"/>
	<circle cx="818.199" cy="-328.84" r="0.7"/>
	<circle cx="680.68" cy="-304.757" r="0.7"/>
	<circle cx="606.019" cy="-283.118" r="0.7"/>
	<circle cx="611.918" cy="-313.553" r="0.7"/>
	<circle cx="628.685" cy="-327.978" r="0.7"/>
	<circle cx="494.057" cy="-236.95" r="0.7"/>
	<circle cx="373.356" cy="-192.518" r="0.7"/>
	<circle cx="307.011" cy="-114.042" r="0.7"/>
	<circle cx="197.265" cy="88.914" r="0.7"/>
	<circle cx="89.124" cy="301.589" r="0.7"/>
	<circle cx="56.035" cy="412.429" r="0.7"/>
	<circle cx="81.859" cy="532.158" r="0.7"/>
	<circle cx="130.567" cy="672.648" r="0.7"/>
	<circle cx="146.775" cy="466.208" r="0.7"/>
	<circle cx="152.914" cy="145.563" r="0.7"/>
	<circle cx="207.449" cy="60.343" r="0.7"/>
	<circle cx="189.227" cy="117.515" r="0.7"/>
	<circle cx="118.833" cy="538.412" r="0.7"/>
	<circle cx="138.306" cy="721.709" r="0.7"/>
	<circle cx="146.978" cy="704.799" r="0.7"/>
	<circle cx="203.216" cy="484.241" r="0.7"/>
	<circle cx="234.86" cy="743.082" r="0.7"/>
	<circle cx="355.331" cy="972.461" r="0.7"/>
	<circle cx="423.644" cy="1028.709" r="0.7"/>
	<circle cx="450.045" cy="1050.863" r="0.7"/>
	<circle cx="250.96" cy="893.965" r="0.7"/>
	<circle cx="245.549" cy="835.387" r="0.7"/>
	<circle cx="224.537" cy="837.561" r="0.7"/>
	<circle cx="286.667" cy="1018.473" r="0.7"/>
	<circle cx="368.604" cy="1131.645" r="0.7"/>
	<circle cx="439.549" cy="1167.846" r="0.7"/>
	<circle cx="391.23" cy="1121.275" r="0.7"/>
	<circle cx="240.583" cy="966.465" r="0.7"/>
	<circle cx="320.966" cy="1061.225" r="0.7"/>
	<circle cx="540.729" cy="1209.996" r="0.7"/>
	<circle cx="650.693" cy="1263.881" r="0.7"/>
	<circle cx="687.285" cy="1286.508" r="0.7"/>
	<circle cx="624.053" cy="1266.783" r="0.7"/>
	<circle cx="575.631" cy="1268.686" r="0.7"/>
	<circle cx="751.152" cy="1389.449" r="0.7"/>
	<circle cx="951.813" cy="1484.082" r="0.7"/>
	<circle cx="880.081" cy="1438.191" r="0.7"/>
	<circle cx="832.999" cy="1376.758" r="0.7"/>
	<circle cx="702.948" cy="1323.041" r="0.7"/>
	<circle cx="662.862" cy="1278.758" r="0.7"/>
	<circle cx="636.722" cy="1175.412" r="0.7"/>
	<circle cx="618.136" cy="1245.621" r="0.7"/>
	<circle cx="899.805" cy="1352.941" r="0.7"/>
	<circle cx="877.639" cy="1302.08" r="0.7"/>
	<circle cx="660.938" cy="1133.039" r="0.7"/>
	<circle cx="610.872" cy="1074.938" r="0.7"/>
	<circle cx="604.019" cy="1063.666" r="0.7"/>
	<circle cx="898.055" cy="1202.705" r="0.7"/>
	<circle cx="668.564" cy="982.252" r="0.7"/>
	<circle cx="556.572" cy="883.998" r="0.7"/>
	<circle cx="684.477" cy="917.959" r="0.7"/>
	<circle cx="882.192" cy="1058.807" r="0.7"/>
	<circle cx="702.561" cy="809.5" r="0.7"/>
	<circle cx="811.331" cy="832.117" r="0.7"/>
	<circle cx="1123.181" cy="761.631" r="0.7"/>
	<circle cx="939.253" cy="737.559" r="0.7"/>
	<circle cx="963.014" cy="737.689" r="0.7"/>
	<circle cx="1407.436" cy="603.957" r="0.7"/>
	<circle cx="1415.391" cy="683.318" r="0.7"/>
	<circle cx="1163.873" cy="1039.492" r="0.7"/>
	<circle cx="976.042" cy="1263.143" r="0.7"/>
	<circle cx="967.476" cy="1278.113" r="0.7"/>
	<circle cx="1219.668" cy="1276.508" r="0.7"/>
	<circle cx="1496.966" cy="1138.246" r="0.7"/>
	<circle cx="1539.377" cy="1065.307" r="0.7"/>
	<circle cx="1242.485" cy="1274.475" r="0.7"/>
	<circle cx="943.438" cy="1321.062" r="0.7"/>
	<circle cx="909.65" cy="1324.199" r="0.7"/>
	<circle cx="1048.13" cy="1338.695" r="0.7"/>
	<circle cx="1458.902" cy="1258.656" r="0.7"/>
	<circle cx="1649.889" cy="1062.391" r="0.7"/>
	<circle cx="1737.029" cy="920.406" r="0.7"/>
	<circle cx="1767.216" cy="806.096" r="0.7"/>
	<circle cx="1777.402" cy="693.363" r="0.7"/>
	<circle cx="1783.068" cy="548.984" r="0.7"/>
	<circle cx="1779.141" cy="343.778" r="0.7"/>
	<circle cx="1709.082" cy="158.846" r="0.7"/>
	<circle cx="1598.076" cy="-58.79" r="0.7"/>
	<circle cx="1554.375" cy="-131.98" r="0.7"/>
	<circle cx="1461.793" cy="-217.988" r="0.7"/>
	<circle cx="1298.689" cy="-310.389" r="0.7"/>
	<circle cx="1158.191" cy="-367.172" r="0.7"/>
	<circle cx="1158.145" cy="-372.745" r="0.7"/>
	<circle cx="1399.266" cy="-300.193" r="0.7"/>
	<circle cx="1717.117" cy="-181.747" r="0.7"/>
	<circle cx="1846.395" cy="-102.736" r="0.7"/>
	<circle cx="1862.438" cy="-78.066" r="0.7"/>
	<circle cx="1672.918" cy="-254.397" r="0.7"/>
	<circle cx="1497.705" cy="-328.845" r="0.7"/>
	<circle cx="1441.744" cy="-349.017" r="0.7"/>
	<circle cx="1529.998" cy="-310.58" r="0.7"/>
	<circle cx="1838.521" cy="-129.042" r="0.7"/>
	<circle cx="1998.298" cy="110.351" r="0.7"/>
	<circle cx="2046.576" cy="281.279" r="0.7"/>
	<circle cx="2036.58" cy="482.269" r="0.7"/>
	<circle cx="1990.682" cy="673.436" r="0.7"/>
	<circle cx="1920.166" cy="876.23" r="0.7"/>
	<circle cx="1830.012" cy="1059.002" r="0.7"/>
	<circle cx="1704.841" cy="1180.051" r="0.7"/>
	<circle cx="1579.451" cy="1281.123" r="0.7"/>
	<circle cx="1378.568" cy="1354.633" r="0.7"/>
	<circle cx="1146.218" cy="1400.834" r="0.7"/>
	<circle cx="971.283" cy="1393.416" r="0.7"/>
	<circle cx="850.598" cy="1393.91" r="0.7"/>
	<circle cx="838.8" cy="1394.158" r="0.7"/>
	<circle cx="1054.169" cy="1444.488" r="0.7"/>
	<circle cx="1045.286" cy="1455.625" r="0.7"/>
	<circle cx="698.774" cy="1401.338" r="0.7"/>
	<circle cx="519.728" cy="1340.746" r="0.7"/>
	<circle cx="345.131" cy="1232.082" r="0.7"/>
	<circle cx="282.414" cy="1045.299" r="0.7"/>
	<circle cx="166.548" cy="781.451" r="0.7"/>
	<circle cx="88.072" cy="558.949" r="0.7"/>
	<circle cx="70.122" cy="299.44" r="0.7"/>
	<circle cx="39.67" cy="299.433" r="0.7"/>
	<circle cx="75.896" cy="679.113" r="0.7"/>
	<circle cx="144.31" cy="861.521" r="0.7"/>
	<circle cx="142.435" cy="918.783" r="0.7"/>
	<circle cx="142.37" cy="901.656" r="0.7"/>
	<circle cx="70.48" cy="389.774" r="0.7"/>
	<circle cx="124.661" cy="217.618" r="0.7"/>
	<circle cx="140.249" cy="106.934" r="0.7"/>
	<circle cx="144.407" cy="52.704" r="0.7"/>
	<circle cx="154.917" cy="12.802" r="0.7"/>
	<circle cx="155.061" cy="-0.785" r="0.7"/>
	<circle cx="133.722" cy="-2.36" r="0.7"/>
	<circle cx="168.842" cy="-90.235" r="0.7"/>
	<circle cx="342.852" cy="-297.571" r="0.7"/>
	<circle cx="429.191" cy="-356.326" r="0.7"/>
	<circle cx="552.18" cy="-377.97" r="0.7"/>
	<circle cx="615.804" cy="-392.526" r="0.7"/>
	<circle cx="793.524" cy="-418.921" r="0.7"/>
	<circle cx="890.29" cy="-507.275" r="0.7"/>
	<circle cx="1039.405" cy="-575.602" r="0.7"/>
	<circle cx="1093.702" cy="-627.572" r="0.7"/>
	<circle cx="905.515" cy="-96.34" r="0.7"/>
	<circle cx="788.882" cy="-67.966" r="0.7"/>
	<circle cx="487.806" cy="-51.223" r="0.7"/>
	<circle cx="489.834" cy="-76.058" r="0.7"/>
	<circle cx="461.401" cy="-214.334" r="0.7"/>
	<circle cx="683.885" cy="-298.276" r="0.7"/>
	<circle cx="944.27" cy="-358.948" r="0.7"/>
	<circle cx="1318.537" cy="-395.736" r="0.7"/>
	<circle cx="1296.062" cy="-393.198" r="0.7"/>
	<circle cx="938.786" cy="-431.188" r="0.7"/>
	<circle cx="713.806" cy="-433.362" r="0.7"/>
	<circle cx="674.999" cy="-416.956" r="0.7"/>
	<circle cx="920.904" cy="-489.242" r="0.7"/>
	<circle cx="1137.927" cy="-469.856" r="0.7"/>
	<circle cx="1206.619" cy="-433.428" r="0.7"/>
	<circle cx="1329.627" cy="-388.881" r="0.7"/>
	<circle cx="1363.334" cy="-368.973" r="0.7"/>
	<circle cx="1156.188" cy="-443.349" r="0.7"/>
	<circle cx="1095.382" cy="-463.528" r="0.7"/>
	<circle cx="1401.339" cy="-338.824" r="0.7"/>
	<circle cx="1563.923" cy="-247.991" r="0.7"/>
	<circle cx="1646.455" cy="-105.591" r="0.7"/>
	<circle cx="1652.619" cy="-76.873" r="0.7"/>
	<circle cx="1678.58" cy="-189.765" r="0.7"/>
	<circle cx="1717.132" cy="-119.21" r="0.7"/>
	<circle cx="1844.089" cy="137.649" r="0.7"/>
	<circle cx="1872.041" cy="208.872" r="0.7"/>
	<circle cx="1844.109" cy="129.24" r="0.7"/>
	<circle cx="1882.184" cy="25.99" r="0.7"/>
	<circle cx="1622.382" cy="13.351" r="0.7"/>
	<circle cx="1660.848" cy="-28.36" r="0.7"/>
	<circle cx="1695.285" cy="-60.691" r="0.7"/>
	<circle cx="1769.068" cy="140.768" r="0.7"/>
	<circle cx="1791.738" cy="132.422" r="0.7"/>
	<circle cx="1803.684" cy="-18.286" r="0.7"/>
	<circle cx="1763.466" cy="21.693" r="0.7"/>
	<circle cx="1755.328" cy="52.266" r="0.7"/>
	<circle cx="1830.591" cy="-134.047" r="0.7"/>
	<circle cx="1841.699" cy="-181.862" r="0.7"/>
	<circle cx="1787.162" cy="-201.96" r="0.7"/>
	<circle cx="1638.33" cy="-233.959" r="0.7"/>
	<circle cx="1609.559" cy="-296.042" r="0.7"/>
	<circle cx="1603.093" cy="-299.278" r="0.7"/>
	<circle cx="1830.951" cy="-96.217" r="0.7"/>
	<circle cx="1960.35" cy="188.709" r="0.7"/>
	<circle cx="2006.486" cy="373.876" r="0.7"/>
	<circle cx="1980.55" cy="534.576" r="0.7"/>
	<circle cx="1892" cy="786.008" r="0.7"/>
	<circle cx="1926.273" cy="675.717" r="0.7"/>
	<circle cx="1976.555" cy="293.384" r="0.7"/>
	<circle cx="1940.117" cy="287.282" r="0.7"/>
	<circle cx="1924.283" cy="500.268" r="0.7"/>
	<circle cx="1885.438" cy="663.434" r="0.7"/>
	<circle cx="1858.027" cy="450.015" r="0.7"/>
	<circle cx="1860.109" cy="293.302" r="0.7"/>
	<circle cx="1823.768" cy="490.728" r="0.7"/>
	<circle cx="1769.271" cy="874.305" r="0.7"/>
	<circle cx="1721.199" cy="1002.383" r="0.7"/>
	<circle cx="1883.688" cy="588.896" r="0.7"/>
	<circle cx="1890.15" cy="389.85" r="0.7"/>
	<circle cx="1873.773" cy="546.596" r="0.7"/>
	<circle cx="1807.773" cy="816.029" r="0.7"/>
	<circle cx="1686.762" cy="1024.596" r="0.7"/>
	<circle cx="1654.389" cy="1073.895" r="0.7"/>
	<circle cx="1901.951" cy="725.863" r="0.7"/>
	<circle cx="1923.992" cy="620.377" r="0.7"/>
	<circle cx="1930.617" cy="633.523" r="0.7"/>
	<circle cx="1853.773" cy="906.305" r="0.7"/>
	<circle cx="1769.535" cy="1075.203" r="0.7"/>
	<circle cx="1650.699" cy="1217.561" r="0.7"/>
	<circle cx="1626.221" cy="1240.684" r="0.7"/>
	<circle cx="1767.527" cy="1042.596" r="0.7"/>
	<circle cx="1861.887" cy="950.754" r="0.7"/>
	<circle cx="1682.6" cy="1127.797" r="0.7"/>
	<circle cx="1535.158" cy="1244.893" r="0.7"/>
	<circle cx="1597.625" cy="1209.846" r="0.7"/>
	<circle cx="1650.548" cy="1210.646" r="0.7"/>
	<circle cx="1457.201" cy="1390.805" r="0.7"/>
	<circle cx="1189.929" cy="1563.477" r="0.7"/>
	<circle cx="1167.686" cy="1655.506" r="0.7"/>
	<circle cx="1437.061" cy="1435.301" r="0.7"/>
	<circle cx="1535.203" cy="1223.85" r="0.7"/>
	<circle cx="1684.979" cy="1087.393" r="0.7"/>
	<circle cx="1606.068" cy="1266.963" r="0.7"/>
	<circle cx="1308.164" cy="1475.258" r="0.7"/>
	<circle cx="1018.926" cy="1469.789" r="0.7"/>
	<circle cx="965.265" cy="1481.816" r="0.7"/>
	<circle cx="1601.904" cy="1359.047" r="0.7"/>
	<circle cx="1783.512" cy="1204.1" r="0.7"/>
	<circle cx="1756.796" cy="1300.455" r="0.7"/>
	<circle cx="1535.509" cy="1427.09" r="0.7"/>
	<circle cx="1336.703" cy="1463.1" r="0.7"/>
	<circle cx="1384.623" cy="1414.996" r="0.7"/>
	<circle cx="1747.307" cy="1175.914" r="0.7"/>
	<circle cx="1769.555" cy="1111.658" r="0.7"/>
	<circle cx="1248.226" cy="1523.305" r="0.7"/>
	<circle cx="982.826" cy="1595.93" r="0.7"/>
	<circle cx="896.115" cy="1601.84" r="0.7"/>
	<circle cx="1067.674" cy="1490.006" r="0.7"/>
	<circle cx="1100.305" cy="1483.527" r="0.7"/>
	<circle cx="638.632" cy="1447.604" r="0.7"/>
	<circle cx="381.396" cy="1304.111" r="0.7"/>
	<circle cx="322.65" cy="1205.637" r="0.7"/>
	<circle cx="576.03" cy="1406.865" r="0.7"/>
	<circle cx="701.05" cy="1449.879" r="0.7"/>
	<circle cx="584.25" cy="1433.588" r="0.7"/>
	<circle cx="144.585" cy="1139.361" r="0.7"/>
	<circle cx="379.245" cy="1375.965" r="0.7"/>
	<circle cx="388.165" cy="1387.104" r="0.7"/>
	<circle cx="53.75" cy="1008.664" r="0.7"/>
	<circle cx="-32.237" cy="863.779" r="0.7"/>
	<circle cx="76.267" cy="1051.236" r="0.7"/>
	<circle cx="289.367" cy="1438.441" r="0.7"/>
	<circle cx="313.252" cy="1392.18" r="0.7"/>
	<circle cx="53.817" cy="903.93" r="0.7"/>
	<circle cx="39.863" cy="761.508" r="0.7"/>
	<circle cx="98.515" cy="1002.875" r="0.7"/>
	<circle cx="92.166" cy="968.256" r="0.7"/>
	<circle cx="-18.798" cy="382.388" r="0.7"/>
	<circle cx="-6.424" cy="143.036" r="0.7"/>
	<circle cx="-46.576" cy="309.481" r="0.7"/>
	<circle cx="-40.374" cy="666.727" r="0.7"/>
	<circle cx="-40.361" cy="705.346" r="0.7"/>
	<circle cx="-6.1" cy="367.579" r="0.7"/>
	<circle cx="83.611" cy="-10.207" r="0.7"/>
	<circle cx="178" cy="-170.637" r="0.7"/>
	<circle cx="190.755" cy="-183.417" r="0.7"/>
	<circle cx="149.928" cy="-100.718" r="0.7"/>
	<circle cx="27.897" cy="179.306" r="0.7"/>
	<circle cx="91.689" cy="48.555" r="0.7"/>
	<circle cx="330.831" cy="-201.071" r="0.7"/>
	<circle cx="463.316" cy="-245.278" r="0.7"/>
	<circle cx="365.106" cy="-227.372" r="0.7"/>
	<circle cx="310.44" cy="-184.669" r="0.7"/>
	<circle cx="441.198" cy="-301.558" r="0.7"/>
	<circle cx="499.972" cy="-344.082" r="0.7"/>
	<circle cx="640.794" cy="-366.188" r="0.7"/>
	<circle cx="687.511" cy="-396.237" r="0.7"/>
	<circle cx="800.076" cy="-434.003" r="0.7"/>
	<circle cx="965.129" cy="-543.678" r="0.7"/>
	<circle cx="894.483" cy="-641.728" r="0.7"/>
	<circle cx="787.738" cy="-655.505" r="0.7"/>
	<circle cx="805.995" cy="-366.005" r="0.7"/>
	<circle cx="810.252" cy="-361.572" r="0.7"/>
	<circle cx="626.511" cy="-405.504" r="0.7"/>
	<circle cx="534.987" cy="-386.75" r="0.7"/>
	<circle cx="481.112" cy="-339.946" r="0.7"/>
	<circle cx="552.057" cy="-399.594" r="0.7"/>
	<circle cx="888.538" cy="-539.967" r="0.7"/>
	<circle cx="857.657" cy="-539.777" r="0.7"/>
	<circle cx="610.498" cy="-521.617" r="0.7"/>
	<circle cx="401.371" cy="-432.78" r="0.7"/>
	<circle cx="286.346" cy="-350.632" r="0.7"/>
	<circle cx="290.88" cy="-339.117" r="0.7"/>
	<circle cx="666.53" cy="-437.798" r="0.7"/>
	<circle cx="685.191" cy="-462.17" r="0.7"/>
	<circle cx="372.99" cy="-364.245" r="0.7"/>
	<circle cx="38.017" cy="-130.532" r="0.7"/>
	<circle cx="-44.529" cy="72.509" r="0.7"/>
	<circle cx="5.788" cy="80.538" r="0.7"/>
	<circle cx="278.507" cy="-140.479" r="0.7"/>
	<circle cx="126.109" cy="155.543" r="0.7"/>
	<circle cx="7.652" cy="458.515" r="0.7"/>
	<circle cx="73.98" cy="626.738" r="0.7"/>
	<circle cx="144.767" cy="398.058" r="0.7"/>
	<circle cx="346.837" cy="-17.359" r="0.7"/>
	<circle cx="365.914" cy="-17.427" r="0.7"/>
	<circle cx="269.302" cy="520.4" r="0.7"/>
	<circle cx="321.461" cy="564.691" r="0.7"/>
	<circle cx="387.323" cy="231.625" r="0.7"/>
	<circle cx="510.002" cy="225.516" r="0.7"/>
	<circle cx="401.466" cy="422.159" r="0.7"/>
	<circle cx="614.313" cy="284.158" r="0.7"/>
	<circle cx="749.113" cy="75.076" r="0.7"/>
	<circle cx="616.639" cy="272.591" r="0.7"/>
	<circle cx="437.406" cy="486.474" r="0.7"/>
	<circle cx="509.611" cy="684.967" r="0.7"/>
	<circle cx="556.088" cy="705.082" r="0.7"/>
	<circle cx="401.513" cy="185.193" r="0.7"/>
	<circle cx="668.111" cy="-109.53" r="0.7"/>
	<circle cx="1013.829" cy="-224.31" r="0.7"/>
	<circle cx="1015.562" cy="-204.935" r="0.7"/>
	<circle cx="679.05" cy="-120.393" r="0.7"/>
	<circle cx="618.37" cy="-37.231" r="0.7"/>
	<circle cx="1016.441" cy="-113.512" r="0.7"/>
	<circle cx="1267.938" cy="-131.909" r="0.7"/>
	<circle cx="930.2" cy="-65.395" r="0.7"/>
	<circle cx="648.412" cy="26.944" r="0.7"/>
	<circle cx="704.888" cy="111.025" r="0.7"/>
	<circle cx="1365.295" cy="64.052" r="0.7"/>
	<circle cx="1421.609" cy="314.752" r="0.7"/>
	<circle cx="1302.386" cy="444.358" r="0.7"/>
	<circle cx="1153.176" cy="419.871" r="0.7"/>
	<circle cx="1330.209" cy="147.086" r="0.7"/>
	<circle cx="1069.331" cy="-1.082" r="0.7"/>
	<circle cx="789.506" cy="193.21" r="0.7"/>
	<circle cx="668.49" cy="458.018" r="0.7"/>
	<circle cx="885.587" cy="747.158" r="0.7"/>
	<circle cx="1264.532" cy="723.67" r="0.7"/>
	<circle cx="1449.918" cy="303.438" r="0.7"/>
	<circle cx="1348.01" cy="70.767" r="0.7"/>
	<circle cx="905.866" cy="1.51" r="0.7"/>
	<circle cx="496.262" cy="463.94" r="0.7"/>
	<circle cx="547.953" cy="811.139" r="0.7"/>
	<circle cx="881.05" cy="910.152" r="0.7"/>
	<circle cx="1333.107" cy="731.596" r="0.7"/>
	<circle cx="1340.3" cy="205.231" r="0.7"/>
	<circle cx="1260.361" cy="6.267" r="0.7"/>
	<circle cx="1233.386" cy="-96.902" r="0.7"/>
	<circle cx="1281.734" cy="-100.392" r="0.7"/>
	<circle cx="1543.568" cy="167.112" r="0.7"/>
	<circle cx="1533.587" cy="428.218" r="0.7"/>
	<circle cx="1499.186" cy="520.498" r="0.7"/>
</g>
<animateTransform attributeType="xml"
	                    attributeName="transform"
	                    type="rotate"
	                    from="0 1000 500"
	                    to="360 1000 500"
	                    dur="160s"
	                    repeatCount="indefinite"/>
</svg>
